<svg xmlns="http://www.w3.org/2000/svg" xmlns:xlink="http://www.w3.org/1999/xlink"><symbol id="arrow-down" viewBox="0 0 12 8">
<path d="M6 7.5L11.1962 0.75H0.803848L6 7.5Z" fill="#010104"/>
</symbol><symbol id="arrow-left-black" viewBox="25.92 23.44 13.5 19.98">
<path d="M38.668 24.1914L26.668 33.4291L38.668 42.6667" stroke="#010104" stroke-width="1.5"/>
</symbol><symbol id="arrow-left-yellow" viewBox="25.92 23.44 13.5 19.98">
<path d="M38.668 24.1914L26.668 33.4291L38.668 42.6667" stroke="#ffdb21" stroke-width="1.5"/>
</symbol><symbol id="arrow-left" viewBox="25.92 23.44 13.5 19.98">
<path d="M38.668 24.1914L26.668 33.4291L38.668 42.6667" stroke="#ffffff" stroke-width="1.5"/>
</symbol><symbol id="arrow-right-black" viewBox="27.25 23.44 13.5 19.98">
<path d="M28 24.1914L40 33.429L28 42.6666" stroke="#010104" stroke-width="1.5"/>
</symbol><symbol id="arrow-right-yellow" viewBox="27.25 23.44 13.5 19.98">
<path d="M28 24.1914L40 33.429L28 42.6666" stroke="#ffdb21" stroke-width="1.5"/>
</symbol><symbol id="arrow-right" viewBox="27.25 23.44 13.5 19.98">
<path d="M28 24.1914L40 33.429L28 42.6666" stroke="#ffffff" stroke-width="1.5"/>
</symbol><symbol id="cart" viewBox="1 3 19 18.5">
<path d="M7 19C6.75277 19 6.5111 19.0733 6.30554 19.2107C6.09998 19.348 5.93976 19.5432 5.84515 19.7716C5.75054 20.0001 5.72579 20.2514 5.77402 20.4939C5.82225 20.7363 5.9413 20.9591 6.11612 21.1339C6.29093 21.3087 6.51366 21.4277 6.75614 21.476C6.99861 21.5242 7.24995 21.4995 7.47835 21.4049C7.70676 21.3102 7.90199 21.15 8.03934 20.9445C8.17669 20.7389 8.25 20.4972 8.25 20.25C8.25 19.9185 8.1183 19.6005 7.88388 19.3661C7.64946 19.1317 7.33152 19 7 19ZM18 19C17.7528 19 17.5111 19.0733 17.3055 19.2107C17.1 19.348 16.9398 19.5432 16.8451 19.7716C16.7505 20.0001 16.7258 20.2514 16.774 20.4939C16.8223 20.7363 16.9413 20.9591 17.1161 21.1339C17.2909 21.3087 17.5137 21.4277 17.7561 21.476C17.9986 21.5242 18.2499 21.4995 18.4784 21.4049C18.7068 21.3102 18.902 21.15 19.0393 20.9445C19.1767 20.7389 19.25 20.4972 19.25 20.25C19.25 19.9185 19.1183 19.6005 18.8839 19.3661C18.6495 19.1317 18.3315 19 18 19ZM18 17.9982V16.4982L7.8711 16.4888L7.4427 14.7668L20.0007 12.3632L20 5H5.0135L4.5161 3H1V4.5H3.3434L6.6982 17.9878L18 17.9982ZM5.3866 6.5H18.5V11.123L7.08 13.309L5.4692 6.832L5.3866 6.5Z" fill="currentColor"/>
</symbol><symbol id="check" viewBox="0 0 25 24">
<path d="M4.33203 11.3636L10.1502 17.1818L20.332 7" stroke="#34A100" stroke-width="1.5"/>
</symbol><symbol id="chevron-right" viewBox="0 0 12 16">
<path d="M1 1.14359L10 8.0718L1 15" stroke="#0033A1" stroke-width="1.5"/>
</symbol><symbol id="close" viewBox="0 0 31 31">
<path d="M1 1.07657L15.5 15.5766M30 30.0766L15.5 15.5766M15.5 15.5766L30 1.07657L1 30.0766" stroke="#C9C9CF" stroke-width="1.5"/>
</symbol><symbol id="cross" viewBox="0 0 25 24">
<path d="M5.66797 5L12.918 12.25M20.168 19.5L12.918 12.25M12.918 12.25L20.168 5L5.66797 19.5" stroke="#C9C9CF" stroke-width="1.5"/>
</symbol><symbol id="doc" viewBox="8 4 32 40">
<path d="M30.8282 4H8V44H40V13.1718L30.8282 4ZM38 42H10V6H30L38 14V42ZM16 28H26V26H16V28ZM16 22H32V20H16V22Z" fill="#0033A1"/>
</symbol><symbol id="facebook" viewBox="6 0 12 24">
<path fill-rule="evenodd" clip-rule="evenodd" d="M13.7891 24V13.0527H17.3269L17.8571 8.78618H13.788V6.06218C13.788 4.82727 14.1196 3.98509 15.8247 3.98509L18 3.984V0.168C17.6236 0.116728 16.332 0 14.8298 0C11.6945 0 9.54655 1.98873 9.54655 5.64V8.78618H6V13.0516H9.54655V24H13.7891Z" fill="currentColor"/>
</symbol><symbol id="mail" viewBox="2 4 20 16">
<path d="M2 4V20H22V4H2ZM20.5 5.5V7.2321L12 12.14L3.5 7.2321V5.5H20.5ZM3.5 18.5V8.9641L12 13.8721L20.5 8.9641V18.5H3.5Z" fill="currentColor"/>
</symbol><symbol id="menu" viewBox="3 6 18 12">
<path fill-rule="evenodd" clip-rule="evenodd" d="M21 7H3V6H21V7ZM21 12.5H3V11.5H21V12.5ZM3 18H21V17H3V18Z" fill="currentColor"/>
</symbol><symbol id="minus-blue" viewBox="0 0 30 3">
<path fill-rule="evenodd" clip-rule="evenodd" d="M30 2.07657H0V0.576569H30V2.07657Z" fill="currentColor"/>
</symbol><symbol id="minus" viewBox="0 0 48 49">
<path fill-rule="evenodd" clip-rule="evenodd" d="M38 25.0766H8V23.5766H38V25.0766Z" fill="#010104"/>
</symbol><symbol id="pin" viewBox="0 0 64 70">
<path fill-rule="evenodd" clip-rule="evenodd" d="M35.5783 63.8022C51.5672 62.0231 64 48.4635 64 32C64 14.3269 49.6731 0 32 0C14.3269 0 0 14.3269 0 32C0 48.4635 12.4328 62.0232 28.4217 63.8022L32 70L35.5783 63.8022Z" fill="#0C42D9"/>
</symbol><symbol id="plus-blue" viewBox="0 0 30 31">
<path fill-rule="evenodd" clip-rule="evenodd" d="M14 16.0766V30.0766H15.5V16.0766H30V14.5766H15.5V0.0765686H14V14.5766H0V16.0766H14Z" fill="currentColor"/>
</symbol><symbol id="plus" viewBox="0 0 48 49">
<path fill-rule="evenodd" clip-rule="evenodd" d="M22 24.0766V38.0766H23.5V24.0766H38V22.5766H23.5V8.07657H22V22.5766H8V24.0766H22Z" fill="#0033A1"/>
</symbol><symbol id="search" viewBox="2 2 20.03 20.03">
<path d="M22.029 20.97L16.1605 15.1016C17.4724 13.5171 18.1237 11.4881 17.9791 9.43608C17.8345 7.38402 16.9051 5.4665 15.3838 4.08168C13.8626 2.69686 11.8664 1.95115 9.80985 1.9994C7.75327 2.04764 5.79428 2.88613 4.33965 4.34075C2.88503 5.79538 2.04654 7.75437 1.9983 9.81095C1.95005 11.8675 2.69576 13.8637 4.08058 15.3849C5.4654 16.9062 7.38292 17.8356 9.43498 17.9802C11.487 18.1248 13.516 17.4735 15.1005 16.1616L20.969 22.03L22.029 20.97ZM3.49896 9.99996C3.49896 8.71438 3.88018 7.45767 4.59441 6.38875C5.30864 5.31983 6.3238 4.48671 7.51152 3.99474C8.69924 3.50277 10.0062 3.37405 11.267 3.62486C12.5279 3.87566 13.6861 4.49472 14.5952 5.40377C15.5042 6.31281 16.1233 7.471 16.3741 8.73187C16.6249 9.99275 16.4961 11.2997 16.0042 12.4874C15.5122 13.6751 14.6791 14.6903 13.6102 15.4045C12.5412 16.1187 11.2845 16.5 9.999 16.5C8.27565 16.498 6.62349 15.8126 5.40493 14.594C4.18637 13.3754 3.50092 11.7233 3.49896 9.99996Z" fill="currentColor"/>
</symbol><symbol id="twitter" viewBox="0.94 2.75 22.71 18.45">
<path d="M23.6435 4.93695C22.8085 5.30695 21.9115 5.55695 20.9685 5.66995C21.9305 5.09395 22.6685 4.17995 23.0165 3.09195C22.1165 3.62595 21.1195 4.01395 20.0585 4.22195C19.2085 3.31795 17.9985 2.75195 16.6585 2.75195C14.0865 2.75195 12.0005 4.83795 12.0005 7.41195C12.0005 7.77595 12.0425 8.12995 12.1205 8.47195C8.2475 8.27695 4.8165 6.42195 2.5185 3.60395C2.1185 4.29395 1.8885 5.09395 1.8885 5.94595C1.8885 7.56195 2.7115 8.98895 3.9605 9.82395C3.1965 9.79895 2.4785 9.58995 1.8505 9.24095V9.30095C1.8505 11.558 3.4555 13.441 5.5875 13.869C5.1955 13.975 4.7845 14.031 4.3605 14.031C4.0605 14.031 3.7675 14.003 3.4835 13.949C4.0765 15.799 5.7965 17.147 7.8355 17.183C6.2405 18.433 4.2315 19.178 2.0495 19.178C1.6735 19.178 1.3025 19.156 0.9375 19.113C2.9995 20.436 5.4475 21.206 8.0775 21.206C16.6475 21.206 21.3325 14.108 21.3325 7.95195C21.3325 7.75195 21.3275 7.54995 21.3185 7.34995C22.2285 6.69195 23.0185 5.87295 23.6415 4.93995L23.6435 4.93695Z" fill="currentColor"/>
</symbol><symbol id="vk" viewBox="0 5 23.69 14">
<path fill-rule="evenodd" clip-rule="evenodd" d="M19.6818 11.8643C19.6818 11.8643 22.8028 7.41985 23.114 5.95954C23.2174 5.43831 22.9891 5.14646 22.4517 5.14646H19.7432C19.1229 5.14646 18.8957 5.41677 18.7094 5.81415C18.7094 5.81415 17.2448 8.962 15.4646 10.9468C14.8917 11.5875 14.6009 11.7814 14.2854 11.7814C14.0312 11.7814 13.9138 11.566 13.9138 10.9877V5.91754C13.9138 5.20892 13.8309 5 13.2515 5H8.91154C8.57985 5 8.37308 5.19385 8.37308 5.45877C8.37308 6.12646 9.38539 6.27723 9.38539 8.08754V11.8223C9.38539 12.574 9.34446 12.8658 8.99339 12.8658C8.06292 12.8658 5.85092 9.63185 4.61031 5.95954C4.36262 5.20892 4.09338 5 3.39015 5H0.682769C0.289692 5 0 5.27138 0 5.66769C0 6.39785 0.847539 9.77831 4.17631 14.3046C6.40877 17.3523 9.34554 19 11.9905 19C13.6037 19 13.9968 18.7286 13.9968 18.0405V15.7035C13.9968 15.1188 14.2229 14.8689 14.5546 14.8689C14.9262 14.8689 15.5831 14.9895 17.1177 16.5166C18.9377 18.2709 19.0615 19 20.0534 19H23.0925C23.4026 19 23.6923 18.8535 23.6923 18.3323C23.6923 17.6431 22.8028 16.4132 21.4383 14.9518C20.8805 14.2012 19.9715 13.3871 19.6818 13.0123C19.2683 12.574 19.3922 12.3231 19.6818 11.8643Z" fill="currentColor"/>
</symbol></svg>