<svg width="305" height="167" viewBox="0 0 305 167" fill="none" xmlns="http://www.w3.org/2000/svg">
<g clip-path="url(#clip0_138:12855)">
<path d="M112.262 165.724H47.1109C21.5356 165.724 0.726562 144.915 0.726562 119.339C0.726562 93.764 21.5356 72.955 47.1109 72.955C47.4233 72.955 47.743 72.955 48.0554 72.9623C51.819 47.8956 73.5072 28.6051 99.6056 28.6051C104.35 28.6051 109.015 29.2445 113.505 30.4796C125.239 12.2137 145.598 0.726562 168.063 0.726562C200.512 0.726562 227.475 24.6671 232.219 55.8007C258.47 60.1092 278.553 82.9453 278.553 110.395C278.553 118.533 276.787 126.264 273.619 133.231" stroke="#0C42D9" stroke-width="2" stroke-miterlimit="10" stroke-linecap="round" stroke-linejoin="round"/>
<path d="M112.059 101.582H131.996V165.629" stroke="#0C42D9" stroke-width="2" stroke-miterlimit="10" stroke-linecap="round" stroke-linejoin="round"/>
<path d="M126.824 84.0281H150.489V165.76" stroke="#0C42D9" stroke-width="2" stroke-miterlimit="10" stroke-linecap="round" stroke-linejoin="round"/>
<path d="M232.174 124.302C232.174 112.459 222.569 102.853 210.726 102.853C198.883 102.853 189.277 112.459 189.277 124.302C189.277 136.145 198.883 145.75 210.726 145.75H304.272" stroke="#0C42D9" stroke-width="2" stroke-miterlimit="10" stroke-linecap="round" stroke-linejoin="round"/>
<path d="M252.157 124.302C252.157 101.422 233.608 82.8799 210.735 82.8799C187.863 82.8799 169.313 101.429 169.313 124.302C169.313 147.174 187.863 165.724 210.735 165.724H304.281" stroke="#0C42D9" stroke-width="2" stroke-miterlimit="10" stroke-linecap="round" stroke-linejoin="round"/>
</g>
<defs>
<clipPath id="clip0_138:12855">
<rect width="305" height="166.486" fill="white"/>
</clipPath>
</defs>
</svg>
