<svg xmlns="http://www.w3.org/2000/svg" fill="none" viewBox="9.17 24.91 83.3 46.38">
<path d="M91.7178 66.6672H55.9056L53.8878 70.5381C52.3285 70.2687 52.6123 70.3178 51.053 70.0483L50.8234 64.6783C49.6742 64.192 49.5175 64.1256 48.3683 63.6392L44.3711 67.2325C43.0879 66.3069 43.3212 66.4752 42.0376 65.5496L44.1851 60.6224C43.3607 59.6856 43.2483 59.5578 42.424 58.6208L37.2637 60.1241C36.5089 58.7333 36.6459 58.9861 35.8911 57.5953L39.9641 54.0879C39.6279 52.8862 39.5818 52.7221 39.2456 51.5204L33.944 50.6358C33.8674 49.0552 33.8813 49.3425 33.8048 47.762L38.9962 46.3689C39.2145 45.1403 39.2445 44.9727 39.4628 43.7441L35.0701 40.6467C35.6868 39.1895 35.5747 39.4545 36.1914 37.9971L41.4733 38.9945C42.2031 37.9823 42.3027 37.8442 43.0326 36.832L40.4189 32.1356C41.6066 31.0902 41.3909 31.2803 42.5789 30.2349L46.9045 33.425C48.0013 32.8299 48.1511 32.7486 49.2479 32.1535L48.9304 26.788C50.4546 26.3615 50.1774 26.4392 51.7012 26.0127L54.2145 30.7637C55.4611 30.7035 55.631 30.6953 56.8776 30.6348L58.9196 25.663C60.4778 25.94 60.1943 25.8896 61.7522 26.1667L61.9554 31.5377C63.1046 32.0242 63.2614 32.0905 64.4105 32.577L68.4077 28.9836C69.6913 29.9092 69.4576 29.7409 70.7412 30.6665L68.5938 35.5937C69.4181 36.5306 69.5305 36.6584 70.3549 37.5952L75.5151 36.0921C76.2699 37.4828 76.1329 37.2299 76.8877 38.6208L72.8151 42.1284C73.1512 43.3301 73.197 43.494 73.5332 44.6957L78.8348 45.5804C78.9114 47.161 78.8975 46.8735 78.974 48.4541M17.9186 68.8354V37.0435H9.92163M26.8853 68.8361V28.1254H15.09" stroke="#0033A1" stroke-width="1.5" stroke-miterlimit="10" stroke-linecap="round" stroke-linejoin="round"/>
<path d="M66.4536 48.2014C66.4536 42.9448 62.177 38.6682 56.9204 38.6682C51.6645 38.6682 47.3879 42.9448 47.3879 48.2014C47.3879 53.4573 51.6645 57.7339 56.9204 57.7339H91.717" stroke="#0033A1" stroke-miterlimit="10" stroke-linecap="round" stroke-linejoin="round"/>
</svg>