<svg width="450" height="246" viewBox="0 0 450 246" fill="none" xmlns="http://www.w3.org/2000/svg">
<g clip-path="url(#clip0_29:3761)">
<path d="M165.633 245.582H69.5078C31.1842 245.582 0 214.398 0 176.074C0 137.751 31.1842 106.567 69.5078 106.567C69.6686 106.567 69.8294 106.567 69.9795 106.567C72.8953 88.6643 82.0608 72.2414 95.8681 60.2458C110.051 47.918 128.199 41.1323 146.959 41.1323C153.756 41.1323 160.488 42.0113 166.995 43.7372C184.908 16.3371 215.116 0 247.962 0C271.224 0 293.725 8.4044 311.317 23.6588C328.544 38.5916 339.971 59.0774 343.562 81.3962C362.376 84.6658 379.602 94.4852 392.145 109.096C404.987 124.072 412.062 143.164 412.062 162.867C412.062 174.756 409.575 186.248 404.687 197C404.44 197.536 403.808 197.771 403.272 197.536C402.736 197.289 402.5 196.657 402.736 196.121C407.506 185.637 409.918 174.456 409.918 162.867C409.918 143.679 403.025 125.069 390.515 110.49C378.134 96.061 361.068 86.4346 342.447 83.3794C341.986 83.3043 341.633 82.9399 341.557 82.4789C338.181 60.353 326.946 40.0388 309.912 25.2668C292.707 10.3661 270.71 2.14398 247.962 2.14398C215.577 2.14398 185.829 18.3739 168.367 45.5596C168.109 45.9562 167.638 46.1384 167.177 46.0098C160.616 44.1981 153.82 43.2762 146.948 43.2762C109.718 43.2762 77.4727 71.0193 71.952 107.81C71.8769 108.335 71.4267 108.721 70.8907 108.721C70.88 108.721 70.88 108.721 70.8693 108.721C70.4083 108.711 69.9581 108.711 69.4971 108.711C32.3634 108.711 2.14398 138.93 2.14398 176.074C2.14398 213.219 32.3634 243.438 69.5078 243.438H165.633C166.223 243.438 166.705 243.921 166.705 244.51C166.705 245.1 166.223 245.582 165.633 245.582Z" fill="white"/>
<path d="M194.749 245.443C194.16 245.443 193.677 244.96 193.677 244.371V150.947H165.334C164.744 150.947 164.262 150.465 164.262 149.875C164.262 149.285 164.744 148.803 165.334 148.803H194.749C195.339 148.803 195.821 149.285 195.821 149.875V244.371C195.821 244.96 195.339 245.443 194.749 245.443Z" fill="white"/>
<path d="M222.031 245.636C221.441 245.636 220.959 245.153 220.959 244.564V125.048H187.127C186.537 125.048 186.055 124.565 186.055 123.976C186.055 123.386 186.537 122.904 187.127 122.904H222.031C222.62 122.904 223.103 123.386 223.103 123.976V244.564C223.103 245.153 222.62 245.636 222.031 245.636Z" fill="white"/>
<path d="M448.927 216.102H310.909C292.867 216.102 278.191 201.427 278.191 183.385C278.191 165.344 292.867 150.668 310.909 150.668C328.95 150.668 343.626 165.344 343.626 183.385C343.626 183.975 343.143 184.457 342.554 184.457C341.964 184.457 341.482 183.975 341.482 183.385C341.482 166.534 327.771 152.812 310.909 152.812C294.046 152.812 280.335 166.523 280.335 183.385C280.335 200.248 294.046 213.958 310.909 213.958H448.927C449.517 213.958 449.999 214.441 449.999 215.03C449.999 215.62 449.517 216.102 448.927 216.102Z" fill="white"/>
<path d="M448.928 245.582H310.909C276.616 245.582 248.723 217.689 248.723 183.396C248.723 149.103 276.616 121.21 310.909 121.21C345.202 121.21 373.095 149.103 373.095 183.396C373.095 183.986 372.613 184.468 372.023 184.468C371.433 184.468 370.951 183.986 370.951 183.396C370.951 150.282 344.012 123.354 310.909 123.354C277.795 123.354 250.867 150.293 250.867 183.396C250.867 216.499 277.806 243.438 310.909 243.438H448.928C449.517 243.438 450 243.921 450 244.51C450 245.1 449.517 245.582 448.928 245.582Z" fill="white"/>
</g>
<defs>
<clipPath id="clip0_29:3761">
<rect width="450" height="245.636" fill="white"/>
</clipPath>
</defs>
</svg>
