<svg width="298" height="156" viewBox="0 0 298 156" fill="none" xmlns="http://www.w3.org/2000/svg">
<path d="M29.3 136.42V154.8H107.06L133.52 128.34M133.52 128.34V1H29.3V53.1M133.52 128.34H107.06V150.3M100.32 102.04V31.2H78.28M94.6 11.8H120.76V102.18M296.82 80.06H193.36C180.26 80.06 169.64 69.44 169.64 56.34C169.64 43.24 180.26 32.62 193.36 32.62C206.46 32.62 217.08 43.24 217.08 56.34M296.82 102.14H193.36C168.06 102.14 147.54 81.62 147.54 56.32C147.54 31.02 168.06 10.5 193.36 10.5C218.66 10.5 239.18 31.02 239.18 56.32M65.38 118.7C63.04 118.7 60.88 117.9 59.18 116.56C58.1 115.7 56.54 116.44 56.54 117.8V136.42H1V124.26C1 122.84 2.26 121.72 3.66 121.96C4.38 122.08 5.10003 122.16 5.84003 122.16C12.9 122.26 18.96 116.74 19.5 109.7C20.1 101.76 13.84 95.12 6.02002 95.12C5.24002 95.12 4.50001 95.18 3.76001 95.3C2.32001 95.54 1 94.48 1 93.02V80.86H19.62C21 80.86 21.72 79.28 20.86 78.22C19.52 76.5 18.72 74.36 18.72 72.02C18.72 66.08 23.86 61.34 29.94 62.04C34.5 62.54 38.2 66.2 38.76 70.76C39.1 73.6 38.28 76.24 36.68 78.26C35.84 79.32 36.58 80.9 37.94 80.9H56.56V99.52C56.56 100.88 58.12 101.62 59.2 100.78C61.22 99.18 63.86 98.34 66.7 98.7C71.26 99.26 74.9 102.96 75.42 107.52C76.06 113.56 71.32 118.7 65.38 118.7Z" stroke="#0C42D9" stroke-width="2" stroke-miterlimit="10" stroke-linecap="round" stroke-linejoin="round"/>
</svg>
