<svg xmlns="http://www.w3.org/2000/svg" fill="none" viewBox="25.05 12.32 58.95 67.63">
<path d="M66.447 67.2865V79.2056H25.8047V20.7458H66.447V40.3597M31.2068 28.5172H61.0444M31.2068 34.6926H61.0444M31.2068 40.8677H47.1143M43.3824 47.0427H31.2068M31.2068 53.2178H42.9161M44.6265 59.3932H31.2068M55.264 16.9076H49.9651C49.9651 14.7894 48.2479 13.0723 46.1296 13.0723C44.0114 13.0723 42.2943 14.7894 42.2943 16.9076H36.9952M83.2535 75.7137L69.3554 61.8157M51.8137 51.0117L57.111 56.0186L66.3259 46.2433M59.7349 38.5898C52.2209 38.5898 46.1296 44.681 46.1296 52.1953C46.1296 59.7092 52.2209 65.8004 59.7349 65.8004C67.249 65.8004 73.3403 59.7092 73.3403 52.1953C73.3403 44.681 67.249 38.5898 59.7349 38.5898Z" stroke="#0033A1" stroke-width="1.5" stroke-miterlimit="10" stroke-linecap="round" stroke-linejoin="round"/>
</svg>