<svg width="225" height="186" viewBox="0 0 225 186" fill="none" xmlns="http://www.w3.org/2000/svg">
<g clip-path="url(#clip0_138:12861)">
<path d="M1 50.1399H32.3L58.91 151.88H146.87" stroke="#0C42D9" stroke-width="2" stroke-miterlimit="10" stroke-linecap="round" stroke-linejoin="round"/>
<path d="M36.7695 67.23H134.77" stroke="#0C42D9" stroke-width="2" stroke-miterlimit="10" stroke-linecap="round" stroke-linejoin="round"/>
<path d="M159.222 91.8101L152.992 129.31H53.0117" stroke="#0C42D9" stroke-width="2" stroke-miterlimit="10" stroke-linecap="round" stroke-linejoin="round"/>
<path d="M61.7784 184.36C68.4776 184.36 73.9084 178.929 73.9084 172.23C73.9084 165.531 68.4776 160.1 61.7784 160.1C55.0792 160.1 49.6484 165.531 49.6484 172.23C49.6484 178.929 55.0792 184.36 61.7784 184.36Z" stroke="#0C42D9" stroke-width="2" stroke-miterlimit="10" stroke-linecap="round" stroke-linejoin="round"/>
<path d="M141.302 184.36C148.001 184.36 153.432 178.929 153.432 172.23C153.432 165.531 148.001 160.1 141.302 160.1C134.603 160.1 129.172 165.531 129.172 172.23C129.172 178.929 134.603 184.36 141.302 184.36Z" stroke="#0C42D9" stroke-width="2" stroke-miterlimit="10" stroke-linecap="round" stroke-linejoin="round"/>
<path d="M182.59 83.58C205.394 83.58 223.88 65.0938 223.88 42.29C223.88 19.4862 205.394 1 182.59 1C159.786 1 141.3 19.4862 141.3 42.29C141.3 65.0938 159.786 83.58 182.59 83.58Z" stroke="#0C42D9" stroke-width="2" stroke-miterlimit="10" stroke-linecap="round" stroke-linejoin="round"/>
<path d="M208.311 17.3401L182.711 42.2901L165.691 25.2701" stroke="#0C42D9" stroke-width="2" stroke-miterlimit="10" stroke-linecap="round" stroke-linejoin="round"/>
</g>
<defs>
<clipPath id="clip0_138:12861">
<rect width="224.88" height="185.36" fill="white"/>
</clipPath>
</defs>
</svg>
