<svg width="201" height="247" viewBox="0 0 201 247" fill="none" xmlns="http://www.w3.org/2000/svg">
<path d="M57.8802 123.98C59.3202 121.72 58.7002 118.82 57.7002 116.82C55.4802 112.4 51.3003 111.54 47.5403 113.42C42.5203 115.94 42.4603 120.38 44.1003 123.66C45.6003 126.66 48.3203 128.08 50.9003 127.88M71.0802 133.88L62.7002 125.78L52.6202 136.2L61.1402 144.44M64.4402 137.24L57.8202 130.82M93.5202 142.54L91.7402 156.92M87.0202 141.74L100.02 143.34M105.42 157.2L104.02 142.76M120.1 145.7L111.88 148.42M120.1 138.56L109.44 142.1L114 155.86M124.12 136.02L131.64 148.42M136.66 125.14L128.36 133.32L138.54 143.66L147 135.34M140.2 131.58L133.62 138.04M114.96 178.18L144.02 245.52L163.02 213.84L199.1 221.74L170.5 155.5M29.4603 155.8L1.00024 221.74L37.0803 213.84L56.0803 245.52L85.3202 177.78M186.54 83.8L179.82 92.44L189.92 105.46L176.58 115.08L182.64 130.44L167.16 135.88L168.68 152.32L152.3 153.16L149.14 169.38L133.18 165.54L125.62 180.2L111.4 171.98L100.04 183.9L88.6802 171.98L74.4402 180.2L66.8802 165.54L50.9203 169.4L47.7803 153.18L31.4003 152.34L32.9203 135.9L17.4402 130.46L23.5002 115.1L10.1603 105.48L20.2603 92.4599L10.1603 79.44L23.5002 69.8199L17.4402 54.46L32.9203 49.0199L31.4003 32.58L47.7803 31.74L50.9402 15.52L66.9003 19.36L74.4603 4.69995L88.6802 12.92L100.04 1L111.4 12.92L125.64 4.69995L133.2 19.36L149.16 15.5L152.3 31.72L168.68 32.56L167.16 49L182.64 54.44L176.58 69.8L189.92 79.42L186.54 83.8ZM57.7402 103.88V53.5H42.2203V103.88H54.2203H57.7402ZM74.9003 86.9599H62.5403C62.5403 99.5399 73.3003 105.1 84.7803 105.1C97.1203 105.1 108 100.08 108 87.74C108 69.24 79.2002 74.28 79.2002 66.84C79.2002 64.58 81.5203 63.4599 84.7803 63.4599C92.1203 63.4599 91.1002 68.5599 91.2002 68.7599H105.88C105.52 57.9599 97.7003 52.3199 84.9203 52.3199C73.1403 52.3199 64.5203 58.38 64.5203 68.98C64.5203 85.9 92.4602 82.06 92.4602 89.38C92.4602 92.28 90.0003 93.9599 86.0403 93.9599C80.8203 93.9599 78.2002 92.12 78.0602 86.98L74.9003 86.9599ZM154.34 58.66C149.72 54.42 143.64 52.3 136.84 52.3C129.64 52.3 123.08 54.7599 118.36 59.6399C113.56 64.5799 111.3 71.4199 111.3 78.6999C111.3 86.1799 113.62 92.8199 118.42 97.7599C123.22 102.7 129.36 105.1 136.84 105.1C144.4 105.1 150.6 102.62 155.34 97.68C160.06 92.74 162.4 86.3799 162.4 78.6999C162.4 72.4999 160.72 66.5 157.22 61.84L154.34 58.66ZM136.86 92.5199C131 92.5199 126.84 87.72 126.84 78.68C126.84 69.44 131.22 64.84 136.8 64.84C142.52 64.84 146.9 69.42 146.9 78.68C146.9 84.8 145.02 88.98 141.96 91.04L136.86 92.5199ZM79.6603 154.6C77.8803 151.54 80.8002 147.22 77.8802 145.96L79.6603 154.6ZM70.6603 142.54L79.1202 146.54C80.9002 147.38 83.0402 146.62 83.8802 144.84C84.6802 143.16 84.5803 140.9 81.9603 139.66L73.8403 135.82L67.6402 148.92L70.6603 142.54ZM154.96 122.28C156.94 118.3 154.66 115.2 151.04 113.4C147.28 111.54 143.84 112.06 141.92 115.96L138.66 122.54L151.66 128.98L154.96 122.28Z" stroke="#0C42D9" stroke-width="2" stroke-miterlimit="10" stroke-linecap="round" stroke-linejoin="round"/>
</svg>
