<svg width="149" height="58" viewBox="0 0 149 58" fill="none" xmlns="http://www.w3.org/2000/svg">
<g clip-path="url(#clip0_202:7398)">
<path d="M108.432 22.2215V26.2689H32.6587C27.8044 26.2689 23.8617 22.3319 23.8617 17.4847C23.8617 12.6307 27.8044 8.6937 32.6587 8.6937C37.5198 8.6937 41.4625 12.6307 41.4625 17.4847H37.4024C37.4024 14.8715 35.2826 12.7479 32.6587 12.7479C30.0417 12.7479 27.9218 14.8715 27.9218 17.4847C27.9218 20.0979 30.0417 22.2215 32.6587 22.2215H63.2379V24.159H69.3044V22.2215H108.432ZM108.435 32.7945V28.4798H32.6617C26.5825 28.4798 21.6485 23.5531 21.6485 17.4827C21.6485 11.4123 26.5825 6.48553 32.6617 6.48553C38.7412 6.48553 43.6752 11.4123 43.6752 17.4827H47.9962C47.9962 9.03053 41.126 2.17086 32.6618 2.17086C24.1975 2.17086 17.3276 9.03053 17.3276 17.4827C17.3276 25.9349 24.1974 32.7945 32.6618 32.7945H108.435ZM7.91134 33.3648V7.78703H-0.554688V12.1222H3.8954V33.3648H7.91134ZM3.8954 6.05293H9.7565V33.3648H13.881V1.50098H3.8954V6.05293ZM6.56845 44.4407V40.6655L9.11812 44.4407H12.1956L8.76627 39.9131L12.1076 35.661H9.21842L6.56845 39.3484V35.661H4.10633V44.4407H6.56845ZM22.712 40.0581C22.712 39.1097 22.234 35.401 17.9803 35.401C13.7464 35.401 13.2598 39.104 13.2598 40.0458C13.2598 40.9911 13.7373 44.7009 17.9905 44.7009C22.2184 44.7009 22.712 41.0077 22.712 40.0581ZM15.8004 40.0511C15.8004 37.8376 17.4316 37.5174 17.9859 37.5174C18.5458 37.5174 20.1714 37.8419 20.1714 40.0511C20.1714 42.2634 18.5415 42.5843 17.9859 42.5843C17.4298 42.5843 15.8004 42.264 15.8004 40.0511ZM26.4015 44.4407L27.0546 39.3484L28.5368 44.4407H30.1193L31.6015 39.3484L32.2547 44.4407H34.6161L33.3349 35.661H30.8728L29.3281 41.0168L27.783 35.661H25.3213L24.0401 44.4407H26.4015ZM36.3367 44.4407H38.7988V37.7682H41.7127V44.4407H44.1744V35.661H36.3367V44.4407ZM51.7864 44.4407V42.3335H48.9729V40.929H51.5226V38.9975H48.9729V37.7682H51.7864V35.661H46.5108V44.4407H51.7864ZM57.5513 44.4407V37.7682H59.4856V35.661H53.1552V37.7682H55.0896V44.4407H57.5513ZM66.394 44.4407V42.3335H63.5804V40.929H66.1301V38.9975H63.5804V37.7682H66.394V35.661H61.1183V44.4407H66.394ZM70.9285 44.4407V40.929H73.9176V44.4407H76.3797V35.661H73.9176V38.8218H70.9285V35.661H68.4664V44.4407H70.9285ZM85.4859 44.4407V46.1966H87.5962V42.3335H86.541V35.661H84.0789V42.3335H81.1778V35.661H78.7157V44.4407H85.4859ZM89.2288 44.4407H91.6404L95.0446 39.1731V44.4407H97.4184V35.661H95.0068L91.603 40.929V35.661H89.2288V44.4407ZM99.7543 44.4407H102.166L105.57 39.1731V44.4407H107.944V35.661H105.532L102.128 40.929V35.661H99.7543V44.4407ZM4.51367 55.3112H6.43734V50.0978H8.71408V55.3112H10.6377V48.4515H4.51368V55.3112H4.51367ZM19.9345 51.8853C19.9345 51.1483 19.5621 48.2483 16.2373 48.2483C12.9277 48.2483 12.5487 51.1443 12.5487 51.8759C12.5487 52.613 12.9195 55.5143 16.247 55.5143C19.5533 55.5143 19.9345 52.6205 19.9345 51.8853ZM14.534 51.8811C14.534 50.1549 15.8047 49.9016 16.2414 49.9016C16.6757 49.9016 17.9493 50.1529 17.9493 51.8811C17.9493 53.6106 16.6751 53.8607 16.2414 53.8607C15.8079 53.8607 14.534 53.6108 14.534 51.8811ZM29.9619 53.1911C29.9619 51.191 28.0377 51.1261 27.0528 51.1261C26.8576 51.1261 26.6014 51.1268 26.2519 51.1268V50.0978H29.4021V48.4515H24.3282V55.3112C25.5232 55.3112 26.2694 55.3132 26.7559 55.3132C27.838 55.3132 29.9619 55.3424 29.9619 53.1911ZM26.2519 52.4989C26.4667 52.4989 26.6497 52.4973 26.8076 52.4973C27.37 52.4973 28.0378 52.469 28.0378 53.2138C28.0378 53.8684 27.5247 53.9469 26.884 53.9469C26.6819 53.9469 26.4672 53.9391 26.2519 53.9391V52.4989ZM33.9556 48.4515H32.0319V55.3112H33.9556V52.5867H34.6917C34.8576 54.423 36.4988 55.5074 38.3229 55.5074C40.7327 55.5074 42.0151 53.8252 42.0151 51.8898C42.0151 50.1013 40.8642 48.2493 38.2901 48.2493C36.6107 48.2493 34.9855 49.1218 34.7016 51.0775H33.9556V48.4515H33.9556ZM36.615 51.8811C36.615 50.152 37.8902 49.9016 38.3229 49.9016C38.7565 49.9016 40.0303 50.152 40.0303 51.8811C40.0303 53.6109 38.7568 53.8607 38.3229 53.8607C37.8885 53.8607 36.615 53.6103 36.615 51.8811ZM43.5048 53.6649V56.6833H45.1535V55.3112H49.1184V56.6833H50.7671V53.6649H49.9429V48.4515H44.8789C44.8789 49.5548 44.8799 50.3409 44.8799 50.8954C44.8799 51.6103 45.0746 53.6055 43.5048 53.6649ZM48.0193 50.0978V53.6649H45.9193C46.6091 53.2446 46.6488 52.5755 46.6488 51.2687C46.6488 50.936 46.6452 50.5513 46.6452 50.0978H48.0193ZM58.0881 55.3112V52.2928L59.9431 55.3112H62.3082L59.8058 51.8126L62.1023 48.4515H59.9135L58.0881 51.4305V48.4515H56.1648V51.4305L54.3394 48.4515H52.1506L54.4471 51.8126L51.9447 55.3112H54.3098L56.1648 52.2928V55.3112H58.0881ZM68.1573 55.3112V53.6649H65.9591V52.5674H67.9514V51.0582H65.9591V50.0978H68.1573V48.4515H64.0354V55.3112H68.1573ZM73.2509 55.3112V50.0978H74.7623V48.4515H69.8158V50.0978H71.3272V55.3112H73.2509ZM78.5504 55.3112V52.5674H80.886V55.3112H82.8096V48.4515H80.886V50.9207H78.5504V48.4515H76.6268V55.3112H78.5504ZM92.3025 51.8853C92.3025 51.1483 91.9301 48.2483 88.6052 48.2483C85.2956 48.2483 84.9166 51.1443 84.9166 51.8759C84.9166 52.613 85.2874 55.5143 88.615 55.5143C91.9212 55.5143 92.3025 52.6205 92.3025 51.8853ZM86.9019 51.8811C86.9019 50.1549 88.1726 49.9016 88.6094 49.9016C89.0437 49.9016 90.3172 50.1529 90.3172 51.8811C90.3172 53.6106 89.043 53.8607 88.6094 53.8607C88.1759 53.8607 86.9019 53.6108 86.9019 51.8811ZM95.7738 55.3112L96.2843 51.3324L97.4422 55.3112H98.6786L99.8369 51.3324L100.347 55.3112H102.192L101.191 48.4515H99.2676L98.0604 52.6359L96.8532 48.4515H94.9299L93.9286 55.3112H95.7738ZM106.088 53.4199L105.156 55.3112H107.217L110.308 48.4515H108.218L107.118 51.3324L105.774 48.4515H103.507L106.088 53.4199ZM117.462 53.4199L116.53 55.3112H118.591L121.682 48.4515H119.592L118.493 51.3324L117.148 48.4515H114.881L117.462 53.4199ZM128.837 55.3112V48.4515H126.913V51.1268C126.481 51.1723 126.239 51.1953 126.187 51.1953C124.934 51.1953 125.126 50.4181 125.126 49.8557C125.126 49.5444 125.127 49.0995 125.127 48.4515H123.204C123.204 49.1613 123.201 49.6853 123.201 50.0835C123.201 51.1702 123.009 52.734 125.636 52.734C126.077 52.734 126.524 52.6899 126.913 52.6359V55.3112H128.837ZM135.373 55.3112V53.6649H133.175V52.5674H135.167V51.0582H133.175V50.0978H135.373V48.4515H131.251V55.3112H135.373ZM140.466 55.3112V50.0978H141.978V48.4515H137.031V50.0978H138.543V55.3112H140.466ZM145.805 53.4199L144.873 55.3112H146.934L150.025 48.4515H147.935L146.836 51.3324L145.491 48.4515H143.224L145.805 53.4199ZM76.8516 19.1868V16.4184H73.1547V14.5726H76.5051V12.0349H73.1547V10.4198H76.8516V7.65138H69.9198V19.1868H76.8516ZM81.819 19.1868V14.5726H85.7469V19.1868H88.9814V7.65138H85.7469V11.8042H81.819V7.65138H78.5841V19.1868H81.819ZM95.9127 19.1868V10.4198H98.4542V7.65138H90.1364V10.4198H92.6778V19.1868H95.9127ZM102.844 19.1868V15.38C103.287 15.38 103.684 15.3869 104.049 15.3869C104.12 15.3869 108.692 15.7608 108.692 11.4842C108.692 9.3494 107.221 7.65138 104.478 7.65138H99.6092V19.1868H102.844ZM103.768 10.1891C104.824 10.1891 105.353 10.6287 105.353 11.5075C105.353 12.3973 104.824 12.8422 103.768 12.8422H102.844V10.1891H103.768ZM64.3638 19.1868V22.4687H68.3082V15.2482H66.336V2.7766H61.7344V15.2482H56.3112V2.7766H51.7096V19.1868H64.3638ZM149.451 7.65138H113.051V44.4407H149.451V7.65138Z" fill="#C9C9CF"/>
<path d="M134.385 34.3599V39.4454C134.385 39.7816 134.116 40.0506 133.779 40.0506H117.457C117.12 40.0506 116.85 39.7816 116.85 39.4454V34.3599M131.835 34.3599C132.561 34.3599 133.935 34.3599 135.185 34.3599V27.6437C135.185 27.2402 134.857 26.9208 134.461 26.9208H116.775C116.379 26.9208 116.051 27.2402 116.051 27.6437V34.3599C117.308 34.3599 118.677 34.3599 119.401 34.3599M128.459 34.3599H122.777M135.185 33.9858H143.223V11.5156H125.618V26.9208M134.385 35.8526H145.271V13.3824H143.223M129.748 26.046H128.667C128.467 24.4356 127.092 23.189 125.425 23.189C123.758 23.189 122.383 24.4356 122.183 26.046H121.088M128.005 19.3721H130.517M128.005 21.0167H130.517M128.005 22.6613H130.517M128.005 24.3059H130.517M134.181 19.3721H136.693M134.181 21.0167H136.693M134.181 22.6613H136.693M134.181 24.3059H136.693M131.554 19.3721H132.534M131.554 21.0167H132.534M131.554 22.6613H132.534M131.554 24.3059H132.534M138.336 19.3721H139.317M138.336 21.0167H139.317M138.336 22.6613H139.317M138.336 24.3059H139.317M140.21 19.3721H141.19M140.21 21.0167H141.19M140.21 22.6613H141.19M140.21 24.3059H141.19M122.776 35.4622V32.515C122.776 32.1934 122.515 31.9328 122.193 31.9328H119.982C119.661 31.9328 119.4 32.1934 119.4 32.515V35.4622C119.4 35.7837 119.661 36.0444 119.982 36.0444H122.193C122.515 36.0444 122.776 35.7837 122.776 35.4622ZM131.835 32.519C131.835 32.1912 131.574 31.9307 131.254 31.9307H129.04C128.72 31.9307 128.459 32.1912 128.459 32.519C128.459 33.5357 128.459 34.4362 128.459 35.4611C128.459 35.7805 128.72 36.041 129.04 36.041H131.254C131.574 36.041 131.835 35.7805 131.835 35.4611C131.835 34.4381 131.835 33.5365 131.835 32.519ZM134.42 13.6735C133.531 13.6735 132.81 14.3933 132.81 15.2811C132.81 16.169 133.531 16.8888 134.42 16.8888C135.309 16.8888 136.03 16.169 136.03 15.2811C136.03 14.3933 135.309 13.6735 134.42 13.6735ZM139.317 28.5212C138.427 28.5212 137.707 29.2409 137.707 30.1288C137.707 31.0167 138.427 31.7365 139.317 31.7365C140.206 31.7365 140.927 31.0167 140.927 30.1288C140.927 29.2409 140.206 28.5212 139.317 28.5212ZM134.42 14.4505C133.961 14.4505 133.588 14.8224 133.588 15.2811C133.588 15.7399 133.961 16.1117 134.42 16.1117C134.88 16.1117 135.252 15.7399 135.252 15.2811C135.252 14.8224 134.88 14.4505 134.42 14.4505Z" stroke="#F6F6F6" stroke-miterlimit="10"/>
</g>
<defs>
<clipPath id="clip0_202:7398">
<rect width="149" height="58" fill="white"/>
</clipPath>
</defs>
</svg>
