<svg width="149" height="58" viewBox="0 0 149 58" fill="none" xmlns="http://www.w3.org/2000/svg">
<path d="M107.218 28.2687V32.1204H35.7499C31.1319 32.1204 27.3839 28.3779 27.3839 23.7666C27.3839 19.1553 31.1319 15.4127 35.7499 15.4127C40.368 15.4127 44.1162 19.1553 44.1162 23.7666H40.2588C40.2588 21.2814 38.2387 19.2645 35.7499 19.2645C33.2612 19.2645 31.2413 21.2814 31.2413 23.7666C31.2413 26.2517 33.2612 28.2687 35.7499 28.2687H107.218ZM107.218 38.3233V34.2214H35.7499C29.9705 34.2214 25.2799 29.5376 25.2799 23.7666C25.2799 17.9956 29.9705 13.3118 35.7499 13.3118C41.5296 13.3118 46.2202 17.9956 46.2202 23.7666H50.3281C50.3281 15.7312 43.7968 9.20985 35.7499 9.20985C27.7031 9.20985 21.172 15.7312 21.172 23.7666C21.172 31.8019 27.7031 38.3233 35.7499 38.3233H107.218ZM12.3892 38.4233V14.8125H4.57422V18.8143H8.68211V38.4233H12.3892ZM8.68211 13.2117H14.0925V38.4233H17.8998V9.00977H8.68211V13.2117ZM13.1642 47.5181V48.7581H14.6542V46.0303H13.909V41.3184H12.1707V46.0303H10.1216V41.3184H8.38295V47.5181H13.1642ZM19.0005 47.5181V46.0303H17.0135V45.0382H18.8143V43.6744H17.0135V42.8063H19.0005V41.3184H15.2748V47.5181H19.0005ZM21.6702 47.5181V45.0382H23.7813V47.5181H25.5196V41.3184H23.7813V43.5504H21.6702V41.3184H19.9315V47.5181H21.6702ZM29.2452 47.5181V42.8063H30.6111V41.3184H26.1407V42.8063H27.5065V47.5181H29.2452ZM32.9701 47.5181V45.4721C33.2088 45.4721 33.4236 45.4761 33.6221 45.4761C33.6603 45.4761 36.1129 45.6701 36.1129 43.3792C36.1129 43.1394 36.0348 41.3184 33.848 41.3184H31.2314V47.5181H32.9701ZM33.4666 42.6823C34.0347 42.6823 34.3183 42.9183 34.3183 43.3907C34.3183 43.8689 34.0347 44.1082 33.4666 44.1082H32.9701V42.6823H33.4666ZM40.7223 47.5181V44.8523L42.523 47.5181H44.6958L42.2743 44.3208L44.6337 41.3184H42.5937L40.7223 43.9223V41.3184H38.9836V47.5181H40.7223ZM51.5906 44.4234C51.5906 43.7604 51.2568 41.1344 48.2499 41.1344C45.2622 41.1344 44.9156 43.7445 44.9156 44.413C44.9156 45.0807 45.252 47.702 48.2564 47.702C51.2471 47.702 51.5906 45.0868 51.5906 44.4234ZM46.7099 44.4181C46.7099 42.8553 47.8618 42.629 48.2529 42.629C48.6457 42.629 49.7964 42.8563 49.7964 44.4181C49.7964 45.9808 48.6452 46.2072 48.2529 46.2072C47.8606 46.2072 46.7099 45.9812 46.7099 44.4181ZM53.6634 47.5181L54.1246 43.9223L55.1711 47.5181H56.2887L57.3356 43.9223L57.7968 47.5181H59.4644L58.5597 41.3184H56.821L55.7301 45.1002L54.6392 41.3184H52.9005L51.9958 47.5181H53.6634ZM60.1471 47.5181H61.8858V42.8063H63.9435V47.5181H65.6822V41.3184H60.1471V47.5181ZM70.525 47.5181V46.0303H68.5381V45.0382H70.3389V43.6744H68.5381V42.8063H70.525V41.3184H66.7994V47.5181H70.525ZM74.0641 47.5181V42.8063H75.43V41.3184H70.9595V42.8063H72.3254V47.5181H74.0641ZM79.7763 47.5181V46.0303H77.7894V45.0382H79.5901V43.6744H77.7894V42.8063H79.7763V41.3184H76.0507V47.5181H79.7763ZM82.446 47.5181V45.0382H84.5571V47.5181H86.2954V41.3184H84.5571V43.5504H82.446V41.3184H80.7073V47.5181H82.446ZM92.1942 47.5181V48.7581H93.6842V46.0303H92.939V41.3184H91.2007V46.0303H89.1517V41.3184H87.413V47.5181H92.1942ZM94.3049 47.5181H96.0082L98.412 43.7983V47.5181H100.088V41.3184H98.3853L95.9815 45.0382V41.3184H94.3049V47.5181ZM101.205 47.5181H102.909L105.313 43.7983V47.5181H106.989V41.3184H105.286L102.882 45.0382V41.3184H101.205V47.5181ZM63.0622 13.3289H56.5074L55.1719 19.7531H55.7445C56.484 19.4067 57.1778 19.2335 57.8252 19.2335C58.35 19.2335 60.513 19.2913 60.513 21.1039C60.513 22.5767 59.5002 23.2509 58.1199 23.2509C56.8341 23.2509 56.0314 22.7483 55.1719 21.8135H54.8078L54.548 24.7228C55.6923 25.4386 56.9464 25.7964 58.3106 25.7964C60.357 25.7964 63.5477 24.7006 63.5477 21.1728C63.5477 19.0358 62.1767 17.4329 59.6806 17.4329C59.1952 17.4329 58.7328 17.4793 58.2934 17.5712L58.5708 15.9956H63.0622V13.3289H63.0622ZM72.8947 25.45V22.5408H74.247V19.9957H72.8947V13.3289H68.8887L64.519 20.0474V22.5408H69.9813V25.45H72.8947ZM67.2935 19.9957L69.9813 15.7534V19.9957H67.2935ZM75.305 22.0561H81.201V19.3895H75.305V22.0561ZM91.5707 25.45V23.7533C92.8819 23.7533 93.6354 23.5861 94.4755 23.2768C96.7825 22.4295 97.2952 20.3851 97.2952 18.9063C97.2952 14.85 93.8892 14.0528 91.8465 14.0528C91.757 14.0528 91.6651 14.0539 91.5707 14.0562V12.7231H88.1718V14.0562C88.0929 14.0543 88.0141 14.0534 87.9355 14.0534C84.6708 14.0534 82.4461 15.6666 82.4461 18.9314C82.4461 20.3962 82.9756 22.4363 85.2674 23.2768C86.1046 23.5855 86.8594 23.7533 88.1718 23.7533V25.45H91.5707ZM85.8464 18.9048C85.8464 16.958 87.2301 16.4803 88.4147 16.4803V21.3288C85.9026 21.3288 85.8464 19.404 85.8464 18.9048ZM93.896 18.9048C93.896 20.6628 92.7617 21.3288 91.3277 21.3288V16.4803C93.8377 16.4803 93.896 18.4026 93.896 18.9048ZM102.218 15.6492C103.097 15.6492 103.952 15.98 103.952 16.8616C103.952 17.6927 103.351 18.1081 102.149 18.1081H100.224V20.5322H102.149C103.455 20.5322 104.108 20.9541 104.108 21.7963C104.108 22.2234 103.85 23.1298 102.322 23.1298C101.296 23.1298 100.127 22.4566 99.3743 21.7446L97.9693 23.9954C99.5833 25.2293 100.72 25.7964 102.738 25.7964C104.651 25.7964 107.611 24.9474 107.611 22.0906C107.611 20.6364 106.859 19.6727 105.357 19.199V19.1469C106.625 18.7169 107.351 17.5948 107.351 16.4113C107.351 14.3504 105.371 12.9825 102.686 12.9825C101.299 12.9825 99.9345 13.3581 98.5937 14.1084L99.773 16.4803C100.628 15.9262 101.443 15.6492 102.218 15.6492ZM144.605 13.5038H110.951V47.5181H144.605V13.5038Z" fill="#C9C9CF"/>
<path d="M137.413 25.4456V23.2344C137.413 22.9467 137.179 22.7136 136.891 22.7136H132.705M118.691 24.9064V38.31C118.691 38.5976 118.925 38.8308 119.213 38.8308H136.891C137.179 38.8308 137.413 38.5976 137.413 38.31V35.9251M118.691 42.3393H137.413M122.342 28.6068H127.627M122.493 31.0326H124.346M125.623 31.0326H127.476M122.493 33.2117H124.346M125.623 33.2117H127.476M122.493 35.3908H124.346M125.623 35.3908H127.476M135.304 31.5174C135.85 30.8433 136.631 30.5089 137.411 30.5089C138.196 30.5089 138.979 30.847 139.522 31.5174M141.761 29.7354C140.631 28.3381 139.02 27.6511 137.415 27.6511C135.791 27.6511 134.174 28.3538 133.065 29.7354M129.534 24.9064H117.456C117.017 24.9064 116.66 24.5505 116.66 24.1115V20C116.66 19.561 117.017 19.2051 117.456 19.2051H129.534C129.974 19.2051 130.33 19.561 130.33 20V24.1115C130.33 24.5505 129.974 24.9064 129.534 24.9064ZM137.413 32.7457C137.155 32.7457 136.946 32.9544 136.946 33.2117C136.946 33.469 137.155 33.6777 137.413 33.6777C137.67 33.6777 137.879 33.469 137.879 33.2117C137.879 32.9544 137.67 32.7457 137.413 32.7457Z" stroke="white" stroke-miterlimit="10"/>
</svg>
