<svg width="149" height="58" viewBox="0 0 149 58" fill="none" xmlns="http://www.w3.org/2000/svg">
<path d="M76.188 26.6721V31.2704H44.4282C38.9151 31.2704 34.4407 26.8025 34.4407 21.2975C34.4407 15.7925 38.9151 11.3246 44.4282 11.3246C49.9413 11.3246 54.4159 15.7925 54.4159 21.2975H49.8109C49.8109 18.3307 47.3993 15.9229 44.4282 15.9229C41.4571 15.9229 39.0457 18.3307 39.0457 21.2975C39.0457 24.2643 41.4571 26.6721 44.4282 26.6721H76.188ZM76.188 38.6755V33.7786H44.4282C37.5286 33.7786 31.9289 28.187 31.9289 21.2975C31.9289 14.408 37.5286 8.81643 44.4282 8.81643C51.328 8.81643 56.9278 14.408 56.9278 21.2975H61.8318C61.8318 11.7048 54.0347 3.91954 44.4282 3.91954C34.8217 3.91954 27.0248 11.7048 27.0248 21.2975C27.0248 30.8902 34.8217 38.6755 44.4282 38.6755H76.188ZM17.9468 38.7949V10.608H8.61719V15.3854H13.5212V38.7949H17.9468ZM13.5212 8.69699H19.9802V38.7949H24.5254V3.68066H13.5212V8.69699ZM16.3191 52.647L16.8563 50.9827H20.1348L20.672 52.647H23.5649L20.1348 43.0186H16.8563L13.4262 52.647H16.3191ZM19.5976 48.8644H17.3936L18.4956 45.3154L19.5976 48.8644ZM24.336 52.647H29.2677C32.4968 52.647 32.4224 50.0366 32.4224 49.9648C32.4224 48.3864 31.3063 47.7128 30.3836 47.5026V47.4751C30.8934 47.2982 31.8852 46.714 31.8852 45.4668C31.8852 45.0409 31.8488 43.0186 29.0058 43.0186H24.336V52.647ZM27.0361 44.9443H28.1657C28.1954 44.9443 29.4054 44.8708 29.4054 45.9072C29.4054 46.5122 28.9923 46.8147 28.1657 46.8147H27.0361V44.9443ZM27.0361 48.7405H28.2758C29.2401 48.7405 29.7223 49.0619 29.7223 49.7034C29.7223 50.3822 29.2401 50.7213 28.2758 50.7213H27.0361V48.7405ZM37.7256 52.647V45.3293H39.847V43.0186H32.9045V45.3293H35.0259V52.647H37.7256ZM50.7467 47.8407C50.7467 46.5756 50.3167 45.3179 49.4826 44.325C48.5916 43.2662 47.0754 42.7323 45.5584 42.7323C40.9134 42.7323 40.3802 46.7949 40.3802 47.8279C40.3802 49.0898 40.8078 50.3461 41.6445 51.3402C42.5331 52.398 44.0507 52.9319 45.5692 52.9319C50.2066 52.9319 50.7467 48.8817 50.7467 47.8407ZM43.1665 47.8326C43.1665 45.4064 44.9546 45.0543 45.5633 45.0543C46.1716 45.0543 47.9605 45.4057 47.9605 47.8326C47.9605 50.2599 46.1714 50.6113 45.5633 50.6113C44.9533 50.6113 43.1665 50.2589 43.1665 47.8326ZM53.9666 52.647L54.6826 47.0626L56.3083 52.647H58.0441L59.6693 47.0626L60.3858 52.647H62.9753L61.5704 43.0186H58.8703L57.176 48.8919L55.4817 43.0186H52.7819L51.3766 52.647H53.9666ZM65.9644 52.647L66.5016 50.9827H69.7801L70.3173 52.647H73.2102L69.7801 43.0186H66.5016L63.0715 52.647H65.9644ZM69.2428 48.8644H67.0389L68.1409 45.3154L69.2428 48.8644ZM78.0313 52.647V45.3293H80.1526V43.0186H73.2102V45.3293H75.3316V52.647H78.0313ZM81.1169 52.647H83.762L87.495 46.8697V52.647H90.0986V43.0186H87.4535L83.7205 48.7955V43.0186H81.1169V52.647ZM94.4375 44.8618C95.1383 44.8618 95.8153 45.1254 95.8153 45.8243C95.8153 46.4847 95.3377 46.8147 94.3824 46.8147H92.8533V48.7405H94.3824C95.4203 48.7405 95.939 49.0754 95.939 49.7448C95.939 50.088 95.7313 50.8038 94.5201 50.8038C93.7071 50.8038 92.779 50.2713 92.1784 49.7034L91.0628 51.4917C92.3622 52.485 93.2648 52.922 94.851 52.922C96.8478 52.922 98.7217 51.9622 98.7217 49.9784C98.7217 48.823 98.1245 48.0575 96.9308 47.6816V47.6401C97.9419 47.2973 98.517 46.3987 98.517 45.4633C98.517 43.9621 97.0953 42.7431 94.8095 42.7431C93.7075 42.7431 92.624 43.0415 91.5586 43.6375L92.4953 45.5218C93.1748 45.0818 93.8222 44.8618 94.4375 44.8618ZM101.904 52.647L102.441 50.9827H105.719L106.256 52.647H109.149L105.719 43.0186H102.441L99.0107 52.647H101.904ZM105.182 48.8644H102.978L104.08 45.3154L105.182 48.8644ZM117.346 52.647V54.5728H119.66V50.3363H118.503V43.0186H115.802V50.3363H112.621V43.0186H109.92V52.647H117.346ZM120.624 52.647H123.269L127.002 46.8697V52.647H129.606V43.0186H126.961L123.227 48.7955V43.0186H120.624V52.647ZM131.341 52.647H133.986L137.719 46.8697V52.647H140.323V43.0186H137.678L133.944 48.7955V43.0186H131.341V52.647ZM81.5095 38.6753V36.1026C81.8091 36.1026 82.078 36.1075 82.3259 36.1075C82.3741 36.1075 85.4609 36.3587 85.4609 33.4715C85.4609 32.2832 84.7093 30.8802 82.6135 30.8802H79.3236V38.6753H81.5095ZM82.1343 32.595C82.8478 32.595 83.2046 32.8922 83.2046 33.4857C83.2046 34.0874 82.8478 34.3878 82.1343 34.3878H81.5095V32.595H82.1343ZM91.1562 38.6753V36.8045H88.6579V35.5572H90.9219V33.8424H88.6579V32.751H91.1562V30.8802H86.472V38.6753H91.1562ZM93.8887 38.6753L94.3236 37.3278H96.9777L97.413 38.6753H99.7547L96.9777 30.8802H94.3236L91.5466 38.6753H93.8887ZM96.5428 35.613H94.7585L95.6509 32.7399L96.5428 35.613ZM101.238 35.1788C101.238 36.523 100.962 36.8825 100.156 36.8825C100.03 36.8825 99.8698 36.8566 99.6766 36.8045V38.6753C99.9309 38.7407 100.254 38.7765 100.593 38.7765C103.733 38.7765 103.43 36.2051 103.43 35.2873C103.43 34.704 103.424 33.9018 103.424 32.751H104.985V38.6753H107.171V30.8802H101.238V35.1788ZM111.91 38.6753C113.955 38.6753 114.977 37.8811 114.977 36.2923C114.977 34.7108 113.955 33.9203 111.91 33.9203H110.761V30.8802H108.576V38.6753H111.91ZM110.761 35.4792H111.698C112.683 35.4792 112.791 35.9193 112.791 36.2923C112.791 36.9332 112.343 37.1164 111.698 37.1164H110.761V35.4792ZM118.178 38.6753V35.5572H120.832V38.6753H123.018V30.8802H120.832V33.6864H118.178V30.8802H115.992V38.6753H118.178ZM132.467 34.7822C132.467 33.9377 132.04 30.6492 128.267 30.6492C124.51 30.6492 124.075 33.9303 124.075 34.7726C124.075 35.7963 124.422 36.814 125.098 37.6172C125.816 38.4725 127.046 38.9062 128.277 38.9062C132.033 38.9062 132.467 35.6205 132.467 34.7822ZM126.33 34.7778C126.33 32.8155 127.775 32.5281 128.271 32.5281C128.768 32.5281 130.211 32.816 130.211 34.7778C130.211 36.7422 128.763 37.027 128.271 37.027C127.778 37.027 126.33 36.7427 126.33 34.7778ZM133.523 38.6753H135.665L138.687 33.9983V38.6753H140.794V30.8802H138.653L135.631 35.5572V30.8802H133.523V38.6753ZM137.159 29.399C136.594 29.399 136.229 29.1802 136.066 28.7418L134.817 29.2097C135.341 30.3332 136.624 30.4576 137.157 30.4576C137.193 30.4576 138.888 30.5256 139.501 29.2097L138.252 28.7418C138.088 29.1802 137.724 29.399 137.159 29.399ZM105.733 25.2433V22.1945H101.661V20.1616H105.351V17.3669H101.661V15.5885H105.733V12.5393H98.0994V25.2433H105.733ZM111.203 25.2433V20.1616H115.529V25.2433H119.091V12.5393H115.529V17.1129H111.203V12.5393H107.641V25.2433H111.203ZM126.724 25.2433V15.5885H129.523V12.5393H120.363V15.5885H123.162V25.2433H126.724ZM134.358 25.2433V21.051H136.157C139.984 21.051 140.797 18.2729 140.797 16.7613C140.797 14.8377 139.579 12.5394 136.157 12.5394H130.796V25.2433H134.358V25.2433ZM135.375 15.3344C136.539 15.3344 137.12 15.8183 137.12 16.7862C137.12 17.7663 136.539 18.2564 135.375 18.2564H134.358V15.3344H135.375ZM92.0317 24.7015V27.7178H95.6566V21.0818H93.8439V9.62031H89.6152V21.0818H84.6309V9.62031H80.4021V24.7015H92.0317V24.7015Z" fill="#C9C9CF"/>
</svg>
