<svg width="149" height="77" viewBox="0 0 149 77" fill="none" xmlns="http://www.w3.org/2000/svg">
<path d="M137.829 72.6313C135.587 72.6313 135.587 71.1347 133.344 71.1347C131.101 71.1347 131.101 72.6313 128.857 72.6313C126.613 72.6313 126.613 71.1347 124.369 71.1347C122.126 71.1347 122.126 72.6313 119.883 72.6313C117.639 72.6313 117.639 71.1347 115.396 71.1347C113.151 71.1347 113.151 72.6313 110.907 72.6313C108.663 72.6313 108.663 71.1347 106.42 71.1347C104.175 71.1347 104.175 72.6313 101.931 72.6313C99.687 72.6313 99.687 71.1347 97.4431 71.1347C95.1987 71.1347 95.1987 72.6313 92.9544 72.6313C90.7102 72.6313 90.7102 71.1347 88.466 71.1347C86.2212 71.1347 86.2212 72.6313 83.9764 72.6313C81.7321 72.6313 81.7321 71.1347 79.4878 71.1347C77.2429 71.1347 77.2429 72.6313 74.998 72.6313C72.7527 72.6313 72.7527 71.1347 70.5075 71.1347C68.2626 71.1347 68.2626 72.6313 66.0177 72.6313C63.7727 72.6313 63.7727 71.1347 61.5277 71.1347C59.2825 71.1347 59.2825 72.6313 57.0373 72.6313C54.7917 72.6313 54.7917 71.1347 52.5462 71.1347C50.3021 71.1347 50.3021 72.6313 48.058 72.6313C45.813 72.6313 45.813 71.1347 43.568 71.1347C41.3229 71.1347 41.3229 72.6313 39.0779 72.6313C36.8328 72.6313 36.8328 71.1347 34.5878 71.1347C32.3421 71.1347 32.3421 72.6313 30.0965 72.6313C27.852 72.6313 27.852 71.1347 25.6076 71.1347C23.3612 71.1347 23.3612 72.6313 21.1148 72.6313C18.8669 72.6313 18.8669 71.1347 16.619 71.1347C14.371 71.1347 14.371 72.6313 12.1231 72.6313M137.829 70.7232C135.587 70.7232 135.587 69.2266 133.344 69.2266C131.101 69.2266 131.101 70.7232 128.857 70.7232C126.613 70.7232 126.613 69.2266 124.369 69.2266C122.126 69.2266 122.126 70.7232 119.883 70.7232C117.639 70.7232 117.639 69.2266 115.396 69.2266C113.151 69.2266 113.151 70.7232 110.907 70.7232C108.663 70.7232 108.663 69.2266 106.42 69.2266C104.175 69.2266 104.175 70.7232 101.931 70.7232C99.687 70.7232 99.687 69.2266 97.4431 69.2266C95.1987 69.2266 95.1987 70.7232 92.9544 70.7232C90.7102 70.7232 90.7102 69.2266 88.466 69.2266C86.2212 69.2266 86.2212 70.7232 83.9764 70.7232C81.7321 70.7232 81.7321 69.2266 79.4878 69.2266C77.2429 69.2266 77.2429 70.7232 74.998 70.7232C72.7527 70.7232 72.7527 69.2266 70.5075 69.2266C68.2626 69.2266 68.2626 70.7232 66.0177 70.7232C63.7727 70.7232 63.7727 69.2266 61.5277 69.2266C59.2825 69.2266 59.2825 70.7232 57.0373 70.7232C54.7917 70.7232 54.7917 69.2266 52.5462 69.2266C50.3021 69.2266 50.3021 70.7232 48.058 70.7232C45.813 70.7232 45.813 69.2266 43.568 69.2266C41.3229 69.2266 41.3229 70.7232 39.0779 70.7232C36.8328 70.7232 36.8328 69.2266 34.5878 69.2266C32.3421 69.2266 32.3421 70.7232 30.0965 70.7232C27.852 70.7232 27.852 69.2266 25.6076 69.2266C23.3612 69.2266 23.3612 70.7232 21.1148 70.7232C18.8669 70.7232 18.8669 69.2266 16.619 69.2266C14.371 69.2266 14.371 70.7232 12.1231 70.7232M137.829 68.8151C135.587 68.8151 135.587 67.3185 133.344 67.3185C131.101 67.3185 131.101 68.8151 128.857 68.8151C126.613 68.8151 126.613 67.3185 124.369 67.3185C122.126 67.3185 122.126 68.8151 119.883 68.8151C117.639 68.8151 117.639 67.3185 115.396 67.3185C113.151 67.3185 113.151 68.8151 110.907 68.8151C108.663 68.8151 108.663 67.3185 106.42 67.3185C104.175 67.3185 104.175 68.8151 101.931 68.8151C99.687 68.8151 99.687 67.3185 97.4431 67.3185C95.1987 67.3185 95.1987 68.8151 92.9544 68.8151C90.7102 68.8151 90.7102 67.3185 88.466 67.3185C86.2212 67.3185 86.2212 68.8151 83.9764 68.8151C81.7321 68.8151 81.7321 67.3185 79.4878 67.3185C77.2429 67.3185 77.2429 68.8151 74.998 68.8151C72.7527 68.8151 72.7527 67.3185 70.5075 67.3185C68.2626 67.3185 68.2626 68.8151 66.0177 68.8151C63.7727 68.8151 63.7727 67.3185 61.5277 67.3185C59.2825 67.3185 59.2825 68.8151 57.0373 68.8151C54.7917 68.8151 54.7917 67.3185 52.5462 67.3185C50.3021 67.3185 50.3021 68.8151 48.058 68.8151C45.813 68.8151 45.813 67.3185 43.568 67.3185C41.3229 67.3185 41.3229 68.8151 39.0779 68.8151C36.8328 68.8151 36.8328 67.3185 34.5878 67.3185C32.3421 67.3185 32.3421 68.8151 30.0965 68.8151C27.852 68.8151 27.852 67.3185 25.6076 67.3185C23.3612 67.3185 23.3612 68.8151 21.1148 68.8151C18.8669 68.8151 18.8669 67.3185 16.619 67.3185C14.371 67.3185 14.371 68.8151 12.1231 68.8151M137.829 66.907C135.587 66.907 135.587 65.4104 133.344 65.4104C131.101 65.4104 131.101 66.907 128.857 66.907C126.613 66.907 126.613 65.4104 124.369 65.4104C122.126 65.4104 122.126 66.907 119.883 66.907C117.639 66.907 117.639 65.4104 115.396 65.4104C113.151 65.4104 113.151 66.907 110.907 66.907C108.663 66.907 108.663 65.4104 106.42 65.4104C104.175 65.4104 104.175 66.907 101.931 66.907C99.687 66.907 99.687 65.4104 97.4431 65.4104C95.1987 65.4104 95.1987 66.907 92.9544 66.907C90.7102 66.907 90.7102 65.4104 88.466 65.4104C86.2212 65.4104 86.2212 66.907 83.9764 66.907C81.7321 66.907 81.7321 65.4104 79.4878 65.4104C77.2429 65.4104 77.2429 66.907 74.998 66.907C72.7527 66.907 72.7527 65.4104 70.5075 65.4104C68.2626 65.4104 68.2626 66.907 66.0177 66.907C63.7727 66.907 63.7727 65.4104 61.5277 65.4104C59.2825 65.4104 59.2825 66.907 57.0373 66.907C54.7917 66.907 54.7917 65.4104 52.5462 65.4104C50.3021 65.4104 50.3021 66.907 48.058 66.907C45.813 66.907 45.813 65.4104 43.568 65.4104C41.3229 65.4104 41.3229 66.907 39.0779 66.907C36.8328 66.907 36.8328 65.4104 34.5878 65.4104C32.3421 65.4104 32.3421 66.907 30.0965 66.907C27.852 66.907 27.852 65.4104 25.6076 65.4104C23.3612 65.4104 23.3612 66.907 21.1148 66.907C18.8669 66.907 18.8669 65.4104 16.619 65.4104C14.371 65.4104 14.371 66.907 12.1231 66.907M137.829 64.9989C135.587 64.9989 135.587 63.5023 133.344 63.5023C131.101 63.5023 131.101 64.9989 128.857 64.9989C126.613 64.9989 126.613 63.5023 124.369 63.5023C122.126 63.5023 122.126 64.9989 119.883 64.9989C117.639 64.9989 117.639 63.5023 115.396 63.5023C113.151 63.5023 113.151 64.9989 110.907 64.9989C108.663 64.9989 108.663 63.5023 106.42 63.5023C104.175 63.5023 104.175 64.9989 101.931 64.9989C99.687 64.9989 99.687 63.5023 97.4431 63.5023C95.1987 63.5023 95.1987 64.9989 92.9544 64.9989C90.7102 64.9989 90.7102 63.5023 88.466 63.5023C86.2212 63.5023 86.2212 64.9989 83.9764 64.9989C81.7321 64.9989 81.7321 63.5023 79.4878 63.5023C77.2429 63.5023 77.2429 64.9989 74.998 64.9989C72.7527 64.9989 72.7527 63.5023 70.5075 63.5023C68.2626 63.5023 68.2626 64.9989 66.0177 64.9989C63.7727 64.9989 63.7727 63.5023 61.5277 63.5023C59.2825 63.5023 59.2825 64.9989 57.0373 64.9989C54.7917 64.9989 54.7917 63.5023 52.5462 63.5023C50.3021 63.5023 50.3021 64.9989 48.058 64.9989C45.813 64.9989 45.813 63.5023 43.568 63.5023C41.3229 63.5023 41.3229 64.9989 39.0779 64.9989C36.8328 64.9989 36.8328 63.5023 34.5878 63.5023C32.3421 63.5023 32.3421 64.9989 30.0965 64.9989C27.852 64.9989 27.852 63.5023 25.6076 63.5023C23.3612 63.5023 23.3612 64.9989 21.1148 64.9989C18.8669 64.9989 18.8669 63.5023 16.619 63.5023C14.371 63.5023 14.371 64.9989 12.1231 64.9989M137.829 63.097C135.587 63.097 135.587 61.6004 133.344 61.6004C131.101 61.6004 131.101 63.097 128.857 63.097C126.613 63.097 126.613 61.6004 124.369 61.6004C122.126 61.6004 122.126 63.097 119.883 63.097C117.639 63.097 117.639 61.6004 115.396 61.6004C113.151 61.6004 113.151 63.097 110.907 63.097C108.663 63.097 108.663 61.6004 106.42 61.6004C104.175 61.6004 104.175 63.097 101.931 63.097C99.687 63.097 99.687 61.6004 97.4431 61.6004C95.1987 61.6004 95.1987 63.097 92.9544 63.097C90.7102 63.097 90.7102 61.6004 88.466 61.6004C86.2212 61.6004 86.2212 63.097 83.9764 63.097C81.7321 63.097 81.7321 61.6004 79.4878 61.6004C77.2429 61.6004 77.2429 63.097 74.998 63.097C72.7527 63.097 72.7527 61.6004 70.5075 61.6004C68.2626 61.6004 68.2626 63.097 66.0177 63.097C63.7727 63.097 63.7727 61.6004 61.5277 61.6004C59.2825 61.6004 59.2825 63.097 57.0373 63.097C54.7917 63.097 54.7917 61.6004 52.5462 61.6004C50.3021 61.6004 50.3021 63.097 48.058 63.097C45.813 63.097 45.813 61.6004 43.568 61.6004C41.3229 61.6004 41.3229 63.097 39.0779 63.097C36.8328 63.097 36.8328 61.6004 34.5878 61.6004C32.3421 61.6004 32.3421 63.097 30.0965 63.097C27.852 63.097 27.852 61.6004 25.6076 61.6004C23.3612 61.6004 23.3612 63.097 21.1148 63.097C18.8669 63.097 18.8669 61.6004 16.619 61.6004C14.371 61.6004 14.371 63.097 12.1231 63.097M137.829 61.1889C135.587 61.1889 135.587 59.6923 133.344 59.6923C131.101 59.6923 131.101 61.1889 128.857 61.1889C126.613 61.1889 126.613 59.6923 124.369 59.6923C122.126 59.6923 122.126 61.1889 119.883 61.1889C117.639 61.1889 117.639 59.6923 115.396 59.6923C113.151 59.6923 113.151 61.1889 110.907 61.1889C108.663 61.1889 108.663 59.6923 106.42 59.6923C104.175 59.6923 104.175 61.1889 101.931 61.1889C99.687 61.1889 99.687 59.6923 97.4431 59.6923C95.1987 59.6923 95.1987 61.1889 92.9544 61.1889C90.7102 61.1889 90.7102 59.6923 88.466 59.6923C86.2212 59.6923 86.2212 61.1889 83.9764 61.1889C81.7321 61.1889 81.7321 59.6923 79.4878 59.6923C77.2429 59.6923 77.2429 61.1889 74.998 61.1889C72.7527 61.1889 72.7527 59.6923 70.5075 59.6923C68.2626 59.6923 68.2626 61.1889 66.0177 61.1889C63.7727 61.1889 63.7727 59.6923 61.5277 59.6923C59.2825 59.6923 59.2825 61.1889 57.0373 61.1889C54.7917 61.1889 54.7917 59.6923 52.5462 59.6923C50.3021 59.6923 50.3021 61.1889 48.058 61.1889C45.813 61.1889 45.813 59.6923 43.568 59.6923C41.3229 59.6923 41.3229 61.1889 39.0779 61.1889C36.8328 61.1889 36.8328 59.6923 34.5878 59.6923C32.3421 59.6923 32.3421 61.1889 30.0965 61.1889C27.852 61.1889 27.852 59.6923 25.6076 59.6923C23.3612 59.6923 23.3612 61.1889 21.1148 61.1889C18.8669 61.1889 18.8669 59.6923 16.619 59.6923C14.371 59.6923 14.371 61.1889 12.1231 61.1889M137.829 59.2808C135.587 59.2808 135.587 57.7842 133.344 57.7842C131.101 57.7842 131.101 59.2808 128.857 59.2808C126.613 59.2808 126.613 57.7842 124.369 57.7842C122.126 57.7842 122.126 59.2808 119.883 59.2808C117.639 59.2808 117.639 57.7842 115.396 57.7842C113.151 57.7842 113.151 59.2808 110.907 59.2808C108.663 59.2808 108.663 57.7842 106.42 57.7842C104.175 57.7842 104.175 59.2808 101.931 59.2808C99.687 59.2808 99.687 57.7842 97.4431 57.7842C95.1987 57.7842 95.1987 59.2808 92.9544 59.2808C90.7102 59.2808 90.7102 57.7842 88.466 57.7842C86.2212 57.7842 86.2212 59.2808 83.9764 59.2808C81.7321 59.2808 81.7321 57.7842 79.4878 57.7842C77.2429 57.7842 77.2429 59.2808 74.998 59.2808C72.7527 59.2808 72.7527 57.7842 70.5075 57.7842C68.2626 57.7842 68.2626 59.2808 66.0177 59.2808C63.7727 59.2808 63.7727 57.7842 61.5277 57.7842C59.2825 57.7842 59.2825 59.2808 57.0373 59.2808C54.7917 59.2808 54.7917 57.7842 52.5462 57.7842C50.3021 57.7842 50.3021 59.2808 48.058 59.2808C45.813 59.2808 45.813 57.7842 43.568 57.7842C41.3229 57.7842 41.3229 59.2808 39.0779 59.2808C36.8328 59.2808 36.8328 57.7842 34.5878 57.7842C32.3421 57.7842 32.3421 59.2808 30.0965 59.2808C27.852 59.2808 27.852 57.7842 25.6076 57.7842C23.3612 57.7842 23.3612 59.2808 21.1148 59.2808C18.8669 59.2808 18.8669 57.7842 16.619 57.7842C14.371 57.7842 14.371 59.2808 12.1231 59.2808M137.829 57.3727C135.587 57.3727 135.587 55.8761 133.344 55.8761C131.101 55.8761 131.101 57.3727 128.857 57.3727C126.613 57.3727 126.613 55.8761 124.369 55.8761C122.126 55.8761 122.126 57.3727 119.883 57.3727C117.639 57.3727 117.639 55.8761 115.396 55.8761C113.151 55.8761 113.151 57.3727 110.907 57.3727C108.663 57.3727 108.663 55.8761 106.42 55.8761C104.175 55.8761 104.175 57.3727 101.931 57.3727C99.687 57.3727 99.687 55.8761 97.4431 55.8761C95.1987 55.8761 95.1987 57.3727 92.9544 57.3727C90.7102 57.3727 90.7102 55.8761 88.466 55.8761C86.2212 55.8761 86.2212 57.3727 83.9764 57.3727C81.7321 57.3727 81.7321 55.8761 79.4878 55.8761C77.2429 55.8761 77.2429 57.3727 74.998 57.3727C72.7527 57.3727 72.7527 55.8761 70.5075 55.8761C68.2626 55.8761 68.2626 57.3727 66.0177 57.3727C63.7727 57.3727 63.7727 55.8761 61.5277 55.8761C59.2825 55.8761 59.2825 57.3727 57.0373 57.3727C54.7917 57.3727 54.7917 55.8761 52.5462 55.8761C50.3021 55.8761 50.3021 57.3727 48.058 57.3727C45.813 57.3727 45.813 55.8761 43.568 55.8761C41.3229 55.8761 41.3229 57.3727 39.0779 57.3727C36.8328 57.3727 36.8328 55.8761 34.5878 55.8761C32.3421 55.8761 32.3421 57.3727 30.0965 57.3727C27.852 57.3727 27.852 55.8761 25.6076 55.8761C23.3612 55.8761 23.3612 57.3727 21.1148 57.3727C18.8669 57.3727 18.8669 55.8761 16.619 55.8761C14.371 55.8761 14.371 57.3727 12.1231 57.3727M137.829 55.4708C135.587 55.4708 135.587 53.9742 133.344 53.9742C131.101 53.9742 131.101 55.4708 128.857 55.4708C126.613 55.4708 126.613 53.9742 124.369 53.9742C122.126 53.9742 122.126 55.4708 119.883 55.4708C117.639 55.4708 117.639 53.9742 115.396 53.9742C113.151 53.9742 113.151 55.4708 110.907 55.4708C108.663 55.4708 108.663 53.9742 106.42 53.9742C104.175 53.9742 104.175 55.4708 101.931 55.4708C99.687 55.4708 99.687 53.9742 97.4431 53.9742C95.1987 53.9742 95.1987 55.4708 92.9544 55.4708C90.7102 55.4708 90.7102 53.9742 88.466 53.9742C86.2212 53.9742 86.2212 55.4708 83.9764 55.4708C81.7321 55.4708 81.7321 53.9742 79.4878 53.9742C77.2429 53.9742 77.2429 55.4708 74.998 55.4708C72.7527 55.4708 72.7527 53.9742 70.5075 53.9742C68.2626 53.9742 68.2626 55.4708 66.0177 55.4708C63.7727 55.4708 63.7727 53.9742 61.5277 53.9742C59.2825 53.9742 59.2825 55.4708 57.0373 55.4708C54.7917 55.4708 54.7917 53.9742 52.5462 53.9742C50.3021 53.9742 50.3021 55.4708 48.058 55.4708C45.813 55.4708 45.813 53.9742 43.568 53.9742C41.3229 53.9742 41.3229 55.4708 39.0779 55.4708C36.8328 55.4708 36.8328 53.9742 34.5878 53.9742C32.3421 53.9742 32.3421 55.4708 30.0965 55.4708C27.852 55.4708 27.852 53.9742 25.6076 53.9742C23.3612 53.9742 23.3612 55.4708 21.1148 55.4708C18.8669 55.4708 18.8669 53.9742 16.619 53.9742C14.371 53.9742 14.371 55.4708 12.1231 55.4708M137.829 53.5627C135.587 53.5627 135.587 52.0661 133.344 52.0661C131.101 52.0661 131.101 53.5627 128.857 53.5627C126.613 53.5627 126.613 52.0661 124.369 52.0661C122.126 52.0661 122.126 53.5627 119.883 53.5627C117.639 53.5627 117.639 52.0661 115.396 52.0661C113.151 52.0661 113.151 53.5627 110.907 53.5627C108.663 53.5627 108.663 52.0661 106.42 52.0661C104.175 52.0661 104.175 53.5627 101.931 53.5627C99.687 53.5627 99.687 52.0661 97.4431 52.0661C95.1987 52.0661 95.1987 53.5627 92.9544 53.5627C90.7102 53.5627 90.7102 52.0661 88.466 52.0661C86.2212 52.0661 86.2212 53.5627 83.9764 53.5627C81.7321 53.5627 81.7321 52.0661 79.4878 52.0661C77.2429 52.0661 77.2429 53.5627 74.998 53.5627C72.7527 53.5627 72.7527 52.0661 70.5075 52.0661C68.2626 52.0661 68.2626 53.5627 66.0177 53.5627C63.7727 53.5627 63.7727 52.0661 61.5277 52.0661C59.2825 52.0661 59.2825 53.5627 57.0373 53.5627C54.7917 53.5627 54.7917 52.0661 52.5462 52.0661C50.3021 52.0661 50.3021 53.5627 48.058 53.5627C45.813 53.5627 45.813 52.0661 43.568 52.0661C41.3229 52.0661 41.3229 53.5627 39.0779 53.5627C36.8328 53.5627 36.8328 52.0661 34.5878 52.0661C32.3421 52.0661 32.3421 53.5627 30.0965 53.5627C27.852 53.5627 27.852 52.0661 25.6076 52.0661C23.3612 52.0661 23.3612 53.5627 21.1148 53.5627C18.8669 53.5627 18.8669 52.0661 16.619 52.0661C14.371 52.0661 14.371 53.5627 12.1231 53.5627M137.829 51.6546C135.587 51.6546 135.587 50.158 133.344 50.158C131.101 50.158 131.101 51.6546 128.857 51.6546C126.613 51.6546 126.613 50.158 124.369 50.158C122.126 50.158 122.126 51.6546 119.883 51.6546C117.639 51.6546 117.639 50.158 115.396 50.158C113.151 50.158 113.151 51.6546 110.907 51.6546C108.663 51.6546 108.663 50.158 106.42 50.158C104.175 50.158 104.175 51.6546 101.931 51.6546C99.687 51.6546 99.687 50.158 97.4431 50.158C95.1987 50.158 95.1987 51.6546 92.9544 51.6546C90.7102 51.6546 90.7102 50.158 88.466 50.158C86.2212 50.158 86.2212 51.6546 83.9764 51.6546C81.7321 51.6546 81.7321 50.158 79.4878 50.158C77.2429 50.158 77.2429 51.6546 74.998 51.6546C72.7527 51.6546 72.7527 50.158 70.5075 50.158C68.2626 50.158 68.2626 51.6546 66.0177 51.6546C63.7727 51.6546 63.7727 50.158 61.5277 50.158C59.2825 50.158 59.2825 51.6546 57.0373 51.6546C54.7917 51.6546 54.7917 50.158 52.5462 50.158C50.3021 50.158 50.3021 51.6546 48.058 51.6546C45.813 51.6546 45.813 50.158 43.568 50.158C41.3229 50.158 41.3229 51.6546 39.0779 51.6546C36.8328 51.6546 36.8328 50.158 34.5878 50.158C32.3421 50.158 32.3421 51.6546 30.0965 51.6546C27.852 51.6546 27.852 50.158 25.6076 50.158C23.3612 50.158 23.3612 51.6546 21.1148 51.6546C18.8669 51.6546 18.8669 50.158 16.619 50.158C14.371 50.158 14.371 51.6546 12.1231 51.6546M137.829 49.7465C135.587 49.7465 135.587 48.2499 133.344 48.2499C131.101 48.2499 131.101 49.7465 128.857 49.7465C126.613 49.7465 126.613 48.2499 124.369 48.2499C122.126 48.2499 122.126 49.7465 119.883 49.7465C117.639 49.7465 117.639 48.2499 115.396 48.2499C113.151 48.2499 113.151 49.7465 110.907 49.7465C108.663 49.7465 108.663 48.2499 106.42 48.2499C104.175 48.2499 104.175 49.7465 101.931 49.7465C99.687 49.7465 99.687 48.2499 97.4431 48.2499C95.1987 48.2499 95.1987 49.7465 92.9544 49.7465C90.7102 49.7465 90.7102 48.2499 88.466 48.2499C86.2212 48.2499 86.2212 49.7465 83.9764 49.7465C81.7321 49.7465 81.7321 48.2499 79.4878 48.2499C77.2429 48.2499 77.2429 49.7465 74.998 49.7465C72.7527 49.7465 72.7527 48.2499 70.5075 48.2499C68.2626 48.2499 68.2626 49.7465 66.0177 49.7465C63.7727 49.7465 63.7727 48.2499 61.5277 48.2499C59.2825 48.2499 59.2825 49.7465 57.0373 49.7465C54.7917 49.7465 54.7917 48.2499 52.5462 48.2499C50.3021 48.2499 50.3021 49.7465 48.058 49.7465C45.813 49.7465 45.813 48.2499 43.568 48.2499C41.3229 48.2499 41.3229 49.7465 39.0779 49.7465C36.8328 49.7465 36.8328 48.2499 34.5878 48.2499C32.3421 48.2499 32.3421 49.7465 30.0965 49.7465C27.852 49.7465 27.852 48.2499 25.6076 48.2499C23.3612 48.2499 23.3612 49.7465 21.1148 49.7465C18.8669 49.7465 18.8669 48.2499 16.619 48.2499C14.371 48.2499 14.371 49.7465 12.1231 49.7465M137.829 47.8383C135.587 47.8383 135.587 46.3418 133.344 46.3418C131.101 46.3418 131.101 47.8383 128.857 47.8383C126.613 47.8383 126.613 46.3418 124.369 46.3418C122.126 46.3418 122.126 47.8383 119.883 47.8383C117.639 47.8383 117.639 46.3418 115.396 46.3418C113.151 46.3418 113.151 47.8383 110.907 47.8383C108.663 47.8383 108.663 46.3418 106.42 46.3418C104.175 46.3418 104.175 47.8383 101.931 47.8383C99.687 47.8383 99.687 46.3418 97.4431 46.3418C95.1987 46.3418 95.1987 47.8383 92.9544 47.8383C90.7102 47.8383 90.7102 46.3418 88.466 46.3418C86.2212 46.3418 86.2212 47.8383 83.9764 47.8383C81.7321 47.8383 81.7321 46.3418 79.4878 46.3418C77.2429 46.3418 77.2429 47.8383 74.998 47.8383C72.7527 47.8383 72.7527 46.3418 70.5075 46.3418C68.2626 46.3418 68.2626 47.8383 66.0177 47.8383C63.7727 47.8383 63.7727 46.3418 61.5277 46.3418C59.2825 46.3418 59.2825 47.8383 57.0373 47.8383C54.7917 47.8383 54.7917 46.3418 52.5462 46.3418C50.3021 46.3418 50.3021 47.8383 48.058 47.8383C45.813 47.8383 45.813 46.3418 43.568 46.3418C41.3229 46.3418 41.3229 47.8383 39.0779 47.8383C36.8328 47.8383 36.8328 46.3418 34.5878 46.3418C32.3421 46.3418 32.3421 47.8383 30.0965 47.8383C27.852 47.8383 27.852 46.3418 25.6076 46.3418C23.3612 46.3418 23.3612 47.8383 21.1148 47.8383C18.8669 47.8383 18.8669 46.3418 16.619 46.3418C14.371 46.3418 14.371 47.8383 12.1231 47.8383M137.829 45.9365C135.587 45.9365 135.587 44.4399 133.344 44.4399C131.101 44.4399 131.101 45.9365 128.857 45.9365C126.613 45.9365 126.613 44.4399 124.369 44.4399C122.126 44.4399 122.126 45.9365 119.883 45.9365C117.639 45.9365 117.639 44.4399 115.396 44.4399C113.151 44.4399 113.151 45.9365 110.907 45.9365C108.663 45.9365 108.663 44.4399 106.42 44.4399C104.175 44.4399 104.175 45.9365 101.931 45.9365C99.687 45.9365 99.687 44.4399 97.4431 44.4399C95.1987 44.4399 95.1987 45.9365 92.9544 45.9365C90.7102 45.9365 90.7102 44.4399 88.466 44.4399C86.2212 44.4399 86.2212 45.9365 83.9764 45.9365C81.7321 45.9365 81.7321 44.4399 79.4878 44.4399C77.2429 44.4399 77.2429 45.9365 74.998 45.9365C72.7527 45.9365 72.7527 44.4399 70.5075 44.4399C68.2626 44.4399 68.2626 45.9365 66.0177 45.9365C63.7727 45.9365 63.7727 44.4399 61.5277 44.4399C59.2825 44.4399 59.2825 45.9365 57.0373 45.9365C54.7917 45.9365 54.7917 44.4399 52.5462 44.4399C50.3021 44.4399 50.3021 45.9365 48.058 45.9365C45.813 45.9365 45.813 44.4399 43.568 44.4399C41.3229 44.4399 41.3229 45.9365 39.0779 45.9365C36.8328 45.9365 36.8328 44.4399 34.5878 44.4399C32.3421 44.4399 32.3421 45.9365 30.0965 45.9365C27.852 45.9365 27.852 44.4399 25.6076 44.4399C23.3612 44.4399 23.3612 45.9365 21.1148 45.9365C18.8669 45.9365 18.8669 44.4399 16.619 44.4399C14.371 44.4399 14.371 45.9365 12.1231 45.9365M137.829 44.0284C135.587 44.0284 135.587 42.5318 133.344 42.5318C131.101 42.5318 131.101 44.0284 128.857 44.0284C126.613 44.0284 126.613 42.5318 124.369 42.5318C122.126 42.5318 122.126 44.0284 119.883 44.0284C117.639 44.0284 117.639 42.5318 115.396 42.5318C113.151 42.5318 113.151 44.0284 110.907 44.0284C108.663 44.0284 108.663 42.5318 106.42 42.5318C104.175 42.5318 104.175 44.0284 101.931 44.0284C99.687 44.0284 99.687 42.5318 97.4431 42.5318C95.1987 42.5318 95.1987 44.0284 92.9544 44.0284C90.7102 44.0284 90.7102 42.5318 88.466 42.5318C86.2212 42.5318 86.2212 44.0284 83.9764 44.0284C81.7321 44.0284 81.7321 42.5318 79.4878 42.5318C77.2429 42.5318 77.2429 44.0284 74.998 44.0284C72.7527 44.0284 72.7527 42.5318 70.5075 42.5318C68.2626 42.5318 68.2626 44.0284 66.0177 44.0284C63.7727 44.0284 63.7727 42.5318 61.5277 42.5318C59.2825 42.5318 59.2825 44.0284 57.0373 44.0284C54.7917 44.0284 54.7917 42.5318 52.5462 42.5318C50.3021 42.5318 50.3021 44.0284 48.058 44.0284C45.813 44.0284 45.813 42.5318 43.568 42.5318C41.3229 42.5318 41.3229 44.0284 39.0779 44.0284C36.8328 44.0284 36.8328 42.5318 34.5878 42.5318C32.3421 42.5318 32.3421 44.0284 30.0965 44.0284C27.852 44.0284 27.852 42.5318 25.6076 42.5318C23.3612 42.5318 23.3612 44.0284 21.1148 44.0284C18.8669 44.0284 18.8669 42.5318 16.619 42.5318C14.371 42.5318 14.371 44.0284 12.1231 44.0284M137.829 42.1203C135.587 42.1203 135.587 40.6237 133.344 40.6237C131.101 40.6237 131.101 42.1203 128.857 42.1203C126.613 42.1203 126.613 40.6237 124.369 40.6237C122.126 40.6237 122.126 42.1203 119.883 42.1203C117.639 42.1203 117.639 40.6237 115.396 40.6237C113.151 40.6237 113.151 42.1203 110.907 42.1203C108.663 42.1203 108.663 40.6237 106.42 40.6237C104.175 40.6237 104.175 42.1203 101.931 42.1203C99.687 42.1203 99.687 40.6237 97.4431 40.6237C95.1987 40.6237 95.1987 42.1203 92.9544 42.1203C90.7102 42.1203 90.7102 40.6237 88.466 40.6237C86.2212 40.6237 86.2212 42.1203 83.9764 42.1203C81.7321 42.1203 81.7321 40.6237 79.4878 40.6237C77.2429 40.6237 77.2429 42.1203 74.998 42.1203C72.7527 42.1203 72.7527 40.6237 70.5075 40.6237C68.2626 40.6237 68.2626 42.1203 66.0177 42.1203C63.7727 42.1203 63.7727 40.6237 61.5277 40.6237C59.2825 40.6237 59.2825 42.1203 57.0373 42.1203C54.7917 42.1203 54.7917 40.6237 52.5462 40.6237C50.3021 40.6237 50.3021 42.1203 48.058 42.1203C45.813 42.1203 45.813 40.6237 43.568 40.6237C41.3229 40.6237 41.3229 42.1203 39.0779 42.1203C36.8328 42.1203 36.8328 40.6237 34.5878 40.6237C32.3421 40.6237 32.3421 42.1203 30.0965 42.1203C27.852 42.1203 27.852 40.6237 25.6076 40.6237C23.3612 40.6237 23.3612 42.1203 21.1148 42.1203C18.8669 42.1203 18.8669 40.6237 16.619 40.6237C14.371 40.6237 14.371 42.1203 12.1231 42.1203M137.829 40.2121C135.587 40.2121 135.587 38.7156 133.344 38.7156C131.101 38.7156 131.101 40.2121 128.857 40.2121C126.613 40.2121 126.613 38.7156 124.369 38.7156C122.126 38.7156 122.126 40.2121 119.883 40.2121C117.639 40.2121 117.639 38.7156 115.396 38.7156C113.151 38.7156 113.151 40.2121 110.907 40.2121C108.663 40.2121 108.663 38.7156 106.42 38.7156C104.175 38.7156 104.175 40.2121 101.931 40.2121C99.687 40.2121 99.687 38.7156 97.4431 38.7156C95.1987 38.7156 95.1987 40.2121 92.9544 40.2121C90.7102 40.2121 90.7102 38.7156 88.466 38.7156C86.2212 38.7156 86.2212 40.2121 83.9764 40.2121C81.7321 40.2121 81.7321 38.7156 79.4878 38.7156C77.2429 38.7156 77.2429 40.2121 74.998 40.2121C72.7527 40.2121 72.7527 38.7156 70.5075 38.7156C68.2626 38.7156 68.2626 40.2121 66.0177 40.2121C63.7727 40.2121 63.7727 38.7156 61.5277 38.7156C59.2825 38.7156 59.2825 40.2121 57.0373 40.2121C54.7917 40.2121 54.7917 38.7156 52.5462 38.7156C50.3021 38.7156 50.3021 40.2121 48.058 40.2121C45.813 40.2121 45.813 38.7156 43.568 38.7156C41.3229 38.7156 41.3229 40.2121 39.0779 40.2121C36.8328 40.2121 36.8328 38.7156 34.5878 38.7156C32.3421 38.7156 32.3421 40.2121 30.0965 40.2121C27.852 40.2121 27.852 38.7156 25.6076 38.7156C23.3612 38.7156 23.3612 40.2121 21.1148 40.2121C18.8669 40.2121 18.8669 38.7156 16.619 38.7156C14.371 38.7156 14.371 40.2121 12.1231 40.2121M137.829 38.3102C135.587 38.3102 135.587 36.8137 133.344 36.8137C131.101 36.8137 131.101 38.3102 128.857 38.3102C126.613 38.3102 126.613 36.8137 124.369 36.8137C122.126 36.8137 122.126 38.3102 119.883 38.3102C117.639 38.3102 117.639 36.8137 115.396 36.8137C113.151 36.8137 113.151 38.3102 110.907 38.3102C108.663 38.3102 108.663 36.8137 106.42 36.8137C104.175 36.8137 104.175 38.3102 101.931 38.3102C99.687 38.3102 99.687 36.8137 97.4431 36.8137C95.1987 36.8137 95.1987 38.3102 92.9544 38.3102C90.7102 38.3102 90.7102 36.8137 88.466 36.8137C86.2212 36.8137 86.2212 38.3102 83.9764 38.3102C81.7321 38.3102 81.7321 36.8137 79.4878 36.8137C77.2429 36.8137 77.2429 38.3102 74.998 38.3102C72.7527 38.3102 72.7527 36.8137 70.5075 36.8137C68.2626 36.8137 68.2626 38.3102 66.0177 38.3102C63.7727 38.3102 63.7727 36.8137 61.5277 36.8137C59.2825 36.8137 59.2825 38.3102 57.0373 38.3102C54.7917 38.3102 54.7917 36.8137 52.5462 36.8137C50.3021 36.8137 50.3021 38.3102 48.058 38.3102C45.813 38.3102 45.813 36.8137 43.568 36.8137C41.3229 36.8137 41.3229 38.3102 39.0779 38.3102C36.8328 38.3102 36.8328 36.8137 34.5878 36.8137C32.3421 36.8137 32.3421 38.3102 30.0965 38.3102C27.852 38.3102 27.852 36.8137 25.6076 36.8137C23.3612 36.8137 23.3612 38.3102 21.1148 38.3102C18.8669 38.3102 18.8669 36.8137 16.619 36.8137C14.371 36.8137 14.371 38.3102 12.1231 38.3102M137.829 36.4022C135.587 36.4022 135.587 34.9056 133.344 34.9056C131.101 34.9056 131.101 36.4022 128.857 36.4022C126.613 36.4022 126.613 34.9056 124.369 34.9056C122.126 34.9056 122.126 36.4022 119.883 36.4022C117.639 36.4022 117.639 34.9056 115.396 34.9056C113.151 34.9056 113.151 36.4022 110.907 36.4022C108.663 36.4022 108.663 34.9056 106.42 34.9056C104.175 34.9056 104.175 36.4022 101.931 36.4022C99.687 36.4022 99.687 34.9056 97.4431 34.9056C95.1987 34.9056 95.1987 36.4022 92.9544 36.4022C90.7102 36.4022 90.7102 34.9056 88.466 34.9056C86.2212 34.9056 86.2212 36.4022 83.9764 36.4022C81.7321 36.4022 81.7321 34.9056 79.4878 34.9056C77.2429 34.9056 77.2429 36.4022 74.998 36.4022C72.7527 36.4022 72.7527 34.9056 70.5075 34.9056C68.2626 34.9056 68.2626 36.4022 66.0177 36.4022C63.7727 36.4022 63.7727 34.9056 61.5277 34.9056C59.2825 34.9056 59.2825 36.4022 57.0373 36.4022C54.7917 36.4022 54.7917 34.9056 52.5462 34.9056C50.3021 34.9056 50.3021 36.4022 48.058 36.4022C45.813 36.4022 45.813 34.9056 43.568 34.9056C41.3229 34.9056 41.3229 36.4022 39.0779 36.4022C36.8328 36.4022 36.8328 34.9056 34.5878 34.9056C32.3421 34.9056 32.3421 36.4022 30.0965 36.4022C27.852 36.4022 27.852 34.9056 25.6076 34.9056C23.3612 34.9056 23.3612 36.4022 21.1148 36.4022C18.8669 36.4022 18.8669 34.9056 16.619 34.9056C14.371 34.9056 14.371 36.4022 12.1231 36.4022M137.829 34.4941C135.587 34.4941 135.587 32.9975 133.344 32.9975C131.101 32.9975 131.101 34.4941 128.857 34.4941C126.613 34.4941 126.613 32.9975 124.369 32.9975C122.126 32.9975 122.126 34.4941 119.883 34.4941C117.639 34.4941 117.639 32.9975 115.396 32.9975C113.151 32.9975 113.151 34.4941 110.907 34.4941C108.663 34.4941 108.663 32.9975 106.42 32.9975C104.175 32.9975 104.175 34.4941 101.931 34.4941C99.687 34.4941 99.687 32.9975 97.4431 32.9975C95.1987 32.9975 95.1987 34.4941 92.9544 34.4941C90.7102 34.4941 90.7102 32.9975 88.466 32.9975C86.2212 32.9975 86.2212 34.4941 83.9764 34.4941C81.7321 34.4941 81.7321 32.9975 79.4878 32.9975C77.2429 32.9975 77.2429 34.4941 74.998 34.4941C72.7527 34.4941 72.7527 32.9975 70.5075 32.9975C68.2626 32.9975 68.2626 34.4941 66.0177 34.4941C63.7727 34.4941 63.7727 32.9975 61.5277 32.9975C59.2825 32.9975 59.2825 34.4941 57.0373 34.4941C54.7917 34.4941 54.7917 32.9975 52.5462 32.9975C50.3021 32.9975 50.3021 34.4941 48.058 34.4941C45.813 34.4941 45.813 32.9975 43.568 32.9975C41.3229 32.9975 41.3229 34.4941 39.0779 34.4941C36.8328 34.4941 36.8328 32.9975 34.5878 32.9975C32.3421 32.9975 32.3421 34.4941 30.0965 34.4941C27.852 34.4941 27.852 32.9975 25.6076 32.9975C23.3612 32.9975 23.3612 34.4941 21.1148 34.4941C18.8669 34.4941 18.8669 32.9975 16.619 32.9975C14.371 32.9975 14.371 34.4941 12.1231 34.4941M137.829 32.5859C135.587 32.5859 135.587 31.0894 133.344 31.0894C131.101 31.0894 131.101 32.5859 128.857 32.5859C126.613 32.5859 126.613 31.0894 124.369 31.0894C122.126 31.0894 122.126 32.5859 119.883 32.5859C117.639 32.5859 117.639 31.0894 115.396 31.0894C113.151 31.0894 113.151 32.5859 110.907 32.5859C108.663 32.5859 108.663 31.0894 106.42 31.0894C104.175 31.0894 104.175 32.5859 101.931 32.5859C99.687 32.5859 99.687 31.0894 97.4431 31.0894C95.1987 31.0894 95.1987 32.5859 92.9544 32.5859C90.7102 32.5859 90.7102 31.0894 88.466 31.0894C86.2212 31.0894 86.2212 32.5859 83.9764 32.5859C81.7321 32.5859 81.7321 31.0894 79.4878 31.0894C77.2429 31.0894 77.2429 32.5859 74.998 32.5859C72.7527 32.5859 72.7527 31.0894 70.5075 31.0894C68.2626 31.0894 68.2626 32.5859 66.0177 32.5859C63.7727 32.5859 63.7727 31.0894 61.5277 31.0894C59.2825 31.0894 59.2825 32.5859 57.0373 32.5859C54.7917 32.5859 54.7917 31.0894 52.5462 31.0894C50.3021 31.0894 50.3021 32.5859 48.058 32.5859C45.813 32.5859 45.813 31.0894 43.568 31.0894C41.3229 31.0894 41.3229 32.5859 39.0779 32.5859C36.8328 32.5859 36.8328 31.0894 34.5878 31.0894C32.3421 31.0894 32.3421 32.5859 30.0965 32.5859C27.852 32.5859 27.852 31.0894 25.6076 31.0894C23.3612 31.0894 23.3612 32.5859 21.1148 32.5859C18.8669 32.5859 18.8669 31.0894 16.619 31.0894C14.371 31.0894 14.371 32.5859 12.1231 32.5859M137.829 30.6778C135.587 30.6778 135.587 29.1813 133.344 29.1813C131.101 29.1813 131.101 30.6778 128.857 30.6778C126.613 30.6778 126.613 29.1813 124.369 29.1813C122.126 29.1813 122.126 30.6778 119.883 30.6778C117.639 30.6778 117.639 29.1813 115.396 29.1813C113.151 29.1813 113.151 30.6778 110.907 30.6778C108.663 30.6778 108.663 29.1813 106.42 29.1813C104.175 29.1813 104.175 30.6778 101.931 30.6778C99.687 30.6778 99.687 29.1813 97.4431 29.1813C95.1987 29.1813 95.1987 30.6778 92.9544 30.6778C90.7102 30.6778 90.7102 29.1813 88.466 29.1813C86.2212 29.1813 86.2212 30.6778 83.9764 30.6778C81.7321 30.6778 81.7321 29.1813 79.4878 29.1813C77.2429 29.1813 77.2429 30.6778 74.998 30.6778C72.7527 30.6778 72.7527 29.1813 70.5075 29.1813C68.2626 29.1813 68.2626 30.6778 66.0177 30.6778C63.7727 30.6778 63.7727 29.1813 61.5277 29.1813C59.2825 29.1813 59.2825 30.6778 57.0373 30.6778C54.7917 30.6778 54.7917 29.1813 52.5462 29.1813C50.3021 29.1813 50.3021 30.6778 48.058 30.6778C45.813 30.6778 45.813 29.1813 43.568 29.1813C41.3229 29.1813 41.3229 30.6778 39.0779 30.6778C36.8328 30.6778 36.8328 29.1813 34.5878 29.1813C32.3421 29.1813 32.3421 30.6778 30.0965 30.6778C27.852 30.6778 27.852 29.1813 25.6076 29.1813C23.3612 29.1813 23.3612 30.6778 21.1148 30.6778C18.8669 30.6778 18.8669 29.1813 16.619 29.1813C14.371 29.1813 14.371 30.6778 12.1231 30.6778M137.829 28.776C135.587 28.776 135.587 27.2794 133.344 27.2794C131.101 27.2794 131.101 28.776 128.857 28.776C126.613 28.776 126.613 27.2794 124.369 27.2794C122.126 27.2794 122.126 28.776 119.883 28.776C117.639 28.776 117.639 27.2794 115.396 27.2794C113.151 27.2794 113.151 28.776 110.907 28.776C108.663 28.776 108.663 27.2794 106.42 27.2794C104.175 27.2794 104.175 28.776 101.931 28.776C99.687 28.776 99.687 27.2794 97.4431 27.2794C95.1987 27.2794 95.1987 28.776 92.9544 28.776C90.7102 28.776 90.7102 27.2794 88.466 27.2794C86.2212 27.2794 86.2212 28.776 83.9764 28.776C81.7321 28.776 81.7321 27.2794 79.4878 27.2794C77.2429 27.2794 77.2429 28.776 74.998 28.776C72.7527 28.776 72.7527 27.2794 70.5075 27.2794C68.2626 27.2794 68.2626 28.776 66.0177 28.776C63.7727 28.776 63.7727 27.2794 61.5277 27.2794C59.2825 27.2794 59.2825 28.776 57.0373 28.776C54.7917 28.776 54.7917 27.2794 52.5462 27.2794C50.3021 27.2794 50.3021 28.776 48.058 28.776C45.813 28.776 45.813 27.2794 43.568 27.2794C41.3229 27.2794 41.3229 28.776 39.0779 28.776C36.8328 28.776 36.8328 27.2794 34.5878 27.2794C32.3421 27.2794 32.3421 28.776 30.0965 28.776C27.852 28.776 27.852 27.2794 25.6076 27.2794C23.3612 27.2794 23.3612 28.776 21.1148 28.776C18.8669 28.776 18.8669 27.2794 16.619 27.2794C14.371 27.2794 14.371 28.776 12.1231 28.776M137.829 26.8679C135.587 26.8679 135.587 25.3713 133.344 25.3713C131.101 25.3713 131.101 26.8679 128.857 26.8679C126.613 26.8679 126.613 25.3713 124.369 25.3713C122.126 25.3713 122.126 26.8679 119.883 26.8679C117.639 26.8679 117.639 25.3713 115.396 25.3713C113.151 25.3713 113.151 26.8679 110.907 26.8679C108.663 26.8679 108.663 25.3713 106.42 25.3713C104.175 25.3713 104.175 26.8679 101.931 26.8679C99.687 26.8679 99.687 25.3713 97.4431 25.3713C95.1987 25.3713 95.1987 26.8679 92.9544 26.8679C90.7102 26.8679 90.7102 25.3713 88.466 25.3713C86.2212 25.3713 86.2212 26.8679 83.9764 26.8679C81.7321 26.8679 81.7321 25.3713 79.4878 25.3713C77.2429 25.3713 77.2429 26.8679 74.998 26.8679C72.7527 26.8679 72.7527 25.3713 70.5075 25.3713C68.2626 25.3713 68.2626 26.8679 66.0177 26.8679C63.7727 26.8679 63.7727 25.3713 61.5277 25.3713C59.2825 25.3713 59.2825 26.8679 57.0373 26.8679C54.7917 26.8679 54.7917 25.3713 52.5462 25.3713C50.3021 25.3713 50.3021 26.8679 48.058 26.8679C45.813 26.8679 45.813 25.3713 43.568 25.3713C41.3229 25.3713 41.3229 26.8679 39.0779 26.8679C36.8328 26.8679 36.8328 25.3713 34.5878 25.3713C32.3421 25.3713 32.3421 26.8679 30.0965 26.8679C27.852 26.8679 27.852 25.3713 25.6076 25.3713C23.3612 25.3713 23.3612 26.8679 21.1148 26.8679C18.8669 26.8679 18.8669 25.3713 16.619 25.3713C14.371 25.3713 14.371 26.8679 12.1231 26.8679M137.829 24.9597C135.587 24.9597 135.587 23.4632 133.344 23.4632C131.101 23.4632 131.101 24.9597 128.857 24.9597C126.613 24.9597 126.613 23.4632 124.369 23.4632C122.126 23.4632 122.126 24.9597 119.883 24.9597C117.639 24.9597 117.639 23.4632 115.396 23.4632C113.151 23.4632 113.151 24.9597 110.907 24.9597C108.663 24.9597 108.663 23.4632 106.42 23.4632C104.175 23.4632 104.175 24.9597 101.931 24.9597C99.687 24.9597 99.687 23.4632 97.4431 23.4632C95.1987 23.4632 95.1987 24.9597 92.9544 24.9597C90.7102 24.9597 90.7102 23.4632 88.466 23.4632C86.2212 23.4632 86.2212 24.9597 83.9764 24.9597C81.7321 24.9597 81.7321 23.4632 79.4878 23.4632C77.2429 23.4632 77.2429 24.9597 74.998 24.9597C72.7527 24.9597 72.7527 23.4632 70.5075 23.4632C68.2626 23.4632 68.2626 24.9597 66.0177 24.9597C63.7727 24.9597 63.7727 23.4632 61.5277 23.4632C59.2825 23.4632 59.2825 24.9597 57.0373 24.9597C54.7917 24.9597 54.7917 23.4632 52.5462 23.4632C50.3021 23.4632 50.3021 24.9597 48.058 24.9597C45.813 24.9597 45.813 23.4632 43.568 23.4632C41.3229 23.4632 41.3229 24.9597 39.0779 24.9597C36.8328 24.9597 36.8328 23.4632 34.5878 23.4632C32.3421 23.4632 32.3421 24.9597 30.0965 24.9597C27.852 24.9597 27.852 23.4632 25.6076 23.4632C23.3612 23.4632 23.3612 24.9597 21.1148 24.9597C18.8669 24.9597 18.8669 23.4632 16.619 23.4632C14.371 23.4632 14.371 24.9597 12.1231 24.9597M137.829 23.0516C135.587 23.0516 135.587 21.5551 133.344 21.5551C131.101 21.5551 131.101 23.0516 128.857 23.0516C126.613 23.0516 126.613 21.5551 124.369 21.5551C122.126 21.5551 122.126 23.0516 119.883 23.0516C117.639 23.0516 117.639 21.5551 115.396 21.5551C113.151 21.5551 113.151 23.0516 110.907 23.0516C108.663 23.0516 108.663 21.5551 106.42 21.5551C104.175 21.5551 104.175 23.0516 101.931 23.0516C99.687 23.0516 99.687 21.5551 97.4431 21.5551C95.1987 21.5551 95.1987 23.0516 92.9544 23.0516C90.7102 23.0516 90.7102 21.5551 88.466 21.5551C86.2212 21.5551 86.2212 23.0516 83.9764 23.0516C81.7321 23.0516 81.7321 21.5551 79.4878 21.5551C77.2429 21.5551 77.2429 23.0516 74.998 23.0516C72.7527 23.0516 72.7527 21.5551 70.5075 21.5551C68.2626 21.5551 68.2626 23.0516 66.0177 23.0516C63.7727 23.0516 63.7727 21.5551 61.5277 21.5551C59.2825 21.5551 59.2825 23.0516 57.0373 23.0516C54.7917 23.0516 54.7917 21.5551 52.5462 21.5551C50.3021 21.5551 50.3021 23.0516 48.058 23.0516C45.813 23.0516 45.813 21.5551 43.568 21.5551C41.3229 21.5551 41.3229 23.0516 39.0779 23.0516C36.8328 23.0516 36.8328 21.5551 34.5878 21.5551C32.3421 21.5551 32.3421 23.0516 30.0965 23.0516C27.852 23.0516 27.852 21.5551 25.6076 21.5551C23.3612 21.5551 23.3612 23.0516 21.1148 23.0516C18.8669 23.0516 18.8669 21.5551 16.619 21.5551C14.371 21.5551 14.371 23.0516 12.1231 23.0516M137.829 21.1498C135.587 21.1498 135.587 19.6532 133.344 19.6532C131.101 19.6532 131.101 21.1498 128.857 21.1498C126.613 21.1498 126.613 19.6532 124.369 19.6532C122.126 19.6532 122.126 21.1498 119.883 21.1498C117.639 21.1498 117.639 19.6532 115.396 19.6532C113.151 19.6532 113.151 21.1498 110.907 21.1498C108.663 21.1498 108.663 19.6532 106.42 19.6532C104.175 19.6532 104.175 21.1498 101.931 21.1498C99.687 21.1498 99.687 19.6532 97.4431 19.6532C95.1987 19.6532 95.1987 21.1498 92.9544 21.1498C90.7102 21.1498 90.7102 19.6532 88.466 19.6532C86.2212 19.6532 86.2212 21.1498 83.9764 21.1498C81.7321 21.1498 81.7321 19.6532 79.4878 19.6532C77.2429 19.6532 77.2429 21.1498 74.998 21.1498C72.7527 21.1498 72.7527 19.6532 70.5075 19.6532C68.2626 19.6532 68.2626 21.1498 66.0177 21.1498C63.7727 21.1498 63.7727 19.6532 61.5277 19.6532C59.2825 19.6532 59.2825 21.1498 57.0373 21.1498C54.7917 21.1498 54.7917 19.6532 52.5462 19.6532C50.3021 19.6532 50.3021 21.1498 48.058 21.1498C45.813 21.1498 45.813 19.6532 43.568 19.6532C41.3229 19.6532 41.3229 21.1498 39.0779 21.1498C36.8328 21.1498 36.8328 19.6532 34.5878 19.6532C32.3421 19.6532 32.3421 21.1498 30.0965 21.1498C27.852 21.1498 27.852 19.6532 25.6076 19.6532C23.3612 19.6532 23.3612 21.1498 21.1148 21.1498C18.8669 21.1498 18.8669 19.6532 16.619 19.6532C14.371 19.6532 14.371 21.1498 12.1231 21.1498M137.829 19.2417C135.587 19.2417 135.587 17.7451 133.344 17.7451C131.101 17.7451 131.101 19.2417 128.857 19.2417C126.613 19.2417 126.613 17.7451 124.369 17.7451C122.126 17.7451 122.126 19.2417 119.883 19.2417C117.639 19.2417 117.639 17.7451 115.396 17.7451C113.151 17.7451 113.151 19.2417 110.907 19.2417C108.663 19.2417 108.663 17.7451 106.42 17.7451C104.175 17.7451 104.175 19.2417 101.931 19.2417C99.687 19.2417 99.687 17.7451 97.4431 17.7451C95.1987 17.7451 95.1987 19.2417 92.9544 19.2417C90.7102 19.2417 90.7102 17.7451 88.466 17.7451C86.2212 17.7451 86.2212 19.2417 83.9764 19.2417C81.7321 19.2417 81.7321 17.7451 79.4878 17.7451C77.2429 17.7451 77.2429 19.2417 74.998 19.2417C72.7527 19.2417 72.7527 17.7451 70.5075 17.7451C68.2626 17.7451 68.2626 19.2417 66.0177 19.2417C63.7727 19.2417 63.7727 17.7451 61.5277 17.7451C59.2825 17.7451 59.2825 19.2417 57.0373 19.2417C54.7917 19.2417 54.7917 17.7451 52.5462 17.7451C50.3021 17.7451 50.3021 19.2417 48.058 19.2417C45.813 19.2417 45.813 17.7451 43.568 17.7451C41.3229 17.7451 41.3229 19.2417 39.0779 19.2417C36.8328 19.2417 36.8328 17.7451 34.5878 17.7451C32.3421 17.7451 32.3421 19.2417 30.0965 19.2417C27.852 19.2417 27.852 17.7451 25.6076 17.7451C23.3612 17.7451 23.3612 19.2417 21.1148 19.2417C18.8669 19.2417 18.8669 17.7451 16.619 17.7451C14.371 17.7451 14.371 19.2417 12.1231 19.2417M137.829 17.3335C135.587 17.3335 135.587 15.837 133.344 15.837C131.101 15.837 131.101 17.3335 128.857 17.3335C126.613 17.3335 126.613 15.837 124.369 15.837C122.126 15.837 122.126 17.3335 119.883 17.3335C117.639 17.3335 117.639 15.837 115.396 15.837C113.151 15.837 113.151 17.3335 110.907 17.3335C108.663 17.3335 108.663 15.837 106.42 15.837C104.175 15.837 104.175 17.3335 101.931 17.3335C99.687 17.3335 99.687 15.837 97.4431 15.837C95.1987 15.837 95.1987 17.3335 92.9544 17.3335C90.7102 17.3335 90.7102 15.837 88.466 15.837C86.2212 15.837 86.2212 17.3335 83.9764 17.3335C81.7321 17.3335 81.7321 15.837 79.4878 15.837C77.2429 15.837 77.2429 17.3335 74.998 17.3335C72.7527 17.3335 72.7527 15.837 70.5075 15.837C68.2626 15.837 68.2626 17.3335 66.0177 17.3335C63.7727 17.3335 63.7727 15.837 61.5277 15.837C59.2825 15.837 59.2825 17.3335 57.0373 17.3335C54.7917 17.3335 54.7917 15.837 52.5462 15.837C50.3021 15.837 50.3021 17.3335 48.058 17.3335C45.813 17.3335 45.813 15.837 43.568 15.837C41.3229 15.837 41.3229 17.3335 39.0779 17.3335C36.8328 17.3335 36.8328 15.837 34.5878 15.837C32.3421 15.837 32.3421 17.3335 30.0965 17.3335C27.852 17.3335 27.852 15.837 25.6076 15.837C23.3612 15.837 23.3612 17.3335 21.1148 17.3335C18.8669 17.3335 18.8669 15.837 16.619 15.837C14.371 15.837 14.371 17.3335 12.1231 17.3335M137.829 15.4254C135.587 15.4254 135.587 13.9289 133.344 13.9289C131.101 13.9289 131.101 15.4254 128.857 15.4254C126.613 15.4254 126.613 13.9289 124.369 13.9289C122.126 13.9289 122.126 15.4254 119.883 15.4254C117.639 15.4254 117.639 13.9289 115.396 13.9289C113.151 13.9289 113.151 15.4254 110.907 15.4254C108.663 15.4254 108.663 13.9289 106.42 13.9289C104.175 13.9289 104.175 15.4254 101.931 15.4254C99.687 15.4254 99.687 13.9289 97.4431 13.9289C95.1987 13.9289 95.1987 15.4254 92.9544 15.4254C90.7102 15.4254 90.7102 13.9289 88.466 13.9289C86.2212 13.9289 86.2212 15.4254 83.9764 15.4254C81.7321 15.4254 81.7321 13.9289 79.4878 13.9289C77.2429 13.9289 77.2429 15.4254 74.998 15.4254C72.7527 15.4254 72.7527 13.9289 70.5075 13.9289C68.2626 13.9289 68.2626 15.4254 66.0177 15.4254C63.7727 15.4254 63.7727 13.9289 61.5277 13.9289C59.2825 13.9289 59.2825 15.4254 57.0373 15.4254C54.7917 15.4254 54.7917 13.9289 52.5462 13.9289C50.3021 13.9289 50.3021 15.4254 48.058 15.4254C45.813 15.4254 45.813 13.9289 43.568 13.9289C41.3229 13.9289 41.3229 15.4254 39.0779 15.4254C36.8328 15.4254 36.8328 13.9289 34.5878 13.9289C32.3421 13.9289 32.3421 15.4254 30.0965 15.4254C27.852 15.4254 27.852 13.9289 25.6076 13.9289C23.3612 13.9289 23.3612 15.4254 21.1148 15.4254C18.8669 15.4254 18.8669 13.9289 16.619 13.9289C14.371 13.9289 14.371 15.4254 12.1231 15.4254M137.829 13.5173C135.587 13.5173 135.587 12.0207 133.344 12.0207C131.101 12.0207 131.101 13.5173 128.857 13.5173C126.613 13.5173 126.613 12.0207 124.369 12.0207C122.126 12.0207 122.126 13.5173 119.883 13.5173C117.639 13.5173 117.639 12.0207 115.396 12.0207C113.151 12.0207 113.151 13.5173 110.907 13.5173C108.663 13.5173 108.663 12.0207 106.42 12.0207C104.175 12.0207 104.175 13.5173 101.931 13.5173C99.687 13.5173 99.687 12.0207 97.4431 12.0207C95.1987 12.0207 95.1987 13.5173 92.9544 13.5173C90.7102 13.5173 90.7102 12.0207 88.466 12.0207C86.2212 12.0207 86.2212 13.5173 83.9764 13.5173C81.7321 13.5173 81.7321 12.0207 79.4878 12.0207C77.2429 12.0207 77.2429 13.5173 74.998 13.5173C72.7527 13.5173 72.7527 12.0207 70.5075 12.0207C68.2626 12.0207 68.2626 13.5173 66.0177 13.5173C63.7727 13.5173 63.7727 12.0207 61.5277 12.0207C59.2825 12.0207 59.2825 13.5173 57.0373 13.5173C54.7917 13.5173 54.7917 12.0207 52.5462 12.0207C50.3021 12.0207 50.3021 13.5173 48.058 13.5173C45.813 13.5173 45.813 12.0207 43.568 12.0207C41.3229 12.0207 41.3229 13.5173 39.0779 13.5173C36.8328 13.5173 36.8328 12.0207 34.5878 12.0207C32.3421 12.0207 32.3421 13.5173 30.0965 13.5173C27.852 13.5173 27.852 12.0207 25.6076 12.0207C23.3612 12.0207 23.3612 13.5173 21.1148 13.5173C18.8669 13.5173 18.8669 12.0207 16.619 12.0207C14.371 12.0207 14.371 13.5173 12.1231 13.5173M137.829 11.6155C135.587 11.6155 135.587 10.1189 133.344 10.1189C131.101 10.1189 131.101 11.6155 128.857 11.6155C126.613 11.6155 126.613 10.1189 124.369 10.1189C122.126 10.1189 122.126 11.6155 119.883 11.6155C117.639 11.6155 117.639 10.1189 115.396 10.1189C113.151 10.1189 113.151 11.6155 110.907 11.6155C108.663 11.6155 108.663 10.1189 106.42 10.1189C104.175 10.1189 104.175 11.6155 101.931 11.6155C99.687 11.6155 99.687 10.1189 97.4431 10.1189C95.1987 10.1189 95.1987 11.6155 92.9544 11.6155C90.7102 11.6155 90.7102 10.1189 88.466 10.1189C86.2212 10.1189 86.2212 11.6155 83.9764 11.6155C81.7321 11.6155 81.7321 10.1189 79.4878 10.1189C77.2429 10.1189 77.2429 11.6155 74.998 11.6155C72.7527 11.6155 72.7527 10.1189 70.5075 10.1189C68.2626 10.1189 68.2626 11.6155 66.0177 11.6155C63.7727 11.6155 63.7727 10.1189 61.5277 10.1189C59.2825 10.1189 59.2825 11.6155 57.0373 11.6155C54.7917 11.6155 54.7917 10.1189 52.5462 10.1189C50.3021 10.1189 50.3021 11.6155 48.058 11.6155C45.813 11.6155 45.813 10.1189 43.568 10.1189C41.3229 10.1189 41.3229 11.6155 39.0779 11.6155C36.8328 11.6155 36.8328 10.1189 34.5878 10.1189C32.3421 10.1189 32.3421 11.6155 30.0965 11.6155C27.852 11.6155 27.852 10.1189 25.6076 10.1189C23.3612 10.1189 23.3612 11.6155 21.1148 11.6155C18.8669 11.6155 18.8669 10.1189 16.619 10.1189C14.371 10.1189 14.371 11.6155 12.1231 11.6155M137.829 9.70732C135.587 9.70732 135.587 8.21076 133.344 8.21076C131.101 8.21076 131.101 9.70732 128.857 9.70732C126.613 9.70732 126.613 8.21076 124.369 8.21076C122.126 8.21076 122.126 9.70732 119.883 9.70732C117.639 9.70732 117.639 8.21076 115.396 8.21076C113.151 8.21076 113.151 9.70732 110.907 9.70732C108.663 9.70732 108.663 8.21076 106.42 8.21076C104.175 8.21076 104.175 9.70732 101.931 9.70732C99.687 9.70732 99.687 8.21076 97.4431 8.21076C95.1987 8.21076 95.1987 9.70732 92.9544 9.70732C90.7102 9.70732 90.7102 8.21076 88.466 8.21076C86.2212 8.21076 86.2212 9.70732 83.9764 9.70732C81.7321 9.70732 81.7321 8.21076 79.4878 8.21076C77.2429 8.21076 77.2429 9.70732 74.998 9.70732C72.7527 9.70732 72.7527 8.21076 70.5075 8.21076C68.2626 8.21076 68.2626 9.70732 66.0177 9.70732C63.7727 9.70732 63.7727 8.21076 61.5277 8.21076C59.2825 8.21076 59.2825 9.70732 57.0373 9.70732C54.7917 9.70732 54.7917 8.21076 52.5462 8.21076C50.3021 8.21076 50.3021 9.70732 48.058 9.70732C45.813 9.70732 45.813 8.21076 43.568 8.21076C41.3229 8.21076 41.3229 9.70732 39.0779 9.70732C36.8328 9.70732 36.8328 8.21076 34.5878 8.21076C32.3421 8.21076 32.3421 9.70732 30.0965 9.70732C27.852 9.70732 27.852 8.21076 25.6076 8.21076C23.3612 8.21076 23.3612 9.70732 21.1148 9.70732C18.8669 9.70732 18.8669 8.21076 16.619 8.21076C14.371 8.21076 14.371 9.70732 12.1231 9.70732M137.829 7.79923C135.587 7.79923 135.587 6.30267 133.344 6.30267C131.101 6.30267 131.101 7.79923 128.857 7.79923C126.613 7.79923 126.613 6.30267 124.369 6.30267C122.126 6.30267 122.126 7.79923 119.883 7.79923C117.639 7.79923 117.639 6.30267 115.396 6.30267C113.151 6.30267 113.151 7.79923 110.907 7.79923C108.663 7.79923 108.663 6.30267 106.42 6.30267C104.175 6.30267 104.175 7.79923 101.931 7.79923C99.687 7.79923 99.687 6.30267 97.4431 6.30267C95.1987 6.30267 95.1987 7.79923 92.9544 7.79923C90.7102 7.79923 90.7102 6.30267 88.466 6.30267C86.2212 6.30267 86.2212 7.79923 83.9764 7.79923C81.7321 7.79923 81.7321 6.30267 79.4878 6.30267C77.2429 6.30267 77.2429 7.79923 74.998 7.79923C72.7527 7.79923 72.7527 6.30267 70.5075 6.30267C68.2626 6.30267 68.2626 7.79923 66.0177 7.79923C63.7727 7.79923 63.7727 6.30267 61.5277 6.30267C59.2825 6.30267 59.2825 7.79923 57.0373 7.79923C54.7917 7.79923 54.7917 6.30267 52.5462 6.30267C50.3021 6.30267 50.3021 7.79923 48.058 7.79923C45.813 7.79923 45.813 6.30267 43.568 6.30267C41.3229 6.30267 41.3229 7.79923 39.0779 7.79923C36.8328 7.79923 36.8328 6.30267 34.5878 6.30267C32.3421 6.30267 32.3421 7.79923 30.0965 7.79923C27.852 7.79923 27.852 6.30267 25.6076 6.30267C23.3612 6.30267 23.3612 7.79923 21.1148 7.79923C18.8669 7.79923 18.8669 6.30267 16.619 6.30267C14.371 6.30267 14.371 7.79923 12.1231 7.79923M137.829 5.8911C135.587 5.8911 135.587 4.39454 133.344 4.39454C131.101 4.39454 131.101 5.8911 128.857 5.8911C126.613 5.8911 126.613 4.39454 124.369 4.39454C122.126 4.39454 122.126 5.8911 119.883 5.8911C117.639 5.8911 117.639 4.39454 115.396 4.39454C113.151 4.39454 113.151 5.8911 110.907 5.8911C108.663 5.8911 108.663 4.39454 106.42 4.39454C104.175 4.39454 104.175 5.8911 101.931 5.8911C99.687 5.8911 99.687 4.39454 97.4431 4.39454C95.1987 4.39454 95.1987 5.8911 92.9544 5.8911C90.7102 5.8911 90.7102 4.39454 88.466 4.39454C86.2212 4.39454 86.2212 5.8911 83.9764 5.8911C81.7321 5.8911 81.7321 4.39454 79.4878 4.39454C77.2429 4.39454 77.2429 5.8911 74.998 5.8911C72.7527 5.8911 72.7527 4.39454 70.5075 4.39454C68.2626 4.39454 68.2626 5.8911 66.0177 5.8911C63.7727 5.8911 63.7727 4.39454 61.5277 4.39454C59.2825 4.39454 59.2825 5.8911 57.0373 5.8911C54.7917 5.8911 54.7917 4.39454 52.5462 4.39454C50.3021 4.39454 50.3021 5.8911 48.058 5.8911C45.813 5.8911 45.813 4.39454 43.568 4.39454C41.3229 4.39454 41.3229 5.8911 39.0779 5.8911C36.8328 5.8911 36.8328 4.39454 34.5878 4.39454C32.3421 4.39454 32.3421 5.8911 30.0965 5.8911C27.852 5.8911 27.852 4.39454 25.6076 4.39454C23.3612 4.39454 23.3612 5.8911 21.1148 5.8911C18.8669 5.8911 18.8669 4.39454 16.619 4.39454C14.371 4.39454 14.371 5.8911 12.1231 5.8911M76.981 4.02994C79.8144 4.02994 79.8144 0.492188 82.6478 0.492188C85.4816 0.492188 85.4816 4.02994 88.3155 4.02994C91.1474 4.02994 91.1474 0.492188 93.9794 0.492188C96.8126 0.492188 96.8126 4.02994 99.6457 4.02994C102.479 4.02994 102.479 0.492188 105.312 0.492188C108.145 0.492188 108.145 4.02994 110.978 4.02994C113.812 4.02994 113.812 0.492188 116.646 0.492188C119.479 0.492188 119.479 4.02994 122.311 4.02994C125.146 4.02994 125.146 0.492188 127.981 0.492188C130.818 0.492188 130.818 4.02994 133.655 4.02994C135.778 4.02994 136.312 2.0483 137.636 1.05125C138.823 0.156636 141.747 2.94199 140.859 4.13558C139.867 5.46973 137.878 6.00194 137.878 8.1349C137.878 10.977 141.409 10.977 141.409 13.8191C141.409 16.6593 137.878 16.6593 137.878 19.4995C137.878 22.3372 141.409 22.3372 141.409 25.1749C141.409 28.0142 137.878 28.0142 137.878 30.8534C137.878 33.6919 141.409 33.6919 141.409 36.5305C141.409 37.4581 141.032 38.0825 140.524 38.602C141.032 39.1215 141.409 39.7459 141.409 40.6736C141.409 43.5121 137.878 43.5121 137.878 46.3506C137.878 49.1898 141.409 49.1898 141.409 52.0291C141.409 54.8668 137.878 54.8668 137.878 57.7045C137.878 60.5447 141.409 60.5447 141.409 63.3849C141.409 66.227 137.878 66.227 137.878 69.0691C137.878 71.2021 139.867 71.7343 140.859 73.0684C141.747 74.2621 138.823 77.0474 137.636 76.1528C136.312 75.1557 135.778 73.1741 133.655 73.1741C130.818 73.1741 130.818 76.7118 127.981 76.7118C125.146 76.7118 125.146 73.1741 122.311 73.1741C119.479 73.1741 119.479 76.7118 116.646 76.7118C113.812 76.7118 113.812 73.1741 110.978 73.1741C108.145 73.1741 108.145 76.7118 105.312 76.7118C102.479 76.7118 102.479 73.1741 99.6457 73.1741C96.8126 73.1741 96.8126 76.7118 93.9794 76.7118C91.1474 76.7118 91.1474 73.1741 88.3155 73.1741C85.4817 73.1741 85.4817 76.7118 82.6478 76.7118C79.8144 76.7118 79.8144 73.1741 76.981 73.1741C76.0922 73.1741 75.4822 73.5223 74.9761 74.0003C74.47 73.5223 73.86 73.1741 72.9712 73.1741C70.1378 73.1741 70.1378 76.7118 67.3044 76.7118C64.4705 76.7118 64.4705 73.1741 61.6367 73.1741C58.8047 73.1741 58.8047 76.7118 55.9728 76.7118C53.1396 76.7118 53.1396 73.1741 50.3064 73.1741C47.4733 73.1741 47.4733 76.7118 44.6401 76.7118C41.8069 76.7118 41.8069 73.1741 38.9737 73.1741C36.1397 73.1741 36.1397 76.7118 33.3058 76.7118C30.4734 76.7118 30.4734 73.1741 27.6409 73.1741C24.8061 73.1741 24.8061 76.7118 21.9712 76.7118C19.1344 76.7118 19.1344 73.1741 16.2976 73.1741C14.1744 73.1741 13.6403 75.1557 12.3166 76.1528C11.129 77.0474 8.20484 74.2621 9.0928 73.0684C10.0853 71.7343 12.0741 71.2021 12.0741 69.0691C12.0741 66.227 8.54297 66.227 8.54297 63.3849C8.54297 60.5447 12.0741 60.5447 12.0741 57.7045C12.0741 54.8668 8.54297 54.8668 8.54297 52.0291C8.54297 49.1898 12.0741 49.1898 12.0741 46.3506C12.0741 43.5121 8.54297 43.5121 8.54297 40.6736C8.54297 39.7459 8.92009 39.1215 9.42785 38.602C8.92009 38.0825 8.54297 37.4581 8.54297 36.5305C8.54297 33.6919 12.0741 33.6919 12.0741 30.8534C12.0741 28.0142 8.54297 28.0142 8.54297 25.1749C8.54297 22.3372 12.0741 22.3372 12.0741 19.4995C12.0741 16.6593 8.54297 16.6593 8.54297 13.8191C8.54297 10.977 12.0741 10.977 12.0741 8.1349C12.0741 6.00194 10.0853 5.46973 9.0928 4.13558C8.20484 2.94199 11.129 0.156636 12.3166 1.05125C13.6403 2.0483 14.1744 4.02994 16.2976 4.02994C19.1344 4.02994 19.1344 0.492188 21.9712 0.492188C24.8061 0.492188 24.8061 4.02994 27.6409 4.02994C30.4734 4.02994 30.4734 0.492188 33.3058 0.492188C36.1397 0.492188 36.1397 4.02994 38.9737 4.02994C41.8069 4.02994 41.8069 0.492188 44.6401 0.492188C47.4733 0.492188 47.4733 4.02994 50.3064 4.02994C53.1396 4.02994 53.1396 0.492188 55.9728 0.492188C58.8047 0.492188 58.8047 4.02994 61.6367 4.02994C64.4705 4.02994 64.4705 0.492188 67.3044 0.492188C70.1378 0.492188 70.1378 4.02994 72.9712 4.02994C73.86 4.02994 74.47 3.6817 74.9761 3.20375C75.4822 3.6817 76.0922 4.02994 76.981 4.02994ZM74.9761 4.02933C74.9548 4.02971 74.9334 4.02994 74.9117 4.02994C72.0784 4.02994 72.0783 0.492188 69.2449 0.492188C66.4111 0.492188 66.4111 4.02994 63.5773 4.02994C60.7453 4.02994 60.7453 0.492188 57.9134 0.492188C55.0802 0.492188 55.0802 4.02994 52.247 4.02994C49.4139 4.02994 49.4139 0.492188 46.5807 0.492188C43.7475 0.492188 43.7475 4.02994 40.9143 4.02994C38.0803 4.02994 38.0803 0.492188 35.2464 0.492188C32.414 0.492188 32.4139 4.02994 29.5815 4.02994C26.7467 4.02994 26.7467 0.492188 23.9118 0.492188C21.075 0.492188 21.075 4.02994 18.2381 4.02994C16.5694 4.02994 15.5978 2.55552 14.7374 1.5474C13.669 0.295523 12.0186 1.34576 10.6826 2.68427C9.37849 3.9908 8.36139 5.55929 9.4969 6.55082C10.5146 7.43949 12.0741 8.37132 12.0741 10.0791C12.0741 12.9213 8.54297 12.9213 8.54297 15.7634C8.54297 18.6036 12.0741 18.6036 12.0741 21.4437C12.0741 24.2814 8.54297 24.2815 8.54297 27.1192C8.54297 29.9584 12.0741 29.9584 12.0741 32.7977C12.0741 35.6362 8.54297 35.6362 8.54297 38.4747C8.54297 38.5178 8.54378 38.5602 8.54538 38.602C8.54378 38.6438 8.54297 38.6863 8.54297 38.7293C8.54297 41.5678 12.0741 41.5678 12.0741 44.4064C12.0741 47.2456 8.54297 47.2456 8.54297 50.0849C8.54297 52.9226 12.0741 52.9226 12.0741 55.7603C12.0741 58.6005 8.54297 58.6005 8.54297 61.4406C8.54297 64.2828 12.0741 64.2828 12.0741 67.1249C12.0741 68.8327 10.5146 69.7646 9.4969 70.6532C8.36139 71.6448 9.37849 73.2133 10.6826 74.5197C12.0186 75.8582 13.669 76.9085 14.7374 75.6566C15.5978 74.6485 16.5694 73.1741 18.2381 73.1741C21.075 73.1741 21.075 76.7118 23.9118 76.7118C26.7467 76.7118 26.7467 73.1741 29.5815 73.1741C32.4139 73.1741 32.414 76.7118 35.2464 76.7118C38.0803 76.7118 38.0803 73.1741 40.9143 73.1741C43.7475 73.1741 43.7475 76.7118 46.5807 76.7118C49.4139 76.7118 49.4139 73.1741 52.247 73.1741C55.0802 73.1741 55.0802 76.7118 57.9134 76.7118C60.7453 76.7118 60.7453 73.1741 63.5773 73.1741C66.4111 73.1741 66.4111 76.7118 69.2449 76.7118C72.0783 76.7118 72.0784 73.1741 74.9117 73.1741C74.9334 73.1741 74.9548 73.1743 74.9761 73.1747C74.9974 73.1743 75.0188 73.1741 75.0404 73.1741C77.8738 73.1741 77.8738 76.7118 80.7072 76.7118C83.5411 76.7118 83.5411 73.1741 86.3749 73.1741C89.2068 73.1741 89.2068 76.7118 92.0388 76.7118C94.872 76.7118 94.872 73.1741 97.7051 73.1741C100.538 73.1741 100.538 76.7118 103.371 76.7118C106.205 76.7118 106.205 73.1741 109.038 73.1741C111.872 73.1741 111.872 76.7118 114.706 76.7118C117.538 76.7118 117.538 73.1741 120.371 73.1741C123.206 73.1741 123.206 76.7118 126.04 76.7118C128.877 76.7118 128.877 73.1741 131.714 73.1741C133.383 73.1741 134.354 74.6485 135.215 75.6566C136.283 76.9085 137.934 75.8582 139.27 74.5197C140.574 73.2133 141.591 71.6448 140.455 70.6532C139.438 69.7646 137.878 68.8327 137.878 67.1249C137.878 64.2828 141.409 64.2828 141.409 61.4406C141.409 58.6005 137.878 58.6005 137.878 55.7603C137.878 52.9226 141.409 52.9226 141.409 50.0849C141.409 47.2456 137.878 47.2456 137.878 44.4064C137.878 41.5678 141.409 41.5678 141.409 38.7293C141.409 38.6863 141.408 38.6438 141.407 38.602C141.408 38.5602 141.409 38.5178 141.409 38.4747C141.409 35.6362 137.878 35.6362 137.878 32.7977C137.878 29.9584 141.409 29.9584 141.409 27.1192C141.409 24.2815 137.878 24.2814 137.878 21.4437C137.878 18.6036 141.409 18.6036 141.409 15.7634C141.409 12.9213 137.878 12.9213 137.878 10.0791C137.878 8.37132 139.438 7.43949 140.455 6.55082C141.591 5.55929 140.574 3.99079 139.27 2.68427C137.934 1.34576 136.283 0.295523 135.215 1.5474C134.354 2.55552 133.383 4.02994 131.714 4.02994C128.877 4.02994 128.877 0.492188 126.04 0.492188C123.206 0.492188 123.206 4.02994 120.371 4.02994C117.538 4.02994 117.538 0.492188 114.706 0.492188C111.872 0.492188 111.872 4.02994 109.038 4.02994C106.205 4.02994 106.205 0.492188 103.371 0.492188C100.538 0.492188 100.538 4.02994 97.7051 4.02994C94.872 4.02994 94.872 0.492188 92.0388 0.492188C89.2068 0.492188 89.2068 4.02994 86.3749 4.02994C83.5411 4.02994 83.5411 0.492188 80.7072 0.492188C77.8738 0.492188 77.8738 4.02994 75.0404 4.02994C75.0188 4.02994 74.9974 4.02971 74.9761 4.02933ZM78.7666 76.7118C81.6005 76.7118 81.6005 73.1741 84.4343 73.1741C87.2662 73.1741 87.2662 76.7118 90.0982 76.7118C92.9314 76.7118 92.9314 73.1741 95.7645 73.1741C98.5977 73.1741 98.5977 76.7118 101.431 76.7118C104.264 76.7118 104.264 73.1741 107.097 73.1741C109.931 73.1741 109.931 76.7118 112.765 76.7118C115.598 76.7118 115.598 73.1741 118.43 73.1741C121.265 73.1741 121.265 76.7118 124.1 76.7118C126.937 76.7118 126.937 73.1741 129.773 73.1741C131.707 73.1741 131.962 74.5911 132.924 75.5546C133.655 76.287 134.284 76.538 135.915 75.5136C137.773 74.3461 140.006 71.956 140.666 70.4435C140.955 69.7813 140.989 69.2557 140.122 68.3873C139.192 67.4555 137.878 67.071 137.878 65.1807C137.878 62.3386 141.409 62.3386 141.409 59.4964C141.409 56.6562 137.878 56.6562 137.878 53.8161C137.878 50.9784 141.409 50.9784 141.409 48.1406C141.409 45.3014 137.878 45.3014 137.878 42.4621C137.878 40.4048 139.733 39.8386 140.754 38.602C139.733 37.3654 137.878 36.7992 137.878 34.7419C137.878 31.9026 141.409 31.9026 141.409 29.0634C141.409 26.2257 137.878 26.2257 137.878 23.388C137.878 20.5478 141.409 20.5478 141.409 17.7076C141.409 14.8655 137.878 14.8655 137.878 12.0234C137.878 10.1331 139.192 9.74847 140.122 8.81668C140.989 7.94826 140.955 7.42276 140.666 6.76049C140.006 5.24807 137.773 2.85798 135.915 1.69045C134.284 0.66606 133.655 0.917063 132.924 1.64946C131.962 2.61288 131.707 4.02994 129.773 4.02994C126.937 4.02994 126.937 0.492188 124.1 0.492188C121.265 0.492188 121.265 4.02994 118.43 4.02994C115.598 4.02994 115.598 0.492188 112.765 0.492188C109.931 0.492188 109.931 4.02994 107.097 4.02994C104.264 4.02994 104.264 0.492188 101.431 0.492188C98.5977 0.492188 98.5977 4.02994 95.7645 4.02994C92.9314 4.02994 92.9314 0.492188 90.0982 0.492188C87.2662 0.492188 87.2662 4.02994 84.4343 4.02994C81.6005 4.02994 81.6005 0.492188 78.7666 0.492188C76.748 0.492188 76.1675 2.28777 74.9761 3.3205C73.7846 2.28777 73.2041 0.492188 71.1855 0.492188C68.3517 0.492188 68.3517 4.02994 65.5179 4.02994C62.6859 4.02994 62.6859 0.492188 59.854 0.492188C57.0208 0.492188 57.0208 4.02994 54.1876 4.02994C51.3545 4.02994 51.3545 0.492188 48.5213 0.492188C45.6881 0.492188 45.6881 4.02994 42.8549 4.02994C40.0209 4.02994 40.0209 0.492188 37.187 0.492188C34.3545 0.492188 34.3545 4.02994 31.5221 4.02994C28.6873 4.02994 28.6873 0.492188 25.8524 0.492188C23.0156 0.492188 23.0156 4.02994 20.1787 4.02994C18.2454 4.02994 17.9897 2.61288 17.0281 1.64946C16.2971 0.917063 15.6678 0.66606 14.0374 1.69045C12.1793 2.85798 9.94658 5.24807 9.28648 6.76049C8.99743 7.42275 8.96327 7.94826 9.83005 8.81668C10.7601 9.74848 12.0741 10.1331 12.0741 12.0234C12.0741 14.8655 8.54297 14.8655 8.54297 17.7076C8.54297 20.5478 12.0741 20.5478 12.0741 23.388C12.0741 26.2257 8.54297 26.2257 8.54297 29.0634C8.54297 31.9026 12.0741 31.9026 12.0741 34.7419C12.0741 36.7992 10.2191 37.3654 9.19808 38.602C10.2191 39.8386 12.0741 40.4048 12.0741 42.4621C12.0741 45.3014 8.54297 45.3014 8.54297 48.1406C8.54297 50.9784 12.0741 50.9784 12.0741 53.8161C12.0741 56.6562 8.54297 56.6563 8.54297 59.4964C8.54297 62.3386 12.0741 62.3386 12.0741 65.1807C12.0741 67.071 10.7601 67.4555 9.83005 68.3873C8.96327 69.2557 8.99743 69.7812 9.28648 70.4435C9.94658 71.956 12.1793 74.3461 14.0374 75.5136C15.6678 76.538 16.2971 76.287 17.0281 75.5546C17.9897 74.5911 18.2454 73.1741 20.1787 73.1741C23.0156 73.1741 23.0156 76.7118 25.8524 76.7118C28.6873 76.7118 28.6873 73.1741 31.5221 73.1741C34.3545 73.1741 34.3545 76.7118 37.187 76.7118C40.0209 76.7118 40.0209 73.1741 42.8549 73.1741C45.6881 73.1741 45.6881 76.7118 48.5213 76.7118C51.3545 76.7118 51.3545 73.1741 54.1876 73.1741C57.0208 73.1741 57.0208 76.7118 59.854 76.7118C62.6859 76.7118 62.6859 73.1741 65.5179 73.1741C68.3517 73.1741 68.3517 76.7118 71.1855 76.7118C73.2041 76.7118 73.7846 74.9163 74.9761 73.8835C76.1675 74.9163 76.748 76.7118 78.7666 76.7118Z" stroke="#C2C8D0" stroke-width="0.5" stroke-miterlimit="10" stroke-linecap="round" stroke-linejoin="round"/>
<path d="M128.784 20.9766H22.3125V57.5069H128.784V20.9766Z" fill="#C9C9CF"/>
<path d="M99.9887 63.9517H100.048C102.825 63.9517 105.44 63.5448 107.968 62.7784C110.687 61.8299 113.267 59.9295 114.825 57.5643C117.397 53.7944 119.732 46.508 119.833 39.2505V39.2308C119.732 31.9761 117.397 24.6877 114.825 20.9189C113.267 18.5534 110.746 16.6514 108.027 15.7029C105.499 14.94 102.764 14.5332 99.9887 14.5332C97.2131 14.5332 94.478 14.94 91.9514 15.7029C89.231 16.6514 86.7109 18.5534 85.1535 20.9189C82.5809 24.6877 80.2458 31.9761 80.1445 39.2308V39.2505C80.2458 46.508 82.5809 53.7944 85.1535 57.5643C86.7109 59.9295 89.231 61.8222 91.9514 62.7707C94.478 63.5361 97.1524 63.9517 99.9297 63.9517H99.9887Z" fill="#625949"/>
<path d="M102.714 27.9931C102.449 27.5441 102.666 27.9449 102.391 27.4243L102.714 27.9931Z" fill="white"/>
<path d="M97.0462 38.2647V40.0961L90.7568 40.0997V38.2672L97.0462 38.2647ZM95.6245 54.1285C95.9629 54.7148 96.5097 55.081 97.2003 55.081C98.2952 55.081 99.0114 54.2273 99.0235 53.4393H95.427C95.4406 53.7354 95.4899 53.8391 95.6245 54.1285ZM99.5072 54.8895H100.746V52.6647L102.682 52.6668V51.7688H100.749C100.44 51.419 100.421 51.3959 100.122 51.0484L99.5121 51.7688L97.5771 51.7699V52.6668L99.5072 52.6647V54.8895ZM99.7343 49.886C100.046 50.3886 100.66 50.7725 101.328 50.7725C101.941 50.7725 102.468 50.482 102.866 49.9957C103.246 49.5047 103.339 48.7347 103.094 48.1513C102.858 47.5734 102.235 47.0581 101.618 47.0339C101.663 47.2596 101.642 47.3841 101.489 47.5899C101.174 48.0777 100.774 48.5477 100.802 49.1415C100.69 49.5241 100.132 49.7533 99.7343 49.886ZM95.0937 41.8481C94.1738 41.3925 93.2906 41.9503 93.2375 42.6061C93.2173 43.7187 93.2571 44.0332 93.2375 45.2315C93.2177 45.4193 93.1187 45.5084 92.8817 45.5084C92.6838 45.4985 92.5375 45.4003 92.5375 45.2295C92.5375 43.8386 92.5343 42.4929 92.5375 42.5504C92.5216 42.2662 92.4746 41.9879 92.277 41.7741C92.1226 41.825 92.8365 41.5896 90.7666 42.2722C91.1169 42.5321 91.281 42.5395 91.3095 42.9696C91.3063 46.8821 91.298 46.3215 91.3281 46.5766C91.5671 47.1566 91.9418 47.5308 92.8345 47.5308C94.1018 47.5308 94.3208 46.8399 94.3208 45.7293C94.3208 44.6883 94.2636 44.4614 94.5421 44.2051C94.8917 43.9384 95.3049 44.0881 95.671 44.3312C95.6772 43.5472 95.7384 42.1576 95.0937 41.8481ZM107.927 46.1452C108.147 46.3629 108.315 46.5833 108.315 46.9703C108.325 46.9566 108.713 46.4275 108.713 46.0867C108.713 45.7864 108.538 45.491 108.332 45.2661C107.589 44.539 106.839 43.7945 106.014 42.971C105.671 42.5447 105.779 41.7815 105.803 41.1409C105.45 41.4166 105.207 41.6157 104.916 41.847C104.924 42.2905 104.876 42.779 105.028 43.1763C105.168 43.7635 106.917 45.1498 107.927 46.1452ZM102.203 46.5021H104.03V41.0915C103.238 41.1061 102.972 41.0842 102.208 41.0964L102.203 46.5021ZM106.293 42.5085L107.922 44.0691C108.375 43.3637 108.884 42.8826 108.68 41.978C108.312 41.6318 108.119 41.4536 107.732 41.1384C107.732 41.9163 107.89 42.8594 107.244 43.1763V41.6379L106.785 41.0827C106.556 41.3042 106.488 41.3846 106.293 41.5984V42.5085ZM107.779 37.4598L108.023 36.4296L108.821 36.3109L108.819 33.7551C108.512 33.8006 108.384 33.8341 108.133 33.8626V31.9236C107.714 32.0103 107.272 32.161 106.829 32.2639V35.48C106.824 35.6322 106.588 35.6854 106.529 35.6854C106.528 35.6854 106.526 35.6854 106.525 35.6853H106.458C106.301 35.6853 106.14 35.5765 106.14 35.4676V32.3688L104.865 32.5333V33.8404C104.414 34.7579 103.751 35.5913 103.102 36.4296C103.79 36.4767 103.839 36.4767 104.523 36.5409L104.945 37.4598H107.779ZM93.2708 36.9998H93.8558C93.8766 35.8881 93.8766 35.898 93.91 34.8357C93.6951 34.6775 93.4471 34.5205 93.1904 34.5896C93.207 35.2947 93.2387 35.849 93.2708 36.9998ZM103.063 38.2672V40.0997L109.354 40.1084V38.2647L103.063 38.2672ZM94.1645 50.5746C94.2679 50.8466 94.3357 51.0407 94.6384 51.2403C94.7862 51.3245 94.9797 51.4306 95.0888 51.2962C95.4209 50.4485 96.0612 49.7204 96.5105 48.92C96.5105 47.1688 97.6509 45.8916 98.7028 44.5613C98.497 43.956 98.39 43.4014 98.6776 42.8325L98.6929 42.9167C98.8506 44.2791 99.4393 45.4601 99.8307 46.7335C99.3568 47.2806 99.5319 48.0888 99.152 48.6744C99.0333 48.943 98.8122 49.1634 98.7323 49.4507C98.7323 49.5275 98.7951 49.5857 98.8716 49.5857C99.2559 49.5857 100.033 49.4719 100.362 48.92C100.274 48.2228 100.788 47.7935 101.119 47.2642C101.511 46.7952 100.783 46.4513 100.783 46.041C100.783 46.0143 100.777 45.8373 100.777 45.4907C100.777 44.0464 100.884 42.8517 99.927 41.7924L100.991 40.9356C101.415 40.6005 101.991 40.2691 102.257 39.6608C102.62 38.6193 102.107 37.1074 101.729 36.0735C101.87 35.1633 102.146 34.3152 102.203 33.373L102.677 32.4615C103.316 32.0424 103.997 31.7098 104.558 31.147C104.629 30.0565 104.528 28.9939 104.422 27.916C104.241 27.0873 103.684 26.3504 103.115 25.7063C102.879 25.9845 102.716 26.3332 102.623 26.6646C102.75 27.1915 102.921 27.8689 103.516 28.1447C103.8 28.9421 103.293 29.6309 103.459 30.4263L102.415 31.1075C101.941 31.2509 101.372 31.4872 101.198 32.0188C100.989 32.0552 100.83 32.0306 100.628 31.9867C100.486 31.8285 100.44 31.5972 100.385 31.3932C100.478 31.3214 100.615 31.2907 100.67 31.1879C100.898 30.7352 101.125 30.2827 101.277 29.7994C101.262 29.3021 100.967 28.8744 100.722 28.4465C100.544 28.3013 100.339 28.2492 100.116 28.2957C99.7929 28.6535 99.4684 28.0901 99.0727 28.3366C98.4658 28.6691 98.3854 29.3652 98.2584 29.9663C98.5025 30.4905 98.8051 30.9814 99.1668 31.4477L99.3568 32.4938L99.0026 32.913C98.5025 32.9204 98.051 33.1106 97.7796 33.546C97.3905 34.3187 96.9253 34.7466 96.3475 35.2461C95.7423 34.9961 94.1283 32.9339 93.2473 32.4615C92.9486 32.3461 92.5378 32.3321 92.282 32.5172C92.393 33.1183 92.3607 33.9182 93.0399 34.1494C94.5459 34.0684 94.6886 35.8186 95.6809 36.604C95.9028 36.8115 96.0695 36.9652 96.204 36.9652C96.2314 36.9652 96.2575 36.9588 96.2823 36.9453C97.0808 36.4532 97.8075 35.6371 98.3941 34.9087C98.4325 35.1609 98.4915 35.3144 98.6382 35.5194C98.8358 35.7001 98.9862 35.7396 99.2084 35.7484C99.3639 36.2492 99.5861 36.7141 99.6654 37.2457C97.9815 38.9719 97.2154 41.0704 97.1032 43.4471C95.9824 44.7071 95.9031 46.4089 95.6415 48.0252C95.3109 48.9904 93.91 49.411 94.1645 50.5746ZM93.151 31.962C93.4432 32.0571 93.7136 32.2068 93.9505 32.4206L94.1875 30.4584H94.7331L94.7309 29.8734C93.8149 29.8734 93.3091 29.8698 92.393 29.8723V30.4584H92.9239C93.0027 31.0667 93.0125 31.1287 93.151 31.962ZM94.084 29.4531C94.5171 29.0447 94.5847 28.3771 94.4518 27.796C94.4028 27.3818 94.2001 27.1511 94.2471 26.8316C94.6149 27.0331 94.7046 27.2955 94.7517 27.8442L94.8814 27.5079C95.0838 26.7502 94.7528 25.8549 94.4222 25.1473C94.2243 25.2925 94.2622 25.3104 93.8744 25.6147C93.7183 25.2353 93.7533 24.7785 93.8843 24.3918C93.5472 24.4995 93.2423 24.6292 93.03 24.9458C92.7326 25.3453 92.7116 26 92.8954 26.4667C92.9583 26.7041 93.1559 26.9108 93.2029 27.1321C92.7805 26.9341 92.514 26.6312 92.3722 26.2071L92.3695 26.2109C92.2187 27.353 92.2767 28.6143 93.0574 29.4531H94.084ZM102.389 27.424C101.906 27.9371 101.865 27.984 101.45 28.4194C101.667 28.6469 101.688 28.6716 101.904 28.8794L102.712 27.9928L102.389 27.424ZM104.212 26.4396C105.018 26.2257 106.011 26.0574 106.261 25.1659C106.459 24.2547 105.659 23.6367 104.863 23.8602C104.018 24.1818 103.933 25.067 103.768 25.8348L104.212 26.4396ZM105.71 44.8357C105.49 44.618 105.323 44.3979 105.323 44.011C105.197 44.1865 105.079 44.3992 104.992 44.5908C104.814 44.9766 105.02 45.401 105.308 45.7137C106.051 46.4429 106.799 47.1874 107.623 48.0099C107.969 48.436 107.86 49.1975 107.836 49.8399C108.189 49.5659 108.431 49.3652 108.722 49.136C108.715 48.6769 108.762 48.2019 108.611 47.8059C108.468 47.2171 106.72 45.831 105.71 44.8357ZM107.345 48.4726L105.718 46.9133C105.263 47.6197 104.755 48.1003 104.958 49.0033C105.327 49.3498 105.52 49.5285 105.907 49.8411C105.907 49.0619 105.743 48.1249 106.395 47.8059V49.3443L106.855 49.897C107.082 49.6755 107.152 49.5976 107.345 49.3827V48.4726ZM104.625 54.1285C104.759 53.8391 104.807 53.7354 104.822 53.4393H101.224C101.236 54.2235 101.947 55.081 103.047 55.081C103.733 55.081 104.28 54.7223 104.625 54.1285ZM97.7697 60.2691C97.5608 60.1693 97.2556 60.1482 97.02 60.2231C96.6127 60.3521 96.4921 60.9307 96.8613 61.2121C97.0827 61.3914 97.5723 61.4189 97.8091 61.2703C98.2125 61.0281 98.1562 60.4448 97.7697 60.2691ZM97.4326 59.6222C97.6982 59.6438 97.9636 59.5549 98.0433 59.3042C98.1003 59.1397 98.057 58.8929 97.8781 58.7712C97.6811 58.6241 97.3179 58.5956 97.0933 58.7241C96.9018 58.8217 96.8263 59.0618 96.8646 59.2318C96.9171 59.4948 97.1663 59.6089 97.4326 59.6222ZM83.6623 38.0495C83.1511 38.1065 83.2896 38.5527 83.2623 39.3935L84.1581 39.3924C84.1597 38.6629 84.1778 38.4675 84.1187 38.2783C84.0508 38.0966 83.966 38.0272 83.6623 38.0495ZM85.4644 27.299C85.0249 27.2595 84.9357 27.8889 84.736 28.5145L85.6504 28.7864C85.8173 28.1831 86.0368 27.7157 85.8666 27.5018C85.7626 27.3733 85.6406 27.3262 85.4644 27.299ZM106.44 58.7998C106.699 58.7406 106.927 58.577 106.927 58.314C106.935 58.1418 106.818 57.9171 106.614 57.8557C106.368 57.7694 106.021 57.864 105.849 58.0454C105.695 58.1945 105.697 58.4478 105.782 58.5969C105.901 58.8265 106.182 58.872 106.44 58.7998ZM85.5853 38.1065C85.4616 37.9779 85.2521 37.9617 85.0841 38.0075C84.6003 38.1015 84.7261 38.5788 84.7086 39.3924C84.7653 39.3924 84.6801 39.3925 85.7358 39.39C85.726 38.638 85.7911 38.3055 85.5853 38.1065ZM92.1106 20.07L90.9291 18.9993L90.9269 18.9919V18.9968L90.9242 18.993L90.9291 19.0007L91.333 20.5448L92.1106 20.07ZM114.548 33.3075L114.674 34.2099L116.124 33.5473H116.13L116.127 33.5459L116.13 33.5449C116.072 33.5449 116.301 33.5714 114.548 33.3075ZM112.05 22.6694C112.213 22.6606 112.324 22.5902 112.451 22.463C112.741 22.1302 112.285 21.6875 111.896 21.1595L111.137 21.7395C111.529 22.2281 111.775 22.6817 112.05 22.6694ZM106.954 59.3184C106.729 59.2877 106.436 59.3482 106.225 59.4972C105.872 59.7442 105.931 60.3304 106.367 60.4906C106.626 60.5928 107.104 60.4762 107.289 60.2614C107.598 59.9197 107.381 59.3701 106.954 59.3184ZM115.117 23.6114C113.347 19.5803 110.64 17.1269 106.656 16.0321C104.515 15.4875 102.262 15.2012 99.9536 15.2012C97.6448 15.2012 95.3809 15.4875 93.2402 16.0321C89.2559 17.1269 86.5437 19.5803 84.7729 23.6114C83.1702 27.1427 81.5115 33.7788 81.6011 39.2415C81.5115 44.7042 83.1702 51.3402 84.7729 54.8716C86.5437 58.9027 89.2559 61.3561 93.2402 62.4453C95.3809 63.0011 97.6448 63.2818 99.9536 63.2818C102.262 63.2818 104.515 63.0011 106.656 62.4453C110.64 61.3561 113.347 58.9027 115.117 54.8716C116.726 51.3402 118.384 44.7042 118.295 39.2415C118.384 33.7788 116.726 27.1427 115.117 23.6114ZM115.066 25.8362L111.711 27.2866L111.41 26.5844L114.764 25.135L115.066 25.8362ZM113.151 22.798C112.985 23.0664 112.718 23.2668 112.433 23.3062C112.151 23.358 111.972 23.2456 111.767 23.0984C112.063 23.8652 111.119 24.2125 110.778 24.7405L110.322 24.1396C110.491 23.8106 111.497 23.394 111.176 22.8498C111.141 22.7399 110.877 22.3799 110.66 22.1041C110.588 22.1581 110.733 22.0473 109.465 23.0167L109.004 22.4109L111.905 20.1926C112.834 21.4279 113.525 22.066 113.151 22.798ZM106.907 17.1371L109.383 18.1744L109.149 18.7334L107.38 17.994L107.076 18.72L108.616 19.3678L108.375 19.9538L106.831 19.3047L106.434 20.2483L108.206 20.9914L107.973 21.5515L105.497 20.5142L106.907 17.1371ZM102.358 16.3383C102.519 17.2706 102.682 18.3291 102.869 19.1131C103.21 18.3822 103.584 17.3783 103.928 16.4978L104.709 16.5781L103.12 20.0936L102.426 20.0243L101.563 16.2591L102.358 16.3383ZM95.37 16.6683L95.7909 19.2839C95.8743 19.7209 96.527 19.7961 96.899 19.5607C97.0731 19.4607 97.2143 19.2578 97.1842 19.0599L96.7672 16.4433L97.5125 16.3259L97.9301 18.9387C97.9635 19.2106 97.9323 19.4505 97.709 19.7016C97.4591 19.9967 97.0864 20.1622 96.6904 20.2285L96.6908 20.2302C96.6863 20.2309 96.6816 20.2308 96.6771 20.2315C96.6726 20.2322 96.6683 20.2338 96.6637 20.2345L96.6635 20.2329C96.2628 20.295 95.8218 20.261 95.4921 20.0591C95.202 19.8883 95.0986 19.672 95.0445 19.4036L94.6247 16.7895L95.37 16.6683ZM90.8897 18.1769L93.8794 20.6389L93.2396 21.0273L92.6004 20.4832L91.4726 21.1694L91.6597 21.9879L91.0205 22.3774L90.2183 18.5851L90.8897 18.1769ZM87.0563 21.2845L87.5844 21.5824L86.6503 23.258L87.3376 23.6437L88.1536 22.1823L88.7079 22.4901L87.8892 23.9515L88.779 24.4548L89.7176 22.7733L90.2457 23.0689L88.9372 25.4171L85.7495 23.6313L87.0563 21.2845ZM85.3221 26.5347C85.6356 26.5114 85.9542 26.6079 86.1556 26.8167C86.364 27.0172 86.3772 27.226 86.3799 27.4772C86.8215 26.7872 87.6588 27.3473 88.2854 27.3127L88.0698 28.0373C87.7032 28.0939 86.7772 27.5227 86.5244 28.1041C86.4566 28.1954 86.323 28.6233 86.2283 28.9597C86.3124 28.9867 86.1188 28.9282 87.6659 29.3912L87.4487 30.1209L83.9507 29.076C84.4 27.597 84.5089 26.6611 85.3221 26.5347ZM86.3427 39.8883L86.3405 40.1542L82.7117 40.1578C82.7375 39.3737 82.634 38.0124 82.8748 37.7008C83.0527 37.3904 83.4007 37.2915 83.7684 37.3361C84.1187 37.3781 84.325 37.6588 84.3819 37.8838C84.5374 37.5006 84.8175 37.2495 85.1874 37.2073C85.622 37.1851 86.0466 37.341 86.2185 37.7356C86.4046 38.2695 86.323 38.4414 86.3427 39.8883ZM86.8363 33.8267C86.835 33.8354 86.832 33.8437 86.8306 33.8523C86.8295 33.8596 86.8297 33.8676 86.8285 33.8748L86.8258 33.8741C86.759 34.2622 86.5978 34.6307 86.3082 34.8777C86.0576 35.1003 85.8196 35.1313 85.5481 35.1003L82.9366 34.6899L83.0537 33.9442L85.6641 34.3535C86.1044 34.4058 86.3765 33.8136 86.2716 33.3828C86.2316 33.1839 86.0811 32.9895 85.8836 32.9549L83.2732 32.5421L83.3909 31.7965L86.0012 32.2082C86.2688 32.2614 86.4861 32.3639 86.6563 32.6531C86.8557 32.9778 86.89 33.4301 86.8332 33.8261L86.8363 33.8267ZM93.3606 61.1551L92.6437 60.9194C93.2143 59.1709 93.4086 58.577 93.4273 58.5158C93.1411 58.4149 92.7969 58.3162 92.5167 58.2164L92.6645 57.7701C93.2139 57.9146 93.5357 57.8962 93.9138 57.4806L94.4961 57.6715C94.4808 57.7209 94.1681 58.6789 93.3606 61.1551ZM98.2283 61.7977C97.6728 62.0541 96.8877 62.0009 96.3819 61.6848C96.059 61.4698 95.8566 61.0926 95.8883 60.7023C95.9157 60.3514 96.0492 60.0487 96.4043 59.8722L96.6117 59.7866C96.3622 59.6693 96.1006 59.3908 96.1182 59.0706C96.1056 58.7121 96.3179 58.4423 96.6117 58.2635C97.112 58.0057 97.9527 58.0597 98.4111 58.3721C98.6804 58.586 98.8604 58.8787 98.804 59.234C98.7816 59.5542 98.4905 59.7987 98.2299 59.8843L98.4237 59.995C98.7531 60.2132 98.8506 60.5301 98.8358 60.8799C98.821 61.2747 98.5742 61.619 98.2283 61.7977ZM100.62 61.9929C100.603 60.9929 101.579 60.4862 102.193 59.8228C102.477 59.5497 102.41 58.9108 101.991 58.8052C101.489 58.6864 101.201 59.0523 101.219 59.564L100.539 59.6046C100.48 59.2263 100.571 58.8578 100.802 58.5728C101.12 58.2306 101.6 58.1353 102.067 58.166C102.439 58.2262 102.874 58.4522 103.026 58.8436C103.224 59.2658 103.158 59.8075 102.845 60.165C102.441 60.597 101.914 60.8295 101.581 61.3163L103.306 61.2132C103.32 61.4282 103.331 61.6343 103.343 61.8295L100.62 61.9929ZM107.843 60.6398C107.402 61.0459 106.635 61.2379 106.048 61.0827C105.678 60.9731 105.373 60.6759 105.286 60.2921C105.207 59.95 105.246 59.6189 105.533 59.3469L105.703 59.2033C105.433 59.1649 105.098 58.9785 105.022 58.666C104.902 58.3272 105.025 58.007 105.252 57.7482C105.647 57.3556 106.464 57.1541 107.002 57.3151C107.324 57.439 107.582 57.6648 107.633 58.0212C107.709 58.3337 107.501 58.654 107.278 58.8118L107.496 58.86C107.875 58.9698 108.064 59.2438 108.154 59.5827C108.256 59.9621 108.124 60.3678 107.843 60.6398ZM109.755 53.12C108.981 54.8772 107.446 56.1685 105.58 56.7019C103.826 57.1791 101.92 57.443 100.015 57.443H99.9536C98.0483 57.443 96.1486 57.1791 94.3946 56.7019C92.523 56.1685 90.9875 54.8772 90.2198 53.12C88.5442 49.5156 87.4459 44.3336 87.4459 39.2415C87.4459 34.1493 88.5442 28.9617 90.2198 25.363C90.9875 23.6057 92.523 22.3144 94.3946 21.7811C96.1486 21.3039 98.0483 21.04 99.9536 21.04H100.015C101.921 21.04 103.826 21.3039 105.58 21.7811C107.446 22.3144 108.981 23.6057 109.755 25.363C111.43 28.9617 112.528 34.1493 112.528 39.2415C112.528 44.3336 111.43 49.5156 109.755 53.12ZM112.437 29.693L115.37 28.9361L115.098 27.8716L115.678 27.7219L116.411 30.5845L115.834 30.7342L115.56 29.6757L112.627 30.4312L112.437 29.693ZM113.349 34.8692L114.101 34.4969L113.919 33.1887L113.094 33.0366L112.99 32.2946L116.784 33.0575L116.893 33.8366L113.453 35.611L113.349 34.8692ZM116.225 40.0504L116.181 39.3456C116.302 39.3424 116.383 39.3135 116.446 39.291C116.688 39.1599 116.744 38.8384 116.732 38.5763C116.722 38.3117 116.641 38.042 116.391 37.9469C116.263 37.911 116.1 37.8998 116.017 38.0322C115.604 38.6443 115.891 39.9415 114.827 40.1677C114.363 40.2444 113.958 40.0429 113.718 39.6718C113.388 39.0807 113.36 38.1596 113.738 37.5895C113.965 37.2903 114.275 37.1086 114.645 37.1061L114.688 37.8061C114.461 37.8368 114.235 37.9543 114.132 38.1769C113.977 38.5442 114.016 39.1279 114.283 39.3431C114.382 39.453 114.61 39.4407 114.733 39.3752C115.329 38.9459 114.894 37.7216 115.751 37.2643C116.125 37.1037 116.605 37.1604 116.906 37.4598C117.391 37.9173 117.416 38.8187 117.189 39.3664C117.063 39.746 116.652 40.0229 116.225 40.0504Z" fill="white"/>
<path d="M26.5851 31.8329V27.2494H27.6588V31.8329H26.5851ZM29.0619 30.2988C29.0619 30.6848 29.0479 30.8252 29.1563 30.9781C29.2192 31.0675 29.3303 31.1119 29.4887 31.1119C29.6067 31.1119 29.6961 31.068 29.7572 30.9803C29.8883 30.793 29.8853 30.4387 29.7145 30.2785C29.203 29.8022 28.1286 29.6213 28.1286 28.4391C28.1286 27.5734 28.649 27.1392 29.4767 27.1392C30.3948 27.1392 30.8369 27.7376 30.8369 28.6244H29.8485C29.8485 28.4248 29.8283 28.2648 29.7878 28.1447C29.747 28.0246 29.6493 27.9643 29.4947 27.9643C29.2683 27.9643 29.1229 28.054 29.1229 28.2817C29.1229 28.491 29.1377 28.6151 29.445 28.8306C30.3616 29.3775 30.8369 29.543 30.8369 30.5697C30.8369 31.4422 30.3622 31.9365 29.4614 31.9365C28.9987 31.9365 28.6509 31.8274 28.4175 31.6081C28.1841 31.3888 28.0675 31.1146 28.0675 30.7862V30.2988H29.0619ZM34.1737 30.3679C34.1737 31.5227 33.7097 31.9365 32.7279 31.9365C31.7286 31.9365 31.264 31.5038 31.264 30.3679V28.5065C31.264 27.5881 31.8257 27.1392 32.7279 27.1392C33.7017 27.1392 34.1737 27.6629 34.1737 28.5065V30.3679ZM33.1 28.5805C33.1 28.3936 33.0765 28.2439 33.03 28.132C32.9832 28.0202 32.8806 27.9643 32.7219 27.9643C32.5714 27.9643 32.4696 28.0224 32.4168 28.1381C32.3111 28.3707 32.3374 28.4328 32.3374 30.4589C32.3374 30.642 32.364 30.7966 32.4168 30.9228C32.4696 31.0488 32.5733 31.1119 32.7279 31.1119C32.8825 31.1119 32.9832 31.05 33.03 30.9255C33.121 30.6829 33.1 30.6274 33.1 28.5805ZM37.1381 30.7511C37.1381 31.0832 37.2645 31.1728 37.4766 31.1728C37.612 31.1728 37.7023 31.1152 37.7475 30.9995C37.8283 30.7935 37.8151 30.6235 37.8151 30.085C37.5802 30.2598 37.4438 30.3048 37.1173 30.3048C36.7378 30.3048 36.4735 30.1782 36.3244 29.9238C36.1755 29.67 36.1011 29.3393 36.1011 28.9325C36.1011 28.3716 36.2018 27.9506 36.4029 27.6699C36.6043 27.3897 36.9712 27.2494 37.5042 27.2494C37.9839 27.2494 38.3246 27.3924 38.5259 27.6792C38.7271 27.9654 38.8277 28.3623 38.8277 28.8695V30.085C38.8277 30.67 38.7454 31.125 38.5807 31.4497C38.4159 31.7742 38.0753 31.9365 37.559 31.9365C36.4944 31.9365 36.1681 31.5127 36.1681 30.7511H37.1381ZM37.1715 29.364C37.2063 29.4863 37.3089 29.5471 37.4796 29.5471C37.6178 29.5471 37.7084 29.495 37.751 29.3914C37.7937 29.2873 37.8151 29.1502 37.8151 28.9786C37.8151 28.6336 37.8335 28.3748 37.7486 28.1721C37.7043 28.0663 37.6096 28.0131 37.4646 28.0131C37.3193 28.0131 37.2257 28.0805 37.1833 28.2149C37.09 28.5103 37.107 29.1353 37.1715 29.364ZM39.1572 28.5433C39.1572 27.6926 39.5844 27.2494 40.5176 27.2494C41.0422 27.2494 41.3979 27.3716 41.585 27.6156C41.7722 27.8596 41.8658 28.2565 41.8658 28.8059V30.4534C41.8658 31.5727 41.4444 31.9365 40.5053 31.9365C39.5734 31.9365 39.1572 31.4942 39.1572 30.6733V28.5433ZM40.8471 28.5438C40.8471 28.4095 40.8307 28.2878 40.7981 28.1781C40.7655 28.0679 40.672 28.0131 40.5176 28.0131C40.3713 28.0131 40.2777 28.0592 40.2369 28.1502C40.1961 28.2417 40.1759 28.3733 40.1759 28.5438C40.1759 30.7222 40.1568 30.8241 40.2339 31.0236C40.2725 31.1229 40.3671 31.1728 40.5176 31.1728C40.664 31.1728 40.7554 31.1158 40.7921 31.0022C40.8741 30.7472 40.8471 30.6257 40.8471 28.5438ZM42.2073 28.5433C42.2073 27.6926 42.6345 27.2494 43.5677 27.2494C44.0922 27.2494 44.448 27.3716 44.6351 27.6156C44.8223 27.8596 44.9159 28.2565 44.9159 28.8059V30.4534C44.9159 31.5727 44.4944 31.9365 43.5554 31.9365C42.6235 31.9365 42.2073 31.4942 42.2073 30.6733V28.5433ZM43.8972 28.5438C43.8972 28.4095 43.8807 28.2878 43.8482 28.1781C43.8156 28.0679 43.722 28.0131 43.5677 28.0131C43.4213 28.0131 43.3277 28.0592 43.287 28.1502C43.2462 28.2417 43.226 28.3733 43.226 28.5438C43.226 30.7222 43.2068 30.8241 43.284 31.0236C43.3225 31.1229 43.4172 31.1728 43.5677 31.1728C43.7141 31.1728 43.8055 31.1158 43.8422 31.0022C43.9242 30.7472 43.8972 30.6257 43.8972 28.5438ZM46.2457 28.7406H45.3123V28.0377C45.6051 28.0377 45.8683 27.9851 46.1023 27.8804C46.336 27.7751 46.4774 27.5997 46.5261 27.353H47.2156V31.8329H46.2457V28.7406ZM28.3436 48.2667V47.9731C28.3436 47.578 28.2286 47.3799 27.9988 47.3799C27.7127 47.3799 27.5804 47.493 27.5804 47.8562V50.1209C27.5804 50.4079 27.7128 50.5303 27.9649 50.5303C28.1278 50.5303 28.2346 50.4694 28.2856 50.3476C28.3759 50.1313 28.3617 49.9087 28.3617 49.4597H29.4364V50.0205C29.4364 50.4354 29.3101 50.7613 29.0579 50.999C28.8054 51.2371 28.4146 51.3557 27.8857 51.3557C26.9887 51.3557 26.5117 50.9249 26.5117 49.896V48.0143C26.5117 47.0027 26.9864 46.554 27.9528 46.554C28.425 46.554 28.787 46.661 29.0395 46.875C29.4824 47.2517 29.418 47.8822 29.418 48.2667H28.3436ZM30.8712 49.6984C30.8712 50.332 30.8517 50.4251 30.9437 50.5523C30.9919 50.6192 31.0667 50.6527 31.1675 50.6527C31.3247 50.6527 31.4203 50.6039 31.4548 50.5073C31.489 50.4101 31.506 50.2631 31.506 50.0655H32.4769C32.4769 50.926 32.0535 51.3557 31.2069 51.3557C30.8243 51.3557 30.511 51.2706 30.2667 51.0994C30.0225 50.9287 29.9003 50.6598 29.9003 50.2933V48.901C29.9003 48.4856 30.0164 48.1865 30.2484 48.0033C30.4804 47.82 30.8 47.7283 31.2069 47.7283C31.5895 47.7283 31.9031 47.8074 32.1471 47.9643C32.3914 48.1212 32.5136 48.3731 32.5136 48.7194V49.6984H30.8712ZM31.5427 49.0558V48.7194C31.5427 48.6338 31.5161 48.5542 31.4633 48.4807C31.4104 48.4077 31.3269 48.3709 31.213 48.3709C31.0867 48.3709 30.9982 48.4126 30.9476 48.4961C30.8966 48.58 30.8712 48.6909 30.8712 48.8297V49.0558H31.5427ZM33.8813 47.8326V48.3523C34.0067 47.9705 34.2433 47.7283 34.6446 47.7283V48.8297C34.4951 48.7996 34.2195 48.7878 34.0612 48.8478C33.9859 48.8764 33.9484 48.9746 33.9484 49.1414V51.2519H32.9775V47.8326H33.8813ZM34.8278 48.5361V47.8326H35.2123V46.8476H36.1831V47.8326H36.6471V48.5361H36.1831V50.3295C36.1831 50.5882 36.2985 50.5671 36.6471 50.5671V51.2519C36.4632 51.2745 36.2099 51.3008 36.0243 51.3008C35.4829 51.3008 35.2123 51.0385 35.2123 50.5133V48.5361H34.8278ZM37.1537 47.4902V46.6643H38.1243V47.4902H37.1537ZM37.1537 51.2519V47.8266H38.1243V51.2519H37.1537ZM38.9914 48.5361H38.6009V47.8326H38.9854L38.9914 47.533C38.9914 46.9599 39.2402 46.6643 39.9502 46.6643H40.3774V47.3678C40.2108 47.3678 40.0894 47.3586 40.0173 47.3952C39.9806 47.4134 39.9623 47.443 39.9623 47.4841V47.8326H40.3774V48.5361H39.9623V51.2519H38.9914V48.5361ZM40.8844 47.4902V46.6643H41.855V47.4902H40.8844ZM40.8844 51.2519V47.8266H41.855V51.2519H40.8844ZM44.0835 49.0986C44.0728 48.9908 44.05 48.7465 44.0407 48.6459C43.9958 48.5032 43.9084 48.4318 43.7781 48.4318C43.6642 48.4318 43.5866 48.4686 43.5461 48.5422C43.459 48.6992 43.4851 48.8348 43.4851 50.2609C43.4851 50.5782 43.6174 50.6587 43.7964 50.6587C44.0583 50.6587 44.0955 50.3517 44.0955 50.0897V49.8636H45.036C45.036 50.1528 45.016 50.4873 44.9322 50.7625C44.7951 51.2114 44.2395 51.3557 43.717 51.3557C42.9765 51.3557 42.5142 51.0352 42.5142 50.2933V48.901C42.5142 48.1138 42.8581 47.7283 43.717 47.7283C44.6144 47.7283 44.9993 48.0834 44.9993 49.0986H44.0835ZM47.1423 50.9463C46.857 51.2638 46.6208 51.3557 46.3059 51.3557C45.7375 51.3557 45.4144 50.981 45.4144 50.4403C45.4144 50.0902 45.4898 49.8306 45.6404 49.6622C45.9207 49.3476 46.1887 49.3082 46.8432 49.0915C47.0182 49.0097 47.1056 48.8895 47.1056 48.7309C47.1056 48.5381 46.997 48.377 46.8005 48.377C46.5634 48.377 46.428 48.4475 46.428 48.9093H45.4572C45.4572 48.0895 45.9351 47.7283 46.7698 47.7283C47.626 47.7283 48.0765 47.9401 48.0765 48.7748V50.8727C48.0765 50.9936 48.1158 51.1381 48.1559 51.2519H47.2094L47.1423 50.9463ZM47.1056 49.5881C46.7281 49.7617 46.3853 49.8608 46.3853 50.2795C46.3853 50.4949 46.5124 50.6461 46.7485 50.6461C47.0087 50.6461 47.1056 50.3873 47.1056 50.1264V49.5881ZM48.3941 48.5361V47.8326H48.7787V46.8476H49.7495V47.8326H50.2135V48.5361H49.7495V50.3295C49.7495 50.5882 49.8649 50.5671 50.2135 50.5671V51.2519C50.0296 51.2745 49.7763 51.3008 49.5907 51.3008C49.0492 51.3008 48.7787 51.0385 48.7787 50.5133V48.5361H48.3941ZM50.7204 47.4902V46.6643H51.691V47.4902H50.7204ZM50.7204 51.2519V47.8266H51.691V51.2519H50.7204ZM52.3077 48.901C52.3077 48.4818 52.4187 48.1816 52.6405 48.0005C52.8623 47.8194 53.1748 47.7283 53.5777 47.7283C54.4245 47.7283 54.8479 48.1196 54.8479 48.901V50.2933C54.8479 50.6598 54.7348 50.9287 54.5088 51.0994C54.2829 51.2706 53.9726 51.3557 53.5777 51.3557C53.1992 51.3557 52.893 51.2717 52.6589 51.1027C52.4247 50.9337 52.3077 50.6637 52.3077 50.2933V48.901H52.3077ZM53.2786 50.3536C53.2989 50.5528 53.3986 50.6527 53.5777 50.6527C53.7805 50.6527 53.8613 50.5562 53.877 50.3536V48.8286C53.877 48.7068 53.8546 48.6102 53.8099 48.5389C53.765 48.4675 53.6878 48.4318 53.5777 48.4318C53.3555 48.4318 53.2786 48.6077 53.2786 48.8286V50.3536H53.2786ZM56.3068 47.8326V48.2606C56.4095 47.9888 56.694 47.7283 56.9967 47.7283C57.4482 47.7283 57.8637 47.9704 57.8637 48.4445V51.2519H56.8929V48.805C56.8929 48.5961 56.7963 48.5235 56.6365 48.5235C56.4615 48.5235 56.3739 48.6179 56.3739 48.805V51.2519H55.403V47.8326H56.3068ZM26.5755 44.4013V38.9912H28.2171C28.7452 38.9912 29.1616 39.0968 29.4665 39.3086C29.771 39.5204 29.9236 39.8809 29.9236 40.3903C29.9236 40.8901 29.7499 41.2959 29.3116 41.5302C29.8605 41.8627 30.0101 42.1428 30.0101 42.8359C30.0101 43.89 29.4218 44.4013 28.3612 44.4013H26.5755ZM27.8426 41.1189C28.1594 41.1189 28.3743 41.0857 28.4873 41.018C28.6 40.9509 28.6564 40.7706 28.6564 40.4772C28.6564 40.2415 28.5938 40.0974 28.4692 40.0443C28.3443 39.9912 28.1355 39.965 27.8426 39.965V41.1189H27.8426ZM27.8426 43.4275C28.1548 43.4275 28.3827 43.4106 28.5269 43.3768C28.6707 43.3435 28.7426 43.127 28.7426 42.7274C28.7426 42.4439 28.6745 42.2671 28.5376 42.1977C28.4008 42.1277 28.169 42.0927 27.8426 42.0927V43.4275ZM30.5644 38.9912H31.8316V43.0675C31.8316 43.4339 31.9875 43.55 32.2707 43.55C32.4195 43.55 32.5286 43.4975 32.5985 43.3914C32.6678 43.2858 32.7028 43.1662 32.7028 43.0314V38.9912H33.9699V42.903C33.9699 43.4024 33.838 43.7974 33.5739 44.088C33.3098 44.3785 32.8731 44.5238 32.2637 44.5238C31.1517 44.5238 30.5644 43.9909 30.5644 42.903V38.9912ZM35.8351 44.4013H34.5679V38.9912H36.4183C37.5243 38.9912 37.9734 39.4678 37.9734 40.4842C37.9734 41.2184 37.747 41.5121 37.304 41.7175C37.6616 41.81 37.9303 42.06 37.9303 42.4322C37.9303 42.8409 37.9673 43.74 38.0456 44.1416C38.0791 44.2233 38.1199 44.2857 38.1679 44.3289V44.4013H36.7924C36.6959 44.1332 36.7208 44.2374 36.7208 43.0232C36.669 42.7217 36.6965 42.6063 36.5683 42.41C36.5054 42.3144 36.4011 42.2659 36.2561 42.2659H35.8351V44.4013ZM35.8351 41.2922H36.2672C36.4352 41.2922 36.5525 41.2286 36.6198 41.1009C36.687 40.9737 36.7208 40.8138 36.7208 40.6213C36.7208 40.3231 36.6605 40.1394 36.5406 40.0694C36.4206 39.9999 36.1854 39.965 35.8351 39.965V41.2922H35.8351ZM38.6 44.4013V38.9912H41.5015V40.0729H39.8671V41.0688H41.4511V42.1504H39.8671V43.319H41.5879V44.4013H38.6ZM41.9335 44.4013L43.1142 38.9912H44.6408L45.8142 44.4013H44.5328L44.3525 43.3482H43.3591L43.208 44.4013H41.9335ZM43.8774 39.965L43.4959 42.396H44.2302L43.8774 39.965ZM46.1744 38.9912H47.4415V43.0675C47.4415 43.4339 47.5974 43.55 47.8806 43.55C48.0294 43.55 48.1386 43.4975 48.2084 43.3914C48.2777 43.2858 48.3127 43.1662 48.3127 43.0314V38.9912H49.5798V42.903C49.5798 43.4024 49.4479 43.7974 49.1838 44.088C48.9197 44.3785 48.483 44.5238 47.8736 44.5238C46.7616 44.5238 46.1744 43.9909 46.1744 42.903V38.9912ZM52.9282 44.4013L51.7545 38.9912H53.0217L53.6698 42.7852L54.3322 38.9912H55.5993L54.4187 44.4013H52.9282ZM56.0099 44.4013V38.9912H58.9113V40.0729H57.277V41.0688H58.861V42.1504H57.277V43.319H58.9978V44.4013H56.0099ZM60.8485 44.4013H59.5813V38.9912H61.4317C62.5377 38.9912 62.9868 39.4678 62.9868 40.4842C62.9868 41.2184 62.7603 41.5121 62.3174 41.7175C62.675 41.81 62.9437 42.06 62.9437 42.4322C62.9437 42.8409 62.9807 43.74 63.059 44.1416C63.0925 44.2233 63.1332 44.2857 63.1813 44.3289V44.4013H61.8058C61.7093 44.1332 61.7342 44.2374 61.7342 43.0232C61.6823 42.7217 61.7099 42.6063 61.5816 42.41C61.5187 42.3144 61.4145 42.2659 61.2695 42.2659H60.8484V44.4013H60.8485ZM60.8485 41.2922H61.2805C61.4485 41.2922 61.5659 41.2286 61.6331 41.1009C61.7004 40.9737 61.7342 40.8138 61.7342 40.6213C61.7342 40.3231 61.6739 40.1394 61.554 40.0694C61.434 39.9999 61.1987 39.965 60.8485 39.965V41.2922ZM63.6492 44.4013V38.9912H64.9163V44.4013H63.6492ZM65.4419 38.9912H68.725V40.0729H67.7028V44.4013H66.4356V40.0729H65.4419V38.9912H65.4419ZM68.9487 44.4013L70.1293 38.9912H71.6559L72.8293 44.4013H71.5479L71.3676 43.3482H70.3742L70.2231 44.4013H68.9487ZM70.8925 39.965L70.511 42.396H71.2454L70.8925 39.965ZM74.1756 42.5909V42.9701C74.1756 43.1469 74.2129 43.2875 74.2874 43.3925C74.3617 43.4975 74.4927 43.55 74.6796 43.55C74.8188 43.55 74.9245 43.4987 74.9967 43.3954C75.152 43.1725 75.1479 42.7552 74.9461 42.567C74.3477 42.0072 73.0742 41.7903 73.0742 40.3955C73.0742 39.3776 73.6845 38.8611 74.6654 38.8611C75.1982 38.8611 75.5989 39.0198 75.8679 39.3372C76.1366 39.6545 76.2712 40.0805 76.2712 40.6143H75.1048C75.1048 40.3786 75.0806 40.1895 75.0325 40.0478C74.9845 39.906 74.8695 39.8348 74.6869 39.8348C74.4186 39.8348 74.2479 39.9427 74.2479 40.2094C74.2479 40.4544 74.2589 40.5976 74.6281 40.8576C75.7226 41.5107 76.2712 41.7023 76.2712 42.9106C76.2712 43.9419 75.7084 44.5238 74.6473 44.5238C74.1014 44.5238 73.6906 44.3948 73.4151 44.1358C73.14 43.8773 73.0022 43.5535 73.0022 43.1656V42.5909H74.1756Z" fill="white"/>
</svg>
