<svg width="149" height="58" viewBox="0 0 149 58" fill="none" xmlns="http://www.w3.org/2000/svg">
<path d="M42.7671 34.6881H25.7373C22.5721 34.6881 20.0047 32.1244 20.0047 28.9554C20.0047 25.7948 22.5721 23.2227 25.7373 23.2227C28.9109 23.2227 31.4869 25.7948 31.4869 28.9554H28.8353C28.8353 27.249 27.4546 25.8704 25.7374 25.8704C24.0369 25.8704 22.6479 27.249 22.6479 28.9554C22.6479 30.6618 24.0369 32.0488 25.7374 32.0488H40.9066C41.3275 33.0658 41.9673 33.9653 42.7671 34.6881ZM83.6705 36.1339C82.2683 37.1265 80.6165 37.6227 78.9649 37.6227C77.3129 37.6227 75.6611 37.1263 74.2591 36.1339H25.7457C21.7808 36.1339 18.5567 32.9146 18.5567 28.9554C18.5567 24.9962 21.7808 21.7852 25.7457 21.7852C29.7107 21.7852 32.9263 24.9962 32.9263 28.9554H35.7465C35.7465 23.4412 31.268 18.9693 25.7457 18.9693C20.2235 18.9693 15.7367 23.4412 15.7367 28.9554C15.7367 34.4695 20.2235 38.9499 25.7457 38.9499H145.501V36.1339H83.6705ZM9.42614 39.3194V22.6308H3.90234V25.4594H6.80588V39.3194H9.42614ZM6.80588 21.4993H10.63V39.3194H13.3211V18.5293H6.80587V21.4993H6.80588ZM53.3065 29.2622C53.3065 28.151 52.7461 23.739 47.6944 23.739C42.6763 23.739 42.0925 28.1226 42.0925 29.2488C42.0925 30.366 42.6546 34.7717 47.7076 34.7717C52.7261 34.7717 53.3065 30.3824 53.3065 29.2622ZM45.1066 29.2553C45.1066 27.2327 46.3499 26.2497 47.6995 26.2497C49.0574 26.2497 50.2923 27.2526 50.2923 29.2553C50.2923 31.2661 49.0596 32.2614 47.6995 32.2614C46.3382 32.2614 45.1066 31.255 45.1066 29.2553ZM59.3968 34.4634V26.5472H61.6916V24.0477H54.1815V26.5472H56.4764V34.4634H59.3968ZM71.2734 34.4634V24.0477H68.3525V28.1098C67.6969 28.1791 67.3294 28.214 67.2501 28.214C65.3918 28.214 65.6383 27.1311 65.6383 26.1861C65.6383 25.7135 65.6405 25.0364 65.6405 24.0477H62.7201C62.7201 25.1531 62.7149 25.9613 62.7149 26.5711C62.7149 28.674 62.6742 30.5489 66.4215 30.5489C67.0949 30.5489 67.7698 30.4822 68.3525 30.4013V34.4634H71.2734ZM91.7168 34.4634V26.5472H94.0116V24.0477H86.5015V26.5472H88.7963V34.4634H91.7168ZM98.2737 34.4634V30.297H101.82V34.4634H104.741V24.0477H101.82V27.7974H98.2737V24.0477H95.3528V34.4634H98.2737ZM117.068 29.2622C117.068 28.151 116.508 23.739 111.456 23.739C106.438 23.739 105.854 28.1226 105.854 29.2488C105.854 30.366 106.416 34.7717 111.469 34.7717C116.488 34.7717 117.068 30.3824 117.068 29.2622ZM108.868 29.2553C108.868 26.63 110.804 26.2497 111.461 26.2497C112.121 26.2497 114.054 26.6313 114.054 29.2553C114.054 31.8771 112.124 32.2614 111.461 32.2614C110.797 32.2614 108.868 31.8767 108.868 29.2553ZM123.993 32.1571C122.304 32.1571 121.326 30.9165 121.326 29.3448C121.326 27.6971 122.323 26.3539 123.993 26.3539C124.927 26.3539 125.751 26.7705 126.466 27.6037V24.5833C125.642 24.028 124.688 23.7501 123.606 23.7501C121.313 23.7501 118.316 25.2634 118.316 29.2553C118.316 33.7183 121.875 34.7609 123.65 34.7609C124.773 34.7609 125.711 34.5028 126.466 33.9873V31.0264C125.732 31.7803 124.907 32.1571 123.993 32.1571ZM132.606 34.4634V26.5472H134.901V24.0477H127.39V26.5472H129.685V34.4634H132.606ZM140.995 34.4634C143.727 34.4634 145.093 33.402 145.093 31.2792C145.093 29.1662 143.727 28.1098 140.995 28.1098H139.461V24.0477H136.54V34.4634H140.995ZM139.461 30.1928H140.712C142.028 30.1928 142.173 30.7829 142.173 31.2792C142.173 31.7686 142.015 32.3804 140.712 32.3804H139.461V30.1928ZM85.9855 29.4176C85.9855 33.2928 82.8371 36.4281 78.9648 36.4281C75.0925 36.4281 71.9442 33.2928 71.9442 29.4176C71.9442 25.5511 75.0925 22.4156 78.9648 22.4156C82.8371 22.4156 85.9855 25.5511 85.9855 29.4176ZM83.6958 29.8212C83.6958 26.8287 82.088 24.6937 78.8891 24.6937C75.8332 24.6937 74.0908 26.6773 74.0908 29.3588C74.0908 32.4186 76.2037 34.0408 78.9312 34.0408C81.3808 34.0408 82.9466 33.049 83.6199 31.0737H80.5896C80.4211 31.7881 79.8655 32.1495 78.9312 32.1495C77.7273 32.1495 77.0455 31.2417 77.0455 30.1743C77.0455 30.1322 77.0539 30.0986 77.0539 30.0649H83.6874C83.6958 29.9809 83.6958 29.9052 83.6958 29.8212ZM78.8891 26.585C77.82 26.585 77.1718 27.4003 77.1212 28.3502H80.6569C80.6148 27.4087 80.0087 26.585 78.8891 26.585Z" fill="#C9C9CF"/>
</svg>
