<svg width="149" height="58" viewBox="0 0 149 58" fill="none" xmlns="http://www.w3.org/2000/svg">
<path d="M144.567 26.8825V31.8167H42.5145C36.5965 31.8167 31.7899 27.0171 31.7899 21.1078C31.7899 15.1901 36.5965 10.3904 42.5145 10.3904C48.4408 10.3904 53.2475 15.1901 53.2475 21.1078H48.2977C48.2977 17.9219 45.7133 15.333 42.5145 15.333C39.324 15.333 36.7397 17.9219 36.7397 21.1078C36.7397 24.2936 39.324 26.8826 42.5145 26.8826H75.9932V29.2445H83.1822V26.8826H144.567V26.8825ZM144.57 39.7724V34.5122H42.5182C35.1068 34.5122 29.0917 28.5059 29.0917 21.1053C29.0917 13.7047 35.1068 7.69837 42.5182 7.69837C49.9299 7.69837 55.945 13.7047 55.945 21.1053H61.2128C61.2128 10.801 52.8373 2.43823 42.5182 2.43823C32.1992 2.43823 23.8239 10.801 23.8239 21.1053C23.8239 31.4096 32.1992 39.7724 42.5182 39.7724H144.57ZM14.0725 39.9006V9.62281H4.05078V14.7546H9.3186V39.9006H14.0725ZM9.31861 7.57007H16.2567V39.9006H21.1391V2.18164H9.31861V7.57007ZM13.7035 51.6237C12.0602 51.6237 11.1266 50.4113 11.1266 48.907C11.1266 47.3184 12.087 46.0175 13.7035 46.0175C14.6053 46.0175 15.4023 46.4202 16.0932 47.2251V44.3072C15.2962 43.7704 14.3751 43.502 13.329 43.502C11.1167 43.502 8.21897 44.9619 8.21897 48.8204C8.21897 53.1646 11.6877 54.1389 13.3722 54.1389C14.4569 54.1389 15.3636 53.8898 16.0932 53.3915V50.5311C15.383 51.2597 14.5864 51.6237 13.7035 51.6237ZM27.8867 48.8296C27.8867 47.5068 27.4366 46.1925 26.5657 45.1552C25.6333 44.0478 24.0496 43.4908 22.4656 43.4908C17.609 43.4908 17.0535 47.7402 17.0535 48.8147C17.0535 49.8964 17.5995 54.1498 22.4762 54.1498C27.3274 54.1498 27.8867 49.9071 27.8867 48.8296ZM19.9652 48.8204C19.9652 46.2845 21.8342 45.917 22.4701 45.917C23.1075 45.917 24.975 46.2856 24.975 48.8204C24.975 51.3532 23.1107 51.7243 22.4701 51.7243C21.8329 51.7243 19.9652 51.3564 19.9652 48.8204ZM29.2502 53.8516H32.072V46.2043H35.4117V53.8516H38.233V43.7897H29.2502V53.8516ZM42.8683 53.8516V50.5311C43.2543 50.5311 43.6 50.5372 43.9182 50.5372C44.2397 50.5372 46.2418 50.6388 47.2085 49.3598C47.7354 48.6615 47.9689 47.881 47.9689 47.1347C47.9689 45.2619 46.6769 43.7897 44.2934 43.7897H40.0465V53.8516H42.8683V53.8516ZM43.6744 46.0032C44.5955 46.0032 45.0563 46.3865 45.0563 47.1532C45.0563 47.9294 44.5955 48.3176 43.6744 48.3176H42.8683V46.0032H43.6744V46.0032ZM59.6571 48.8296C59.6571 47.5068 59.2071 46.1925 58.3361 45.1552C57.4037 44.0478 55.82 43.4908 54.236 43.4908C49.3794 43.4908 48.824 47.7402 48.824 48.8147C48.824 49.8964 49.37 54.1498 54.2466 54.1498C59.0978 54.1498 59.6571 49.9071 59.6571 48.8296ZM51.7357 48.8204C51.7357 46.2845 53.6047 45.917 54.2405 45.917C54.878 45.917 56.7454 46.2856 56.7454 48.8204C56.7454 51.3532 54.8811 51.7243 54.2405 51.7243C53.6033 51.7243 51.7357 51.3564 51.7357 48.8204ZM61.0202 53.8516H66.1738C69.5484 53.8516 69.4704 51.1237 69.4704 51.0487C69.4704 49.399 68.3038 48.6952 67.3399 48.4757V48.4469C67.8708 48.2628 68.9089 47.6528 68.9089 46.3484C68.9089 43.6521 66.0503 43.7897 65.9005 43.7897H61.0202V53.8516H61.0202ZM63.842 45.8021H65.0221C65.0531 45.8021 66.3177 45.7253 66.3177 46.808C66.3177 47.4405 65.8861 47.757 65.0221 47.757H63.842V45.8021ZM63.842 49.7694H65.1376C66.145 49.7694 66.649 50.1047 66.649 50.7754C66.649 51.4846 66.145 51.8392 65.1376 51.8392H63.842V49.7694ZM81.1635 48.8296C81.1635 47.5068 80.7135 46.1925 79.8425 45.1552C78.9101 44.0478 77.3264 43.4908 75.7424 43.4908C70.8858 43.4908 70.3303 47.7402 70.3303 48.8147C70.3303 49.8964 70.8763 54.1498 75.753 54.1498C80.6042 54.1498 81.1635 49.9071 81.1635 48.8296ZM73.2421 48.8204C73.2421 46.2845 75.1111 45.917 75.7469 45.917C76.3843 45.917 78.2518 46.2856 78.2518 48.8204C78.2518 51.3532 76.3875 51.7243 75.7469 51.7243C75.1097 51.7243 73.2421 51.3564 73.2421 48.8204ZM89.6668 53.8516V49.4242L92.3878 53.8516H95.857L92.186 48.7199L95.5545 43.7897H92.3447L89.6667 48.1592V43.7897H86.8454V48.1592L84.1679 43.7897H80.9577L84.3261 48.7199L80.6555 53.8516H84.1247L86.8454 49.4242V53.8516H89.6668ZM97.7572 49.1369C97.5778 51.4079 95.8071 51.4347 95.7563 51.4366V55.864H98.1749V53.8516H103.99V55.864H106.409V51.4366H105.2V43.7897H97.7716C97.7716 45.4147 97.773 46.5709 97.773 47.3849C97.773 48.5222 97.7703 48.9912 97.7572 49.1369ZM102.378 46.2043V51.4366H99.2974C100.31 50.8219 100.368 49.8367 100.368 47.9282C100.368 47.4396 100.363 46.8735 100.363 46.2043H102.378ZM113.463 53.8516V51.4366H110.238V49.8268H113.16V47.6133H110.238V46.2043H113.463V43.7897H107.416V53.8516H113.463V53.8516ZM117.795 53.8516V49.8268H121.221V53.8516H124.043V43.7897H121.221V47.4118H117.795V43.7897H114.974V53.8516H117.795V53.8516ZM125.856 53.8516H128.621L132.521 47.8144V53.8516H135.242V43.7897H132.478L128.577 49.8268V43.7897H125.856V53.8516ZM77.4367 24.2712V27.9262H81.8291V19.8853H79.6329V5.99642H74.5085V19.8853H68.4691V5.99642H63.3446V24.2712H77.4367V24.2712ZM94.6399 24.2712V19.8853H88.7834V16.9613H94.0908V12.9411H88.7834V10.3824H94.6399V5.99643H83.659V24.2712H94.6399ZM102.509 24.2712V16.9613H108.732V24.2712H113.856V5.99642H108.732V12.5753H102.509V5.99642H97.3848V24.2712H102.509V24.2712ZM124.837 24.2712V10.3824H128.863V5.99643H115.686V10.3824H119.713V24.2712H124.837ZM135.818 24.2712V18.2406H138.406C145.21 18.2406 145.081 12.2311 145.081 12.0713C145.081 8.6728 142.739 5.99642 138.406 5.99642H130.693V24.2712H135.818V24.2712ZM137.282 10.0171C138.955 10.0171 139.792 10.7132 139.792 12.1054C139.792 13.5153 138.955 14.22 137.282 14.22H135.818V10.0171H137.282V10.0171ZM139.374 53.8516L141.432 50.4306H141.691V53.8516H144.513V43.7897C142.928 43.7897 141.921 43.7845 141.244 43.7845C140.107 43.7845 136.754 43.6141 136.754 47.1389C136.754 48.8152 137.763 49.8504 139.071 50.071L136.351 53.8516H139.374V53.8516ZM140.914 48.4182C139.954 48.4182 139.474 48.0156 139.474 47.2107C139.474 46.4058 139.954 46.0032 140.914 46.0032H141.691V48.4182H140.914V48.4182Z" fill="#C9C9CF"/>
</svg>
