<svg width="149" height="58" viewBox="0 0 149 58" fill="none" xmlns="http://www.w3.org/2000/svg">
<path d="M144.57 26.7873V31.7267H42.5182C36.5962 31.7267 31.7899 26.9274 31.7899 21.014C31.7899 15.1006 36.5962 10.3013 42.5182 10.3013C48.4402 10.3013 53.2469 15.1006 53.2469 21.014H48.3002C48.3002 17.8271 45.7097 15.2407 42.5182 15.2407C39.3267 15.2407 36.7365 17.8271 36.7365 21.014C36.7365 24.2009 39.3267 26.7873 42.5182 26.7873H144.57ZM144.57 39.681V34.4209H42.5182C35.1068 34.4209 29.0917 28.4146 29.0917 21.014C29.0917 13.6134 35.1068 7.60705 42.5182 7.60705C49.9299 7.60705 55.945 13.6134 55.945 21.014H61.2128C61.2128 10.7097 52.8373 2.34692 42.5182 2.34692C32.1992 2.34692 23.8239 10.7097 23.8239 21.014C23.8239 31.3183 32.1992 39.681 42.5182 39.681H144.57V39.681ZM14.0725 39.8093V9.5315H4.05078V14.6633H9.3186V39.8093H14.0725ZM9.31861 7.47877H16.2567V39.8093H21.1391V2.09033H9.31861V7.47877ZM9.7198 53.5153L10.2488 51.8772H13.4759L14.0045 53.5153H16.8517L13.4759 44.0378H10.2488L6.87254 53.5153H9.7198ZM12.9469 49.7922H10.7774L11.8621 46.2989L12.9469 49.7922ZM20.2687 53.5153V50.3877C20.6322 50.3877 20.9574 50.3933 21.2566 50.3933C21.3152 50.3933 25.0729 50.701 25.0729 47.1881C25.0729 45.4145 23.8454 44.0378 21.6107 44.0378H17.6109V53.5153H20.2687ZM21.0279 46.1228C21.8956 46.1228 22.3297 46.484 22.3297 47.206C22.3297 47.9374 21.8956 48.3027 21.0279 48.3027H20.2687V46.1228H21.0279ZM31.9969 53.5153V51.2406H28.9597V49.7245H31.712V47.6394H28.9597V46.3125H31.9969V44.0378H26.3019V53.5153H31.9969V53.5153ZM36.0781 53.5153V49.7244H39.3047V53.5153H41.9625V44.0378H39.3047V47.4498H36.0781V44.0378H33.4203V53.5153H36.0781ZM44.7013 49.0743C44.5321 51.2141 42.8644 51.2388 42.8167 51.2406V55.4107H45.0946V53.5153H50.5721V55.4107H52.8501V51.2406H51.7111V44.0378H44.7148C44.7148 45.5438 44.7161 46.63 44.7161 47.4013C44.7162 48.4766 44.7136 48.9396 44.7013 49.0743ZM49.0538 46.3125V51.2406H46.1522C47.1274 50.6483 47.1606 49.6688 47.1606 47.9315C47.1606 47.4719 47.1556 46.94 47.1556 46.3124H49.0538V46.3125ZM55.697 53.5153L56.226 51.8772H59.4531L59.9817 53.5153H62.8289L59.4531 44.0378H56.226L52.8497 53.5153H55.697ZM58.924 49.7922H56.7546L57.8393 46.2989L58.924 49.7922ZM67.5608 53.5153H70.2186V46.3125H73.3638V53.5153H76.0216V44.0378H67.5608V53.5153H67.5608ZM80.3877 53.5153V50.3877C80.7511 50.3877 81.0764 50.3933 81.3755 50.3933C81.4342 50.3933 85.1919 50.701 85.1919 47.1881C85.1919 45.4145 83.9644 44.0378 81.7297 44.0378H77.7299V53.5153H80.3877ZM81.1469 46.1228C82.0146 46.1228 82.4486 46.484 82.4486 47.206C82.4486 47.9374 82.0146 48.3027 81.1469 48.3027H80.3877V46.1228H81.1469ZM96.2004 48.782C96.2004 47.7717 95.6906 43.7569 91.0935 43.7569C86.5206 43.7569 85.9969 47.7582 85.9969 48.7716C85.9969 50.0141 86.4181 51.2507 87.2413 52.2289C88.1146 53.2685 89.61 53.796 91.1069 53.796C95.6721 53.796 96.2004 49.8025 96.2004 48.782ZM88.7396 48.7767C88.7396 46.3879 90.4997 46.0416 91.0989 46.0416C91.6998 46.0416 93.4579 46.3894 93.4579 48.7767C93.4579 51.1656 91.6978 51.5115 91.0989 51.5115C90.4997 51.5115 88.7396 51.1661 88.7396 48.7767ZM100.143 53.5153V46.3125H103.18V44.0378H97.4848V53.5153H100.143ZM106.881 53.5153V50.3877C107.245 50.3877 107.57 50.3933 107.869 50.3933C107.928 50.3933 111.685 50.701 111.685 47.1881C111.685 45.4145 110.458 44.0378 108.223 44.0378H104.223V53.5153H106.881ZM107.64 46.1228C108.508 46.1228 108.942 46.484 108.942 47.206C108.942 47.9374 108.508 48.3027 107.64 48.3027H106.881V46.1228H107.64ZM114.813 53.5153L115.342 51.8772H118.569L119.097 53.5153H121.945L118.569 44.0378H115.342L111.965 53.5153H114.813ZM118.04 49.7922H115.87L116.955 46.2989L118.04 49.7922ZM124.588 53.5153L125.294 48.0182L126.893 53.5153H128.602L130.202 48.0182L130.907 53.5153H133.456L132.073 44.0378H129.416L127.748 49.8193L126.08 44.0378H123.422L122.039 53.5153H124.588ZM136.384 53.5153L137.09 48.0182L138.689 53.5153H140.398L141.998 48.0182L142.703 53.5153H145.252L143.869 44.0378H141.212L139.544 49.8193L137.876 44.0378H135.218L133.835 53.5153H136.384ZM87.4234 16.2671C87.4234 13.3825 85.256 11.0865 82.3977 10.83C81.6582 8.24258 79.2771 6.40135 76.4746 6.40135C73.3112 6.40135 70.6995 8.80734 70.3707 11.8865C67.7347 12.0022 65.626 14.1907 65.626 16.8639C65.626 19.5974 67.8526 21.8207 70.5902 21.8207H81.8621C84.9288 21.8207 87.4234 19.3294 87.4234 16.2671ZM72.7719 14.3142V12.5436C72.7719 10.4979 74.433 8.83361 76.4746 8.83361C78.395 8.83361 79.9873 10.2574 80.1789 12.145L80.2899 13.2384H81.8621C83.6148 13.2384 84.9876 14.5691 84.9876 16.2671C84.9876 17.9881 83.5856 19.3885 81.8621 19.3885H70.5902C69.1963 19.3885 68.0619 18.2557 68.0619 16.8639C68.0619 15.4581 69.1963 14.3142 70.5902 14.3142H72.7719Z" fill="#C9C9CF"/>
</svg>
