<svg width="149" height="58" viewBox="0 0 149 58" fill="none" xmlns="http://www.w3.org/2000/svg">
<g clip-path="url(#clip0_202:7400)">
<path d="M108.096 22.1302V26.1776H32.3227C27.4685 26.1776 23.5257 22.2406 23.5257 17.3934C23.5257 12.5393 27.4685 8.60236 32.3227 8.60236C37.1838 8.60236 41.1266 12.5393 41.1266 17.3934H37.0664C37.0664 14.7802 34.9466 12.6566 32.3227 12.6566C29.7057 12.6566 27.5859 14.7802 27.5859 17.3934C27.5859 20.0066 29.7057 22.1302 32.3227 22.1302H62.9019V24.0677H68.9684V22.1302H108.096ZM108.099 32.7032V28.3885H32.3258C26.2465 28.3885 21.3126 23.4617 21.3126 17.3914C21.3126 11.321 26.2465 6.39425 32.3258 6.39425C38.4053 6.39425 43.3392 11.321 43.3392 17.3914H47.6602C47.6602 8.93923 40.7901 2.07956 32.3258 2.07956C23.8615 2.07956 16.9916 8.93923 16.9916 17.3914C16.9916 25.8435 23.8615 32.7032 32.3258 32.7032H108.099ZM7.5754 33.2735V7.6957H-0.890625V12.0309H3.55947V33.2735H7.5754ZM3.55947 5.96165H9.42056V33.2735H13.545V1.40967H3.55947V5.96165ZM6.23273 44.3494V40.5742L8.7824 44.3494H11.8599L8.43056 39.8219L11.7719 35.5697H8.8827L6.23273 39.2571V35.5697H3.77061V44.3494H6.23273ZM22.3763 39.9668C22.3763 39.0184 21.8983 35.3096 17.6445 35.3096C13.4107 35.3096 12.924 39.0127 12.924 39.9545C12.924 40.8997 13.4015 44.6096 17.6548 44.6096C21.8827 44.6096 22.3763 40.9164 22.3763 39.9668ZM15.4647 39.9598C15.4647 37.7463 17.0959 37.4261 17.6502 37.4261C18.2101 37.4261 19.8356 37.7506 19.8356 39.9598C19.8356 42.172 18.2057 42.493 17.6502 42.493C17.0941 42.493 15.4647 42.1727 15.4647 39.9598ZM26.0658 44.3494L26.7189 39.2571L28.2011 44.3494H29.7836L31.2658 39.2571L31.919 44.3494H34.2804L32.9992 35.5697H30.5371L28.9924 40.9255L27.4473 35.5697H24.9856L23.7044 44.3494H26.0658ZM36.001 44.3494H38.4631V37.6769H41.377V44.3494H43.8387V35.5697H36.001V44.3494ZM51.4507 44.3494V42.2422H48.6372V40.8377H51.1868V38.9062H48.6372V37.6769H51.4507V35.5697H46.175V44.3494H51.4507ZM57.2155 44.3494V37.6769H59.1499V35.5697H52.8195V37.6769H54.7538V44.3494H57.2155ZM66.0582 44.3494V42.2422H63.2447V40.8377H65.7943V38.9062H63.2447V37.6769H66.0582V35.5697H60.7825V44.3494H66.0582ZM70.5928 44.3494V40.8377H73.5819V44.3494H76.044V35.5697H73.5819V38.7305H70.5928V35.5697H68.1307V44.3494H70.5928ZM85.1502 44.3494V46.1053H87.2604V42.2422H86.2053V35.5697H83.7432V42.2422H80.8421V35.5697H78.38V44.3494H85.1502ZM88.8931 44.3494H91.3046L94.7089 39.0818V44.3494H97.0826V35.5697H94.6711L91.2672 40.8377V35.5697H88.8931V44.3494ZM99.4186 44.3494H101.83L105.234 39.0818V44.3494H107.608V35.5697H105.197L101.793 40.8377V35.5697H99.4186V44.3494ZM3.59756 55.9874H5.52122V50.774H7.79797V55.9874H9.72164V49.1278H3.59757V55.9874H3.59756ZM18.8219 52.5615C18.8219 51.8245 18.4495 48.9245 15.1247 48.9245C11.8151 48.9245 11.4361 51.8205 11.4361 52.5521C11.4361 53.2892 11.8069 56.1905 15.1344 56.1905C18.4407 56.1905 18.8219 53.2967 18.8219 52.5615ZM13.4214 52.5574C13.4214 50.8311 14.6921 50.5778 15.1288 50.5778C15.5631 50.5778 16.8367 50.8291 16.8367 52.5574C16.8367 54.2868 15.5625 54.5369 15.1288 54.5369C14.6954 54.5369 13.4214 54.287 13.4214 52.5574ZM22.99 54.3412V57.3595H24.6387V55.9874H28.6035V57.3595H30.2522V54.3412H29.4281V49.1278H24.3641C24.3641 50.231 24.365 51.0171 24.365 51.5717C24.365 52.2865 24.5597 54.2817 22.99 54.3412ZM27.5044 50.774V54.3412H25.4044C26.0943 53.9208 26.1339 53.2517 26.1339 51.9449C26.1339 51.6122 26.1303 51.2275 26.1303 50.774H27.5044ZM38.9994 52.5615C38.9994 51.8245 38.627 48.9245 35.3022 48.9245C31.9926 48.9245 31.6136 51.8205 31.6136 52.5521C31.6136 53.2892 31.9844 56.1905 35.3119 56.1905C38.6182 56.1905 38.9994 53.2967 38.9994 52.5615ZM33.5989 52.5574C33.5989 50.8311 34.8696 50.5778 35.3063 50.5778C35.7406 50.5778 37.0142 50.8291 37.0142 52.5574C37.0142 54.2868 35.74 54.5369 35.3063 54.5369C34.8728 54.5369 33.5989 54.287 33.5989 52.5574ZM42.8337 55.9874V53.0376L44.826 55.9874H47.2302L44.551 52.4499L47.1615 49.1278H44.9045L42.8337 52.0086V49.1278H40.91V55.9874H42.8337ZM50.724 54.0961L49.7918 55.9874H51.8527L54.9441 49.1278H52.854L51.7545 52.0086L50.41 49.1278H48.1431L50.724 54.0961ZM57.8395 55.9874L58.35 52.0086L59.5079 55.9874H60.7443L61.9026 52.0086L62.4127 55.9874H64.2579L63.257 49.1278H61.3333L60.1261 53.3122L58.9189 49.1278H56.9956L55.9944 55.9874H57.8395ZM70.1164 55.9874V54.3412H67.9182V53.2436H69.9105V51.7345H67.9182V50.774H70.1164V49.1278H65.9945V55.9874H70.1164ZM74.0521 55.9874V53.2436H76.3876V55.9874H78.3113V49.1278H76.3876V51.597H74.0521V49.1278H72.1284V55.9874H74.0521ZM83.4148 55.9874V50.774H84.9261V49.1278H79.9797V50.774H81.4911V55.9874H83.4148ZM93.673 52.5615C93.673 51.8245 93.3006 48.9245 89.9757 48.9245C86.6661 48.9245 86.2871 51.8205 86.2871 52.5521C86.2871 53.2892 86.6579 56.1905 89.9855 56.1905C93.2917 56.1905 93.673 53.2967 93.673 52.5615ZM88.2724 52.5574C88.2724 50.8311 89.5431 50.5778 89.9799 50.5778C90.4142 50.5778 91.6877 50.8291 91.6877 52.5574C91.6877 54.2868 90.4135 54.5369 89.9799 54.5369C89.5464 54.5369 88.2724 54.287 88.2724 52.5574ZM102.663 52.5615C102.663 51.8245 102.29 48.9245 98.9656 48.9245C95.656 48.9245 95.277 51.8205 95.277 52.5521C95.277 53.2892 95.6478 56.1905 98.9753 56.1905C102.282 56.1905 102.663 53.2967 102.663 52.5615ZM97.2622 52.5574C97.2622 50.8311 98.533 50.5778 98.9697 50.5778C99.404 50.5778 100.678 50.8291 100.678 52.5574C100.678 54.2868 99.4034 54.5369 98.9697 54.5369C98.5362 54.5369 97.2622 54.287 97.2622 52.5574ZM110.207 53.8674C110.207 51.8672 108.283 51.8023 107.298 51.8023C107.103 51.8023 106.847 51.803 106.497 51.803V50.774H109.647V49.1278H104.573V55.9874C105.768 55.9874 106.515 55.9895 107.001 55.9895C108.083 55.9895 110.207 56.0187 110.207 53.8674ZM106.497 53.1751C106.712 53.1751 106.895 53.1736 107.053 53.1736C107.615 53.1736 108.283 53.1452 108.283 53.8901C108.283 54.5446 107.77 54.6231 107.129 54.6231C106.927 54.6231 106.712 54.6153 106.497 54.6153V53.1751H106.497ZM119.16 52.5615C119.16 51.8245 118.787 48.9245 115.463 48.9245C112.153 48.9245 111.774 51.8205 111.774 52.5521C111.774 53.2892 112.145 56.1905 115.472 56.1905C118.779 56.1905 119.16 53.2967 119.16 52.5615ZM113.759 52.5574C113.759 50.8311 115.03 50.5778 115.467 50.5778C115.901 50.5778 117.175 50.8291 117.175 52.5574C117.175 54.2868 115.9 54.5369 115.467 54.5369C115.033 54.5369 113.759 54.287 113.759 52.5574ZM122.995 55.9874V53.7239C123.258 53.7239 123.494 53.7281 123.713 53.7281C123.755 53.7281 126.472 53.9496 126.472 51.4063C126.472 50.1316 125.591 49.1278 123.966 49.1278H121.071V55.9874H122.995ZM123.544 50.6369C124.172 50.6369 124.486 50.898 124.486 51.4209C124.486 51.9499 124.172 52.2147 123.544 52.2147H122.995V50.6369H123.544ZM135.422 52.5615C135.422 51.8245 135.049 48.9245 131.725 48.9245C128.415 48.9245 128.036 51.8205 128.036 52.5521C128.036 53.2892 128.407 56.1905 131.734 56.1905C135.041 56.1905 135.422 53.2967 135.422 52.5615ZM130.021 52.5574C130.021 50.8311 131.292 50.5778 131.729 50.5778C132.163 50.5778 133.437 50.8291 133.437 52.5574C133.437 54.2868 132.162 54.5369 131.729 54.5369C131.295 54.5369 130.021 54.287 130.021 52.5574ZM140.218 55.9874V50.774H141.729V49.1278H136.783V50.774H138.294V55.9874H140.218ZM145.36 54.0961L144.428 55.9874H146.489L149.58 49.1278H147.49L146.39 52.0086L145.046 49.1278H142.779L145.36 54.0961ZM76.5155 19.0955V16.3271H72.8186V14.4813H76.169V11.9436H72.8186V10.3285H76.5155V7.5601H69.5837V19.0955H76.5155ZM81.4829 19.0955V14.4813H85.4108V19.0955H88.6452V7.5601H85.4108V11.7129H81.4829V7.5601H78.248V19.0955H81.4829ZM95.5766 19.0955V10.3285H98.118V7.5601H89.8002V10.3285H92.3417V19.0955H95.5766ZM102.508 19.0955V15.2887C102.951 15.2887 103.347 15.2956 103.713 15.2956C103.784 15.2956 108.355 15.6695 108.355 11.3929C108.355 9.25809 106.884 7.5601 104.142 7.5601H99.273V19.0955H102.508ZM103.432 10.0978C104.488 10.0978 105.017 10.5374 105.017 11.4162C105.017 12.306 104.488 12.7509 103.432 12.7509H102.508V10.0978H103.432ZM64.0277 19.0955V22.3774H67.972V15.1569H65.9999V2.68529H61.3983V15.1569H55.975V2.68529H51.3735V19.0955H64.0277ZM149.508 7.5601H113.108V44.3494H149.508V7.5601Z" fill="#C9C9CF"/>
<path d="M122.82 34.1988H117.008V13.3278H132.419M144.185 18.634L139.168 16.5596V15.4578L128.92 21.6505V39.2404M138.093 16.1069L133.067 14.0292V12.936L122.82 19.1287M122.82 19.1287V36.7175L135.021 41.7624L145.268 35.5697V17.9798L135.021 24.1725M122.82 19.1287L135.021 24.1725M135.021 24.1725V41.9754M135.427 14.9896V10.9961H119.437V13.3278M122.82 15.9711H127.944M119.06 19.9692H122.82M119.06 21.6505H122.82M119.06 23.3317H122.82M119.06 25.013H122.82M119.06 26.6942H122.82M119.06 28.3754H122.82M119.06 30.0566H122.82M123.994 17.2H126.012M124.718 28.8161L127.022 29.7687L127.022 24.0076L124.718 23.0551L124.718 28.8161ZM130.65 31.5407L132.954 32.4933V26.7322L130.65 25.7796V31.5407ZM133.722 14.1886C133.722 14.1886 127.192 18.135 124.557 19.7271L133.722 14.1886ZM126.094 20.407C128.728 18.8149 135.258 14.8685 135.258 14.8685L126.094 20.407ZM136.795 15.5484C136.795 15.5484 130.265 19.4947 127.63 21.0868L136.795 15.5484ZM139.484 16.6847C139.484 16.6847 133.049 20.6209 130.452 22.209L139.484 16.6847ZM132.005 22.8871C134.601 21.2991 141.037 17.3628 141.037 17.3628L132.005 22.8871ZM142.59 18.041C142.59 18.041 136.154 21.9772 133.557 23.5653L142.59 18.041ZM125.355 32.2715C124.977 32.2715 124.717 32.5726 124.717 33.0935C124.717 34.0886 125.628 35.2448 126.385 35.2448C126.763 35.2448 127.023 34.9437 127.023 34.4228C127.023 33.4277 126.113 32.2715 125.355 32.2715ZM131.287 34.9961C130.909 34.9961 130.649 35.2972 130.649 35.818C130.649 36.8132 131.56 37.9693 132.317 37.9693C132.695 37.9693 132.955 37.6682 132.955 37.1474C132.955 36.1522 132.044 34.9961 131.287 34.9961Z" stroke="#F6F6F6" stroke-miterlimit="10"/>
</g>
<defs>
<clipPath id="clip0_202:7400">
<rect width="149" height="58" fill="white"/>
</clipPath>
</defs>
</svg>
