<svg width="290" height="153" viewBox="0 0 290 153" fill="none" xmlns="http://www.w3.org/2000/svg">
<g clip-path="url(#clip0_29:3673)">
<path d="M13.5786 44.7453C13.3961 44.7453 13.2137 44.6973 13.0505 44.5917C6.14661 40.0884 2.02734 32.4836 2.02734 24.2547C2.02734 16.1217 6.07939 8.56496 12.8584 4.05201C13.3001 3.75435 13.8954 3.87917 14.1931 4.32087C14.4908 4.76256 14.3659 5.35788 13.9242 5.65555C7.68293 9.80362 3.94775 16.7651 3.94775 24.2547C3.94775 31.8306 7.74054 38.8305 14.0971 42.9786C14.5388 43.2666 14.6636 43.862 14.3755 44.3037C14.1931 44.5917 13.8858 44.7453 13.5786 44.7453Z" fill="white"/>
<path d="M25.77 44.7454C25.5875 44.7454 25.4051 44.6974 25.2419 44.5918C18.338 40.0884 14.2188 32.4932 14.2188 24.2643C14.2188 16.1314 18.2708 8.5746 25.0498 4.06165C25.4915 3.76399 26.0868 3.88882 26.3845 4.33051C26.6822 4.7722 26.5573 5.36753 26.1156 5.66519C19.8647 9.82286 16.1392 16.7747 16.1392 24.2739C16.1392 31.8499 19.9319 38.8498 26.2885 42.9978C26.7302 43.2859 26.855 43.8812 26.5669 44.3229C26.3845 44.5918 26.0772 44.7454 25.77 44.7454Z" fill="white"/>
<path d="M37.9575 44.7454C37.775 44.7454 37.5926 44.6974 37.4294 44.5918C30.5255 40.0884 26.4062 32.4932 26.4062 24.2643C26.4062 16.1314 30.4583 8.5746 37.2373 4.06165C37.679 3.76399 38.2743 3.88882 38.572 4.33051C38.8697 4.7722 38.7448 5.36753 38.3031 5.66519C32.0522 9.82286 28.3267 16.7747 28.3267 24.2739C28.3267 31.8499 32.1194 38.8498 38.476 42.9978C38.9177 43.2859 39.0425 43.8812 38.7544 44.3229C38.5816 44.5918 38.2743 44.7454 37.9575 44.7454Z" fill="white"/>
<path d="M50.1528 44.7454C49.9703 44.7454 49.7879 44.6974 49.6247 44.5918C42.7208 40.0884 38.6016 32.4932 38.6016 24.2643C38.6016 16.1314 42.6536 8.5746 49.4326 4.06165C49.8743 3.76399 50.4697 3.88882 50.7673 4.33051C51.065 4.7722 50.9401 5.36753 50.4985 5.66519C44.2571 9.82286 40.522 16.7747 40.522 24.2739C40.522 31.8499 44.3148 38.8498 50.6713 42.9978C51.113 43.2859 51.2378 43.8812 50.9498 44.3229C50.7769 44.5918 50.4697 44.7454 50.1528 44.7454Z" fill="white"/>
<path d="M62.3442 44.7454C62.1618 44.7454 61.9793 44.6974 61.8161 44.5918C54.9122 40.0884 50.793 32.4932 50.793 24.2643C50.793 16.1314 54.845 8.5746 61.624 4.06165C62.0657 3.76399 62.6611 3.88882 62.9587 4.33051C63.2564 4.7722 63.1316 5.36753 62.6899 5.66519C56.439 9.82286 52.7134 16.7747 52.7134 24.2739C52.7134 31.8499 56.5062 38.8498 62.8627 42.9978C63.3044 43.2859 63.4292 43.8812 63.1412 44.3229C62.9683 44.5918 62.6611 44.7454 62.3442 44.7454Z" fill="white"/>
<path d="M86.7234 48.5094C73.3478 48.5094 62.4688 37.6303 62.4688 24.2547C62.4688 10.8791 73.3478 0 86.7234 0C100.099 0 110.978 10.8791 110.978 24.2547C110.978 37.6303 100.099 48.5094 86.7234 48.5094ZM86.7234 1.9204C74.4041 1.9204 64.3892 11.9353 64.3892 24.2547C64.3892 36.5741 74.4041 46.589 86.7234 46.589C99.0428 46.589 109.058 36.5741 109.058 24.2547C109.058 11.9353 99.0332 1.9204 86.7234 1.9204ZM98.3803 38.8689H75.0474C74.5193 38.8689 74.0872 38.4369 74.0872 37.9087C74.0872 37.3806 74.5193 36.9485 75.0474 36.9485H98.3803C98.9084 36.9485 99.3405 37.3806 99.3405 37.9087C99.3405 38.4369 98.918 38.8689 98.3803 38.8689ZM91.8029 32.1955C87.578 32.1955 84.2557 27.3465 84.2557 21.1532C84.2557 14.9599 87.5684 10.1109 91.8029 10.1109C96.0374 10.1109 99.3501 14.9599 99.3501 21.1532C99.3501 27.3465 96.0278 32.1955 91.8029 32.1955ZM91.8029 12.0313C88.7591 12.0313 86.1761 16.2082 86.1761 21.1532C86.1761 26.0983 88.7495 30.2751 91.8029 30.2751C94.8563 30.2751 97.4297 26.0983 97.4297 21.1532C97.4297 16.2082 94.8467 12.0313 91.8029 12.0313ZM79.2243 32.1955C78.6962 32.1955 78.2641 31.7635 78.2641 31.2353V13.3852L75.7387 15.9105C75.3643 16.285 74.7593 16.285 74.3849 15.9105C74.0104 15.5361 74.0104 14.9311 74.3849 14.5567L78.5521 10.3894C78.8306 10.1109 79.2339 10.0341 79.5987 10.1781C79.954 10.3222 80.1941 10.6774 80.1941 11.0615V31.2257C80.1845 31.7635 79.7524 32.1955 79.2243 32.1955Z" fill="white"/>
<path d="M196.555 136.195C196.373 136.195 196.19 136.147 196.027 136.041C189.123 131.538 185.004 123.943 185.004 115.714C185.004 107.581 189.056 100.024 195.835 95.5111C196.277 95.2135 196.872 95.3383 197.17 95.78C197.467 96.2217 197.342 96.817 196.901 97.1147C190.659 101.272 186.924 108.224 186.924 115.723C186.924 123.299 190.717 130.299 197.074 134.447C197.515 134.735 197.64 135.331 197.352 135.772C197.179 136.041 196.872 136.195 196.555 136.195Z" fill="white"/>
<path d="M208.747 136.195C208.564 136.195 208.382 136.147 208.218 136.041C201.315 131.538 197.195 123.943 197.195 115.714C197.195 107.581 201.247 100.024 208.026 95.5111C208.468 95.2135 209.063 95.3383 209.361 95.78C209.659 96.2217 209.534 96.817 209.092 97.1147C202.851 101.272 199.116 108.224 199.116 115.723C199.116 123.299 202.909 130.299 209.265 134.447C209.707 134.735 209.832 135.331 209.543 135.772C209.371 136.041 209.063 136.195 208.747 136.195Z" fill="white"/>
<path d="M220.942 136.195C220.759 136.195 220.577 136.147 220.414 136.041C213.51 131.538 209.391 123.943 209.391 115.714C209.391 107.581 213.443 100.024 220.222 95.5111C220.663 95.2135 221.259 95.3383 221.556 95.78C221.854 96.2217 221.729 96.817 221.288 97.1147C215.037 101.272 211.311 108.224 211.311 115.723C211.311 123.299 215.104 130.299 221.46 134.447C221.902 134.735 222.027 135.331 221.739 135.772C221.566 136.041 221.259 136.195 220.942 136.195Z" fill="white"/>
<path d="M245.313 139.969C231.938 139.969 221.059 129.09 221.059 115.714C221.059 102.338 231.938 91.4592 245.313 91.4592C258.689 91.4592 269.568 102.338 269.568 115.714C269.568 129.09 258.689 139.969 245.313 139.969ZM245.313 93.3796C232.994 93.3796 222.979 103.395 222.979 115.714C222.979 128.033 232.994 138.048 245.313 138.048C257.633 138.048 267.648 128.024 267.648 115.714C267.648 103.404 257.633 93.3796 245.313 93.3796ZM256.98 130.319H233.647C233.119 130.319 232.687 129.886 232.687 129.358C232.687 128.83 233.119 128.398 233.647 128.398H256.98C257.508 128.398 257.94 128.83 257.94 129.358C257.94 129.886 257.517 130.319 256.98 130.319ZM250.402 123.645C246.177 123.645 242.855 118.796 242.855 112.603C242.855 106.41 246.168 101.561 250.402 101.561C254.637 101.561 257.95 106.41 257.95 112.603C257.95 118.796 254.627 123.645 250.402 123.645ZM250.402 103.481C247.359 103.481 244.776 107.658 244.776 112.603C244.776 117.548 247.349 121.725 250.402 121.725C253.456 121.725 256.029 117.548 256.029 112.603C256.029 107.658 253.446 103.481 250.402 103.481ZM237.814 123.645C237.286 123.645 236.854 123.213 236.854 122.685V104.835L234.329 107.36C233.954 107.735 233.349 107.735 232.975 107.36C232.6 106.986 232.6 106.381 232.975 106.006L237.142 101.839C237.42 101.561 237.833 101.484 238.189 101.628C238.544 101.772 238.784 102.127 238.784 102.511V122.675C238.774 123.223 238.352 123.645 237.814 123.645Z" fill="white"/>
<path d="M143.376 48.5094C130 48.5094 119.121 37.6303 119.121 24.2547C119.121 10.8791 130 0 143.376 0C156.751 0 167.63 10.8791 167.63 24.2547C167.63 37.6303 156.751 48.5094 143.376 48.5094ZM143.376 1.9204C131.056 1.9204 121.041 11.9353 121.041 24.2547C121.041 36.5741 131.056 46.589 143.376 46.589C155.695 46.589 165.71 36.5741 165.71 24.2547C165.71 11.9353 155.686 1.9204 143.376 1.9204ZM155.042 38.8689H131.709C131.181 38.8689 130.749 38.4369 130.749 37.9087C130.749 37.3806 131.181 36.9485 131.709 36.9485H155.042C155.57 36.9485 156.002 37.3806 156.002 37.9087C156.002 38.4369 155.57 38.8689 155.042 38.8689ZM148.455 32.1955C144.23 32.1955 140.908 27.3465 140.908 21.1532C140.908 14.9599 144.221 10.1109 148.455 10.1109C152.69 10.1109 156.002 14.9599 156.002 21.1532C156.002 27.3465 152.68 32.1955 148.455 32.1955ZM148.455 12.0313C145.411 12.0313 142.828 16.2082 142.828 21.1532C142.828 26.0983 145.402 30.2751 148.455 30.2751C151.509 30.2751 154.082 26.0983 154.082 21.1532C154.082 16.2082 151.499 12.0313 148.455 12.0313ZM135.877 32.1955C135.348 32.1955 134.916 31.7635 134.916 31.2353V13.3852L132.391 15.9105C132.017 16.285 131.412 16.285 131.037 15.9105C130.663 15.5361 130.663 14.9311 131.037 14.5567L135.204 10.3894C135.483 10.1109 135.886 10.0341 136.251 10.1781C136.606 10.3222 136.846 10.6774 136.846 11.0615V31.2257C136.837 31.7635 136.405 32.1955 135.877 32.1955Z" fill="white"/>
<path d="M200.481 48.5094C187.106 48.5094 176.227 37.6303 176.227 24.2547C176.227 10.8791 187.106 0 200.481 0C213.857 0 224.736 10.8791 224.736 24.2547C224.736 37.6303 213.857 48.5094 200.481 48.5094ZM200.481 1.9204C188.162 1.9204 178.147 11.9353 178.147 24.2547C178.147 36.5741 188.162 46.589 200.481 46.589C212.801 46.589 222.816 36.5741 222.816 24.2547C222.816 11.9353 212.791 1.9204 200.481 1.9204ZM212.148 38.8689H188.815C188.287 38.8689 187.855 38.4369 187.855 37.9087C187.855 37.3806 188.287 36.9485 188.815 36.9485H212.148C212.676 36.9485 213.108 37.3806 213.108 37.9087C213.108 38.4369 212.676 38.8689 212.148 38.8689ZM205.561 32.1955C201.336 32.1955 198.023 27.3465 198.023 21.1532C198.023 14.9599 201.336 10.1109 205.561 10.1109C209.786 10.1109 213.108 14.9599 213.108 21.1532C213.108 27.3465 209.795 32.1955 205.561 32.1955ZM205.561 12.0313C202.517 12.0313 199.944 16.2082 199.944 21.1532C199.944 26.0983 202.517 30.2751 205.561 30.2751C208.605 30.2751 211.188 26.0983 211.188 21.1532C211.188 16.2082 208.614 12.0313 205.561 12.0313ZM192.982 32.1955C192.454 32.1955 192.022 31.7635 192.022 31.2353V13.3852L189.497 15.9105C189.122 16.285 188.517 16.285 188.143 15.9105C187.768 15.5361 187.768 14.9311 188.143 14.5567L192.31 10.3894C192.588 10.1109 192.992 10.0341 193.357 10.1781C193.712 10.3222 193.952 10.6774 193.952 11.0615V31.2257C193.942 31.7635 193.51 32.1955 192.982 32.1955Z" fill="white"/>
<path d="M283.279 60.8577H0.960201C0.432091 60.8577 0 60.4256 0 59.8975C0 59.3693 0.432091 58.9373 0.960201 58.9373H283.279C283.807 58.9373 284.239 59.3693 284.239 59.8975C284.239 60.4256 283.807 60.8577 283.279 60.8577Z" fill="white"/>
<path d="M283.278 149.974H171.328C164.492 149.974 158.932 144.414 158.932 137.578V71.3335C158.932 65.553 154.237 60.8577 148.456 60.8577C147.928 60.8577 147.496 60.4256 147.496 59.8975C147.496 59.3693 147.928 58.9373 148.456 58.9373C155.293 58.9373 160.852 64.4968 160.852 71.3335V137.578C160.852 143.358 165.548 148.054 171.328 148.054H283.278C283.806 148.054 284.238 148.486 284.238 149.014C284.238 149.542 283.806 149.974 283.278 149.974Z" fill="white"/>
<path d="M285.94 152.701C285.671 152.701 285.412 152.595 285.22 152.374C284.874 151.971 284.912 151.366 285.306 151.02L287.582 149.014L285.306 147.007C284.903 146.661 284.864 146.047 285.22 145.653C285.565 145.25 286.18 145.211 286.574 145.566L289.675 148.293C289.886 148.476 290.002 148.735 290.002 149.014C290.002 149.292 289.886 149.551 289.675 149.734L286.574 152.461C286.391 152.624 286.17 152.701 285.94 152.701Z" fill="white"/>
<path d="M285.94 63.5845C285.671 63.5845 285.412 63.4789 285.22 63.258C284.874 62.8547 284.912 62.2498 285.306 61.9042L287.582 59.8973L285.306 57.8905C284.903 57.5448 284.864 56.9303 285.22 56.5366C285.565 56.1333 286.18 56.0949 286.574 56.4502L289.675 59.1772C289.886 59.3596 290.002 59.6189 290.002 59.8973C290.002 60.1758 289.886 60.435 289.675 60.6175L286.574 63.3445C286.391 63.5077 286.17 63.5845 285.94 63.5845Z" fill="white"/>
</g>
<defs>
<clipPath id="clip0_29:3673">
<rect width="290" height="152.701" fill="white"/>
</clipPath>
</defs>
</svg>
