<svg xmlns="http://www.w3.org/2000/svg" fill="none" viewBox="11.23 11.09 75.33 73.53">
<path d="M65.6179 83.8777C65.6179 69.0659 53.611 57.059 38.7992 57.059C23.9878 57.059 11.9805 69.0659 11.9805 83.8777M61.9335 16.9878H81.6107M62.1012 35.781H68.6952M65.3982 32.4844V39.078M63.0669 27.5834L67.7295 22.9208M63.0669 22.9208L67.7295 27.5834M74.849 35.781H81.443M75.3438 23.1368H80.9482M75.3438 27.3677H80.9482M51.7129 38.1559C51.7129 45.2878 45.9315 51.0696 38.7992 51.0696C31.6672 51.0696 25.8855 45.2878 25.8855 38.1559C25.8855 31.0239 31.6672 25.2422 38.7992 25.2422C45.9315 25.2422 51.7129 31.0239 51.7129 38.1559ZM83.7113 43.1499H59.8329C58.6713 43.1499 57.7297 42.208 57.7297 41.0464V13.9482C57.7297 12.7866 58.6713 11.8447 59.8329 11.8447H83.7113C84.8729 11.8447 85.8145 12.7866 85.8145 13.9482V41.0464C85.8145 42.208 84.8729 43.1499 83.7113 43.1499Z" stroke="#0033A1" stroke-width="1.5" stroke-miterlimit="10" stroke-linecap="round" stroke-linejoin="round"/>
</svg>