<svg width="286" height="140" viewBox="0 0 286 140" fill="none" xmlns="http://www.w3.org/2000/svg">
<g clip-path="url(#clip0_29:3723)">
<path d="M20.4516 140H0.940734C0.42333 140 0 139.577 0 139.059V0.940734C0 0.42333 0.42333 0 0.940734 0H20.4516C20.969 0 21.3923 0.42333 21.3923 0.940734V139.059C21.3923 139.586 20.969 140 20.4516 140ZM1.88147 138.119H19.5108V1.88147H1.88147V138.119Z" fill="white"/>
<path d="M55.4203 140H35.9095C35.3921 140 34.9688 139.577 34.9688 139.059V44.6002C34.9688 44.0828 35.3921 43.6594 35.9095 43.6594H55.4203C55.9377 43.6594 56.361 44.0828 56.361 44.6002V139.059C56.361 139.586 55.9471 140 55.4203 140ZM36.8502 138.118H54.4796V45.5409H36.8502V138.118Z" fill="white"/>
<path d="M90.3969 140H70.886C70.3686 140 69.9453 139.577 69.9453 139.059V70.0001C69.9453 69.4827 70.3686 69.0593 70.886 69.0593H90.3969C90.9143 69.0593 91.3376 69.4827 91.3376 70.0001V139.059C91.3376 139.586 90.9143 140 90.3969 140ZM71.8268 138.119H89.4561V70.9408H71.8268V138.119Z" fill="white"/>
<path d="M125.362 140H105.851C105.333 140 104.91 139.577 104.91 139.059V53.001C104.91 52.4836 105.333 52.0603 105.851 52.0603H125.362C125.879 52.0603 126.302 52.4836 126.302 53.001V139.069C126.302 139.586 125.879 140 125.362 140ZM106.792 138.119H124.421V53.9418H106.792V138.119Z" fill="white"/>
<path d="M160.329 140H140.827C140.31 140 139.887 139.577 139.887 139.059V72.7281C139.887 72.2107 140.31 71.7874 140.827 71.7874H160.338C160.856 71.7874 161.279 72.2107 161.279 72.7281V139.059C161.27 139.586 160.856 140 160.329 140ZM141.768 138.118H159.398V73.6688H141.768V138.118Z" fill="white"/>
<path d="M195.307 140H175.796C175.279 140 174.855 139.577 174.855 139.059V101.27C174.855 100.753 175.279 100.329 175.796 100.329H195.307C195.824 100.329 196.248 100.753 196.248 101.27V139.059C196.248 139.586 195.824 140 195.307 140ZM176.737 138.119H194.366V102.211H176.737V138.119Z" fill="white"/>
<path d="M284.938 140H210.761C210.244 140 209.82 139.577 209.82 139.059V40.6209C209.82 40.1035 210.244 39.6802 210.761 39.6802H284.938C285.455 39.6802 285.879 40.1035 285.879 40.6209V139.069C285.879 139.586 285.455 140 284.938 140ZM211.702 138.119H283.997V41.5616H211.702V138.119Z" fill="white"/>
<path d="M277.574 64.1393H217.386C216.869 64.1393 216.445 63.716 216.445 63.1985C216.445 62.6811 216.869 62.2578 217.386 62.2578H277.574C278.092 62.2578 278.515 62.6811 278.515 63.1985C278.515 63.716 278.101 64.1393 277.574 64.1393Z" fill="white"/>
<path d="M225.861 90.6021C222.399 90.6021 219.586 87.7893 219.586 84.3274C219.586 80.8655 222.399 78.0527 225.861 78.0527C229.323 78.0527 232.135 80.8655 232.135 84.3274C232.135 87.7893 229.323 90.6021 225.861 90.6021ZM225.861 79.9248C223.434 79.9248 221.467 81.9003 221.467 84.318C221.467 86.7357 223.443 88.7113 225.861 88.7113C228.278 88.7113 230.254 86.7357 230.254 84.318C230.254 81.9003 228.278 79.9248 225.861 79.9248Z" fill="white"/>
<path d="M247.939 90.6021C244.477 90.6021 241.664 87.7893 241.664 84.3274C241.664 80.8655 244.477 78.0527 247.939 78.0527C251.401 78.0527 254.213 80.8655 254.213 84.3274C254.213 87.7893 251.41 90.6021 247.939 90.6021ZM247.939 79.9248C245.512 79.9248 243.546 81.9003 243.546 84.318C243.546 86.7357 245.521 88.7113 247.939 88.7113C250.356 88.7113 252.332 86.7357 252.332 84.318C252.332 81.9003 250.366 79.9248 247.939 79.9248Z" fill="white"/>
<path d="M270.029 90.6021C266.567 90.6021 263.754 87.7893 263.754 84.3274C263.754 80.8655 266.567 78.0527 270.029 78.0527C273.491 78.0527 276.303 80.8655 276.303 84.3274C276.303 87.7893 273.491 90.6021 270.029 90.6021ZM270.029 79.9248C267.602 79.9248 265.635 81.9003 265.635 84.318C265.635 86.7357 267.611 88.7113 270.029 88.7113C272.456 88.7113 274.422 86.7357 274.422 84.318C274.422 81.9003 272.456 79.9248 270.029 79.9248Z" fill="white"/>
<path d="M225.861 110.659C222.399 110.659 219.586 107.846 219.586 104.384C219.586 100.922 222.399 98.1091 225.861 98.1091C229.323 98.1091 232.135 100.922 232.135 104.384C232.135 107.846 229.323 110.659 225.861 110.659ZM225.861 99.9812C223.434 99.9812 221.467 101.957 221.467 104.374C221.467 106.802 223.443 108.768 225.861 108.768C228.278 108.768 230.254 106.792 230.254 104.374C230.254 101.957 228.278 99.9812 225.861 99.9812Z" fill="white"/>
<path d="M247.939 110.659C244.477 110.659 241.664 107.846 241.664 104.384C241.664 100.922 244.477 98.1091 247.939 98.1091C251.401 98.1091 254.213 100.922 254.213 104.384C254.213 107.846 251.41 110.659 247.939 110.659ZM247.939 99.9812C245.512 99.9812 243.546 101.957 243.546 104.374C243.546 106.802 245.521 108.768 247.939 108.768C250.356 108.768 252.332 106.792 252.332 104.374C252.341 101.957 250.366 99.9812 247.939 99.9812Z" fill="white"/>
<path d="M270.029 110.659C266.567 110.659 263.754 107.846 263.754 104.384C263.754 100.922 266.567 98.1091 270.029 98.1091C273.491 98.1091 276.303 100.922 276.303 104.384C276.303 107.846 273.491 110.659 270.029 110.659ZM270.029 99.9812C267.602 99.9812 265.635 101.957 265.635 104.374C265.635 106.802 267.611 108.768 270.029 108.768C272.456 108.768 274.422 106.792 274.422 104.374C274.431 101.957 272.456 99.9812 270.029 99.9812Z" fill="white"/>
<path d="M225.861 130.724C222.399 130.724 219.586 127.912 219.586 124.45C219.586 120.988 222.399 118.175 225.861 118.175C229.323 118.175 232.135 120.988 232.135 124.45C232.135 127.912 229.323 130.724 225.861 130.724ZM225.861 120.047C223.434 120.047 221.467 122.023 221.467 124.44C221.467 126.867 223.443 128.834 225.861 128.834C228.278 128.834 230.254 126.858 230.254 124.44C230.254 122.023 228.278 120.047 225.861 120.047Z" fill="white"/>
<path d="M247.939 130.724C244.477 130.724 241.664 127.912 241.664 124.45C241.664 120.988 244.477 118.175 247.939 118.175C251.401 118.175 254.213 120.988 254.213 124.45C254.213 127.912 251.41 130.724 247.939 130.724ZM247.939 120.047C245.512 120.047 243.546 122.023 243.546 124.44C243.546 126.867 245.521 128.834 247.939 128.834C250.356 128.834 252.332 126.858 252.332 124.44C252.341 122.023 250.366 120.047 247.939 120.047Z" fill="white"/>
<path d="M270.029 130.724C266.567 130.724 263.754 127.912 263.754 124.45C263.754 120.988 266.567 118.175 270.029 118.175C273.491 118.175 276.303 120.988 276.303 124.45C276.303 127.912 273.491 130.724 270.029 130.724ZM270.029 120.047C267.602 120.047 265.635 122.023 265.635 124.44C265.635 126.867 267.611 128.834 270.029 128.834C272.456 128.834 274.422 126.858 274.422 124.44C274.431 122.023 272.456 120.047 270.029 120.047Z" fill="white"/>
<path d="M272.709 59.5955C272.653 59.5955 272.587 59.5861 272.521 59.5767C272.013 59.4732 271.684 58.9841 271.778 58.4667L273.979 47.3942C274.083 46.8862 274.581 46.557 275.089 46.651C275.597 46.7545 275.926 47.2437 275.832 47.7611L273.631 58.8335C273.537 59.2851 273.142 59.5955 272.709 59.5955Z" fill="white"/>
</g>
<defs>
<clipPath id="clip0_29:3723">
<rect width="285.88" height="140" fill="white"/>
</clipPath>
</defs>
</svg>
