<svg width="44" height="64" viewBox="0 0 44 64" fill="none" xmlns="http://www.w3.org/2000/svg">
<path d="M35.0139 9.79267H42.4059V63.1474H0.927734V9.79267H6.00854M35.0139 10.398V6.71869H29.4552C28.4873 6.71869 27.6245 6.08312 27.3693 5.14948C26.6837 2.64404 24.3953 0.808777 21.6688 0.808777C18.942 0.808777 16.6536 2.64404 15.968 5.14948C15.7128 6.08314 14.85 6.71869 13.8824 6.71869H8.30872V10.301C8.30872 11.8878 9.59484 13.1739 11.1813 13.1739H32.8126M10.6664 35.9634L19.6693 44.022L35.004 28.0571M21.6666 4.91565C20.5636 4.91565 19.6693 5.80994 19.6693 6.91296C19.6693 8.01617 20.5636 8.91046 21.6666 8.91046C22.77 8.91046 23.6643 8.01619 23.6643 6.91296C23.6643 5.80994 22.77 4.91565 21.6666 4.91565Z" stroke="#0033A1" stroke-width="1.5" stroke-miterlimit="10" stroke-linecap="round" stroke-linejoin="round"/>
</svg>
