<svg width="65" height="70" viewBox="0 0 65 70" fill="none" xmlns="http://www.w3.org/2000/svg">
<path d="M27.5808 46.6461C27.5808 53.5027 23.577 59.443 17.7805 62.2299M17.7805 62.2299V69.0864H47.98V62.2299M17.7805 62.2299H47.98M47.98 62.2299C42.1835 59.443 38.1795 53.5027 38.1795 46.6461M32.8802 47.3742C23.3364 47.3742 15.5997 39.6376 15.5997 30.0938V1.29311H50.1606V30.0938C50.1607 39.6376 42.4239 47.3742 32.8802 47.3742ZM15.5997 5.51735H1.6474C1.6604 5.56641 0.211306 24.3336 15.5997 29.2533V5.51735ZM50.1606 5.51735H64.1131C64.1001 5.56641 65.549 24.3336 50.1606 29.2533V5.51735Z" stroke="#0033A1" stroke-width="1.5" stroke-miterlimit="10" stroke-linecap="round" stroke-linejoin="round"/>
</svg>
