<svg width="173" height="177" viewBox="0 0 173 177" fill="none" xmlns="http://www.w3.org/2000/svg">
<path d="M78.7171 91.7838C75.0881 92.7658 71.0314 92.7989 67.3403 91.7628M118.078 64.9617V46.038C118.078 21.1642 97.9136 1 73.0398 1C48.166 1 28.0017 21.1642 28.0017 46.038V56.4316M61.4512 143.829L69.328 124.161C69.6316 123.403 69.5661 122.547 69.1509 121.844L65.3415 115.394M80.7616 115.394L77.067 121.65C76.5794 122.476 76.5026 123.481 76.8591 124.371L84.652 143.829L92.8601 112.738M73.0516 122.959H76.2938M132.493 163.491V127.62H142.898C147.248 127.62 150.774 131.146 150.774 135.496C150.774 139.842 147.251 143.371 142.898 143.371H126.895M146.55 150.869H126.895M132.149 106.848L126.895 89.4945C126.895 82.1109 152.619 82.1109 152.619 89.4945L146.228 110.606M59.6703 136.771L53.5899 112.672M1.01393 160.096C1.01393 140.092 0.952767 141.684 1.08675 140.39C1.68844 134.581 5.94972 129.763 11.7059 128.492L53.9514 119.163M108.73 122.747L97.1242 120.185M35.4588 53.8232V69.2994C35.4588 82.9245 45.66 94.167 58.8413 95.8058M90.8688 95.1019C102.258 92.0477 110.644 81.6529 110.644 69.2994V46.6425C110.644 42.8412 107.292 39.9122 103.525 40.422L35.4588 49.6328M171.66 154.961C171.66 145.233 162.287 109.27 139.757 109.27C117.228 109.27 107.854 145.233 107.854 154.961C107.854 170.222 122.125 175.267 139.757 175.267C157.389 175.267 171.66 170.222 171.66 154.961ZM79.1433 81.2661H66.9599C62.4761 81.2661 58.8413 84.901 58.8413 89.3848V103.027H87.2619V89.3848C87.2619 84.901 83.6271 81.2661 79.1433 81.2661Z" stroke="#0C42D9" stroke-width="2" stroke-miterlimit="10" stroke-linecap="round" stroke-linejoin="round"/>
</svg>
