<svg xmlns="http://www.w3.org/2000/svg" fill="none" viewBox="0.66 0.16 43.47 79.81">
<path d="M11.3741 79.2181H34.6941M23.0444 44.2357V35.6105M14.0543 48.7219C14.0543 41.7366 8.39154 36.0739 1.40625 36.0739C1.40625 43.0592 7.06897 48.7219 14.0543 48.7219ZM14.0543 48.7219C15.1459 50.9014 17.4001 52.3976 20.0035 52.3976M28.2491 48.1314C26.7748 49.1718 24.9758 49.783 23.0341 49.783H23.0444V59.2472M17.0284 25.46C14.185 28.2231 13.6524 32.5526 15.6215 35.9659C18.1588 35.3323 20.2209 33.6258 21.3246 31.3906M24.6019 31.5902C25.6871 33.7609 27.6795 35.4321 30.1408 36.0926C32.1671 32.7178 31.7131 28.385 28.9261 25.5726M32.5507 26.3151C35.0473 27.4562 38.0147 27.3477 40.4971 25.9154C39.5493 22.1196 36.2001 19.387 32.2718 19.3362M32.3009 17.8307C36.2227 17.8412 39.6114 15.1697 40.6238 11.3961C38.3441 10.0273 35.6272 9.79021 33.2371 10.6396M29.1579 11.4285C31.8977 8.66137 32.3882 4.40509 30.4468 1.03979C27.6804 1.73047 25.4789 3.69648 24.4686 6.23267M22.3618 9.15302C22.3348 5.26661 19.6743 1.91834 15.9274 0.913086C14.4289 3.40882 14.2868 6.42858 15.4418 8.96991M15.9776 12.3967C13.2111 9.64136 8.9436 9.14441 5.57098 11.0901C6.1225 13.2987 7.48682 15.1472 9.30524 16.317M10.5328 19.8046C8.07879 20.8077 6.16295 22.931 5.44427 25.6094C8.81964 27.636 13.1532 27.1818 15.9655 24.3934M12.4283 59.2472H33.64L30.0881 72.674C29.7264 74.0418 28.489 74.9943 27.0743 74.9943H18.9939C17.5792 74.9943 16.3418 74.0418 15.98 72.674L13.121 61.866L12.4283 59.2472ZM43.3738 33.2524C36.2873 33.2524 30.5427 38.9972 30.5427 46.0836C37.6291 46.0835 43.3738 40.339 43.3738 33.2524ZM23.0444 9.1283C17.9227 9.1283 13.7706 13.2804 13.7706 18.4022C13.7706 23.5239 17.9227 27.676 23.0444 27.676C28.1662 27.676 32.3183 23.5239 32.3183 18.4022C32.3183 13.2804 28.1662 9.1283 23.0444 9.1283Z" stroke="#0033A1" stroke-width="1.5" stroke-miterlimit="10" stroke-linecap="round" stroke-linejoin="round"/>
</svg>