<svg width="500" height="282" viewBox="0 0 500 282" fill="none" xmlns="http://www.w3.org/2000/svg">
<g clip-path="url(#clip0_29:3605)">
<path d="M372.579 63.7237C372.477 63.7237 372.375 63.7051 372.273 63.6679L363.849 60.6773C363.598 60.5844 363.394 60.3986 363.301 60.1479C363.199 59.8971 363.217 59.6184 363.338 59.3862L367.387 51.4173C367.62 50.9622 368.177 50.7764 368.632 51.0086C369.087 51.2408 369.273 51.7981 369.041 52.2532L365.465 59.2748L372.886 61.9125C373.369 62.089 373.619 62.6184 373.452 63.1014C373.322 63.4822 372.96 63.7237 372.579 63.7237Z" fill="white"/>
<path d="M246.889 281.253H229.093C228.666 281.253 228.304 280.965 228.192 280.557L223.075 260.681L210.174 253.232L190.4 258.74C189.992 258.851 189.555 258.675 189.351 258.312L180.453 242.904C180.24 242.533 180.305 242.077 180.611 241.78L195.267 227.412V212.505L180.611 198.137C180.305 197.84 180.249 197.375 180.453 197.013L189.351 181.604C189.564 181.233 189.992 181.056 190.4 181.177L210.174 186.685L223.075 179.236L228.192 159.36C228.295 158.951 228.666 158.664 229.093 158.664H246.889C247.316 158.664 247.678 158.951 247.79 159.36L252.907 179.236L265.808 186.685L285.582 181.177C285.99 181.066 286.427 181.242 286.631 181.604L295.529 197.013C295.743 197.384 295.678 197.84 295.371 198.137L280.715 212.505V227.403L295.371 241.771C295.678 242.068 295.733 242.532 295.529 242.895L286.631 258.303C286.418 258.675 285.99 258.851 285.582 258.73L265.808 253.223L252.907 260.672L247.79 280.548C247.678 280.965 247.307 281.253 246.889 281.253ZM229.809 279.396H246.164L251.198 259.836C251.263 259.594 251.421 259.39 251.635 259.26L265.214 251.421C265.427 251.3 265.687 251.263 265.929 251.328L285.387 256.752L293.56 242.588L279.136 228.452C278.96 228.276 278.857 228.034 278.857 227.793V212.115C278.857 211.864 278.96 211.623 279.136 211.455L293.56 197.319L285.387 183.156L265.929 188.58C265.687 188.645 265.427 188.617 265.214 188.487L251.635 180.648C251.421 180.527 251.263 180.313 251.198 180.072L246.164 160.512H229.809L224.775 180.072C224.71 180.313 224.552 180.518 224.338 180.648L210.759 188.487C210.546 188.607 210.286 188.645 210.044 188.58L190.586 183.156L182.413 197.319L196.837 211.455C197.013 211.632 197.115 211.873 197.115 212.115V227.793C197.115 228.044 197.013 228.285 196.837 228.452L182.413 242.588L190.586 256.752L210.044 251.328C210.286 251.263 210.546 251.291 210.759 251.421L224.338 259.26C224.552 259.381 224.71 259.594 224.775 259.836L229.809 279.396ZM237.991 244.102C224.672 244.102 213.843 233.273 213.843 219.954C213.843 206.635 224.672 195.806 237.991 195.806C251.31 195.806 262.139 206.635 262.139 219.954C262.139 233.273 251.301 244.102 237.991 244.102ZM237.991 197.663C225.703 197.663 215.7 207.666 215.7 219.954C215.7 232.242 225.703 242.245 237.991 242.245C250.279 242.245 260.282 232.242 260.282 219.954C260.282 207.666 250.279 197.663 237.991 197.663Z" fill="white"/>
<path d="M107.62 220.883H90.1678C89.7591 220.883 89.4062 220.623 89.2855 220.232L82.2082 197.682L66.6046 192.611L47.6296 206.691C47.3046 206.932 46.8587 206.932 46.5337 206.7L32.4162 196.446C32.0911 196.205 31.9518 195.787 32.0818 195.397L39.6143 172.995L29.9735 159.722L6.34532 159.964C5.95523 159.973 5.57443 159.704 5.45369 159.323L0.0574683 142.726C-0.0632732 142.336 0.076044 141.918 0.401117 141.685L19.664 127.986V111.574L0.391829 97.8842C0.0574683 97.652 -0.0818488 97.2247 0.0481805 96.8439L5.4444 80.2466C5.57443 79.8565 5.93665 79.615 6.33603 79.6058L29.9642 79.8472L39.605 66.575L32.0725 44.1728C31.9425 43.792 32.0818 43.3647 32.4069 43.1232L46.5244 32.8695C46.8495 32.628 47.2953 32.6373 47.6203 32.8788L66.5953 46.9591L82.1989 41.888L89.2762 19.3372C89.3969 18.9471 89.7591 18.687 90.1585 18.687H107.61C108.019 18.687 108.372 18.9471 108.493 19.3372L115.57 41.888L131.173 46.9591L150.148 32.8788C150.474 32.6373 150.919 32.6373 151.244 32.8695L165.362 43.1232C165.687 43.3647 165.826 43.7827 165.696 44.1728L158.164 66.575L167.805 79.8472L191.433 79.6058C191.851 79.6058 192.204 79.8658 192.324 80.2466L197.721 96.8439C197.841 97.234 197.702 97.652 197.377 97.8842L178.114 111.584V127.995L197.377 141.695C197.711 141.927 197.851 142.354 197.721 142.735L192.324 159.332C192.194 159.722 191.795 159.973 191.433 159.973L167.805 159.732L158.164 173.004L165.696 195.406C165.826 195.787 165.687 196.214 165.362 196.456L151.244 206.709C150.919 206.951 150.474 206.942 150.148 206.7L131.173 192.62L115.57 197.691L108.493 220.242C108.39 220.623 108.028 220.883 107.62 220.883ZM90.8551 219.025H106.942L113.954 196.669C114.047 196.381 114.27 196.158 114.558 196.066L131.071 190.697C131.359 190.604 131.675 190.66 131.917 190.837L150.734 204.796L163.746 195.341L156.278 173.134C156.186 172.846 156.232 172.54 156.408 172.289L166.616 158.236C166.792 157.995 167.062 157.856 167.377 157.856L190.801 158.097L195.77 142.8L176.674 129.221C176.433 129.045 176.284 128.766 176.284 128.469V111.101C176.284 110.804 176.433 110.516 176.674 110.348L195.77 96.7696L190.801 81.4726L167.377 81.7141C167.099 81.742 166.792 81.5748 166.616 81.3333L156.408 67.2808C156.232 67.0393 156.186 66.7236 156.278 66.4356L163.746 44.2285L150.734 34.7735L131.917 48.7331C131.675 48.9095 131.359 48.9653 131.071 48.8724L114.558 43.504C114.27 43.4112 114.047 43.1883 113.954 42.9003L106.942 20.5446H90.8551L83.8428 42.9003C83.7499 43.1883 83.527 43.4112 83.2391 43.504L66.7254 48.8724C66.4374 48.9653 66.131 48.9095 65.8802 48.7331L47.0724 34.7642L34.0601 44.2192L41.5275 66.4263C41.6204 66.7143 41.574 67.0208 41.3975 67.2715L31.1809 81.3147C31.0045 81.5562 30.7072 81.6862 30.4193 81.6955L6.99546 81.4633L2.02648 96.7603L21.1222 110.339C21.3637 110.516 21.5123 110.794 21.5123 111.091V128.46C21.5123 128.757 21.3637 129.045 21.1222 129.212L2.02648 142.8L6.99546 158.097L30.4193 157.856C30.7444 157.856 31.0045 157.995 31.1809 158.236L41.3882 172.289C41.5647 172.53 41.6111 172.846 41.5183 173.134L34.0509 195.341L47.0631 204.796L65.8802 190.837C66.1217 190.66 66.4374 190.604 66.7254 190.697L83.2391 196.066C83.527 196.158 83.7499 196.381 83.8428 196.669L90.8551 219.025ZM98.8983 170.793C70.7656 170.793 47.8804 147.908 47.8804 119.776C47.8804 91.6428 70.7656 68.7576 98.8983 68.7576C127.031 68.7576 149.916 91.6428 149.916 119.776C149.916 147.908 127.031 170.793 98.8983 170.793ZM98.8983 70.6244C71.7965 70.6244 49.738 92.6737 49.738 119.785C49.738 146.896 71.7872 168.945 98.8983 168.945C126.009 168.945 148.059 146.896 148.059 119.785C148.059 92.6737 126 70.6244 98.8983 70.6244Z" fill="white"/>
<path d="M393.449 228.889H375.328C374.929 228.889 374.576 228.638 374.446 228.257L366.579 205.298L349.685 200.338L330.654 215.394C330.338 215.635 329.911 215.663 329.577 215.449L314.335 205.651C314.001 205.437 313.843 205.028 313.936 204.648L319.731 181.075L308.196 167.766L284.048 170.143C283.658 170.181 283.277 169.967 283.11 169.605L275.587 153.128C275.419 152.766 275.503 152.339 275.791 152.069L293.401 135.37L290.893 117.937L269.289 106.884C268.936 106.708 268.732 106.318 268.797 105.927L271.379 87.9927C271.435 87.6026 271.732 87.2869 272.122 87.2126L295.964 82.6894L303.283 66.6679L291.079 45.696C290.884 45.3524 290.921 44.9252 291.181 44.6187L303.041 30.9284C303.301 30.6312 303.719 30.529 304.091 30.6777L326.595 39.7611L341.409 30.2411L342.496 5.99994C342.514 5.60056 342.784 5.2662 343.165 5.14546L360.551 0.037165C360.932 -0.0742887 361.341 0.0650284 361.573 0.390102L375.588 20.201H393.198L407.213 0.390102C407.446 0.0650284 407.854 -0.0742887 408.235 0.037165L425.622 5.14546C426.003 5.25691 426.272 5.60056 426.291 5.99994L427.377 30.2411L442.191 39.7611L464.696 30.6777C465.067 30.529 465.485 30.6312 465.745 30.9284L477.606 44.6187C477.866 44.9159 477.903 45.3524 477.708 45.696L465.504 66.6772L472.822 82.6987L496.664 87.2218C497.054 87.2961 497.352 87.6119 497.407 88.002L499.989 105.937C500.045 106.327 499.85 106.717 499.497 106.893L477.894 117.946L475.386 135.379L492.996 152.079C493.283 152.348 493.367 152.775 493.2 153.137L485.677 169.614C485.51 169.976 485.138 170.19 484.739 170.153L460.59 167.775L449.055 181.084L454.841 204.657C454.934 205.047 454.776 205.446 454.442 205.66L439.201 215.459C438.866 215.672 438.43 215.654 438.123 215.403L419.092 200.347L402.198 205.307L394.331 228.267C394.201 228.638 393.848 228.889 393.449 228.889ZM375.997 227.031H392.789L400.6 204.248C400.693 203.96 400.926 203.747 401.213 203.654L419.037 198.425C419.325 198.341 419.64 198.397 419.873 198.592L438.764 213.536L452.891 204.462L447.142 181.075C447.067 180.778 447.142 180.471 447.346 180.249L459.504 166.215C459.699 165.982 459.996 165.862 460.293 165.899L484.265 168.258L491.24 152.98L473.761 136.41C473.538 136.206 473.435 135.899 473.482 135.602L476.129 117.221C476.175 116.924 476.361 116.664 476.621 116.525L498.067 105.547L495.68 88.9308L472.005 84.4262C471.708 84.3705 471.457 84.1754 471.336 83.8968L463.618 67.0023C463.498 66.7236 463.507 66.4079 463.655 66.1478L475.757 45.3245L464.761 32.6374L442.423 41.6558C442.145 41.7673 441.829 41.7394 441.569 41.5723L425.947 31.5321C425.696 31.365 425.538 31.0956 425.52 30.7891L424.442 6.72439L408.328 1.99689L394.415 21.6592C394.238 21.91 393.96 22.0493 393.653 22.0493H375.078C374.78 22.0493 374.492 21.9007 374.316 21.6592L360.431 2.00618L344.316 6.73368L343.239 30.7984C343.23 31.0956 343.062 31.3742 342.812 31.5414L327.19 41.5815C326.939 41.7487 326.623 41.7766 326.335 41.6651L303.998 32.6467L293.001 45.3338L305.103 66.1571C305.252 66.4171 305.27 66.7329 305.14 67.0116L297.422 83.9061C297.301 84.1754 297.051 84.3798 296.753 84.4355L273.088 88.9215L270.701 105.537L292.137 116.516C292.407 116.655 292.593 116.915 292.63 117.212L295.277 135.593C295.323 135.89 295.212 136.196 294.998 136.401L277.518 152.97L284.494 168.249L308.465 165.89C308.772 165.852 309.06 165.982 309.255 166.205L321.422 180.239C321.617 180.471 321.691 180.778 321.626 181.066L315.877 204.453L330.004 213.527L348.895 198.583C349.127 198.397 349.443 198.332 349.731 198.416L367.554 203.645C367.842 203.728 368.075 203.951 368.167 204.239L375.997 227.031Z" fill="white"/>
<path d="M384.394 171.611C352.296 171.611 326.188 145.503 326.188 113.404C326.188 101.757 329.615 90.5191 336.098 80.9062C336.386 80.4789 336.961 80.3675 337.389 80.6554C337.816 80.9433 337.927 81.5192 337.639 81.9464C331.361 91.2528 328.045 102.129 328.045 113.404C328.045 144.472 353.326 169.753 384.394 169.753C415.462 169.753 440.743 144.472 440.743 113.404C440.743 82.3365 415.462 57.0551 384.394 57.0551C380.475 57.0551 376.565 57.4544 372.775 58.2532C372.274 58.3646 371.781 58.0396 371.679 57.538C371.577 57.0365 371.893 56.5442 372.394 56.4421C376.314 55.6155 380.354 55.2068 384.394 55.2068C416.493 55.2068 442.601 81.3148 442.601 113.414C442.601 145.494 416.484 171.611 384.394 171.611Z" fill="white"/>
<path d="M98.8972 148.995C98.3864 148.995 97.9684 148.577 97.9684 148.066V93.742L86.2844 105.417C85.9222 105.779 85.337 105.779 84.9748 105.417C84.6126 105.055 84.6126 104.469 84.9748 104.107L98.2378 90.8442C98.5071 90.5748 98.8972 90.5005 99.2502 90.6398C99.5938 90.7792 99.826 91.1228 99.826 91.4943V148.066C99.826 148.577 99.4081 148.995 98.8972 148.995Z" fill="white"/>
<path d="M245.441 231.759H231.509C230.998 231.759 230.581 231.341 230.581 230.83C230.581 227.524 233.618 225.174 236.831 222.685C240.305 220 243.899 217.223 243.899 213.137C243.899 211.419 243.277 209.979 242.097 208.985C241.029 208.075 239.571 207.573 238.001 207.573C235.122 207.573 232.029 209.375 232.029 213.323C232.029 213.833 231.611 214.251 231.101 214.251C230.59 214.251 230.172 213.833 230.172 213.323C230.172 208.326 234.11 205.716 238.001 205.716C241.856 205.716 245.757 208.261 245.757 213.137C245.757 218.134 241.614 221.329 237.964 224.152C235.494 226.065 233.144 227.877 232.568 229.892H245.432C245.943 229.892 246.361 230.31 246.361 230.821C246.361 231.332 245.961 231.759 245.441 231.759Z" fill="white"/>
<path d="M384.479 140.237C372.507 140.237 367.055 131.478 367.055 123.333C367.055 122.822 367.473 122.404 367.983 122.404C368.494 122.404 368.912 122.822 368.912 123.333C368.912 133.67 376.983 138.379 384.479 138.379C391.89 138.379 399.868 133.81 399.868 123.779C399.868 115.03 393.358 108.677 384.386 108.677C383.875 108.677 383.457 108.259 383.457 107.748C383.457 107.237 383.875 106.819 384.386 106.819C392.364 106.819 398.16 101.172 398.16 93.389C398.16 84.4634 391.064 80.4047 384.46 80.4047C377.782 80.4047 370.603 84.5935 370.603 93.7977C370.603 94.3085 370.185 94.7265 369.674 94.7265C369.163 94.7265 368.745 94.3085 368.745 93.7977C368.745 89.0795 370.454 85.1229 373.695 82.3458C376.538 79.9031 380.364 78.5564 384.46 78.5564C392.187 78.5564 400.017 83.6554 400.017 93.3983C400.017 100.206 396.135 105.584 390.218 107.711C397.129 109.903 401.717 115.996 401.717 123.788C401.726 134.59 393.051 140.237 384.479 140.237Z" fill="white"/>
</g>
<defs>
<clipPath id="clip0_29:3605">
<rect width="500" height="281.253" fill="white"/>
</clipPath>
</defs>
</svg>
