<svg xmlns="http://www.w3.org/2000/svg" fill="none" viewBox="3.37 18.45 183.56 102.23">
<path d="M129.602 29.6575C126.816 29.6575 124.394 31.246 123.195 33.5648C122.857 34.219 122.145 34.6262 121.409 34.5875C117.879 34.4022 114.733 37.2378 114.758 40.9573C114.781 44.4196 117.913 47.2448 121.375 47.2448H132.431M166.959 30.0062C168.252 29.9891 169.574 30.2649 170.843 30.8702C173.261 32.0234 175.031 34.3107 175.531 36.9425C176.576 42.4304 172.375 47.2448 167.072 47.2448H141.462C136.139 47.2448 131.483 43.2368 131.128 37.9255C130.738 32.1005 135.366 27.2361 141.109 27.2361C141.687 27.2361 142.259 27.2854 142.82 27.3827C143.291 27.4644 143.763 27.1863 143.936 26.7405C145.586 22.4813 149.726 19.4536 154.561 19.4536C160.236 19.4536 164.955 23.6259 165.811 29.0643C165.899 29.6212 166.395 30.0137 166.959 30.0062Z" stroke="#0C42D9" stroke-width="2" stroke-miterlimit="10" stroke-linecap="round" stroke-linejoin="round"/>
<path d="M23.0957 119.68H4.36719L43.7262 74.0116L54.7817 86.8392M50.0687 92.3077L44.2445 78.8567M142.081 72.516L161.366 117.053M124.328 88.3439L88.9064 47.2446L26.4783 119.68H93.7632M109.017 96.8457L89.5518 51.8915M141.627 68.2721L97.321 119.68H185.932L141.627 68.2721Z" stroke="#0C42D9" stroke-width="2" stroke-miterlimit="10" stroke-linecap="round" stroke-linejoin="round"/>
</svg>