<svg width="70" height="70" viewBox="0 0 70 70" fill="none" xmlns="http://www.w3.org/2000/svg">
<path d="M10.5002 11.8994C18.2073 14.8734 26.577 16.5049 35.3293 16.5049C44.0815 16.5049 52.4599 14.8734 60.1668 11.8994M69.2488 35C69.2488 53.7309 54.0643 68.9155 35.3333 68.9155M69.2488 35C69.2488 16.2691 54.0643 1.08484 35.3333 1.08484M69.2488 35H61.6818M35.3333 68.9155C16.6024 68.9155 1.41797 53.7309 1.41797 35M35.3333 68.9155C42.2518 68.9155 48.2446 61.3386 51.1675 50.2871M35.3333 68.9155C28.2294 68.9155 22.101 60.9263 19.2706 49.3899M35.3333 68.9155V48.5945M1.41797 35C1.41797 16.2691 16.6023 1.08484 35.3333 1.08484M1.41797 35H10.5M35.3333 1.08484C28.2294 1.08484 22.101 9.07373 19.2706 20.6105M35.3333 1.08484C42.2518 1.08484 48.2446 8.66139 51.1675 19.7129M35.3333 1.08484V21.4059M10.5002 58.0991C18.2073 55.1251 26.577 53.4937 35.3293 53.4937C44.0815 53.4937 52.4599 55.1251 60.1668 58.0991M16.0391 24.3601V46.139M35.8076 25.9414C33.7769 24.2085 30.7756 23.1285 27.7804 23.8566C25.4354 24.4264 24.3142 26.2153 24.3142 28.0779C24.3142 31.8253 27.6414 32.7972 30.6141 34.1383C33.6879 35.5248 36.4393 37.1376 36.1672 41.1637C35.7605 47.1784 26.7233 46.2427 23.287 43.3101M57.3895 35C57.3895 43.3126 53.4364 46.139 49.4094 46.139C45.3821 46.139 41.4293 43.3126 41.4293 35C41.4293 26.6874 45.3821 23.8613 49.4094 23.8613C53.4364 23.8613 57.3895 26.6874 57.3895 35Z" stroke="#0033A1" stroke-width="1.5" stroke-miterlimit="10" stroke-linecap="round" stroke-linejoin="round"/>
</svg>
