<svg width="188" height="183" viewBox="0 0 188 183" fill="none" xmlns="http://www.w3.org/2000/svg">
<path d="M69.9803 132.175L61.6221 153.045L53.7608 121.888M69.9803 132.175L65.5124 124.61M69.9803 132.175H76.4647M76.4647 132.175L84.8229 153.045L93.0311 121.954M76.4647 132.175L80.9326 124.61M129.466 163.599C129.466 173.668 121.006 181.642 110.963 181.079C102.377 180.597 95.4427 173.928 94.5491 165.458M129.466 159.461L111.959 128.904M111.959 128.904L95.1944 159.461M111.959 128.904L136.722 123.732M94.8464 167.313H125.54M151.335 153.046C152.008 162.1 159.567 169.236 168.793 169.236C178.462 169.236 186.3 161.398 186.3 151.729M186.3 147.591L168.793 117.034M168.793 117.034L152.029 147.591M168.793 117.034L143.441 122.329M151.681 155.443H182.374M140.078 119.573L140.098 112.243M140.078 119.573C138.183 119.573 136.645 121.109 136.645 123.004C136.645 124.899 138.181 126.436 140.076 126.436C141.971 126.436 143.508 124.899 143.508 123.004C143.508 121.109 141.973 119.573 140.078 119.573ZM42.1388 54.0992C54.0502 54.7639 71.2984 54.0461 90.5724 42.6728C95.0602 48.2233 100.136 52.0278 104.684 54.433M29.708 61.9883V44.4915C29.708 20.4718 49.1798 1 73.1995 1C97.2192 1 116.691 20.4718 116.691 44.4915V61.9883M62.1447 108.114L58.9237 108.126C46.5496 108.126 36.5185 98.0951 36.5185 85.7211V52.8576M65.6902 107.856C65.6902 111.813 70.5223 113.693 73.2304 110.916C75.7864 113.603 80.5103 111.948 80.7424 108.126H87.517C99.8911 108.126 109.922 98.0951 109.922 85.7211V55.7272M1 176.644V145.477C1 135.539 9.05623 127.482 18.9941 127.482H46.8147M91.5715 127.482H102.871M78.8879 91.0946C78.8879 91.0806 67.5112 91.0596 67.5112 91.0736L78.8879 91.0946ZM140.171 112.236C136.208 112.236 132.958 109.027 132.958 105.023C132.958 101.06 136.168 97.8105 140.171 97.8105C144.135 97.8105 147.384 101.02 147.384 105.023C147.384 108.987 144.175 112.236 140.171 112.236Z" stroke="#0C42D9" stroke-width="2" stroke-miterlimit="10" stroke-linecap="round" stroke-linejoin="round"/>
</svg>
