<svg width="276" height="300" viewBox="0 0 276 300" fill="none" xmlns="http://www.w3.org/2000/svg">
<g clip-path="url(#clip0_29:3631)">
<path d="M32.6698 280.901H4.09574C3.58976 280.901 3.17578 280.487 3.17578 279.981V249.981C3.17578 249.476 3.58976 249.062 4.09574 249.062H32.6698C33.1758 249.062 33.5898 249.476 33.5898 249.981V279.981C33.5898 280.487 33.1758 280.901 32.6698 280.901ZM5.01571 279.062H31.7498V250.901H5.01571V279.062ZM18.3828 256.265C17.8768 256.265 17.4628 255.851 17.4628 255.345V252.999C17.4628 252.493 17.8768 252.079 18.3828 252.079C18.8888 252.079 19.3027 252.493 19.3027 252.999V255.345C19.3027 255.86 18.8888 256.265 18.3828 256.265Z" fill="white"/>
<path d="M75.1971 280.901H46.6231C46.1171 280.901 45.7031 280.487 45.7031 279.981V249.981C45.7031 249.476 46.1171 249.062 46.6231 249.062H75.1971C75.7031 249.062 76.1171 249.476 76.1171 249.981V279.981C76.1171 280.487 75.7031 280.901 75.1971 280.901ZM47.5431 279.062H74.2772V250.901H47.5431V279.062ZM60.9101 256.265C60.4041 256.265 59.9902 255.851 59.9902 255.345V252.999C59.9902 252.493 60.4041 252.079 60.9101 252.079C61.4161 252.079 61.8301 252.493 61.8301 252.999V255.345C61.8301 255.86 61.4161 256.265 60.9101 256.265Z" fill="white"/>
<path d="M116.283 280.901H87.709C87.203 280.901 86.7891 280.487 86.7891 279.981V249.981C86.7891 249.476 87.203 249.062 87.709 249.062H116.283C116.789 249.062 117.203 249.476 117.203 249.981V279.981C117.203 280.487 116.798 280.901 116.283 280.901ZM88.629 279.062H115.363V250.901H88.629V279.062ZM101.996 256.265C101.49 256.265 101.076 255.851 101.076 255.345V252.999C101.076 252.493 101.49 252.079 101.996 252.079C102.502 252.079 102.916 252.493 102.916 252.999V255.345C102.916 255.86 102.511 256.265 101.996 256.265Z" fill="white"/>
<path d="M157.377 280.901H128.803C128.297 280.901 127.883 280.487 127.883 279.981V249.981C127.883 249.476 128.297 249.062 128.803 249.062H157.377C157.883 249.062 158.297 249.476 158.297 249.981V279.981C158.297 280.487 157.883 280.901 157.377 280.901ZM129.723 279.062H156.457V250.901H129.723V279.062ZM143.09 256.265C142.584 256.265 142.17 255.851 142.17 255.345V252.999C142.17 252.493 142.584 252.079 143.09 252.079C143.596 252.079 144.01 252.493 144.01 252.999V255.345C144.01 255.86 143.596 256.265 143.09 256.265Z" fill="white"/>
<path d="M198.463 280.901H169.889C169.383 280.901 168.969 280.487 168.969 279.981V249.981C168.969 249.476 169.383 249.062 169.889 249.062H198.463C198.969 249.062 199.383 249.476 199.383 249.981V279.981C199.383 280.487 198.978 280.901 198.463 280.901ZM170.809 279.062H197.543V250.901H170.809V279.062ZM184.176 256.265C183.67 256.265 183.256 255.851 183.256 255.345V252.999C183.256 252.493 183.67 252.079 184.176 252.079C184.682 252.079 185.096 252.493 185.096 252.999V255.345C185.096 255.86 184.691 256.265 184.176 256.265Z" fill="white"/>
<path d="M78.3092 67.0285C74.7397 67.0285 71.8326 64.1214 71.8326 60.552C71.8326 56.9825 74.7397 54.0754 78.3092 54.0754C81.8786 54.0754 84.7857 56.9825 84.7857 60.552C84.7857 64.1214 81.8786 67.0285 78.3092 67.0285ZM78.3092 55.9062C75.7517 55.9062 73.6726 57.9853 73.6726 60.5428C73.6726 63.1003 75.7517 65.1794 78.3092 65.1794C80.8667 65.1794 82.9458 63.1003 82.9458 60.5428C82.9458 57.9853 80.8667 55.9062 78.3092 55.9062ZM24.6293 67.0285C21.0599 67.0285 18.1528 64.1214 18.1528 60.552C18.1528 56.9825 21.0599 54.0754 24.6293 54.0754C28.1988 54.0754 31.1059 56.9825 31.1059 60.552C31.1059 64.1214 28.208 67.0285 24.6293 67.0285ZM24.6293 55.9062C22.0718 55.9062 19.9927 57.9853 19.9927 60.5428C19.9927 63.1003 22.0718 65.1794 24.6293 65.1794C27.1868 65.1794 29.2659 63.1003 29.2659 60.5428C29.2659 57.9853 27.1868 55.9062 24.6293 55.9062ZM98.5668 61.4719H86.1657C85.6597 61.4719 85.2457 61.058 85.2457 60.552C85.2457 60.046 85.6597 59.632 86.1657 59.632H97.6468V41.9503L84.2153 17.5621H64.0037C63.4978 17.5621 63.0838 17.1481 63.0838 16.6421C63.0838 16.1362 63.4978 15.7222 64.0037 15.7222H84.7489C85.0801 15.7222 85.3929 15.9062 85.5585 16.2006L99.3671 41.2696C99.4407 41.4075 99.4775 41.5547 99.4775 41.7111V60.552C99.4867 61.058 99.0727 61.4719 98.5668 61.4719ZM70.4435 61.4719H64.0037C63.4978 61.4719 63.0838 61.058 63.0838 60.552C63.0838 60.046 63.4978 59.632 64.0037 59.632H70.4435C70.9495 59.632 71.3635 60.046 71.3635 60.552C71.3635 61.058 70.9495 61.4719 70.4435 61.4719ZM60.8943 61.4719H32.495C31.989 61.4719 31.575 61.058 31.575 60.552C31.575 60.046 31.989 59.632 32.495 59.632H59.9743V1.83993H5.01571V59.632H16.7728C17.2788 59.632 17.6928 60.046 17.6928 60.552C17.6928 61.058 17.2788 61.4719 16.7728 61.4719H4.09574C3.58976 61.4719 3.17578 61.058 3.17578 60.552V0.919963C3.17578 0.413983 3.58976 0 4.09574 0H60.8943C61.4003 0 61.8142 0.413983 61.8142 0.919963V60.552C61.8142 61.058 61.4003 61.4719 60.8943 61.4719ZM89.6431 33.7075H70.4435C69.9375 33.7075 69.5235 33.2935 69.5235 32.7875C69.5235 32.2815 69.9375 31.8675 70.4435 31.8675H89.6431C90.1491 31.8675 90.5631 32.2815 90.5631 32.7875C90.5631 33.2935 90.1491 33.7075 89.6431 33.7075Z" fill="white"/>
<path d="M267.866 300H7.4057C3.32107 300 0 296.679 0 292.594C0 288.51 3.32107 285.188 7.4057 285.188H267.866C271.95 285.188 275.271 288.51 275.271 292.594C275.271 296.679 271.95 300 267.866 300ZM7.4057 287.038C4.34223 287.038 1.83993 289.531 1.83993 292.603C1.83993 295.676 4.33303 298.169 7.4057 298.169H267.866C270.929 298.169 273.431 295.676 273.431 292.603C273.431 289.531 270.938 287.038 267.866 287.038H7.4057Z" fill="white"/>
<path d="M7.33027 295.924C5.49034 295.924 4 294.425 4 292.594C4 290.763 5.49954 289.264 7.33027 289.264C9.17019 289.264 10.6605 290.763 10.6605 292.594C10.6605 294.425 9.16099 295.924 7.33027 295.924ZM7.33027 291.104C6.5023 291.104 5.83993 291.775 5.83993 292.594C5.83993 293.413 6.5115 294.085 7.33027 294.085C8.14903 294.085 8.82061 293.413 8.82061 292.594C8.82061 291.775 8.14903 291.104 7.33027 291.104Z" fill="white"/>
<path d="M267.94 295.924C266.1 295.924 264.609 294.425 264.609 292.594C264.609 290.763 266.109 289.264 267.94 289.264C269.78 289.264 271.27 290.763 271.27 292.594C271.27 294.425 269.78 295.924 267.94 295.924ZM267.94 291.104C267.112 291.104 266.449 291.775 266.449 292.594C266.449 293.413 267.121 294.085 267.94 294.085C268.758 294.085 269.43 293.413 269.43 292.594C269.43 291.775 268.768 291.104 267.94 291.104Z" fill="white"/>
<path d="M32.6698 207.268H4.09574C3.58976 207.268 3.17578 206.854 3.17578 206.348V176.348C3.17578 175.842 3.58976 175.428 4.09574 175.428H32.6698C33.1758 175.428 33.5898 175.842 33.5898 176.348V206.348C33.5898 206.854 33.1758 207.268 32.6698 207.268ZM5.01571 205.428H31.7498V177.268H5.01571V205.428ZM18.3828 182.64C17.8768 182.64 17.4628 182.226 17.4628 181.72V179.374C17.4628 178.868 17.8768 178.454 18.3828 178.454C18.8888 178.454 19.3027 178.868 19.3027 179.374V181.72C19.3027 182.226 18.8888 182.64 18.3828 182.64Z" fill="white"/>
<path d="M75.1971 207.268H46.6231C46.1171 207.268 45.7031 206.854 45.7031 206.348V176.348C45.7031 175.842 46.1171 175.428 46.6231 175.428H75.1971C75.7031 175.428 76.1171 175.842 76.1171 176.348V206.348C76.1171 206.854 75.7031 207.268 75.1971 207.268ZM47.5431 205.428H74.2772V177.268H47.5431V205.428ZM60.9101 182.64C60.4041 182.64 59.9902 182.226 59.9902 181.72V179.374C59.9902 178.868 60.4041 178.454 60.9101 178.454C61.4161 178.454 61.8301 178.868 61.8301 179.374V181.72C61.8301 182.226 61.4161 182.64 60.9101 182.64Z" fill="white"/>
<path d="M221.868 226.366H7.4057C3.32107 226.366 0 223.045 0 218.96C0 214.876 3.32107 211.555 7.4057 211.555H221.868C225.952 211.555 229.273 214.876 229.273 218.96C229.273 223.045 225.952 226.366 221.868 226.366ZM7.4057 213.404C4.34223 213.404 1.83993 215.897 1.83993 218.97C1.83993 222.042 4.33303 224.535 7.4057 224.535H221.868C224.931 224.535 227.433 222.042 227.433 218.97C227.433 215.897 224.94 213.404 221.868 213.404H7.4057Z" fill="white"/>
<path d="M7.33027 222.3C5.49034 222.3 4 220.8 4 218.97C4 217.139 5.49954 215.639 7.33027 215.639C9.17019 215.639 10.6605 217.139 10.6605 218.97C10.6605 220.8 9.16099 222.3 7.33027 222.3ZM7.33027 217.47C6.5023 217.47 5.83993 218.142 5.83993 218.96C5.83993 219.779 6.5115 220.451 7.33027 220.451C8.14903 220.451 8.82061 219.779 8.82061 218.96C8.82061 218.142 8.14903 217.47 7.33027 217.47Z" fill="white"/>
<path d="M221.94 222.3C220.1 222.3 218.609 220.8 218.609 218.97C218.609 217.139 220.109 215.639 221.94 215.639C223.78 215.639 225.27 217.139 225.27 218.97C225.27 220.8 223.78 222.3 221.94 222.3ZM221.94 217.47C221.112 217.47 220.449 218.142 220.449 218.96C220.449 219.779 221.121 220.451 221.94 220.451C222.758 220.451 223.43 219.779 223.43 218.96C223.43 218.142 222.768 217.47 221.94 217.47Z" fill="white"/>
<path d="M185.143 148.666C183.303 148.666 181.812 147.167 181.812 145.336C181.812 143.496 183.312 142.006 185.143 142.006C186.983 142.006 188.473 143.505 188.473 145.336C188.473 147.167 186.983 148.666 185.143 148.666ZM185.143 143.836C184.315 143.836 183.652 144.508 183.652 145.327C183.652 146.145 184.324 146.817 185.143 146.817C185.962 146.817 186.633 146.145 186.633 145.327C186.633 144.508 185.971 143.836 185.143 143.836Z" fill="white"/>
<path d="M32.6698 133.744H4.09574C3.58976 133.744 3.17578 133.33 3.17578 132.824V102.824C3.17578 102.318 3.58976 101.904 4.09574 101.904H32.6698C33.1758 101.904 33.5898 102.318 33.5898 102.824V132.824C33.5898 133.339 33.1758 133.744 32.6698 133.744ZM5.01571 131.904H31.7498V103.744H5.01571V131.904ZM18.3828 109.117C17.8768 109.117 17.4628 108.703 17.4628 108.197V105.851C17.4628 105.345 17.8768 104.931 18.3828 104.931C18.8888 104.931 19.3027 105.345 19.3027 105.851V108.197C19.3027 108.703 18.8888 109.117 18.3828 109.117Z" fill="white"/>
<path d="M75.1776 133.634H46.6036C46.0976 133.634 45.6836 133.22 45.6836 132.714V102.714C45.6836 102.208 46.0976 101.794 46.6036 101.794H75.1776C75.6836 101.794 76.0976 102.208 76.0976 102.714V132.714C76.0976 133.22 75.6836 133.634 75.1776 133.634ZM47.5235 131.794H74.2577V103.634H47.5235V131.794ZM60.8906 109.006C60.3846 109.006 59.9706 108.592 59.9706 108.086V105.741C59.9706 105.235 60.3846 104.821 60.8906 104.821C61.3966 104.821 61.8106 105.235 61.8106 105.741V108.086C61.8106 108.592 61.3966 109.006 60.8906 109.006Z" fill="white"/>
<path d="M117.682 133.634H89.1075C88.6015 133.634 88.1875 133.22 88.1875 132.714V102.714C88.1875 102.208 88.6015 101.794 89.1075 101.794H117.682C118.187 101.794 118.601 102.208 118.601 102.714V132.714C118.601 133.22 118.197 133.634 117.682 133.634ZM90.0274 131.794H116.762V103.634H90.0274V131.794ZM103.394 109.006C102.889 109.006 102.475 108.592 102.475 108.086V105.741C102.475 105.235 102.889 104.821 103.394 104.821C103.9 104.821 104.314 105.235 104.314 105.741V108.086C104.314 108.592 103.91 109.006 103.394 109.006Z" fill="white"/>
<path d="M185.069 152.732H7.4057C3.32107 152.732 0 149.411 0 145.327C0 141.242 3.32107 137.93 7.4057 137.93H185.069C189.154 137.93 192.475 141.251 192.475 145.327C192.475 149.402 189.154 152.732 185.069 152.732ZM7.4057 139.77C4.34223 139.77 1.83993 142.263 1.83993 145.327C1.83993 148.39 4.33303 150.892 7.4057 150.892H185.069C188.132 150.892 190.635 148.399 190.635 145.327C190.635 142.263 188.142 139.77 185.069 139.77H7.4057Z" fill="white"/>
<path d="M7.33027 148.666C5.49034 148.666 4 147.167 4 145.336C4 143.496 5.49954 142.006 7.33027 142.006C9.17019 142.006 10.6605 143.505 10.6605 145.336C10.6605 147.167 9.16099 148.666 7.33027 148.666ZM7.33027 143.836C6.5023 143.836 5.83993 144.508 5.83993 145.327C5.83993 146.145 6.5115 146.817 7.33027 146.817C8.14903 146.817 8.82061 146.145 8.82061 145.327C8.82061 144.508 8.14903 143.836 7.33027 143.836Z" fill="white"/>
</g>
<defs>
<clipPath id="clip0_29:3631">
<rect width="275.271" height="300" fill="white"/>
</clipPath>
</defs>
</svg>
