<svg width="182" height="171" viewBox="0 0 182 171" fill="none" xmlns="http://www.w3.org/2000/svg">
<path d="M35.0503 45.0034V84.3238C35.0503 92.3214 40.2583 99.0995 47.4853 101.442C48.8533 101.886 50.2441 100.793 50.2441 99.3545V90.2787C50.2441 85.6053 54.0326 81.8168 58.7059 81.8168H80.4125C85.0858 81.8168 88.8743 85.6053 88.8743 90.2787V97.3963M88.8743 102.101C97.4968 100.752 104.068 93.3073 104.068 84.3238V32.57C100.801 35.8746 96.2623 37.9258 91.2673 37.9258H35.0503M24.9553 56.1789C23.4767 57.0752 22.4887 58.6996 22.4887 60.5548V74.1039C22.4887 77.7316 23.8836 81.0334 26.1665 83.5024M109.278 86.3256C113.654 83.9975 116.633 79.3899 116.631 74.0871L116.626 60.5381M61.9768 94.6486C65.9631 96.5863 73.1469 96.5876 77.136 94.6486M61.7271 126.875L65.9697 134.059M65.9697 134.059L58.0328 153.877M65.9697 134.059H69.5709M77.3857 126.875L73.143 134.059L81.0799 153.877L88.8743 124.353M57.9983 153.84L50.2988 124.291M1 166.883V149.512C1 143.439 5.2225 138.182 11.153 136.873L51.269 128.014M92.2654 128.984L96.5316 129.926M148.649 147.398L180.44 138.838M180.44 135.434V127.613C180.44 124.397 177.832 121.789 174.616 121.789H108.39C105.174 121.789 102.566 124.397 102.566 127.613V138.838L131.381 146.596M102.566 144.208V163.971C102.566 167.188 105.174 169.795 108.39 169.795H174.616C177.832 169.795 180.44 167.188 180.44 163.971V144.208M127.429 117.479V111.776C127.429 108.56 130.037 105.952 133.253 105.952H149.753C152.841 105.952 155.369 108.356 155.565 111.395C155.584 111.695 155.577 121.588 155.577 121.789M109.266 66.0285V101.168C109.266 111.107 101.209 119.165 91.2692 119.165H47.8435C37.947 119.165 29.8466 111.152 29.8466 101.168V62.8745C25.3102 58.4976 22.4887 52.3551 22.4887 45.5535V25.0663C22.4887 11.7748 33.2635 1 46.5549 1H92.5579C105.849 1 116.624 11.7748 116.624 25.0663V45.5535C116.624 56.1843 109.807 62.1815 109.266 63.0228V66.0285ZM148.649 150.538V146.652C148.649 145.302 147.554 144.208 146.205 144.208H136.801C135.452 144.208 134.358 145.302 134.358 146.652V150.538C134.358 151.888 135.452 152.982 136.801 152.982H146.205C147.554 152.982 148.649 151.888 148.649 150.538Z" stroke="#0C42D9" stroke-width="2" stroke-miterlimit="10" stroke-linecap="round" stroke-linejoin="round"/>
</svg>
