<svg width="78" height="70" viewBox="0 0 78 70" fill="none" xmlns="http://www.w3.org/2000/svg">
<path d="M19.1633 36.4399C18.3735 35.9838 17.3635 36.2544 16.9076 37.0444L16.8981 37.0608C15.7677 39.0184 17.6195 40.3417 16.2739 42.6725C15.1983 44.5356 12.8099 45.1766 10.938 44.0989C9.06847 43.0165 8.42944 40.6275 9.50518 38.7646C10.8525 36.4309 12.9152 37.389 14.053 35.4182L14.0625 35.4017C14.5184 34.6118 14.2478 33.602 13.4581 33.146L2.93572 28.2965L9.62365 18.8354C10.0796 18.0457 9.80895 17.0359 9.01921 16.5798L9.00255 16.5702C7.04498 15.4401 5.72166 17.2919 3.39092 15.9462C1.52801 14.8705 0.886959 12.4822 1.96471 10.6102C3.04687 8.74082 5.43585 8.10179 7.29894 9.17735C9.63243 10.5248 8.67443 12.5873 10.6452 13.7251L10.6619 13.7347C11.4516 14.1908 12.4614 13.9201 12.9175 13.1304L17.7671 2.60808L27.228 9.29582C28.0177 9.75194 29.0277 9.4813 29.4836 8.69139L29.4932 8.67491C30.6235 6.71733 28.7717 5.39402 30.1174 3.06328C31.1929 1.20017 33.5814 0.559135 35.4532 1.63689C37.3226 2.71922 37.9616 5.1082 36.886 6.97111C35.5388 9.3048 33.4761 8.34677 32.3382 10.3175L32.3287 10.334C31.8728 11.1238 32.1432 12.1338 32.9332 12.5897L43.4553 17.4393L36.7676 26.9001C36.3116 27.69 35.3016 27.9607 34.5119 27.5046L34.4954 27.495C32.5247 26.3572 33.4827 24.2945 31.149 22.9472C29.2861 21.8717 26.8971 22.5107 25.8147 24.38C24.737 26.2521 25.378 28.6404 27.2411 29.7161C29.5719 31.0617 30.8952 29.21 32.8528 30.3401L32.8693 30.3497C33.6592 30.8058 33.9296 31.8156 33.4737 32.6053L28.6241 43.1277L19.1633 36.4399ZM56.2507 68.8864L63.6584 59.9778C64.3033 59.3329 64.3033 58.2873 63.6584 57.6424L63.6449 57.6289C62.0464 56.0306 60.2889 57.4767 58.3859 55.5737C56.8649 54.0525 56.8638 51.5796 58.3894 50.0505C59.9187 48.5249 62.3914 48.526 63.9126 50.047C65.818 51.9524 64.3586 53.6969 65.9678 55.306L65.9813 55.3196C66.6262 55.9643 67.6717 55.9643 68.3166 55.3196L77.2251 47.9118L68.3166 40.5041C67.6717 39.8594 67.6717 38.8139 68.3166 38.169L68.3302 38.1554C69.9393 36.5463 71.6836 38.0055 73.589 36.1001C75.1102 34.579 75.1113 32.1062 73.5857 30.5769C72.0564 29.0512 69.5837 29.0523 68.0625 30.5736C66.1593 32.4766 67.6055 34.2341 66.0073 35.8324L65.9938 35.8459C65.3489 36.4908 64.3033 36.4908 63.6584 35.8459L56.2507 26.9373L48.8432 35.8459C48.1983 36.4908 47.1528 36.4908 46.5079 35.8459L46.4943 35.8324C44.8852 34.2233 46.3445 32.479 44.4391 30.5736C42.9179 29.0523 40.4451 29.0512 38.9158 30.5769C37.3903 32.1062 37.3912 34.579 38.9125 36.1001C40.8155 38.0033 42.5729 36.5571 44.1713 38.1554L44.1848 38.169C44.8297 38.8139 44.8297 39.8594 44.1848 40.5041L35.2764 47.9118L44.1848 55.3196C44.8297 55.9643 44.8297 57.0098 44.1848 57.6547L44.1713 57.6683C42.5621 59.2774 40.8179 57.8182 38.9125 59.7236C37.3912 61.2447 37.3903 63.7177 38.9158 65.2468C40.4451 66.7724 42.9179 66.7713 44.4391 65.2501C46.3422 63.3471 44.896 61.5896 46.4943 59.9913L46.5079 59.9778C47.1528 59.3329 48.1983 59.3329 48.8432 59.9778L56.2507 68.8864Z" stroke="#0033A1" stroke-width="1.5" stroke-miterlimit="10" stroke-linecap="round" stroke-linejoin="round"/>
</svg>
