<svg width="84" height="49" viewBox="0 0 84 49" fill="none" xmlns="http://www.w3.org/2000/svg">
<path d="M59.3912 21.3356C57.3668 22.814 54.3793 22.8147 52.3534 21.3356M23.0001 24.6355C21.5814 25.5638 19.4878 25.5642 18.0684 24.6355M82.5211 13.05C79.6211 13.05 77.27 15.4011 77.27 18.3011C77.27 21.2015 79.6211 23.5526 82.5211 23.5526M81.6532 47.4402C77.0789 37.7979 67.2541 31.1302 55.8723 31.1302C44.4905 31.1302 34.6661 37.7979 30.0918 47.4402M82.5189 27.0858C78.3309 26.7991 74.4334 28.5997 71.9237 31.7166M33.5419 36.4286C29.9098 33.727 25.4087 32.1282 20.5341 32.1282C11.8274 32.1282 4.31166 37.2288 0.8125 44.6053M68.6205 14.308C68.6205 21.3488 62.9131 27.0562 55.8723 27.0562C48.8319 27.0562 43.1241 21.3488 43.1241 14.308C43.1241 7.26758 48.8319 1.55981 55.8723 1.55981C62.9131 1.55981 68.6205 7.26758 68.6205 14.308ZM20.5341 9.50732C15.1482 9.50732 10.7822 13.8737 10.7822 19.2595C10.7822 24.6454 15.1482 29.0117 20.5341 29.0117C25.9203 29.0117 30.2863 24.6454 30.2863 19.2595C30.2863 13.8737 25.9203 9.50732 20.5341 9.50732Z" stroke="#0033A1" stroke-width="1.5" stroke-miterlimit="10" stroke-linecap="round" stroke-linejoin="round"/>
</svg>
