<svg xmlns="http://www.w3.org/2000/svg" fill="none" viewBox="6.86 18.12 82.29 56.95">
<path d="M16.314 43.8999C11.5042 43.8999 7.60547 40.2158 7.60547 35.6711M16.314 43.8999C16.314 33.5024 24.7112 24.5834 36.6724 20.7858M16.314 43.8999C16.314 48.7778 18.1619 53.3302 21.3593 57.1813C26.5869 63.4779 29.4686 70.1071 31.7977 74.3152H41.0925V68.1478C43.7999 68.6843 46.6421 68.97 49.5725 68.97C52.5033 68.97 55.3455 68.6843 58.0529 68.1478V74.3152H67.3477C70.7043 68.8052 71.5477 63.6182 77.5228 60.5702C81.2183 58.6849 83.8781 57.3673 88.3916 54.8507V46.6714C80.3529 41.9238 84.4212 37.5143 76.9252 29.6342M54.7441 19.1525C53.0647 18.9661 51.3384 18.8701 49.5725 18.8701C47.1255 18.8701 44.74 19.0693 42.4431 19.4476M73.9896 32.5697L82.7142 23.8451C77.4774 20.3478 71.5184 21.2124 68.7649 23.3057C66.4475 22.0704 63.9064 21.0685 61.1843 20.328M75.041 42.3864C75.041 41.0479 74.8348 39.6903 74.1896 38.6968" stroke="#0033A1" stroke-width="1.5" stroke-miterlimit="10" stroke-linecap="round" stroke-linejoin="round"/>
</svg>