<svg width="75" height="70" viewBox="0 0 75 70" fill="none" xmlns="http://www.w3.org/2000/svg">
<path d="M49.4618 13.7983L25.5123 37.7478M12.2731 1V46.1512H1L37.4442 68.3043L73.8881 46.1512H62.615V1M33.1138 17.5558C33.1138 19.6788 31.3929 21.3996 29.27 21.3996C27.1471 21.3996 25.4263 19.6788 25.4263 17.5558C25.4263 15.4331 27.1471 13.7121 29.27 13.7121C31.3929 13.7121 33.1138 15.4331 33.1138 17.5558ZM45.5126 29.9548C43.39 29.9548 41.6688 31.6758 41.6688 33.7986C41.6688 35.9215 43.39 37.6423 45.5126 37.6423C47.6355 37.6423 49.3563 35.9215 49.3563 33.7986C49.3563 31.6758 47.6355 29.9548 45.5126 29.9548Z" stroke="#0033A1" stroke-width="1.5" stroke-miterlimit="10" stroke-linecap="round" stroke-linejoin="round"/>
</svg>
