<svg width="305" height="149" viewBox="0 0 305 149" fill="none" xmlns="http://www.w3.org/2000/svg">
<path d="M292.98 42.06H319.74V132.14H184.12V42.06H205.16M337.8 147.5H166.04M139.76 147.5H-32M117.24 56.36L115.88 62.18C115.72 62.9 115.22 63.48 114.54 63.76L110.72 65.34C110.04 65.62 109.26 65.56 108.64 65.16L102.98 61.64C102.08 61.08 100.92 61.22 100.16 61.96L97.22 64.9C96.48 65.64 96.34 66.82 96.9 67.72L100.42 73.38C100.8 74 100.88 74.78 100.6 75.46L99.02 79.28C98.74 79.96 98.14 80.46 97.44 80.62L90.94 82.14C89.9 82.38 89.18 83.3 89.18 84.36V88.5C89.18 89.56 89.9 90.48 90.94 90.72L97.44 92.24C98.16 92.4 98.74 92.9 99.02 93.58L100.6 97.4C100.88 98.08 100.82 98.86 100.42 99.48L96.9 105.14C96.34 106.04 96.48 107.2 97.22 107.96L100.16 110.9C100.9 111.64 102.08 111.78 102.98 111.22L108.64 107.7C109.26 107.32 110.04 107.24 110.72 107.52L114.54 109.1C115.22 109.38 115.72 109.98 115.88 110.68L117.4 117.18C117.64 118.22 118.56 118.94 119.62 118.94H121.7M121.7 100.66C113.84 100.66 107.46 94.28 107.46 86.42C107.46 80.6 110.96 75.58 115.98 73.38M184.1 110.82C184.82 111.04 185.4 111.58 185.66 112.28L188.08 118.84C188.46 119.88 189.52 120.52 190.62 120.38L194.94 119.84C196.04 119.7 196.9 118.82 197.02 117.72L197.76 110.76C197.84 110 198.28 109.32 198.96 108.94L202.74 106.8C203.4 106.42 204.22 106.38 204.92 106.72L211.26 109.66C212.26 110.12 213.46 109.84 214.14 108.96L216.82 105.54C217.5 104.66 217.5 103.44 216.8 102.58L212.4 97.14C211.92 96.54 211.76 95.74 211.96 95L213.12 90.82C213.32 90.08 213.88 89.48 214.6 89.22L221.16 86.8C222.2 86.42 222.84 85.36 222.7 84.26L222.16 79.94C222.02 78.84 221.14 77.98 220.04 77.86L213.08 77.12C212.32 77.04 211.64 76.6 211.26 75.92L209.12 72.14C208.74 71.48 208.7 70.66 209.04 69.96L211.98 63.62C212.44 62.62 212.16 61.42 211.28 60.74L207.86 58.06C206.98 57.38 205.76 57.38 204.9 58.08L199.46 62.48C198.86 62.96 198.06 63.12 197.32 62.92L193.14 61.76C192.4 61.56 191.8 61 191.54 60.28L189.12 53.72M187.54 73.98C194.32 73.14 200.5 77.96 201.34 84.74C202.18 91.52 197.36 97.7 190.58 98.54C188.3 98.82 186.08 98.46 184.1 97.6M134.16 87.1H170.64M171.46 92.76L177.12 87.1L171.46 81.44M133.36 81.46L127.7 87.12L133.36 92.78M70.52 42.06H-13.94V132.14H121.68V42.06H78.48H70.52ZM254.54 1H249.3C247.96 1 246.8 1.91997 246.5 3.21997L244.58 11.42C244.36 12.32 243.74 13.06 242.88 13.42L238.06 15.42C237.2 15.78 236.22 15.7 235.44 15.2L228.28 10.74C227.14 10.04 225.68 10.2 224.72 11.14L221.02 14.84C220.08 15.78 219.9 17.26 220.62 18.4L225.08 25.56C225.56 26.34 225.64 27.32 225.3 28.18L223.3 33C222.94 33.86 222.2 34.48 221.3 34.7L213.1 36.62C211.8 36.92 210.88 38.08 210.88 39.42V44.66C210.88 46 211.8 47.16 213.1 47.46L221.3 49.38C222.2 49.6 222.94 50.22 223.3 51.08L225.3 55.9C225.66 56.76 225.58 57.74 225.08 58.52L220.62 65.68C219.92 66.82 220.08 68.28 221.02 69.24L224.72 72.94C225.66 73.88 227.14 74.06 228.28 73.34L235.44 68.88C236.22 68.4 237.2 68.32 238.06 68.66L242.88 70.66C243.74 71.02 244.36 71.76 244.58 72.66L246.5 80.86C246.8 82.16 247.96 83.08 249.3 83.08H254.54C255.88 83.08 257.04 82.16 257.34 80.86L259.26 72.66C259.48 71.76 260.1 71.02 260.96 70.66L265.78 68.66C266.64 68.3 267.62 68.38 268.4 68.88L275.56 73.34C276.7 74.04 278.16 73.88 279.12 72.94L282.82 69.24C283.76 68.3 283.94 66.82 283.22 65.68L278.76 58.52C278.28 57.74 278.2 56.76 278.54 55.9L280.54 51.08C280.9 50.22 281.64 49.6 282.54 49.38L290.74 47.46C292.04 47.16 292.96 46 292.96 44.66V39.42C292.96 38.08 292.04 36.92 290.74 36.62L282.54 34.7C281.64 34.48 280.9 33.86 280.54 33L278.54 28.18C278.18 27.32 278.26 26.34 278.76 25.56L283.22 18.4C283.92 17.26 283.76 15.8 282.82 14.84L279.12 11.14C278.18 10.2 276.7 10.02 275.56 10.74L268.4 15.2C267.62 15.68 266.64 15.76 265.78 15.42L260.96 13.42C260.1 13.06 259.48 12.32 259.26 11.42L257.34 3.21997C257.04 1.91997 255.88 1 254.54 1ZM251.92 24.08C242 24.08 233.94 32.12 233.94 42.06C233.94 51.98 241.98 60.04 251.92 60.04C261.84 60.04 269.9 52 269.9 42.06C269.9 32.14 261.84 24.08 251.92 24.08Z" stroke="#0C42D9" stroke-width="2" stroke-miterlimit="10" stroke-linecap="round" stroke-linejoin="round"/>
</svg>
