<svg width="56" height="75" viewBox="0 0 56 75" fill="none" xmlns="http://www.w3.org/2000/svg">
<path d="M16.2585 48.4904C17.4423 41.4654 19.9006 34.4852 23.6953 27.9125C30.8707 15.4844 41.6646 6.50506 53.8638 1.65625C55.7642 14.6454 53.3846 28.4828 46.2092 40.9109C43.3865 45.8 39.9988 50.1616 36.188 53.9429M21.2298 32.6322C13.0567 34.9532 5.71361 40.2206 0.947754 47.97C8.89105 46.4664 17.3758 47.7012 24.9183 52.0558C32.4609 56.4105 37.7726 63.1411 40.442 70.772C44.2147 63.7973 45.3752 56.0697 44.2361 48.7451M41.5909 22.3876C38.9687 21.1077 35.7653 22.0591 34.2841 24.6248C32.7365 27.3053 33.655 30.733 36.3354 32.2806C38.8689 33.7433 42.0696 33.0034 43.7199 30.6548M44.7398 27.2379C44.7072 26.2988 44.439 25.3783 43.9592 24.5679M26.3567 61.2521C23.0649 66.954 18.1126 71.0737 12.5158 73.2983C11.6439 67.3389 12.7355 60.9905 16.0276 55.2886" stroke="#0033A1" stroke-width="1.5" stroke-miterlimit="10" stroke-linecap="round" stroke-linejoin="round"/>
</svg>
