<svg width="80" height="69" viewBox="0 0 80 69" fill="none" xmlns="http://www.w3.org/2000/svg">
<path d="M58.0287 41.5293L71.9662 60.4483M40.0002 41.5293V59.6326M40.0002 59.6326C37.6876 59.6326 35.8129 61.5073 35.8129 63.8198C35.8129 66.1324 37.6876 68.0071 40.0002 68.0071C42.3127 68.0071 44.1874 66.1324 44.1874 63.8198C44.1874 61.5073 42.3127 59.6326 40.0002 59.6326ZM21.9716 41.5293L8.03418 60.4483M41.5331 0.858643C34.7549 0.858643 29.0115 5.37256 27.1508 11.5524C26.0657 11.2662 24.9411 11.1199 23.7972 11.1199C16.5241 11.1199 10.6068 17.0371 10.6068 24.3102C10.6068 31.5836 16.524 37.5008 23.7972 37.5008H58.0287C64.2952 37.5008 69.3936 32.4026 69.3936 26.1362C69.3936 19.8696 64.2952 14.7712 58.0287 14.7712C57.5204 14.7712 57.0153 14.8054 56.5161 14.873C55.9989 7.05805 49.4763 0.858643 41.5331 0.858643ZM78.6371 63.8198C78.6371 66.1324 76.7624 68.0071 74.4498 68.0071C72.1373 68.0071 70.2626 66.1324 70.2626 63.8198C70.2626 61.5073 72.1373 59.6326 74.4498 59.6326C76.7624 59.6326 78.6371 61.5073 78.6371 63.8198ZM9.73779 63.8198C9.73779 66.1324 7.86307 68.0071 5.55054 68.0071C3.238 68.0071 1.36328 66.1324 1.36328 63.8198C1.36328 61.5073 3.238 59.6326 5.55054 59.6326C7.86307 59.6326 9.73779 61.5073 9.73779 63.8198Z" stroke="#0033A1" stroke-width="1.5" stroke-miterlimit="10" stroke-linecap="round" stroke-linejoin="round"/>
</svg>
