<svg width="265" height="199" viewBox="0 0 265 199" fill="none" xmlns="http://www.w3.org/2000/svg">
<path d="M171.074 11.9378L158.414 2.19811C155.895 0.258182 152.275 0.718163 150.335 3.25807L105.976 60.856C104.036 63.3759 104.496 66.9958 107.036 68.9357L110.596 71.6756M160.054 109.754C149.235 110.154 138.895 110.074 127.076 110.074L134.535 100.395M215.872 69.3957L160.534 85.5152M129.815 86.4751L204.373 143.873C206.753 145.693 209.813 146.453 212.812 145.893L254.371 138.153C259.691 137.153 263.431 132.314 263.031 126.914L259.871 84.7552C259.631 81.7153 258.131 78.9554 255.751 77.1154L181.194 19.7175L129.815 86.4751ZM237.172 116.954C239.392 114.074 243.511 113.534 246.411 115.754C249.271 117.954 249.831 122.094 247.611 124.994C245.411 127.854 241.251 128.414 238.372 126.194C235.492 123.954 234.952 119.814 237.172 116.954ZM91.1968 110.094C91.1968 110.094 67.6177 102.575 56.838 111.934C51.1382 118.694 42.2586 123.054 32.2789 123.054C15.0195 123.054 1.02002 110.014 1.00002 93.9349C0.980022 77.8554 14.9795 64.7959 32.2389 64.7759C49.4983 64.7759 63.4978 77.8154 63.5178 93.8949L103.676 93.8749L122.636 69.2557C134.535 53.7963 166.354 14.2777 185.753 13.8177C180.434 20.7375 92.6768 134.713 87.177 141.873C99.9165 151.693 101.736 170.732 91.1968 184.412C80.6572 198.091 61.7979 201.211 49.0383 191.411C36.2788 181.612 34.4788 162.552 45.0185 148.873C51.0982 140.973 59.9579 136.593 68.7976 136.193C78.6373 134.193 85.717 122.094 89.0569 115.094L91.1968 110.094ZM55.3981 156.893C49.6183 164.412 50.5983 174.892 57.598 180.272C64.6178 185.672 74.9774 183.932 80.7772 176.412C86.557 168.892 85.577 158.413 78.5773 153.033C71.5575 147.653 61.1979 149.393 55.3981 156.893ZM15.0795 93.9349C15.0795 102.775 22.7992 109.934 32.2789 109.934C41.7586 109.934 49.4583 102.755 49.4583 93.9149C49.4583 85.0752 41.7386 77.9154 32.2589 77.9154C22.7792 77.9154 15.0795 85.0752 15.0795 93.9349ZM193.033 65.0959C189.113 69.3957 183.214 70.3957 179.874 67.3358C176.534 64.2759 177.014 58.3161 180.954 54.0363C184.873 49.7364 190.773 48.7365 194.113 51.7963C197.453 54.8362 196.973 60.796 193.033 65.0959ZM194.453 88.4751C191.113 85.4152 185.233 86.4351 181.294 90.715C177.374 95.0148 176.894 100.975 180.214 104.015C183.534 107.054 189.433 106.054 193.373 101.775C197.313 97.4947 197.793 91.5349 194.453 88.4751Z" stroke="#0C42D9" stroke-width="2" stroke-miterlimit="10" stroke-linecap="round" stroke-linejoin="round"/>
</svg>
