<svg width="72" height="71" viewBox="0 0 72 71" fill="none" xmlns="http://www.w3.org/2000/svg">
<path d="M57.8899 46.8213C57.8899 46.7407 57.8899 21.9081 57.8899 23.2662C57.8899 11.3313 48.2148 1.65625 36.28 1.65625C26.7618 1.65625 18.6808 7.80992 15.7985 16.3558M18.7649 52.6598C11.3651 56.4191 5.34547 62.5036 1.66797 69.9515M70.6269 69.9515C68.4789 65.6013 65.4193 61.6394 62.3271 58.7629M58.3534 55.5749C50.8397 50.2498 41.4046 47.6055 31.5308 48.7877M26.8773 54.7005C26.5278 55.7037 25.4029 56.2094 24.4267 55.7905C9.02228 49.1812 1.09534 32.4637 5.54008 16.6968C5.83768 15.6411 6.96608 15.0588 7.99373 15.4168L13.9366 17.4874C14.8813 17.8165 15.3985 18.8165 15.1436 19.7839C14.5701 21.9606 14.3195 24.2283 14.4173 26.5094C14.4493 27.2555 14.0165 27.944 13.3442 28.2689L8.98324 30.3763C8.62899 30.5474 8.42823 30.9378 8.50667 31.3234C9.45325 35.9761 11.581 40.5 14.7733 44.2931C15.0272 44.5948 15.4591 44.6811 15.8141 44.5095L20.174 42.4027C20.8464 42.0778 21.6546 42.1665 22.2193 42.655C23.946 44.1491 25.8783 45.3609 27.9409 46.2649C28.8569 46.6663 29.3188 47.6929 28.9898 48.6374L26.8773 54.7005ZM51.393 28.5519C48.5459 25.7451 46.2136 22.4155 44.5729 18.7079C38.726 24.9569 30.4019 28.8575 21.1772 28.8656C21.6678 36.7794 28.2465 43.0445 36.281 43.0445C43.8255 43.0445 50.0734 37.527 51.2182 30.3113L51.393 28.5519Z" stroke="#0033A1" stroke-width="1.5" stroke-miterlimit="10" stroke-linecap="round" stroke-linejoin="round"/>
</svg>
