<svg width="280" height="138" viewBox="0 0 280 138" fill="none" xmlns="http://www.w3.org/2000/svg">
<g clip-path="url(#clip0_573:975)">
<path d="M20.0309 0.921387H0.921387V136.199H20.0309V0.921387Z" stroke="#0C42D9" stroke-width="2" stroke-miterlimit="10" stroke-linecap="round" stroke-linejoin="round"/>
<path d="M54.2787 43.6829H35.1692V136.199H54.2787V43.6829Z" stroke="#0C42D9" stroke-width="2" stroke-miterlimit="10" stroke-linecap="round" stroke-linejoin="round"/>
<path d="M88.5361 68.5603H69.4265V136.199H88.5361V68.5603Z" stroke="#0C42D9" stroke-width="2" stroke-miterlimit="10" stroke-linecap="round" stroke-linejoin="round"/>
<path d="M122.784 51.9109H103.674V136.208H122.784V51.9109Z" stroke="#0C42D9" stroke-width="2" stroke-miterlimit="10" stroke-linecap="round" stroke-linejoin="round"/>
<path d="M157.041 71.2324H137.931V136.199H157.041V71.2324Z" stroke="#0C42D9" stroke-width="2" stroke-miterlimit="10" stroke-linecap="round" stroke-linejoin="round"/>
<path d="M191.289 99.1964H172.179V136.199H191.289V99.1964Z" stroke="#0C42D9" stroke-width="2" stroke-miterlimit="10" stroke-linecap="round" stroke-linejoin="round"/>
<path d="M279.079 39.7855H206.427V136.208H279.079V39.7855Z" stroke="#0C42D9" stroke-width="2" stroke-miterlimit="10" stroke-linecap="round" stroke-linejoin="round"/>
<path d="M212.923 61.8987H271.873" stroke="#0C42D9" stroke-width="2" stroke-miterlimit="10" stroke-linecap="round" stroke-linejoin="round"/>
<path d="M221.215 87.8081C224.101 87.8081 226.44 85.4691 226.44 82.5838C226.44 79.6985 224.101 77.3596 221.215 77.3596C218.33 77.3596 215.991 79.6985 215.991 82.5838C215.991 85.4691 218.33 87.8081 221.215 87.8081Z" stroke="#0C42D9" stroke-width="2" stroke-miterlimit="10" stroke-linecap="round" stroke-linejoin="round"/>
<path d="M242.85 87.8081C245.735 87.8081 248.074 85.4691 248.074 82.5838C248.074 79.6985 245.735 77.3596 242.85 77.3596C239.964 77.3596 237.625 79.6985 237.625 82.5838C237.625 85.4691 239.964 87.8081 242.85 87.8081Z" stroke="#0C42D9" stroke-width="2" stroke-miterlimit="10" stroke-linecap="round" stroke-linejoin="round"/>
<path d="M264.475 87.8081C267.36 87.8081 269.699 85.4691 269.699 82.5838C269.699 79.6985 267.36 77.3596 264.475 77.3596C261.589 77.3596 259.25 79.6985 259.25 82.5838C259.25 85.4691 261.589 87.8081 264.475 87.8081Z" stroke="#0C42D9" stroke-width="2" stroke-miterlimit="10" stroke-linecap="round" stroke-linejoin="round"/>
<path d="M221.215 107.461C224.101 107.461 226.44 105.122 226.44 102.237C226.44 99.3517 224.101 97.0127 221.215 97.0127C218.33 97.0127 215.991 99.3517 215.991 102.237C215.991 105.122 218.33 107.461 221.215 107.461Z" stroke="#0C42D9" stroke-width="2" stroke-miterlimit="10" stroke-linecap="round" stroke-linejoin="round"/>
<path d="M242.85 107.461C245.735 107.461 248.074 105.122 248.074 102.237C248.074 99.3517 245.735 97.0127 242.85 97.0127C239.964 97.0127 237.625 99.3517 237.625 102.237C237.625 105.122 239.964 107.461 242.85 107.461Z" stroke="#0C42D9" stroke-width="2" stroke-miterlimit="10" stroke-linecap="round" stroke-linejoin="round"/>
<path d="M264.475 107.461C267.36 107.461 269.699 105.122 269.699 102.237C269.699 99.3517 267.36 97.0127 264.475 97.0127C261.589 97.0127 259.25 99.3517 259.25 102.237C259.25 105.122 261.589 107.461 264.475 107.461Z" stroke="#0C42D9" stroke-width="2" stroke-miterlimit="10" stroke-linecap="round" stroke-linejoin="round"/>
<path d="M221.215 127.105C224.101 127.105 226.44 124.766 226.44 121.881C226.44 118.996 224.101 116.657 221.215 116.657C218.33 116.657 215.991 118.996 215.991 121.881C215.991 124.766 218.33 127.105 221.215 127.105Z" stroke="#0C42D9" stroke-width="2" stroke-miterlimit="10" stroke-linecap="round" stroke-linejoin="round"/>
<path d="M242.85 127.105C245.735 127.105 248.074 124.766 248.074 121.881C248.074 118.996 245.735 116.657 242.85 116.657C239.964 116.657 237.625 118.996 237.625 121.881C237.625 124.766 239.964 127.105 242.85 127.105Z" stroke="#0C42D9" stroke-width="2" stroke-miterlimit="10" stroke-linecap="round" stroke-linejoin="round"/>
<path d="M264.475 127.105C267.36 127.105 269.699 124.766 269.699 121.881C269.699 118.996 267.36 116.657 264.475 116.657C261.589 116.657 259.25 118.996 259.25 121.881C259.25 124.766 261.589 127.105 264.475 127.105Z" stroke="#0C42D9" stroke-width="2" stroke-miterlimit="10" stroke-linecap="round" stroke-linejoin="round"/>
<path d="M269.257 46.6037L267.101 57.4484" stroke="#0C42D9" stroke-width="2" stroke-miterlimit="10" stroke-linecap="round" stroke-linejoin="round"/>
</g>
<defs>
<clipPath id="clip0_573:975">
<rect width="280" height="137.121" fill="white"/>
</clipPath>
</defs>
</svg>
