<svg width="83" height="55" viewBox="0 0 83 55" fill="none" xmlns="http://www.w3.org/2000/svg">
<path d="M81.9872 47.5233C77.4128 37.881 67.5883 31.2134 56.2065 31.2134C44.8246 31.2134 35.0001 37.881 30.4258 47.5233M33.8759 36.5117C30.2438 33.8102 25.7427 32.2113 20.8682 32.2113C12.1614 32.2113 4.64564 37.3119 1.14648 44.6881M48.7799 54.2348L54.152 40.6305L51.2804 35.6991M63.6918 54.2348L58.3197 40.6305M58.3197 40.6305L61.1915 35.6991M58.3197 40.6305H56.7232M15.7717 48.3176L19.3358 39.292L17.4306 36.0202M26.1149 48.3176L22.5508 39.292M22.5508 39.292L24.456 36.0202M22.5508 39.292H21.3533M68.9547 14.3911C68.9547 21.4319 63.2471 27.1393 56.2065 27.1393C49.1659 27.1393 43.4583 21.4319 43.4583 14.3911C43.4583 7.3507 49.1659 1.64293 56.2065 1.64293C63.2471 1.64293 68.9547 7.3507 68.9547 14.3911ZM20.8682 9.59044C15.4824 9.59044 11.116 13.9568 11.116 19.3426C11.116 24.7285 15.4824 29.0948 20.8682 29.0948C26.2543 29.0948 30.6204 24.7285 30.6204 19.3426C30.6204 13.9568 26.2543 9.59044 20.8682 9.59044Z" stroke="#0033A1" stroke-width="1.5" stroke-miterlimit="10" stroke-linecap="round" stroke-linejoin="round"/>
</svg>
