<svg xmlns="http://www.w3.org/2000/svg" fill="none" viewBox="8.29 5.69 79.43 84.62">
<path d="M50.5998 40.9224C50.5998 46.5682 46.0229 51.1451 40.377 51.1451C34.7311 51.1451 30.1542 46.5682 30.1542 40.9224C30.1542 35.2765 34.7311 30.6996 40.377 30.6996C46.0229 30.6996 50.5998 35.2765 50.5998 40.9224ZM47.7629 6.43848C45.3317 6.43848 43.3607 8.40942 43.3607 10.8407C43.3607 13.272 45.3317 15.2429 47.7629 15.2429C50.1942 15.2429 52.1652 13.272 52.1652 10.8407C52.1652 8.40942 50.1942 6.43848 47.7629 6.43848ZM25.7952 24.0532C24.8942 24.8695 24.8253 26.2615 25.6414 27.1624C26.4574 28.0632 27.8493 28.1321 28.7504 27.3162C29.6514 26.5003 29.7203 25.1083 28.9042 24.207C28.0881 23.3062 26.6963 23.2373 25.7952 24.0532ZM11.5028 27.3733C10.2871 29.479 11.0085 32.1714 13.1141 33.3868C15.2196 34.6027 17.912 33.8812 19.1276 31.7755C20.3433 29.6702 19.6218 26.9778 17.5163 25.762C15.4108 24.5465 12.7184 25.268 11.5028 27.3733ZM9.33808 63.3191C10.2227 65.5837 12.7757 66.7021 15.0404 65.8177C17.3048 64.933 18.4236 62.3798 17.5388 60.1155C16.6542 57.8508 14.1012 56.732 11.8366 57.6168C9.57208 58.5016 8.45349 61.0544 9.33808 63.3191ZM29.5236 79.8993C30.8455 80.6625 32.5357 80.2098 33.2989 78.8878C34.0619 77.5662 33.6091 75.8757 32.2872 75.1129C30.9654 74.3497 29.2753 74.8024 28.5122 76.1244C27.749 77.446 28.202 79.1361 29.5236 79.8993ZM47.7629 89.5607C50.1942 89.5607 52.1652 87.5897 52.1652 85.1584C52.1652 82.7272 50.1942 80.7562 47.7629 80.7562C45.3317 80.7562 43.3607 82.7272 43.3607 85.1584C43.3607 87.5897 45.3317 89.5607 47.7629 89.5607ZM71.2492 75.7047C72.5155 74.6189 72.6622 72.7124 71.5764 71.4457C70.4907 70.1793 68.5839 70.0328 67.3175 71.1187C66.051 72.2041 65.9045 74.111 66.9901 75.3773C68.0759 76.6437 69.9826 76.7905 71.2492 75.7047ZM69.0751 60.6128C69.5036 59.8708 69.2495 58.922 68.5073 58.4935C67.7652 58.0651 66.8165 58.3192 66.3881 59.0615C65.9596 59.8035 66.2139 60.7523 66.9559 61.1808C67.698 61.6093 68.6469 61.3547 69.0751 60.6128ZM86.9343 42.1792C86.6956 40.6528 85.2646 39.6091 83.7382 39.8479C82.2117 40.0867 81.168 41.5178 81.4067 43.0442C81.6457 44.5706 83.0767 45.6143 84.603 45.3755C86.1294 45.1367 87.1731 43.7056 86.9343 42.1792ZM64.3886 25.3599C63.3251 24.5894 61.8381 24.827 61.0676 25.8905C60.2971 26.9543 60.5345 28.4412 61.5982 29.2117C62.6617 29.9822 64.1487 29.7445 64.9192 28.681C65.6897 27.6176 65.4522 26.1307 64.3886 25.3599Z" stroke="#0033A1" stroke-width="1.5" stroke-miterlimit="10" stroke-linecap="round" stroke-linejoin="round"/>
<path d="M28.707 27.3535L29.1961 27.9219" stroke="#0033A1" stroke-width="1.5" stroke-linecap="round" stroke-linejoin="round"/>
<path d="M30.9219 29.9277L32.3598 31.5988" stroke="#0033A1" stroke-width="1.5" stroke-linecap="round" stroke-linejoin="round" stroke-dasharray="0.59 1.76"/>
<path d="M33.2227 32.6016L33.7117 33.1703" stroke="#0033A1" stroke-width="1.5" stroke-linecap="round" stroke-linejoin="round"/>
<path d="M46.7137 15.1162L46.5352 15.8446" stroke="#0033A1" stroke-width="1.5" stroke-linecap="round" stroke-linejoin="round"/>
<path d="M45.5692 19.7773L43.4805 28.298" stroke="#0033A1" stroke-width="1.5" stroke-linecap="round" stroke-linejoin="round" stroke-dasharray="0.9 2.7"/>
<path d="M42.9988 30.2637L42.8203 30.9921" stroke="#0033A1" stroke-width="1.5" stroke-linecap="round" stroke-linejoin="round"/>
<path d="M60.9586 28.5156L60.3164 28.9031" stroke="#0033A1" stroke-width="1.5" stroke-linecap="round" stroke-linejoin="round"/>
<path d="M55.7983 31.6279L52.0352 33.8984" stroke="#0033A1" stroke-width="1.5" stroke-linecap="round" stroke-linejoin="round" stroke-dasharray="1.17 3.52"/>
<path d="M49.7789 35.2607L49.1367 35.6486" stroke="#0033A1" stroke-width="1.5" stroke-linecap="round" stroke-linejoin="round"/>
<path d="M81.3745 42.5006L80.625 42.4717" stroke="#0033A1" stroke-width="1.5" stroke-linecap="round" stroke-linejoin="round"/>
<path d="M76.0004 42.2944L53.6523 41.4375" stroke="#0033A1" stroke-width="1.5" stroke-linecap="round" stroke-linejoin="round" stroke-dasharray="1.03 3.08"/>
<path d="M51.3393 41.3492L50.5898 41.3203" stroke="#0033A1" stroke-width="1.5" stroke-linecap="round" stroke-linejoin="round"/>
<path d="M66.4565 58.9534L65.8398 58.5264" stroke="#0033A1" stroke-width="1.5" stroke-linecap="round" stroke-linejoin="round"/>
<path d="M62.5538 56.2527L51.0508 48.2949" stroke="#0033A1" stroke-width="1.5" stroke-linecap="round" stroke-linejoin="round" stroke-dasharray="0.89 2.66"/>
<path d="M49.4058 47.1581L48.7891 46.7314" stroke="#0033A1" stroke-width="1.5" stroke-linecap="round" stroke-linejoin="round"/>
<path d="M47.168 48.5615L47.6666 49.1218" stroke="#0033A1" stroke-width="1.5" stroke-linecap="round" stroke-linejoin="round"/>
<path d="M50.6836 52.5117L65.2657 68.8997" stroke="#0033A1" stroke-width="1.5" stroke-linecap="round" stroke-linejoin="round" stroke-dasharray="1.01 3.03"/>
<path d="M66.7734 70.5957L67.272 71.156" stroke="#0033A1" stroke-width="1.5" stroke-linecap="round" stroke-linejoin="round"/>
<path d="M47.0373 80.8159L46.9141 80.0762" stroke="#0033A1" stroke-width="1.5" stroke-linecap="round" stroke-linejoin="round"/>
<path d="M46.1675 75.6025L42.5664 53.9814" stroke="#0033A1" stroke-width="1.5" stroke-linecap="round" stroke-linejoin="round" stroke-dasharray="1.01 3.02"/>
<path d="M42.1935 51.745L42.0703 51.0049" stroke="#0033A1" stroke-width="1.5" stroke-linecap="round" stroke-linejoin="round"/>
<path d="M31.5977 74.8293L31.7855 74.1035" stroke="#0033A1" stroke-width="1.5" stroke-linecap="round" stroke-linejoin="round"/>
<path d="M32.9531 69.5911L37.0388 53.8008" stroke="#0033A1" stroke-width="1.5" stroke-linecap="round" stroke-linejoin="round" stroke-dasharray="1.04 3.11"/>
<path d="M37.6211 51.5452L37.809 50.8193" stroke="#0033A1" stroke-width="1.5" stroke-linecap="round" stroke-linejoin="round"/>
<path d="M16.9219 59.0239L17.5155 58.5654" stroke="#0033A1" stroke-width="1.5" stroke-linecap="round" stroke-linejoin="round"/>
<path d="M21.3789 55.5804L29.7529 49.1143" stroke="#0033A1" stroke-width="1.5" stroke-linecap="round" stroke-linejoin="round" stroke-dasharray="1.09 3.26"/>
<path d="M31.6875 47.6226L32.2809 47.1641" stroke="#0033A1" stroke-width="1.5" stroke-linecap="round" stroke-linejoin="round"/>
<path d="M31.0621 36.7059L30.3789 36.3965" stroke="#0033A1" stroke-width="1.5" stroke-linecap="round" stroke-linejoin="round"/>
<path d="M25.9371 34.3818L22.2344 32.7031" stroke="#0033A1" stroke-width="1.5" stroke-linecap="round" stroke-linejoin="round" stroke-dasharray="1.08 3.25"/>
<path d="M20.0111 31.6962L19.3281 31.3867" stroke="#0033A1" stroke-width="1.5" stroke-linecap="round" stroke-linejoin="round"/>
</svg>