<svg width="83" height="55" viewBox="0 0 83 55" fill="none" xmlns="http://www.w3.org/2000/svg">
<path d="M81.9862 47.5233C77.4119 37.881 67.5873 31.2134 56.2055 31.2134C44.8237 31.2134 34.9991 37.881 30.4248 47.5233M33.8749 36.5117C30.2428 33.8102 25.7417 32.2113 20.8672 32.2113C12.1604 32.2113 4.64466 37.3119 1.14551 44.6881M48.7789 54.2349L54.1511 40.6305L51.2794 35.6991M63.6909 54.2349L58.3187 40.6305M58.3187 40.6305L61.1906 35.6991M58.3187 40.6305H56.7222M15.7707 48.3176L19.3348 39.292L17.4296 36.0203M26.114 48.3176L22.5498 39.292M22.5498 39.292L24.455 36.0203M22.5498 39.292H21.3523M68.9537 14.3911C68.9537 21.4319 63.2461 27.1393 56.2055 27.1393C49.1649 27.1393 43.4573 21.4319 43.4573 14.3911C43.4573 7.35071 49.1649 1.64294 56.2055 1.64294C63.2461 1.64294 68.9537 7.35071 68.9537 14.3911ZM20.8672 9.59045C15.4814 9.59045 11.1151 13.9568 11.1151 19.3426C11.1151 24.7285 15.4814 29.0948 20.8672 29.0948C26.2533 29.0948 30.6194 24.7285 30.6194 19.3426C30.6194 13.9568 26.2533 9.59045 20.8672 9.59045Z" stroke="#0033A1" stroke-width="1.5" stroke-miterlimit="10" stroke-linecap="round" stroke-linejoin="round"/>
</svg>
