<svg width="225" height="186" viewBox="0 0 225 186" fill="none" xmlns="http://www.w3.org/2000/svg">
<g clip-path="url(#clip0_29:3707)">
<path d="M146.87 152.88H58.91C58.45 152.88 58.06 152.57 57.94 152.13L31.53 51.1399H1C0.45 51.1399 0 50.6899 0 50.1399C0 49.5899 0.45 49.1399 1 49.1399H32.3C32.75 49.1399 33.15 49.4499 33.27 49.8899L59.68 150.88H146.86C147.41 150.88 147.86 151.33 147.86 151.88C147.86 152.43 147.42 152.88 146.87 152.88Z" fill="white"/>
<path d="M134.77 68.23H36.7695C36.2195 68.23 35.7695 67.78 35.7695 67.23C35.7695 66.68 36.2195 66.23 36.7695 66.23H134.77C135.32 66.23 135.77 66.68 135.77 67.23C135.77 67.78 135.32 68.23 134.77 68.23Z" fill="white"/>
<path d="M152.992 130.31H53.0117C52.4617 130.31 52.0117 129.86 52.0117 129.31C52.0117 128.76 52.4617 128.31 53.0117 128.31H152.142L158.232 91.6399C158.322 91.0899 158.842 90.7299 159.382 90.8199C159.922 90.9099 160.292 91.4299 160.202 91.9699L153.982 129.48C153.902 129.96 153.482 130.31 152.992 130.31Z" fill="white"/>
<path d="M61.7784 185.36C54.5384 185.36 48.6484 179.47 48.6484 172.23C48.6484 164.99 54.5384 159.1 61.7784 159.1C69.0184 159.1 74.9084 164.99 74.9084 172.23C74.9084 179.47 69.0184 185.36 61.7784 185.36ZM61.7784 161.1C55.6384 161.1 50.6484 166.09 50.6484 172.23C50.6484 178.37 55.6384 183.36 61.7784 183.36C67.9184 183.36 72.9084 178.37 72.9084 172.23C72.9084 166.09 67.9184 161.1 61.7784 161.1Z" fill="white"/>
<path d="M141.302 185.36C134.062 185.36 128.172 179.47 128.172 172.23C128.172 164.99 134.062 159.1 141.302 159.1C148.542 159.1 154.432 164.99 154.432 172.23C154.432 179.47 148.542 185.36 141.302 185.36ZM141.302 161.1C135.162 161.1 130.172 166.09 130.172 172.23C130.172 178.37 135.162 183.36 141.302 183.36C147.442 183.36 152.432 178.37 152.432 172.23C152.432 166.09 147.432 161.1 141.302 161.1Z" fill="white"/>
<path d="M182.591 84.58C159.271 84.58 140.301 65.61 140.301 42.29C140.301 18.97 159.271 0 182.591 0C205.911 0 224.881 18.97 224.881 42.29C224.881 65.61 205.911 84.58 182.591 84.58ZM182.591 2C160.371 2 142.301 20.07 142.301 42.29C142.301 64.51 160.371 82.58 182.591 82.58C204.811 82.58 222.881 64.51 222.881 42.29C222.881 20.07 204.801 2 182.591 2Z" fill="white"/>
<path d="M182.71 43.2901C182.45 43.2901 182.2 43.1901 182 43.0001L164.98 25.9801C164.59 25.5901 164.59 24.9601 164.98 24.5701C165.37 24.1801 166 24.1801 166.39 24.5701L182.71 40.8901L207.6 16.6201C208 16.2301 208.63 16.2401 209.01 16.6401C209.4 17.0401 209.39 17.6701 208.99 18.0501L183.39 43.0101C183.22 43.2001 182.96 43.2901 182.71 43.2901Z" fill="white"/>
</g>
<defs>
<clipPath id="clip0_29:3707">
<rect width="224.88" height="185.36" fill="white"/>
</clipPath>
</defs>
</svg>
