<svg xmlns="http://www.w3.org/2000/svg" fill="none" viewBox="12.75 20.27 77.4 55.45">
<path d="M70.7938 29.5352C81.0695 29.5352 89.3997 37.8654 89.3997 48.1412C89.3997 58.4171 81.0695 66.7473 70.7938 66.7473M67.4549 26.3586L64.2782 29.5352L67.4549 32.712M32.102 66.7473C21.8263 66.7473 13.4961 58.4171 13.4961 48.1412C13.4961 37.8654 21.8263 29.5352 32.102 29.5352M35.4409 69.9238L38.6176 66.7473L35.4409 63.5704M50.5413 74.9761V56.1199H57.0258C59.6174 56.1199 61.7184 58.2208 61.7184 60.8125C61.7184 63.4042 59.6174 65.5055 57.0258 65.5055H47.1285M57.0258 69.4302H47.1285M55.6393 21.0244H38.6176V38.0459H55.6393V21.0244Z" stroke="#0033A1" stroke-width="1.5" stroke-miterlimit="10" stroke-linecap="round" stroke-linejoin="round"/>
</svg>