<svg width="96" height="96" viewBox="0 0 96 96" fill="none" xmlns="http://www.w3.org/2000/svg">
<path d="M58.4101 76C56.8101 77.77 54.3701 80.11 53.5801 80.63C51.7001 81.88 49.1101 81.7 49.0901 81.7C48.9901 81.69 48.8901 81.69 48.7901 81.7C45.9501 81.89 44.8301 81 44.8101 81C44.6401 80.78 44.5501 80.74 44.3001 80.61C39.3801 77.93 35.7801 73.37 33.6301 70.01C32.3001 67.94 31.2501 60.25 30.8901 55.81C29.8601 47.61 29.5401 42.23 29.8501 38.42C30.9301 34.42 32.9701 29.75 36.8101 26.63C40.9601 23.27 46.6001 22.26 53.5601 23.63C54.2801 23.82 61.8001 26.03 65.7401 36.5C65.7401 36.57 65.7401 36.64 65.7401 36.7C66.2001 40.65 65.8601 45.36 65.5301 49.92C65.3801 52.01 65.2301 54.17 65.1501 56.26C65.0601 58.59 64.9101 60.65 64.7101 62.36C64.5801 63.46 65.3601 64.45 66.4601 64.58C66.5401 64.59 66.6201 64.59 66.7001 64.59C67.7001 64.59 68.5601 63.84 68.6801 62.83C68.7701 62.03 68.8601 61.16 68.9301 60.24C69.3001 60.71 69.8701 61.01 70.5101 61.01C70.5801 61.01 70.6501 61.01 70.7201 61C71.8201 60.89 72.6201 59.91 72.5001 58.81C71.8901 52.85 72.0201 47.98 72.0201 47.93C72.0201 47.78 72.0101 47.64 71.9801 47.49C70.4901 23.77 55.1101 19.89 54.4501 19.73C54.4401 19.73 54.4301 19.73 54.4101 19.73C54.4001 19.73 54.3901 19.72 54.3801 19.72C46.1701 18.1 39.4001 19.38 34.2801 23.55C24.9001 31.17 24.6401 45.58 24.6401 46.19V46.2V46.21C24.6401 77.33 14.8201 80.36 14.5301 80.44C13.4701 80.65 12.7701 81.67 12.9601 82.74C13.1301 83.71 13.9701 84.4 14.9301 84.4C15.0401 84.4 15.1601 84.39 15.2801 84.37C16.4001 84.17 24.6501 82.05 27.6101 62.16C28.1401 65.84 29.0001 70.16 30.2901 72.19C32.6601 75.89 36.6501 80.93 42.2001 84.03C42.8901 84.6199 44.6701 85.75 48.0401 85.75C48.3301 85.75 48.6301 85.74 48.9401 85.72C49.7701 85.77 53.0601 85.82 55.8201 83.98C57.1201 83.11 59.8901 80.36 61.3901 78.7C62.1301 77.88 62.0701 76.62 61.2501 75.87C60.4201 75.12 59.1501 75.19 58.4101 76Z" fill="#0033A1"/>
<path d="M83.11 80.3701C80.03 79.9901 77.51 77.46 75.62 72.85C75.2 71.83 74.04 71.34 73.01 71.76C71.99 72.18 71.5 73.35 71.92 74.37C74.4 80.42 78 83.78 82.62 84.34C82.7 84.35 82.78 84.35 82.87 84.35C83.87 84.35 84.73 83.61 84.85 82.59C84.99 81.51 84.21 80.5101 83.11 80.3701Z" fill="#0033A1"/>
<path d="M79.42 37.1C76.7 22.27 63.68 11 48.08 11C32.45 11 19.41 22.31 16.72 37.17C8.65 37.43 8 40.85 8 41.92V58.39C8 58.95 8.24 59.49 8.65 59.86C8.8 60 12.34 63.18 18.22 63.18C19.32 63.18 20.22 62.28 20.22 61.18V42.86C20.21 27.5 32.71 15 48.08 15C63.44 15 75.94 27.5 75.94 42.86V47.32V53.7C75.94 62.13 68.12 68.99 58.52 68.99H55.05C54.21 66.51 51.87 64.72 49.11 64.72C45.65 64.72 42.84 67.53 42.84 70.99C42.84 74.45 45.65 77.26 49.11 77.26C51.87 77.26 54.21 75.47 55.05 72.99H58.52C66.57 72.99 73.58 68.97 77.24 63.05C77.39 63.11 77.55 63.15 77.71 63.17C78.08 63.21 78.97 63.3 80.08 63.3C82.19 63.3 85.09 62.99 86.77 61.5C87.69 60.68 88.17 59.61 88.17 58.39V41.92C88.17 41.14 87.74 37.31 79.42 37.1ZM16.21 42.86V59.02C14.21 58.68 12.77 57.91 12 57.4V42.27C12.26 42.04 13.25 41.36 16.26 41.19C16.23 41.75 16.21 42.3 16.21 42.86ZM49.11 73.26C47.86 73.26 46.84 72.24 46.84 70.99C46.84 69.74 47.86 68.72 49.11 68.72C50.33 68.72 51.32 69.69 51.37 70.9C51.37 70.93 51.36 70.96 51.36 70.99C51.36 71.02 51.37 71.05 51.37 71.08C51.32 72.29 50.33 73.26 49.11 73.26ZM84.16 58.45C83.92 58.91 82.1 59.32 79.93 59.29V53.69V47.31V42.85C79.93 42.27 79.91 41.69 79.88 41.11C82.98 41.26 83.93 41.99 84.16 42.22V58.45Z" fill="#0033A1"/>
</svg>
