<svg width="96" height="96" viewBox="0 0 96 96" fill="none" xmlns="http://www.w3.org/2000/svg">
<path d="M62.3402 87.93C52.8202 87.93 40.1602 87.05 40.1602 79.47C40.1602 78.87 40.7502 72.02 41.0002 70.71C41.3102 69.11 42.5102 67.65 44.4702 66.49C45.1802 66.07 47.9102 64.81 52.5702 62.75C53.5802 62.31 54.7602 62.76 55.2102 63.77C55.6602 64.78 55.2002 65.96 54.1902 66.41C49.1802 68.62 46.9402 69.68 46.5102 69.93C45.5102 70.52 45.0002 71.12 44.9302 71.45C44.7402 72.44 44.1802 78.84 44.1602 79.49C44.1602 81.62 48.9402 83.93 62.3402 83.93C74.1102 83.93 78.1702 82.31 79.5002 80.96C79.9002 80.56 80.0802 80.14 80.0802 79.62C80.0202 78.95 79.5902 73.84 79.2902 71.28C79.2002 71.12 78.8702 70.62 77.8502 70.09C76.3302 69.31 72.2402 67.41 69.9402 66.34C68.9402 65.88 68.5002 64.69 68.9602 63.68C69.4202 62.68 70.6102 62.24 71.6202 62.7C74.4602 64.02 78.1702 65.75 79.6702 66.52C82.6902 68.07 83.1602 70.12 83.2302 70.51C83.5802 73.32 84.0602 79.1 84.0802 79.35C84.0802 79.39 84.0902 79.44 84.0902 79.48C84.1202 81.1 83.5202 82.58 82.3702 83.76C79.5202 86.64 73.3402 87.93 62.3402 87.93Z" fill="#0033A1"/>
<path d="M61.71 64.75C60.19 64.75 59.25 64.28 58.76 63.94C56.86 62.93 55.09 61.28 53.64 59.17C52.62 57.67 52.21 54.08 52.08 52.6C51.05 44.97 51.69 43.3 53.79 40.5L53.89 40.36C56.03 37.51 60.91 37.37 61.86 37.37C62.29 37.37 66.1 37.44 69.16 39.99C72.1 42.44 71.78 46.64 71.49 50.35C71.43 51.11 71.37 51.88 71.34 52.62C71.18 56.42 70.64 57.7 70 58.87L69.87 59.12C69.22 60.39 66.68 63.13 65.42 63.92C64.12 64.73 62.58 64.76 62.06 64.75C61.95 64.75 61.83 64.75 61.71 64.75ZM61.08 60.67C61.15 60.7 61.35 60.75 61.72 60.75C61.8 60.75 61.87 60.75 61.96 60.74C62.05 60.73 62.15 60.74 62.24 60.74C62.7 60.74 63.11 60.65 63.33 60.51C64.03 60.07 66 57.92 66.33 57.29C66.39 57.17 66.45 57.06 66.52 56.94C66.86 56.32 67.24 55.62 67.37 52.44C67.4 51.65 67.46 50.84 67.53 50.03C67.75 47.15 67.98 44.18 66.63 43.05C64.62 41.38 61.93 41.36 61.9 41.36C60.38 41.37 57.82 41.81 57.12 42.75L57 42.9C55.65 44.7 55.15 45.37 56.06 52.17C56.24 54.25 56.65 56.43 56.95 56.93C57.72 58.05 59.01 59.59 60.75 60.47C60.87 60.52 60.97 60.59 61.08 60.67Z" fill="#0033A1"/>
<path d="M86.11 65.95H82.89C81.79 65.95 80.89 65.05 80.89 63.95C80.89 62.85 81.79 61.95 82.89 61.95H84.11V12H12V61.95H39.72C40.82 61.95 41.72 62.85 41.72 63.95C41.72 65.05 40.82 65.95 39.72 65.95H10C8.9 65.95 8 65.05 8 63.95V10C8 8.9 8.9 8 10 8H86.11C87.21 8 88.11 8.9 88.11 10V63.95C88.11 65.05 87.22 65.95 86.11 65.95Z" fill="#0033A1"/>
</svg>
