<svg width="96" height="96" viewBox="0 0 96 96" fill="none" xmlns="http://www.w3.org/2000/svg">
<path d="M70.89 78.79H13C11.9 78.79 11 77.89 11 76.79V20C11 18.9 11.9 18 13 18H70.89C71.99 18 72.89 18.9 72.89 20V27.91C72.89 29.01 71.99 29.91 70.89 29.91C69.79 29.91 68.89 29.01 68.89 27.91V22H15V74.79H68.89V49.4C68.89 48.3 69.79 47.4 70.89 47.4C71.99 47.4 72.89 48.3 72.89 49.4V76.79C72.89 77.9 71.99 78.79 70.89 78.79Z" fill="#0033A1"/>
<path d="M43.0801 65.96C43.0501 65.96 43.0301 65.96 43.0001 65.96C42.4701 65.94 41.9701 65.71 41.6101 65.32L27.4301 49.9L25.0901 52.61C24.3701 53.45 23.1101 53.54 22.2701 52.82C21.4301 52.1 21.3401 50.84 22.0601 50L25.8601 45.59C26.2301 45.16 26.7701 44.91 27.3401 44.9C27.9201 44.88 28.4601 45.13 28.8401 45.55L43.1801 61.13L81.5501 25.69C82.3601 24.94 83.6301 24.99 84.3801 25.8C85.1301 26.61 85.0801 27.88 84.2701 28.63L44.4401 65.43C44.0701 65.77 43.5801 65.96 43.0801 65.96Z" fill="#0033A1"/>
</svg>
