<svg width="96" height="96" viewBox="0 0 96 96" fill="none" xmlns="http://www.w3.org/2000/svg">
<path d="M88.32 21.33C87.93 21.15 78.55 17 67.81 17C58.74 17 50.77 19.95 48.25 20.98C45.73 19.95 37.76 17 28.69 17C17.95 17 8.57 21.15 8.18 21.33C7.46 21.65 7 22.37 7 23.15V77.15C7 77.82 7.34 78.45 7.9 78.82C8.23 79.04 8.62 79.15 9 79.15C9.26 79.15 9.53 79.1 9.78 78.99C9.87 78.95 19.33 74.99 28.75 74.99C38.13 74.99 47.36 78.94 47.45 78.98C47.48 78.99 47.5 78.99 47.53 79C47.61 79.03 47.68 79.05 47.76 79.07C47.84 79.09 47.92 79.11 48 79.12C48.08 79.13 48.16 79.13 48.24 79.13C48.32 79.13 48.4 79.13 48.48 79.12C48.56 79.11 48.64 79.09 48.72 79.07C48.8 79.05 48.88 79.03 48.95 79C48.98 78.99 49 78.99 49.03 78.98C49.12 78.94 58.35 74.99 67.73 74.99C77.12 74.99 86.61 78.95 86.7 78.99C86.95 79.1 87.21 79.15 87.48 79.15C87.87 79.15 88.25 79.04 88.59 78.82C89.15 78.45 89.48 77.82 89.48 77.15V23.15C89.5 22.37 89.04 21.65 88.32 21.33ZM11 74.27V24.5C13.74 23.44 20.9 21 28.69 21C36.44 21 43.53 23.43 46.25 24.49V74.25C42.59 72.97 35.81 71 28.75 71C21.65 71 14.72 73 11 74.27ZM85.5 74.27C81.78 73 74.85 71 67.75 71C60.69 71 53.92 72.97 50.25 74.25V24.49C52.96 23.43 60.03 21 67.81 21C75.57 21 82.75 23.44 85.5 24.5V74.27Z" fill="#0033A1"/>
<path d="M17.0801 36.1C17.3501 36.1 17.6301 36.04 17.9001 35.92C17.9501 35.9 23.0101 33.65 28.6601 33.65C34.2201 33.65 39.2001 35.85 39.3301 35.91C40.3401 36.37 41.5201 35.92 41.9801 34.92C42.4401 33.91 41.9901 32.73 40.9901 32.27C40.7501 32.16 35.1601 29.65 28.6601 29.65C22.1701 29.65 16.5001 32.16 16.2601 32.27C15.2501 32.72 14.8001 33.91 15.2601 34.91C15.5901 35.66 16.3201 36.1 17.0801 36.1Z" fill="#0033A1"/>
<path d="M40.96 43.6799C40.71 43.5699 34.88 41.0699 28.7 41.0699C22.52 41.0699 16.56 43.5599 16.3 43.6699C15.28 44.0999 14.81 45.2699 15.24 46.2899C15.67 47.3099 16.84 47.7799 17.86 47.3599C17.91 47.3399 23.35 45.0699 28.7 45.0699C34.04 45.0699 39.32 47.3299 39.37 47.3499C39.63 47.4599 39.9 47.5199 40.17 47.5199C40.94 47.5199 41.68 47.0699 42.01 46.3199C42.44 45.2999 41.98 44.1199 40.96 43.6799Z" fill="#0033A1"/>
<path d="M40.96 55.1C40.72 55 34.89 52.5 28.7 52.5C22.52 52.5 16.56 54.99 16.3 55.1C15.28 55.53 14.81 56.7 15.24 57.72C15.67 58.74 16.84 59.21 17.86 58.79C17.91 58.77 23.35 56.5 28.7 56.5C34.04 56.5 39.32 58.75 39.37 58.78C39.63 58.89 39.9 58.95 40.17 58.95C40.94 58.95 41.68 58.5 42.01 57.75C42.44 56.72 41.98 55.54 40.96 55.1Z" fill="#0033A1"/>
<path d="M54.5099 34.91C54.9599 35.92 56.1399 36.37 57.1499 35.92C57.1999 35.9 62.2999 33.65 67.9099 33.65C73.5099 33.65 78.5399 35.89 78.5899 35.91C78.8599 36.03 79.1399 36.09 79.4199 36.09C80.1799 36.09 80.9099 35.65 81.2399 34.92C81.6999 33.91 81.2499 32.73 80.2499 32.27C80.0099 32.16 74.4199 29.65 67.9199 29.65C61.4299 29.65 55.7599 32.16 55.5199 32.27C54.5099 32.72 54.0599 33.9 54.5099 34.91Z" fill="#0033A1"/>
<path d="M80.21 43.6799C79.96 43.5699 74.13 41.0699 67.94 41.0699C61.76 41.0699 55.8 43.5599 55.54 43.6699C54.52 44.0999 54.05 45.2699 54.48 46.2899C54.91 47.3099 56.08 47.7799 57.1 47.3599C57.15 47.3399 62.59 45.0699 67.94 45.0699C73.28 45.0699 78.56 47.3299 78.61 47.3499C78.87 47.4599 79.14 47.5199 79.41 47.5199C80.18 47.5199 80.92 47.0699 81.25 46.3199C81.69 45.2999 81.23 44.1199 80.21 43.6799Z" fill="#0033A1"/>
<path d="M80.21 55.1C79.97 55 74.14 52.5 67.95 52.5C61.77 52.5 55.81 54.99 55.55 55.1C54.53 55.53 54.06 56.7 54.49 57.72C54.92 58.74 56.09 59.21 57.11 58.79C57.16 58.77 62.6 56.5 67.95 56.5C73.29 56.5 78.57 58.75 78.62 58.78C78.88 58.89 79.15 58.95 79.42 58.95C80.19 58.95 80.93 58.5 81.26 57.75C81.69 56.72 81.23 55.54 80.21 55.1Z" fill="#0033A1"/>
</svg>
