<svg width="96" height="96" viewBox="0 0 96 96" fill="none" xmlns="http://www.w3.org/2000/svg">
<path d="M76.28 22.09C76.26 22.07 76.25 22.04 76.23 22.02C76.14 21.91 76.04 21.82 75.93 21.73C68.95 14.5 59.18 10 48.37 10C37.53 10 27.73 14.52 20.75 21.78C20.72 21.8 20.7 21.82 20.67 21.84C20.59 21.91 20.53 22 20.46 22.08C13.98 28.95 10 38.2 10 48.36C10 69.51 27.21 86.73 48.37 86.73C69.52 86.73 86.73 69.52 86.73 48.36C86.73 38.2 82.75 28.96 76.28 22.09ZM74.48 70.67C71.26 68.16 68.11 66.21 65.06 64.71C67.06 60 68.18 55.21 68.43 50.37H82.67C82.22 58.09 79.21 65.13 74.48 70.67ZM14.06 50.36H28.28C28.52 55.12 29.6 59.83 31.54 64.46C27.18 66.56 23.95 69.03 22.16 70.56C17.48 65.05 14.51 58.04 14.06 50.36ZM22.19 26.14C23.96 27.66 27.15 30.09 31.44 32.17C29.73 36.42 28.52 41.19 28.27 46.36H14.06C14.51 38.67 17.49 31.66 22.19 26.14ZM46.37 32.16C42.82 32 39.59 31.26 36.75 30.23C39.77 24.21 43.66 19.52 46.37 16.66V32.16ZM46.37 36.08V46.37H32.28C32.53 41.81 33.62 37.58 35.16 33.76C38.45 34.98 42.22 35.88 46.37 36.08ZM46.37 50.36V60.61C42.26 60.8 38.52 61.69 35.24 62.9C33.51 58.76 32.54 54.58 32.3 50.36H46.37ZM37.9 66.13C40.72 65.22 43.54 64.71 46.37 64.56V79.46C42.39 75.2 39.24 70.87 36.93 66.47C37.25 66.36 37.57 66.24 37.9 66.13ZM50.37 64.62C53.47 64.86 56.57 65.55 59.66 66.71C57.37 71.02 54.27 75.26 50.37 79.44V64.62ZM50.37 60.66V50.36H64.42C64.17 54.65 63.17 58.9 61.39 63.11C57.53 61.64 53.84 60.89 50.37 60.66ZM50.37 46.36V36.03C53.87 35.8 57.58 35.04 61.48 33.55C63.06 37.42 64.19 41.73 64.44 46.36H50.37ZM50.37 32.09V16.7C53.03 19.51 56.82 24.08 59.81 29.93C56.49 31.18 53.34 31.85 50.37 32.09ZM53.76 14.43C60.61 15.52 66.79 18.63 71.66 23.14C68.87 25.28 66.14 26.98 63.51 28.3C60.47 22.25 56.64 17.5 53.76 14.43ZM33.02 28.65C29.27 26.8 26.49 24.64 24.93 23.27C29.82 18.7 36.04 15.54 42.94 14.44C40.01 17.57 36.08 22.44 33.02 28.65ZM33.22 68.02C35.74 72.91 39.22 77.71 43.64 82.4C36.46 81.41 29.98 78.19 24.92 73.46C26.5 72.09 29.35 69.89 33.22 68.02ZM63.34 68.31C66.13 69.69 68.92 71.44 71.69 73.57C66.65 78.24 60.21 81.41 53.07 82.39C57.4 77.8 60.83 73.1 63.34 68.31ZM68.44 46.36C68.18 41.08 66.93 36.24 65.17 31.93C68.18 30.45 71.28 28.51 74.46 26.04C79.21 31.58 82.23 38.63 82.67 46.37H68.44V46.36Z" fill="#0033A1"/>
</svg>
