<svg width="96" height="96" viewBox="0 0 96 96" fill="none" xmlns="http://www.w3.org/2000/svg">
<path d="M32.6798 35.61C31.9298 35.3 31.0698 35.47 30.4998 36.04L16.5998 49.94C16.2198 50.32 16.0098 50.82 16.0098 51.35C16.0098 51.88 16.2198 52.39 16.5998 52.76L30.4998 66.66C31.0698 67.23 31.9298 67.4 32.6798 67.09C33.4298 66.78 33.9098 66.05 33.9098 65.24V57.35H64.8098V65.24C64.8098 66.05 65.2998 66.78 66.0398 67.09C66.2898 67.19 66.5498 67.24 66.8098 67.24C67.3298 67.24 67.8398 67.04 68.2198 66.65L82.1198 52.75C82.4998 52.37 82.7098 51.87 82.7098 51.34C82.7098 50.81 82.4998 50.3 82.1198 49.93L68.2198 36.03C67.6498 35.46 66.7898 35.29 66.0398 35.6C65.2898 35.91 64.8098 36.64 64.8098 37.45V45.28H33.9098V37.45C33.9098 36.65 33.4298 35.92 32.6798 35.61ZM66.8098 49.28C67.3398 49.28 67.8498 49.07 68.2198 48.69C68.5998 48.31 68.8098 47.81 68.8098 47.28V42.28L77.8798 51.35L68.8098 60.42V55.35C68.8098 54.25 67.9098 53.35 66.8098 53.35H31.9098C30.8098 53.35 29.9098 54.25 29.9098 55.35V60.42L20.8398 51.35L29.9098 42.28V47.28C29.9098 48.38 30.8098 49.28 31.9098 49.28H66.8098Z" fill="#0033A1"/>
<path d="M85.0001 80.0299H55.0601V63.5699C55.0601 62.4699 54.1601 61.5699 53.0601 61.5699C51.9601 61.5699 51.0601 62.4699 51.0601 63.5699V82.0299C51.0601 83.1299 51.9601 84.0299 53.0601 84.0299H85.0001C86.1001 84.0299 87.0001 83.1299 87.0001 82.0299C87.0001 80.9299 86.1001 80.0299 85.0001 80.0299Z" fill="#0033A1"/>
<path d="M53.0601 41.28C54.1601 41.28 55.0601 40.38 55.0601 39.28V16H85.0001C86.1001 16 87.0001 15.1 87.0001 14C87.0001 12.9 86.1001 12 85.0001 12H53.0601C52.5301 12 52.0201 12.21 51.6501 12.59C51.2801 12.97 51.0601 13.47 51.0601 14V39.28C51.0601 40.38 51.9501 41.28 53.0601 41.28Z" fill="#0033A1"/>
<path d="M11 16H30.26V26.52C30.26 27.62 31.16 28.52 32.26 28.52H42.78V39.27C42.78 40.37 43.68 41.27 44.78 41.27C45.88 41.27 46.78 40.37 46.78 39.27V26.53C46.78 26.4 46.77 26.27 46.74 26.14C46.73 26.08 46.71 26.03 46.69 25.97C46.67 25.9 46.65 25.83 46.63 25.77C46.6 25.7 46.56 25.64 46.53 25.58C46.5 25.53 46.48 25.48 46.45 25.43C46.38 25.32 46.29 25.22 46.2 25.12L33.67 12.59C33.58 12.5 33.47 12.41 33.36 12.34C33.31 12.31 33.26 12.28 33.2 12.25C33.14 12.22 33.08 12.18 33.01 12.15C32.94 12.12 32.87 12.11 32.8 12.09C32.74 12.07 32.69 12.05 32.63 12.04C32.52 12.01 32.39 12 32.26 12H11C9.9 12 9 12.9 9 14C9 15.1 9.9 16 11 16ZM34.26 18.83L39.96 24.53H34.26V18.83Z" fill="#0033A1"/>
<path d="M44.78 61.5699C43.68 61.5699 42.78 62.4699 42.78 63.5699V80.0299H11C9.9 80.0299 9 80.9299 9 82.0299C9 83.1299 9.9 84.0299 11 84.0299H44.78C45.31 84.0299 45.82 83.8199 46.19 83.4399C46.57 83.0599 46.78 82.5599 46.78 82.0299V63.5699C46.78 62.4599 45.89 61.5699 44.78 61.5699Z" fill="#0033A1"/>
</svg>
