<svg width="96" height="96" viewBox="0 0 96 96" fill="none" xmlns="http://www.w3.org/2000/svg">
<path d="M67.0899 59.07C66.6699 49.09 58.4499 41.09 48.3699 41.09C38.0199 41.09 29.6099 49.51 29.6099 59.85C29.6099 70.2 38.0299 78.61 48.3699 78.61C51.6799 78.61 54.9399 77.73 57.7899 76.08C58.7399 75.52 59.0699 74.3 58.5099 73.35C57.9499 72.39 56.7299 72.07 55.7799 72.63C53.5399 73.93 50.9799 74.62 48.3699 74.62C40.2299 74.62 33.6099 68 33.6099 59.86C33.6099 51.72 40.2299 45.1 48.3699 45.1C56.4699 45.1 63.0599 51.65 63.1299 59.73C63.0599 64.86 61.0599 66.6 60.1299 66.6C59.4499 66.6 58.7299 65.56 58.7299 63.63V51.83C58.7299 50.73 57.8299 49.83 56.7299 49.83C55.6299 49.83 54.7299 50.73 54.7299 51.83V52.08C52.9599 50.67 50.7299 49.83 48.2999 49.83C42.5899 49.83 37.9399 54.48 37.9399 60.19C37.9399 65.9 42.5899 70.55 48.2999 70.55C51.1299 70.55 53.6999 69.41 55.5699 67.56C55.7399 67.9 55.9299 68.23 56.1499 68.52C57.1299 69.84 58.5799 70.59 60.1299 70.59C63.4199 70.59 66.9399 67.27 67.1199 60.01C67.1199 59.96 67.1399 59.9 67.1399 59.85C67.1399 59.8 67.1299 59.75 67.1299 59.7C67.1299 59.62 67.1399 59.54 67.1399 59.45C67.1299 59.33 67.1099 59.2 67.0899 59.07ZM48.2899 66.55C44.7799 66.55 41.9299 63.7 41.9299 60.19C41.9299 56.68 44.7799 53.83 48.2899 53.83C51.7999 53.83 54.6499 56.68 54.6499 60.19C54.6599 63.7 51.7999 66.55 48.2899 66.55Z" fill="#0033A1"/>
<path d="M69.7498 29.48C65.2798 27.77 54.8798 26.58 48.3198 26.58C48.3098 26.58 48.2898 26.58 48.2798 26.58C41.7198 26.58 31.2898 27.79 26.8098 29.51C23.9398 30.61 23.3998 34.63 23.3398 36.99C23.2898 37.44 23.3098 37.88 23.3898 38.3L23.7698 40.21C24.1398 42.09 25.7898 43.4 27.6398 43.4C27.8898 43.4 28.1398 43.38 28.3898 43.33L37.2398 41.61C38.2698 41.41 39.1698 40.82 39.7498 39.95C40.3398 39.08 40.5498 38.03 40.3498 36.99C40.1398 35.91 39.1098 35.16 38.0298 35.37C36.9498 35.58 36.2598 36.6 36.4698 37.68L27.6898 39.43L27.3098 37.53C27.3098 37.53 27.2998 37.47 27.3198 37.35C27.3298 37.28 27.3298 37.22 27.3298 37.15C27.3698 35.08 27.8998 33.47 28.2298 33.23C31.8498 31.84 41.3998 30.57 48.2698 30.57C48.2798 30.57 48.2998 30.57 48.3098 30.57C55.1798 30.57 64.6998 31.82 68.2798 33.19C68.6298 33.43 69.1698 34.97 69.2198 37.13C69.2198 37.2 69.2298 37.26 69.2298 37.33C69.2398 37.43 69.2398 37.48 69.2398 37.48L68.9198 39.37L60.1198 37.69C60.2998 36.62 59.5998 35.6 58.5298 35.39C57.4498 35.18 56.3998 35.89 56.1898 36.97C55.9898 38.01 56.2098 39.06 56.7998 39.93C57.3898 40.8 58.2898 41.39 59.3198 41.59L68.1698 43.3C70.3098 43.71 72.3698 42.32 72.7898 40.19L73.1698 38.26C73.2498 37.85 73.2698 37.41 73.2198 36.95C73.1598 34.58 72.6098 30.57 69.7498 29.48Z" fill="#0033A1"/>
<path d="M86.91 36.6999C81.81 30.7399 75.97 25.3399 69.54 20.6599C63.24 16.0999 56.33 12.2299 49 9.14993C48.51 8.93993 47.95 8.93993 47.46 9.14993C40.06 12.2299 33.12 16.1199 26.83 20.6899C20.46 25.3199 14.63 30.6899 9.48 36.6699C9.17 37.0399 9 37.5399 9 38.0199C9 38.0699 9 38.1299 9.01 38.1799C9.61 45.7799 11.19 53.5799 13.71 61.3599C16.13 68.8199 19.44 76.0299 23.54 82.7999C23.83 83.2799 24.32 83.6099 24.87 83.7199C32.35 85.5099 40.24 86.4199 48.3 86.4199C56.17 86.4199 64.05 85.4999 71.72 83.6899C72.24 83.5699 72.69 83.2399 72.97 82.7799C77.05 76.0299 80.37 68.7899 82.85 61.2499C85.2 54.0199 86.68 46.4699 87.38 38.1899C87.38 38.1299 87.39 38.0599 87.39 38.0099C87.39 37.5199 87.22 37.0599 86.91 36.6999ZM79.05 59.9999C76.76 66.9699 73.7 73.6899 69.98 79.9799C55.55 83.2599 40.25 83.1599 26.52 79.9899C22.78 73.6899 19.75 67.0099 17.51 60.1099C15.18 52.8999 13.69 45.6899 13.06 38.6499C17.87 33.1599 23.29 28.2099 29.18 23.9199C35 19.6999 41.4 16.0799 48.22 13.1699C54.98 16.0699 61.36 19.6799 67.18 23.8999C73.13 28.2299 78.55 33.1899 83.32 38.6699C82.63 46.3199 81.23 53.3099 79.05 59.9999Z" fill="#0033A1"/>
</svg>
