<svg width="96" height="96" viewBox="0 0 96 96" fill="none" xmlns="http://www.w3.org/2000/svg">
<path d="M87.67 39.6501H63.67L54.51 18.2201C54.08 17.2001 52.9 16.7301 51.89 17.1701C50.87 17.6001 50.4 18.7801 50.84 19.7901L59.32 39.6501H38.27L46.75 19.7901C47.18 18.7701 46.71 17.6001 45.7 17.1701C44.68 16.7401 43.51 17.2101 43.08 18.2201L33.92 39.6601H9C7.9 39.6601 7 40.5601 7 41.6601C7 42.7601 7.9 43.6601 9 43.6601H10.2L18.86 76.8901C19.09 77.7701 19.89 78.3901 20.8 78.3901H76.38C77.3 78.3901 78.09 77.7701 78.32 76.8801L86.75 43.6701H87.67C88.77 43.6701 89.67 42.7701 89.67 41.6701C89.67 40.5501 88.77 39.6501 87.67 39.6501ZM74.82 74.3701H22.35L20.37 66.7801H71.2C72.3 66.7801 73.2 65.8801 73.2 64.7801C73.2 63.6801 72.3 62.7801 71.2 62.7801H19.32L17.35 55.2201H73.89C74.99 55.2201 75.89 54.3201 75.89 53.2201C75.89 52.1201 74.99 51.2201 73.89 51.2201H16.31L14.34 43.6601H35.24H62.34H82.6L74.82 74.3701Z" fill="#0033A1"/>
</svg>
