<svg width="96" height="96" viewBox="0 0 96 96" fill="none" xmlns="http://www.w3.org/2000/svg">
<path d="M66.3998 85.3H66.3198C66.2098 85.3 58.4398 85.03 54.0998 80.69C51.9098 78.5 50.2298 75.07 49.1798 72.49C48.7898 73.29 48.3198 74.34 47.7998 75.66C47.3898 76.7 46.5098 77.07 45.8198 77.07C44.1798 77.07 43.5898 76.27 43.0598 71.72C41.7098 72.96 40.2198 74.15 39.1798 74.53C38.9698 74.67 38.2598 75.57 37.7898 76.16C36.2898 78.05 34.4298 80.39 31.8298 80.39C31.5298 80.39 31.2298 80.36 30.9298 80.29C27.3798 79.5 15.9098 72.67 15.3498 65.12C14.7998 57.71 14.8898 56.33 15.9198 55.28C16.0398 55.16 16.2198 55 16.4298 54.81C16.5998 54.66 16.9098 54.37 17.1498 54.14V52.53C17.1498 51.2 18.1798 50.55 19.7298 49.57C19.7598 49.55 19.7898 49.53 19.8298 49.51C18.0898 47.49 17.0698 45.3 16.7998 43C16.7198 42.35 16.6398 41.6 16.5498 40.77C16.1898 37.45 15.5098 31.27 14.6198 29.6C13.1998 26.96 12.6698 25.24 12.6698 23.24C12.6698 23.12 12.5698 22.8 12.4698 22.52C11.9998 21.11 11.2998 18.96 12.7398 14.65L13.3698 12.14C13.5798 11.31 14.3098 10.7 15.1598 10.63C15.1598 10.63 15.3398 10.61 15.6798 10.61C17.6498 10.61 24.6198 11.14 31.4298 17.96C32.3098 18.84 33.1798 19.7 34.0398 20.55C40.2798 26.72 45.6898 32.07 47.3698 37.41C48.8698 36.03 49.7098 36.03 50.0998 36.03C50.1798 36.03 50.3198 36.04 50.3998 36.05C50.9998 36.12 52.0998 36.26 53.1398 38.92C53.6298 38.52 54.1098 38.13 54.5898 37.74C61.9998 31.66 67.8498 26.86 86.1298 26.86C88.8698 26.86 90.6298 29 90.6298 30.47C90.6298 30.56 90.2598 39.44 86.4798 43.22C83.7398 45.96 81.0498 52 81.5198 54.36C81.8898 56.22 81.2298 58.25 79.6098 60.22C79.0198 60.94 78.1098 61.84 77.1098 62.55C78.3698 64.62 79.5298 68.36 77.0598 74.55C73.3298 83.9 68.7798 85.3 66.3998 85.3ZM49.8398 66.42C50.0598 66.42 50.2798 66.46 50.4898 66.53C51.0998 66.74 51.5798 67.23 51.7598 67.85C51.7798 67.92 53.8398 74.77 56.9298 77.86C59.6898 80.62 65.3098 81.28 66.2998 81.3H66.3998C68.1798 81.3 70.9398 79.14 73.3598 73.08C75.8398 66.88 73.6898 64.47 72.8798 63.57C72.5198 63.17 71.6798 62.23 72.2398 60.98C72.3598 60.7 72.8498 59.83 74.0698 59.75C75.1798 59.35 77.9198 56.72 77.6098 55.15C76.8098 51.13 80.2598 43.79 83.6598 40.39C85.5598 38.49 86.4198 33.29 86.5998 30.96C86.4998 30.9 86.3498 30.85 86.1398 30.85C69.2898 30.85 64.1898 35.03 57.1298 40.81C55.9198 41.81 54.6598 42.84 53.2798 43.9C52.7398 44.32 52.0198 44.43 51.3798 44.19C50.7398 43.96 50.2598 43.41 50.1098 42.74C49.9698 42.11 49.7798 41.43 49.5898 40.85C49.1898 41.28 48.7498 41.8 48.3798 42.3C47.9798 42.83 47.3598 43.13 46.6898 43.09C46.0298 43.06 45.4298 42.71 45.0798 42.15C44.9798 41.99 44.0698 40.5 43.6798 39C42.5198 34.53 37.2898 29.35 31.2298 23.37C30.3698 22.52 29.4898 21.65 28.6098 20.77C23.8798 16.04 19.1298 14.92 16.8598 14.67L16.6098 15.7C16.5998 15.75 16.5798 15.81 16.5598 15.86C15.5098 18.97 15.9098 20.21 16.2698 21.3C16.4598 21.87 16.6598 22.51 16.6598 23.26C16.6598 24.35 16.8998 25.44 18.1298 27.72C19.2998 29.89 19.8998 34.73 20.5198 40.35C20.6098 41.16 20.6898 41.9 20.7598 42.54C21.0998 45.37 23.1998 47.34 23.8998 47.99C23.9998 48.08 24.0698 48.15 24.1298 48.21C24.5898 48.68 24.8098 49.31 24.7398 49.96C24.5898 51.24 23.5098 51.92 21.8598 52.96C21.6498 53.09 21.3798 53.26 21.1498 53.42V54.8C21.1498 55.93 20.3398 56.66 19.1298 57.77C19.0998 57.79 19.0798 57.81 19.0598 57.84C18.9698 58.71 19.0698 61.05 19.3498 64.83C19.7198 69.86 29.4198 75.86 31.8098 76.39C32.5098 76.39 33.9598 74.55 34.6598 73.67C35.7098 72.35 36.6098 71.21 37.7998 70.78C38.5198 70.5 41.0398 68.25 43.1898 65.96C43.7298 65.39 44.5598 65.18 45.2998 65.44C46.0498 65.7 46.5698 66.37 46.6298 67.16C46.6698 67.61 46.7098 68.08 46.7598 68.55C46.9398 68.26 47.0598 68.1 47.0898 68.05C47.2098 67.88 47.3698 67.73 47.5398 67.6L48.6698 66.79C49.0198 66.55 49.4198 66.42 49.8398 66.42Z" fill="#0033A1"/>
</svg>
