<svg width="96" height="96" viewBox="0 0 96 96" fill="none" xmlns="http://www.w3.org/2000/svg">
<path d="M75.7002 57.48C75.2802 42.87 63.2802 31.12 48.5702 31.12C33.6002 31.12 21.4202 43.3 21.4202 58.26C21.4202 73.23 33.6002 85.41 48.5702 85.41C53.3602 85.41 58.0802 84.14 62.2002 81.75C63.1602 81.2 63.4802 79.97 62.9202 79.02C62.3702 78.06 61.1402 77.74 60.1902 78.3C56.6802 80.34 52.6602 81.42 48.5702 81.42C35.8102 81.42 25.4202 71.04 25.4202 58.27C25.4202 45.51 35.8002 35.12 48.5702 35.12C61.2402 35.12 71.5502 45.35 71.7102 57.97C71.6302 65.83 68.4702 69.38 66.2102 69.38C64.3802 69.38 63.1102 67.14 63.1102 63.93V46.22C63.1102 45.12 62.2102 44.22 61.1102 44.22C60.0102 44.22 59.1102 45.12 59.1102 46.22V48.89C56.4502 46.03 52.6702 44.22 48.4602 44.22C40.4402 44.22 33.9202 50.74 33.9202 58.76C33.9202 66.78 40.4402 73.3 48.4602 73.3C52.9802 73.3 57.0202 71.23 59.6902 67.98C60.8602 71.65 63.6102 73.37 66.2102 73.37C70.6702 73.37 75.4402 68.69 75.6902 58.49C75.7002 58.41 75.7102 58.34 75.7102 58.25C75.7102 58.15 75.7002 58.04 75.7002 57.94C75.7002 57.85 75.7102 57.76 75.7102 57.67C75.7202 57.61 75.7102 57.55 75.7002 57.48ZM48.4702 69.31C42.6602 69.31 37.9302 64.58 37.9302 58.77C37.9302 52.96 42.6602 48.23 48.4702 48.23C54.2802 48.23 59.0102 52.96 59.0102 58.77C59.0102 64.58 54.2802 69.31 48.4702 69.31Z" fill="#0033A1"/>
<path d="M84.8801 24.62C84.8001 21.93 84.2001 15.77 80.3001 14.28C73.7001 11.76 58.2501 10 48.4501 10C38.6901 10.01 23.2101 11.78 16.6001 14.32C12.7001 15.82 12.1101 21.99 12.0401 24.67C11.9801 25.27 12.0001 25.84 12.1001 26.38L12.6701 29.25C13.1201 31.55 15.1401 33.23 17.4901 33.23C17.8101 33.23 18.1201 33.2 18.4301 33.14L31.7001 30.56C32.9901 30.31 34.1001 29.57 34.8401 28.49C35.5701 27.4 35.8401 26.09 35.5901 24.81L35.2401 23.03C37.9501 22.41 43.4001 21.42 48.6101 21.42C53.8901 21.42 59.0901 22.41 61.6601 23.01L61.3201 24.79C61.0701 26.08 61.3401 27.39 62.0701 28.47C62.8001 29.56 63.9201 30.29 65.2101 30.54L78.4901 33.1C78.8001 33.16 79.1101 33.19 79.4201 33.19C81.7701 33.19 83.7901 31.52 84.2401 29.22L84.8201 26.32C84.9201 25.79 84.9401 25.22 84.8801 24.62ZM80.9001 25.55L80.3201 28.44C80.2301 28.93 79.7301 29.26 79.2501 29.17L65.9701 26.61C65.6501 26.55 65.4701 26.34 65.3901 26.23C65.3101 26.11 65.1901 25.87 65.2501 25.54L65.8201 22.58C65.9901 22.29 66.0801 21.96 66.0801 21.6C66.0801 19.83 65.0201 19.48 59.5801 18.49C56.8901 18 52.7901 17.41 48.5801 17.41C44.3201 17.41 40.1501 18 37.4101 18.5C31.8901 19.5 30.8101 19.85 30.8101 21.62C30.8101 21.99 30.9101 22.34 31.0901 22.64L31.6601 25.56C31.7201 25.88 31.6001 26.13 31.5201 26.24C31.4401 26.36 31.2601 26.56 30.9401 26.62L17.6701 29.22C17.1801 29.32 16.7001 28.99 16.6001 28.49L16.0201 25.61C16.0001 25.53 15.9801 25.34 16.0201 25.05C16.0301 24.98 16.0301 24.92 16.0301 24.85C16.1001 21.44 16.9801 18.45 18.0301 18.05C23.5501 15.94 38.0401 14.01 48.5001 14C58.9001 14 73.3701 15.91 78.8701 18.01C79.9201 18.41 80.8001 21.39 80.8801 24.8C80.8801 24.87 80.8901 24.93 80.8901 25C80.9301 25.3 80.9101 25.49 80.9001 25.55Z" fill="#0033A1"/>
</svg>
