<svg width="96" height="96" viewBox="0 0 96 96" fill="none" xmlns="http://www.w3.org/2000/svg">
<path d="M29.2601 66.67C28.0501 66.67 27.1501 65.91 26.5901 65.35L10.3101 49.07C8.61005 47.37 8.56005 44.66 10.1901 43.02L14.7101 38.5C16.9201 36.29 19.2501 36.26 21.3601 38.38C23.6201 40.64 27.2401 44.34 29.2301 46.37C32.7001 42.91 41.5001 34.13 45.0801 30.55C45.7501 29.88 46.7901 29 48.1601 29C49.6201 29 50.6201 30 51.1601 30.53L55.7501 35.12C58.5801 37.96 57.1001 40.28 55.9601 41.42C53.4001 43.98 48.0801 49.27 42.9801 54.33C38.2901 58.99 33.7901 63.46 31.7901 65.46C31.4901 65.76 30.5801 66.67 29.2601 66.67ZM13.0201 45.85C13.0201 45.85 12.9001 46.01 13.1401 46.25L29.2501 62.36C31.3701 60.24 35.6801 55.96 40.1601 51.51C45.2601 46.45 50.5701 41.16 53.1301 38.61C53.2101 38.53 53.2601 38.47 53.3001 38.42C53.2301 38.32 53.1201 38.17 52.9101 37.97L48.3201 33.38C48.2401 33.3 48.1801 33.24 48.1201 33.19C48.0601 33.24 47.9901 33.31 47.9001 33.4C43.4001 37.9 30.6201 50.65 30.6201 50.65C30.2401 51.02 29.7401 51.23 29.2101 51.23H29.2001C28.6701 51.23 28.1501 51.01 27.7801 50.63C27.7201 50.57 21.7401 44.44 18.5401 41.23C18.3401 41.03 18.2001 40.93 18.1201 40.88C18.0301 40.93 17.8401 41.06 17.5401 41.35L13.0201 45.85Z" fill="#0033A1"/>
<path d="M59.1298 66.67C57.9198 66.67 57.0198 65.92 56.4598 65.35L47.5098 56.4L50.3398 53.57L59.1198 62.35C61.2398 60.23 65.5498 55.95 70.0298 51.5C75.1198 46.44 80.4398 41.15 82.9998 38.6C83.0798 38.52 83.1298 38.46 83.1698 38.41C83.0998 38.31 82.9898 38.16 82.7798 37.96L78.1898 33.37C78.1098 33.29 78.0498 33.23 77.9898 33.18C77.9298 33.24 77.8598 33.3 77.7698 33.39C73.2698 37.89 60.4898 50.64 60.4898 50.64C60.1098 51.02 59.6298 51.23 59.0398 51.22C58.4998 51.21 57.9898 50.98 57.6198 50.59L55.5198 48.35C54.7598 47.54 54.7998 46.28 55.6098 45.52C56.4098 44.77 57.6798 44.8 58.4398 45.61L59.1298 46.35C62.6098 42.88 71.3798 34.13 74.9498 30.56C77.9898 27.51 80.2698 29.79 81.0198 30.54L85.6098 35.13C88.4398 37.96 86.9598 40.29 85.8198 41.43C83.2598 43.99 77.9398 49.28 72.8398 54.34C68.1498 59 63.6498 63.47 61.6498 65.46C61.3598 65.76 60.4498 66.67 59.1298 66.67Z" fill="#0033A1"/>
</svg>
