<svg width="96" height="96" viewBox="0 0 96 96" fill="none" xmlns="http://www.w3.org/2000/svg">
<path d="M81.8 22.45H80.8H63.63V17.87C64.4 17.59 64.94 16.86 64.94 16C64.94 14.9 64.04 14 62.94 14H61.63H35.17H33.86C32.76 14 31.86 14.9 31.86 16C31.86 16.86 32.41 17.59 33.17 17.87V22.45H16H15C12.24 22.45 10 24.69 10 27.45V28.41C10 28.42 10 28.44 10 28.45V75.7C10 79.01 12.69 81.7 16 81.7H80.8C84.11 81.7 86.8 79.01 86.8 75.7V44.87V28.45V27.45C86.8 24.69 84.56 22.45 81.8 22.45ZM37.17 18H59.63V22.45H37.17V18ZM80.8 26.45C81.9 26.45 82.8 27.35 82.8 28.45V44.87C82.8 45.58 82.14 46.41 81.44 46.56C81.34 46.58 71.81 48.63 56.47 49.33V48.99C56.47 45.83 54.21 43.25 51.43 43.25H45.36C42.58 43.25 40.32 45.82 40.32 48.99V49.34C24.97 48.64 15.45 46.59 15.35 46.57C14.66 46.4 14 45.58 14 44.87V28.43C14.01 27.34 14.9 26.45 16 26.45H80.8ZM44.33 52.83V48.97C44.33 47.91 44.94 47.23 45.37 47.23H51.44C51.86 47.23 52.48 47.91 52.48 48.97V52.83H52.18H44.63H44.33ZM45.63 56.83H51.18V60.11C50.79 60.25 49.86 60.5 48.4 60.5C46.93 60.5 46 60.24 45.63 60.11V56.83ZM80.8 77.7H16C14.9 77.7 14 76.8 14 75.7V50.3C14.17 50.36 14.33 50.42 14.5 50.46C14.92 50.55 24.51 52.62 40.32 53.33V54.83C40.32 55.69 40.86 56.41 41.62 56.7V60.34C41.62 61.63 42.42 62.97 43.56 63.58C43.85 63.74 45.45 64.51 48.39 64.51C51.33 64.51 52.93 63.74 53.23 63.58C54.37 62.97 55.17 61.64 55.17 60.35V56.7C55.93 56.41 56.47 55.69 56.47 54.83V53.32C72.27 52.62 81.88 50.55 82.29 50.45C82.46 50.41 82.63 50.34 82.79 50.29V75.69C82.8 76.81 81.9 77.7 80.8 77.7Z" fill="#0033A1"/>
</svg>
