<svg width="96" height="96" viewBox="0 0 96 96" fill="none" xmlns="http://www.w3.org/2000/svg">
<path d="M62.5599 48.18C62.5599 49.87 61.1899 51.25 59.4899 51.25C57.7899 51.25 56.4199 49.88 56.4199 48.18C56.4199 46.49 57.7899 45.11 59.4899 45.11C61.1799 45.11 62.5599 46.48 62.5599 48.18Z" fill="#0033A1"/>
<path d="M51.4 16.07C51.4 17.76 50.03 19.14 48.33 19.14C46.63 19.14 45.26 17.76 45.26 16.07C45.26 14.38 46.63 13 48.33 13C50.03 13 51.4 14.37 51.4 16.07Z" fill="#0033A1"/>
<path d="M51.4 28.92C51.4 30.61 50.03 31.99 48.33 31.99C46.63 31.99 45.26 30.62 45.26 28.92C45.26 27.23 46.63 25.85 48.33 25.85C50.03 25.85 51.4 27.23 51.4 28.92Z" fill="#0033A1"/>
<path d="M51.4 41.77C51.4 43.46 50.03 44.84 48.33 44.84C46.63 44.84 45.26 43.46 45.26 41.77C45.26 40.08 46.63 38.7 48.33 38.7C50.03 38.7 51.4 40.08 51.4 41.77Z" fill="#0033A1"/>
<path d="M40.2601 48.18C40.2601 49.87 38.8901 51.25 37.1901 51.25C35.4901 51.25 34.1201 49.88 34.1201 48.18C34.1201 46.49 35.4901 45.11 37.1901 45.11C38.8901 45.11 40.2601 46.48 40.2601 48.18Z" fill="#0033A1"/>
<path d="M73.64 28.92C73.64 30.61 72.27 31.99 70.57 31.99C68.87 31.99 67.5 30.61 67.5 28.92C67.5 27.23 68.87 25.85 70.57 25.85C72.27 25.85 73.64 27.22 73.64 28.92Z" fill="#0033A1"/>
<path d="M62.5599 35.34C62.5599 37.04 61.1899 38.41 59.4899 38.41C57.7899 38.41 56.4199 37.04 56.4199 35.34C56.4199 33.65 57.7899 32.27 59.4899 32.27C61.1799 32.27 62.5599 33.64 62.5599 35.34Z" fill="#0033A1"/>
<path d="M40.2601 35.34C40.2601 37.03 38.8901 38.41 37.1901 38.41C35.4901 38.41 34.1201 37.04 34.1201 35.34C34.1201 33.65 35.4901 32.27 37.1901 32.27C38.8901 32.27 40.2601 33.64 40.2601 35.34Z" fill="#0033A1"/>
<path d="M73.64 54.62C73.64 56.32 72.27 57.69 70.57 57.69C68.87 57.69 67.5 56.32 67.5 54.62C67.5 52.93 68.87 51.55 70.57 51.55C72.27 51.55 73.64 52.93 73.64 54.62Z" fill="#0033A1"/>
<path d="M29.13 28.92C29.13 30.61 27.76 31.99 26.07 31.99C24.37 31.99 23 30.61 23 28.92C23 27.23 24.37 25.85 26.07 25.85C27.76 25.85 29.13 27.22 29.13 28.92Z" fill="#0033A1"/>
<path d="M29.13 54.62C29.13 56.32 27.76 57.69 26.07 57.69C24.37 57.69 23 56.32 23 54.62C23 52.93 24.37 51.55 26.07 51.55C27.76 51.55 29.13 52.93 29.13 54.62Z" fill="#0033A1"/>
<path d="M51.4 54.62C51.4 56.32 50.03 57.69 48.33 57.69C46.63 57.69 45.26 56.32 45.26 54.62C45.26 52.93 46.63 51.55 48.33 51.55C50.03 51.55 51.4 52.93 51.4 54.62Z" fill="#0033A1"/>
<path d="M51.4 67.47C51.4 69.16 50.03 70.54 48.33 70.54C46.63 70.54 45.26 69.17 45.26 67.47C45.26 65.78 46.63 64.4 48.33 64.4C50.03 64.41 51.4 65.78 51.4 67.47Z" fill="#0033A1"/>
<path d="M51.4 80.32C51.4 82.02 50.03 83.39 48.33 83.39C46.63 83.39 45.26 82.02 45.26 80.32C45.26 78.63 46.63 77.25 48.33 77.25C50.03 77.26 51.4 78.63 51.4 80.32Z" fill="#0033A1"/>
</svg>
