<svg width="96" height="96" viewBox="0 0 96 96" fill="none" xmlns="http://www.w3.org/2000/svg">
<path d="M59.9998 34.08C59.1398 35.42 58.8498 37.06 59.3598 38.62C60.2998 41.51 63.5998 43.04 66.7298 42.02C69.8598 41.01 71.6398 37.83 70.7098 34.94C70.0898 33.02 68.4198 31.72 66.4498 31.33C65.1298 31.08 59.9998 34.08 59.9998 34.08Z" fill="#0033A1"/>
<path d="M87.74 14.87C87.67 13.77 86.73 12.93 85.61 13.01C84.51 13.08 83.67 14.04 83.75 15.14C83.91 17.49 84.03 19.55 69.53 25.34C48.58 13.45 30.88 22.95 27.12 25.28C12.74 19.53 12.87 17.47 13.03 15.13C13.1 14.03 12.27 13.08 11.16 13C10.06 12.93 9.09997 13.76 9.02997 14.86C8.71997 19.47 10.09 22.44 22.89 27.86C20.18 29.44 18.12 31.9 17.16 34.87C15.57 39.79 17.26 45.04 21.03 48.51C20.57 48.66 20.15 48.96 19.89 49.42C17.93 52.84 11.83 65.27 15.53 81.63C15.74 82.56 16.57 83.19 17.48 83.19C17.63 83.19 17.77 83.17 17.92 83.14C19 82.9 19.67 81.82 19.43 80.75C16.75 68.87 19.71 57.8 23.37 51.4C23.55 51.09 23.62 50.75 23.63 50.41C24.52 50.92 25.47 51.36 26.49 51.69C27.99 52.18 29.55 52.42 31.09 52.42C33.34 52.42 35.57 51.91 37.55 50.89C40.62 49.32 42.88 46.7 43.91 43.53C44.21 42.61 44.39 41.67 44.47 40.72C45.74 42.79 46.23 44.67 46.39 46.02C46.25 47.56 46.4 48.57 46.42 48.72C46.42 48.74 46.43 48.76 46.44 48.78C46.45 48.85 46.47 48.92 46.49 48.99C46.51 49.04 46.52 49.1 46.55 49.15C46.57 49.21 46.6 49.27 46.63 49.33C46.66 49.38 46.69 49.43 46.72 49.48C46.76 49.53 46.79 49.59 46.83 49.64C46.86 49.68 46.9 49.72 46.93 49.76C46.98 49.81 47.03 49.87 47.09 49.92C47.12 49.94 47.14 49.96 47.17 49.98C47.43 50.18 47.73 50.33 48.07 50.39C48.18 50.41 48.29 50.42 48.4 50.42C49.18 50.42 49.87 49.96 50.2 49.27C50.2 49.26 50.21 49.26 50.21 49.25C50.26 49.15 50.29 49.05 50.32 48.94C50.33 48.91 50.34 48.88 50.34 48.85C50.35 48.81 50.36 48.77 50.37 48.73C50.39 48.58 50.54 47.57 50.41 46.04C50.58 44.7 51.06 42.81 52.33 40.75C52.41 41.7 52.59 42.64 52.89 43.55C53.98 46.92 56.41 49.62 59.74 51.15C61.61 52.01 63.64 52.45 65.69 52.45C67.23 52.45 68.79 52.2 70.31 51.71C71.33 51.38 72.28 50.94 73.17 50.43C73.17 50.77 73.25 51.11 73.43 51.42C77.09 57.82 80.05 68.88 77.36 80.76C77.12 81.84 77.79 82.91 78.87 83.15C79.02 83.18 79.17 83.2 79.31 83.2C80.22 83.2 81.05 82.57 81.26 81.64C84.96 65.28 78.86 52.85 76.9 49.42C76.64 48.97 76.23 48.66 75.77 48.51C79.54 45.04 81.23 39.79 79.64 34.87C78.68 31.9 76.61 29.44 73.91 27.87C86.68 22.45 88.04 19.48 87.74 14.87ZM40.09 42.3C39.39 44.46 37.84 46.25 35.72 47.33C33.32 48.55 30.4 48.76 27.71 47.88C22.44 46.17 19.41 40.88 20.96 36.09C21.96 33.01 24.6 30.79 28.03 30.14C28.14 30.12 28.25 30.08 28.36 30.04C29.05 30.31 29.76 30.58 30.5 30.85C34.25 32.18 37.12 33.72 39.32 35.32C40.54 37.53 40.83 40.03 40.09 42.3ZM42.32 32.58C42.06 32.22 41.71 31.97 41.31 31.84C38.88 30.13 35.81 28.53 31.93 27.14C37.53 24.37 49.81 20.25 64.54 27.24C60.81 28.6 57.83 30.17 55.45 31.83C55.04 31.96 54.68 32.21 54.42 32.59C51.47 34.86 49.58 37.26 48.37 39.49C47.18 37.25 45.28 34.85 42.32 32.58ZM68.74 30.16C72.16 30.8 74.81 33.03 75.81 36.1C77.36 40.89 74.33 46.18 69.06 47.89C66.48 48.73 63.75 48.59 61.4 47.5C59.1 46.44 57.42 44.59 56.68 42.29C55.94 40.03 56.23 37.53 57.45 35.35C59.66 33.74 62.54 32.19 66.31 30.86C67.04 30.59 67.74 30.32 68.42 30.06C68.52 30.1 68.63 30.14 68.74 30.16Z" fill="#0033A1"/>
<path d="M30.3302 31.3399C28.3702 31.7299 26.7002 33.0299 26.0702 34.9499C25.1302 37.8399 26.9202 41.0099 30.0502 42.0299C33.1802 43.0499 36.4902 41.5199 37.4202 38.6299C37.9202 37.0699 37.6402 35.4299 36.7802 34.0899C36.7702 34.0799 31.6502 31.0799 30.3302 31.3399Z" fill="#0033A1"/>
</svg>
