<svg width="96" height="96" viewBox="0 0 96 96" fill="none" xmlns="http://www.w3.org/2000/svg">
<path d="M39.2899 34.97C39.3499 34.98 39.4099 34.98 39.4799 34.98C40.2699 34.98 40.9999 34.51 41.3199 33.77L43.8399 27.92L50.1799 28.51C51.0499 28.59 51.8599 28.11 52.1999 27.31C52.5399 26.51 52.3299 25.59 51.6799 25.02L46.8899 20.82L49.4099 14.97C49.7499 14.17 49.5399 13.25 48.8899 12.68C48.2399 12.11 47.2899 12.02 46.5499 12.46L41.0699 15.7L36.2799 11.5C35.6299 10.93 34.6799 10.84 33.9399 11.28C33.1899 11.72 32.8199 12.59 33.0099 13.44L34.4099 19.65L28.9299 22.9C28.1799 23.34 27.8099 24.21 27.9999 25.06C28.1899 25.91 28.8999 26.53 29.7699 26.61L33.2299 26.93L8.58988 51.59C7.80988 52.37 7.80988 53.64 8.58988 54.42C8.97988 54.81 9.48988 55.01 9.99988 55.01C10.5099 55.01 11.0199 54.81 11.4099 54.42L36.5799 29.25L37.5199 33.42C37.7199 34.26 38.4299 34.89 39.2899 34.97ZM37.7099 22.35C38.4599 21.91 38.8299 21.04 38.6399 20.19L38.2699 18.56L39.5199 19.66C40.1699 20.23 41.1199 20.32 41.8599 19.88L43.2899 19.03L42.6299 20.56C42.2899 21.36 42.4999 22.28 43.1499 22.85L44.3999 23.95L42.7399 23.8C41.8799 23.73 41.0599 24.2 40.7199 25L40.0599 26.53L39.6899 24.9C39.4999 24.05 38.7899 23.43 37.9199 23.35L36.2599 23.2L37.7099 22.35Z" fill="#0033A1"/>
<path d="M77.2 30.96C82.7063 30.96 87.17 26.4963 87.17 20.99C87.17 15.4837 82.7063 11.02 77.2 11.02C71.6937 11.02 67.23 15.4837 67.23 20.99C67.23 26.4963 71.6937 30.96 77.2 30.96Z" fill="#0033A1"/>
<path d="M29.92 52.3099C29.92 55.8599 27.04 58.7299 23.5 58.7299C27.05 58.7299 29.92 61.6099 29.92 65.1499C29.92 61.5999 32.8 58.7299 36.34 58.7299C32.8 58.7399 29.92 55.8599 29.92 52.3099Z" fill="#0033A1"/>
<path d="M58.8399 34.9399C58.8399 32.7599 60.5999 30.9999 62.7799 30.9999C60.5999 30.9999 58.8399 29.2399 58.8399 27.0599C58.8399 29.2399 57.0799 30.9999 54.8999 30.9999C57.0699 30.9999 58.8399 32.7699 58.8399 34.9399Z" fill="#0033A1"/>
<path d="M79.1198 48.21H78.3498C78.6898 47.47 78.8698 46.65 78.8698 45.77C78.8698 43.86 77.9998 42.08 76.4798 40.87C74.7998 39.53 72.5598 39.06 70.3398 39.58C66.8498 40.39 62.3698 44.43 59.8698 46.93C57.3598 44.43 52.8898 40.39 49.3998 39.58C47.1798 39.06 44.9398 39.53 43.2598 40.87C41.7398 42.08 40.8698 43.86 40.8698 45.77C40.8698 46.65 41.0598 47.47 41.3898 48.21H39.8398C38.7398 48.21 37.8398 49.11 37.8398 50.21V82.58C37.8398 83.68 38.7398 84.58 39.8398 84.58H79.1198C80.2198 84.58 81.1198 83.68 81.1198 82.58V50.21C81.1198 49.11 80.2198 48.21 79.1198 48.21ZM57.4898 59.74H41.8398V52.22H48.9498H57.4998V59.74H57.4898ZM61.4898 52.21H70.7898H77.1098V59.73H61.4898V52.21ZM71.2398 43.48C72.2698 43.24 73.2698 43.43 73.9898 44.01C74.5598 44.46 74.8698 45.09 74.8698 45.78C74.8698 48.16 71.2098 48.22 70.7898 48.22H64.3098C66.7098 46.01 69.4598 43.89 71.2398 43.48ZM44.8598 45.77C44.8598 45.08 45.1698 44.45 45.7398 44C46.2598 43.59 46.9198 43.37 47.6298 43.37C47.9098 43.37 48.1998 43.4 48.4898 43.47C50.2698 43.88 53.0198 46.01 55.4198 48.21H48.9398C48.5298 48.21 44.8598 48.15 44.8598 45.77ZM41.8398 63.74H57.4998V80.59H41.8398V63.74ZM61.4898 80.58V63.74H77.1098V80.59H61.4898V80.58Z" fill="#0033A1"/>
</svg>
