<svg width="96" height="96" viewBox="0 0 96 96" fill="none" xmlns="http://www.w3.org/2000/svg">
<path d="M73.8 11H22C20.9 11 20 11.9 20 13V77.9C20 79 20.9 79.9 22 79.9H42.27C43.37 79.9 44.27 79 44.27 77.9C44.27 76.8 43.37 75.9 42.27 75.9H24V15H71.8V75.9H70.52C69.42 75.9 68.52 76.8 68.52 77.9C68.52 79 69.42 79.9 70.52 79.9H73.8C74.9 79.9 75.8 79 75.8 77.9V13C75.8 11.9 74.9 11 73.8 11Z" fill="#0033A1"/>
<path d="M66.6901 69.59C66.6901 63.97 62.1201 59.41 56.5101 59.41C50.9001 59.41 46.3301 63.98 46.3301 69.59C46.3301 73.16 48.1801 76.31 50.9801 78.12L48.9801 83.1C48.5701 84.13 49.0701 85.29 50.0901 85.7C50.3301 85.8 50.5901 85.84 50.8301 85.84C51.6201 85.84 52.3701 85.36 52.6901 84.58L54.6901 79.59C55.2801 79.7 55.8901 79.76 56.5101 79.76C57.1001 79.76 57.6801 79.7 58.2401 79.6L60.2301 84.58C60.5401 85.36 61.2901 85.84 62.0901 85.84C62.3401 85.84 62.5901 85.79 62.8301 85.7C63.8601 85.29 64.3501 84.13 63.9401 83.1L61.9701 78.17C64.8001 76.35 66.6901 73.19 66.6901 69.59ZM56.5101 75.77C53.1001 75.77 50.3301 73 50.3301 69.59C50.3301 66.18 53.1001 63.41 56.5101 63.41C59.9201 63.41 62.6901 66.18 62.6901 69.59C62.6901 72.99 59.9201 75.77 56.5101 75.77Z" fill="#0033A1"/>
<path d="M65.6499 21.4399H30.1499C29.0499 21.4399 28.1499 22.3399 28.1499 23.4399C28.1499 24.5399 29.0499 25.4399 30.1499 25.4399H65.6499C66.7499 25.4399 67.6499 24.5399 67.6499 23.4399C67.6499 22.3399 66.7499 21.4399 65.6499 21.4399Z" fill="#0033A1"/>
<path d="M30.1499 35.42H62.0299C63.1299 35.42 64.0299 34.52 64.0299 33.42C64.0299 32.32 63.1299 31.42 62.0299 31.42H30.1499C29.0499 31.42 28.1499 32.32 28.1499 33.42C28.1499 34.52 29.0399 35.42 30.1499 35.42Z" fill="#0033A1"/>
<path d="M65.6499 41.4H30.1499C29.0499 41.4 28.1499 42.3 28.1499 43.4C28.1499 44.5 29.0499 45.4 30.1499 45.4H65.6499C66.7499 45.4 67.6499 44.5 67.6499 43.4C67.6499 42.3 66.7499 41.4 65.6499 41.4Z" fill="#0033A1"/>
<path d="M44.2299 51.38H30.1499C29.0499 51.38 28.1499 52.28 28.1499 53.38C28.1499 54.48 29.0499 55.38 30.1499 55.38H44.2299C45.3299 55.38 46.2299 54.48 46.2299 53.38C46.2299 52.28 45.3399 51.38 44.2299 51.38Z" fill="#0033A1"/>
</svg>
