<svg width="0" height="0" class="hidden">
  <symbol fill="none" xmlns="http://www.w3.org/2000/svg" viewBox="0 0 96 96" id="service-icon-13">
    <path d="M66.08 60.19C64.98 60.19 64.08 61.09 64.08 62.19V85H17.42V38.6C18.04 38.5 18.68 38.44 19.33 38.44H23.11L20.03 41.5201C19.25 42.3001 19.25 43.57 20.03 44.35C20.42 44.74 20.93 44.94 21.44 44.94C21.95 44.94 22.46 44.74 22.85 44.35L29.34 37.8601C30.12 37.0801 30.12 35.81 29.34 35.03L22.85 28.54C22.07 27.76 20.8 27.76 20.02 28.54C19.24 29.32 19.24 30.59 20.02 31.37L23.1 34.45H19.32C18.67 34.45 18.04 34.5 17.41 34.57V25.55H64.07V45.4501C64.07 46.5501 64.97 47.4501 66.07 47.4501C67.17 47.4501 68.07 46.5501 68.07 45.4501V23.55C68.07 22.45 67.17 21.55 66.07 21.55H15.42C14.32 21.55 13.42 22.45 13.42 23.55V35.57C7.33 37.94 3 43.85 3 50.7701C3 54.9701 4.59 58.96 7.48 62.01C7.87 62.42 8.4 62.6301 8.93 62.6301C9.42 62.6301 9.92 62.4501 10.31 62.0801C11.11 61.3201 11.14 60.05 10.38 59.25C8.2 56.96 7 53.9501 7 50.7701C7 46.1101 9.6 42.0501 13.42 39.9501V87.01C13.42 88.11 14.32 89.01 15.42 89.01H66.08C67.18 89.01 68.08 88.11 68.08 87.01V62.19C68.08 61.09 67.19 60.19 66.08 60.19Z" fill="#0033A1"></path>
    <path d="M57.81 31.92H41.48C40.38 31.92 39.48 32.82 39.48 33.92C39.48 35.02 40.38 35.92 41.48 35.92H57.81C58.91 35.92 59.81 35.02 59.81 33.92C59.81 32.81 58.92 31.92 57.81 31.92Z" fill="#0033A1"></path>
    <path d="M57.81 40.09H41.48C40.38 40.09 39.48 40.99 39.48 42.09C39.48 43.19 40.38 44.09 41.48 44.09H57.81C58.91 44.09 59.81 43.19 59.81 42.09C59.81 40.99 58.92 40.09 57.81 40.09Z" fill="#0033A1"></path>
    <path d="M57.8099 48.27H23.1799C22.0799 48.27 21.1799 49.17 21.1799 50.27C21.1799 51.37 22.0799 52.27 23.1799 52.27H57.8099C58.9099 52.27 59.8099 51.37 59.8099 50.27C59.8099 49.17 58.9199 48.27 57.8099 48.27Z" fill="#0033A1"></path>
    <path d="M57.8099 56.4399H23.1799C22.0799 56.4399 21.1799 57.3399 21.1799 58.4399C21.1799 59.5399 22.0799 60.4399 23.1799 60.4399H57.8099C58.9099 60.4399 59.8099 59.5399 59.8099 58.4399C59.8099 57.3399 58.9199 56.4399 57.8099 56.4399Z" fill="#0033A1"></path>
    <path d="M57.8099 64.62H23.1299C22.0299 64.62 21.1299 65.52 21.1299 66.62C21.1299 67.72 22.0299 68.62 23.1299 68.62H57.8099C58.9099 68.62 59.8099 67.72 59.8099 66.62C59.8099 65.52 58.9199 64.62 57.8099 64.62Z" fill="#0033A1"></path>
    <path d="M57.8099 72.79H23.1299C22.0299 72.79 21.1299 73.69 21.1299 74.79C21.1299 75.89 22.0299 76.79 23.1299 76.79H57.8099C58.9099 76.79 59.8099 75.89 59.8099 74.79C59.8099 73.69 58.9199 72.79 57.8099 72.79Z" fill="#0033A1"></path>
    <path d="M92.57 39.81C92.57 35.61 90.98 31.62 88.09 28.57C87.33 27.77 86.06 27.74 85.26 28.5C84.46 29.26 84.43 30.53 85.19 31.33C87.37 33.63 88.57 36.64 88.57 39.82C88.57 44.28 86.18 48.18 82.63 50.35V9C82.63 7.9 81.73 7 80.63 7H29.96C28.86 7 27.96 7.9 27.96 9V16.44C27.96 17.54 28.86 18.44 29.96 18.44C31.06 18.44 31.96 17.54 31.96 16.44V11H78.62V51.91C77.85 52.06 77.05 52.15 76.23 52.15H72.45L75.53 49.07C76.31 48.29 76.31 47.02 75.53 46.24C74.75 45.46 73.48 45.46 72.7 46.24L66.21 52.73C65.43 53.51 65.43 54.78 66.21 55.56L72.7 62.05C73.09 62.44 73.6 62.64 74.11 62.64C74.62 62.64 75.13 62.44 75.52 62.05C76.3 61.27 76.3 60 75.52 59.22L72.44 56.14H76.22C77.03 56.14 77.83 56.06 78.61 55.94V70.46H73.14C72.04 70.46 71.14 71.36 71.14 72.46C71.14 73.56 72.04 74.46 73.14 74.46H80.61C81.71 74.46 82.61 73.56 82.61 72.46V54.84C88.46 52.35 92.57 46.55 92.57 39.81Z" fill="#0033A1"></path>
  </symbol>
  <symbol fill="none" xmlns="http://www.w3.org/2000/svg" viewBox="0 0 96 96" id="service-icon-14">
    <path d="M62.5599 48.18C62.5599 49.87 61.1899 51.25 59.4899 51.25C57.7899 51.25 56.4199 49.88 56.4199 48.18C56.4199 46.49 57.7899 45.11 59.4899 45.11C61.1799 45.11 62.5599 46.48 62.5599 48.18Z" fill="#0033A1"></path>
    <path d="M51.3998 16.07C51.3998 17.76 50.0298 19.14 48.3298 19.14C46.6298 19.14 45.2598 17.76 45.2598 16.07C45.2598 14.38 46.6298 13 48.3298 13C50.0298 13 51.3998 14.37 51.3998 16.07Z" fill="#0033A1"></path>
    <path d="M51.3998 28.92C51.3998 30.61 50.0298 31.99 48.3298 31.99C46.6298 31.99 45.2598 30.62 45.2598 28.92C45.2598 27.23 46.6298 25.85 48.3298 25.85C50.0298 25.85 51.3998 27.23 51.3998 28.92Z" fill="#0033A1"></path>
    <path d="M51.3998 41.77C51.3998 43.46 50.0298 44.84 48.3298 44.84C46.6298 44.84 45.2598 43.46 45.2598 41.77C45.2598 40.08 46.6298 38.7 48.3298 38.7C50.0298 38.7 51.3998 40.08 51.3998 41.77Z" fill="#0033A1"></path>
    <path d="M40.2601 48.18C40.2601 49.87 38.8901 51.25 37.1901 51.25C35.4901 51.25 34.1201 49.88 34.1201 48.18C34.1201 46.49 35.4901 45.11 37.1901 45.11C38.8901 45.11 40.2601 46.48 40.2601 48.18Z" fill="#0033A1"></path>
    <path d="M73.64 28.92C73.64 30.61 72.27 31.99 70.57 31.99C68.87 31.99 67.5 30.61 67.5 28.92C67.5 27.23 68.87 25.85 70.57 25.85C72.27 25.85 73.64 27.22 73.64 28.92Z" fill="#0033A1"></path>
    <path d="M62.5599 35.34C62.5599 37.04 61.1899 38.41 59.4899 38.41C57.7899 38.41 56.4199 37.04 56.4199 35.34C56.4199 33.65 57.7899 32.27 59.4899 32.27C61.1799 32.27 62.5599 33.64 62.5599 35.34Z" fill="#0033A1"></path>
    <path d="M40.2601 35.34C40.2601 37.03 38.8901 38.41 37.1901 38.41C35.4901 38.41 34.1201 37.04 34.1201 35.34C34.1201 33.65 35.4901 32.27 37.1901 32.27C38.8901 32.27 40.2601 33.64 40.2601 35.34Z" fill="#0033A1"></path>
    <path d="M73.64 54.62C73.64 56.32 72.27 57.69 70.57 57.69C68.87 57.69 67.5 56.32 67.5 54.62C67.5 52.93 68.87 51.55 70.57 51.55C72.27 51.55 73.64 52.93 73.64 54.62Z" fill="#0033A1"></path>
    <path d="M29.13 28.92C29.13 30.61 27.76 31.99 26.07 31.99C24.37 31.99 23 30.61 23 28.92C23 27.23 24.37 25.85 26.07 25.85C27.76 25.85 29.13 27.22 29.13 28.92Z" fill="#0033A1"></path>
    <path d="M29.13 54.62C29.13 56.32 27.76 57.69 26.07 57.69C24.37 57.69 23 56.32 23 54.62C23 52.93 24.37 51.55 26.07 51.55C27.76 51.55 29.13 52.93 29.13 54.62Z" fill="#0033A1"></path>
    <path d="M51.3998 54.62C51.3998 56.32 50.0298 57.69 48.3298 57.69C46.6298 57.69 45.2598 56.32 45.2598 54.62C45.2598 52.93 46.6298 51.55 48.3298 51.55C50.0298 51.55 51.3998 52.93 51.3998 54.62Z" fill="#0033A1"></path>
    <path d="M51.3998 67.47C51.3998 69.16 50.0298 70.54 48.3298 70.54C46.6298 70.54 45.2598 69.17 45.2598 67.47C45.2598 65.78 46.6298 64.4 48.3298 64.4C50.0298 64.41 51.3998 65.78 51.3998 67.47Z" fill="#0033A1"></path>
    <path d="M51.3998 80.32C51.3998 82.02 50.0298 83.39 48.3298 83.39C46.6298 83.39 45.2598 82.02 45.2598 80.32C45.2598 78.63 46.6298 77.25 48.3298 77.25C50.0298 77.26 51.3998 78.63 51.3998 80.32Z" fill="#0033A1"></path>
  </symbol>
  <symbol fill="none" xmlns="http://www.w3.org/2000/svg" viewBox="0 0 96 96" id="service-icon-15">
    <path d="M80.3201 47.61C79.2201 47.61 78.3201 46.71 78.3201 45.61V45.45C78.3201 44.47 79.0301 43.63 80.0001 43.48C84.5901 42.73 87.9301 38.82 87.9301 34.16C87.9301 28.95 83.6901 24.71 78.4801 24.71C77.7701 24.71 77.0201 24.8 76.2801 24.98C75.2901 25.22 74.2801 24.67 73.9301 23.71C72.2701 19.09 67.8801 16 63.0001 16C56.8001 16 51.7001 20.86 51.4001 27.05C51.3701 27.61 51.1101 28.14 50.6801 28.49C50.2501 28.85 49.6801 29.01 49.1301 28.93C48.7401 28.87 48.4201 28.85 48.1201 28.85C46.7501 28.85 45.4001 29.23 44.2401 29.95C43.3001 30.53 42.0701 30.24 41.4901 29.3C40.9101 28.36 41.2001 27.13 42.1401 26.55C43.8001 25.52 45.6901 24.94 47.6401 24.86C48.9401 17.51 55.3401 12 63.0001 12C69.0001 12 74.4401 15.47 77.0301 20.78C85.0701 19.88 91.9301 26.26 91.9301 34.15C91.9301 40.5 87.5601 45.9 81.4401 47.26C81.1101 47.48 80.7301 47.61 80.3201 47.61Z" fill="#0033A1"></path>
    <path d="M76.32 83.8H19.92C19.75 83.8 19.59 83.78 19.43 83.74C10.75 83.12 4 75.92 4 67.17C4 61.22 7.24 55.7 12.37 52.76C12.37 52.57 12.36 52.38 12.36 52.2C12.36 39.64 22.58 29.41 35.15 29.41C43.39 29.41 50.99 33.91 55 41.01C56.78 40.41 58.62 40.1 60.5 40.1C67.48 40.1 73.71 44.27 76.42 50.61C84.89 51.36 91.56 58.51 91.56 67.16C91.56 75.61 85.35 82.61 77.03 83.65C76.81 83.75 76.57 83.8 76.32 83.8ZM20.3 79.8H75.8C75.91 79.77 76.02 79.75 76.14 79.74C82.65 79.12 87.56 73.73 87.56 67.18C87.56 60.26 81.93 54.6 75.01 54.56C74.15 54.56 73.4 54.01 73.12 53.2C71.3 47.77 66.23 44.12 60.5 44.12C58.56 44.12 56.68 44.54 54.89 45.37C54.41 45.59 53.85 45.62 53.36 45.43C52.86 45.25 52.45 44.87 52.23 44.39C49.18 37.73 42.47 33.42 35.15 33.42C24.79 33.42 16.36 41.85 16.36 52.21C16.36 52.71 16.38 53.22 16.43 53.78C16.5 54.61 16.04 55.4 15.29 55.76C10.86 57.82 8 62.31 8 67.17C8 73.91 13.28 79.44 20.02 79.76C20.12 79.77 20.21 79.78 20.3 79.8Z" fill="#0033A1"></path>
  </symbol>
  <symbol fill="none" xmlns="http://www.w3.org/2000/svg" viewBox="0 0 96 96" id="service-icon-16">
    <path d="M71.9906 85.6H26.6406C22.2306 85.6 18.6406 82.01 18.6406 77.6V33C18.6406 31.9 19.5406 31 20.6406 31C21.7406 31 22.6406 31.9 22.6406 33V77.6C22.6406 79.8 24.4306 81.6 26.6406 81.6H71.9906C73.1006 81.6 73.9906 80.7 73.9906 79.6V74.92C73.9906 73.82 74.8906 72.92 75.9906 72.92C77.0906 72.92 77.9906 73.82 77.9906 74.92V79.6C77.9906 82.91 75.3006 85.6 71.9906 85.6Z" fill="#0033A1"></path>
    <path d="M75.9906 65.6C74.8906 65.6 73.9906 64.7 73.9906 63.6V19C73.9906 16.79 72.2006 15 69.9906 15H24.6406C23.5406 15 22.6406 15.9 22.6406 17V22C22.6406 23.1 21.7406 24 20.6406 24C19.5406 24 18.6406 23.1 18.6406 22V17C18.6406 13.69 21.3306 11 24.6406 11H69.9906C74.4006 11 77.9906 14.59 77.9906 19V63.6C77.9906 64.7 77.1006 65.6 75.9906 65.6Z" fill="#0033A1"></path>
    <path d="M67.02 25.54H30C28.9 25.54 28 24.64 28 23.54C28 22.44 28.9 21.54 30 21.54H67.02C68.12 21.54 69.02 22.44 69.02 23.54C69.02 24.64 68.13 25.54 67.02 25.54Z" fill="#0033A1"></path>
    <path d="M67.02 34.64H30C28.9 34.64 28 33.74 28 32.64C28 31.54 28.9 30.64 30 30.64H67.02C68.12 30.64 69.02 31.54 69.02 32.64C69.02 33.74 68.13 34.64 67.02 34.64Z" fill="#0033A1"></path>
    <path d="M67.02 43.73H35C33.9 43.73 33 42.83 33 41.73C33 40.63 33.9 39.73 35 39.73H67.02C68.12 39.73 69.02 40.63 69.02 41.73C69.02 42.83 68.13 43.73 67.02 43.73Z" fill="#0033A1"></path>
    <path d="M63.02 52.8201H30C28.9 52.8201 28 51.9201 28 50.8201C28 49.7201 28.9 48.8201 30 48.8201H63.02C64.12 48.8201 65.02 49.7201 65.02 50.8201C65.02 51.9201 64.13 52.8201 63.02 52.8201Z" fill="#0033A1"></path>
    <path d="M63.02 61.92H30C28.9 61.92 28 61.02 28 59.92C28 58.82 28.9 57.92 30 57.92H63.02C64.12 57.92 65.02 58.82 65.02 59.92C65.02 61.02 64.13 61.92 63.02 61.92Z" fill="#0033A1"></path>
    <path d="M67.02 71.01H30C28.9 71.01 28 70.11 28 69.01C28 67.91 28.9 67.01 30 67.01H67.02C68.12 67.01 69.02 67.91 69.02 69.01C69.02 70.11 68.13 71.01 67.02 71.01Z" fill="#0033A1"></path>
    <path d="M75.9884 65.6C75.4784 65.6 74.9684 65.4 74.5784 65.01L67.1084 57.54C66.3284 56.76 66.3284 55.49 67.1084 54.71C67.8884 53.93 69.1584 53.93 69.9384 54.71L75.9984 60.77L82.0584 54.71C82.8384 53.93 84.1084 53.93 84.8884 54.71C85.6684 55.49 85.6684 56.76 84.8884 57.54L77.4184 65.01C77.0184 65.4 76.4984 65.6 75.9884 65.6Z" fill="#0033A1"></path>
    <path d="M28.2811 42.64C27.7711 42.64 27.2611 42.44 26.8711 42.05L20.6411 35.82L14.4111 42.05C13.6311 42.83 12.3611 42.83 11.5811 42.05C10.8011 41.27 10.8011 40 11.5811 39.22L19.2211 31.58C20.0011 30.8 21.2711 30.8 22.0511 31.58L29.6911 39.22C30.4711 40 30.4711 41.27 29.6911 42.05C29.3111 42.45 28.7911 42.64 28.2811 42.64Z" fill="#0033A1"></path>
  </symbol>
  <symbol fill="none" xmlns="http://www.w3.org/2000/svg" viewBox="0 0 96 96" id="service-icon-17">
    <path d="M80.83 87.98H22.86C21.76 87.98 20.86 87.08 20.86 85.98C20.86 84.88 21.76 83.98 22.86 83.98H78.83V43.91C78.83 26.87 64.96 13 47.91 13C30.87 13 17 26.87 17 43.91V85.97C17 87.07 16.1 87.97 15 87.97C13.9 87.97 13 87.07 13 85.97V43.91C13 24.66 28.66 9 47.91 9C67.16 9 82.83 24.66 82.83 43.91V85.97C82.83 87.08 81.93 87.98 80.83 87.98Z" fill="#0033A1"></path>
    <path d="M59.4901 72.5601H36.3301C35.2301 72.5601 34.3301 71.6601 34.3301 70.5601V55.7601C34.3301 48.2701 40.4201 42.1801 47.9101 42.1801C55.4001 42.1801 61.4901 48.2701 61.4901 55.7601V70.5601C61.4901 71.6701 60.6001 72.5601 59.4901 72.5601ZM38.3301 68.5601H57.4901V55.7601C57.4901 50.4801 53.1901 46.1801 47.9101 46.1801C42.6301 46.1801 38.3301 50.4801 38.3301 55.7601V68.5601Z" fill="#0033A1"></path>
  </symbol>
  <symbol fill="none" xmlns="http://www.w3.org/2000/svg" viewBox="0 0 96 96" id="service-icon-18">
    <path d="M76.28 22.09C76.26 22.07 76.25 22.04 76.23 22.02C76.14 21.91 76.04 21.82 75.93 21.73C68.95 14.5 59.18 10 48.37 10C37.53 10 27.73 14.52 20.75 21.78C20.72 21.8 20.7 21.82 20.67 21.84C20.59 21.91 20.53 22 20.46 22.08C13.98 28.95 10 38.2 10 48.36C10 69.51 27.21 86.73 48.37 86.73C69.52 86.73 86.73 69.52 86.73 48.36C86.73 38.2 82.75 28.96 76.28 22.09ZM74.48 70.67C71.26 68.16 68.11 66.21 65.06 64.71C67.06 60 68.18 55.21 68.43 50.37H82.67C82.22 58.09 79.21 65.13 74.48 70.67ZM14.06 50.36H28.28C28.52 55.12 29.6 59.83 31.54 64.46C27.18 66.56 23.95 69.03 22.16 70.56C17.48 65.05 14.51 58.04 14.06 50.36ZM22.19 26.14C23.96 27.66 27.15 30.09 31.44 32.17C29.73 36.42 28.52 41.19 28.27 46.36H14.06C14.51 38.67 17.49 31.66 22.19 26.14ZM46.37 32.16C42.82 32 39.59 31.26 36.75 30.23C39.77 24.21 43.66 19.52 46.37 16.66V32.16ZM46.37 36.08V46.37H32.28C32.53 41.81 33.62 37.58 35.16 33.76C38.45 34.98 42.22 35.88 46.37 36.08ZM46.37 50.36V60.61C42.26 60.8 38.52 61.69 35.24 62.9C33.51 58.76 32.54 54.58 32.3 50.36H46.37ZM37.9 66.13C40.72 65.22 43.54 64.71 46.37 64.56V79.46C42.39 75.2 39.24 70.87 36.93 66.47C37.25 66.36 37.57 66.24 37.9 66.13ZM50.37 64.62C53.47 64.86 56.57 65.55 59.66 66.71C57.37 71.02 54.27 75.26 50.37 79.44V64.62ZM50.37 60.66V50.36H64.42C64.17 54.65 63.17 58.9 61.39 63.11C57.53 61.64 53.84 60.89 50.37 60.66ZM50.37 46.36V36.03C53.87 35.8 57.58 35.04 61.48 33.55C63.06 37.42 64.19 41.73 64.44 46.36H50.37ZM50.37 32.09V16.7C53.03 19.51 56.82 24.08 59.81 29.93C56.49 31.18 53.34 31.85 50.37 32.09ZM53.76 14.43C60.61 15.52 66.79 18.63 71.66 23.14C68.87 25.28 66.14 26.98 63.51 28.3C60.47 22.25 56.64 17.5 53.76 14.43ZM33.02 28.65C29.27 26.8 26.49 24.64 24.93 23.27C29.82 18.7 36.04 15.54 42.94 14.44C40.01 17.57 36.08 22.44 33.02 28.65ZM33.22 68.02C35.74 72.91 39.22 77.71 43.64 82.4C36.46 81.41 29.98 78.19 24.92 73.46C26.5 72.09 29.35 69.89 33.22 68.02ZM63.34 68.31C66.13 69.69 68.92 71.44 71.69 73.57C66.65 78.24 60.21 81.41 53.07 82.39C57.4 77.8 60.83 73.1 63.34 68.31ZM68.44 46.36C68.18 41.08 66.93 36.24 65.17 31.93C68.18 30.45 71.28 28.51 74.46 26.04C79.21 31.58 82.23 38.63 82.67 46.37H68.44V46.36Z" fill="#0033A1"></path>
  </symbol>
  <symbol fill="none" xmlns="http://www.w3.org/2000/svg" viewBox="0 0 96 96" id="service-icon-19">
    <path d="M28.5201 42.64H67.0201C67.8701 42.64 68.6301 42.1 68.9101 41.3C69.1901 40.5 68.93 39.61 68.2701 39.08L48.9401 23.68C48.2101 23.1 47.17 23.1 46.4401 23.69L27.2701 39.09C26.6101 39.62 26.3501 40.51 26.6401 41.31C26.9201 42.11 27.6701 42.64 28.5201 42.64ZM47.7001 27.8L61.3001 38.64H34.2001L47.7001 27.8Z" fill="#0033A1"></path>
    <path d="M69.29 62.89H26.25C25.15 62.89 24.25 63.79 24.25 64.89C24.25 65.99 25.15 66.89 26.25 66.89H69.29C70.39 66.89 71.29 65.99 71.29 64.89C71.29 63.79 70.4 62.89 69.29 62.89Z" fill="#0033A1"></path>
    <path d="M31.1499 46.53V58.88C31.1499 59.98 32.0499 60.88 33.1499 60.88C34.2499 60.88 35.1499 59.98 35.1499 58.88V46.53C35.1499 45.43 34.2499 44.53 33.1499 44.53C32.0499 44.53 31.1499 45.42 31.1499 46.53Z" fill="#0033A1"></path>
    <path d="M60.3999 46.53V58.88C60.3999 59.98 61.2999 60.88 62.3999 60.88C63.4999 60.88 64.3999 59.98 64.3999 58.88V46.53C64.3999 45.43 63.4999 44.53 62.3999 44.53C61.2899 44.53 60.3999 45.42 60.3999 46.53Z" fill="#0033A1"></path>
    <path d="M50.6499 46.53V58.88C50.6499 59.98 51.5499 60.88 52.6499 60.88C53.7499 60.88 54.6499 59.98 54.6499 58.88V46.53C54.6499 45.43 53.7499 44.53 52.6499 44.53C51.5499 44.53 50.6499 45.42 50.6499 46.53Z" fill="#0033A1"></path>
    <path d="M40.8999 46.53V58.88C40.8999 59.98 41.7999 60.88 42.8999 60.88C43.9999 60.88 44.8999 59.98 44.8999 58.88V46.53C44.8999 45.43 43.9999 44.53 42.8999 44.53C41.7999 44.53 40.8999 45.42 40.8999 46.53Z" fill="#0033A1"></path>
    <path d="M41.9601 82.79C27.5701 82.79 15.6901 71.82 14.2501 57.8L16.7901 60.35C17.1801 60.74 17.6901 60.94 18.2001 60.94C18.7101 60.94 19.2201 60.74 19.6101 60.36C20.3901 59.58 20.3901 58.31 19.6101 57.53L13.5101 51.42C12.7601 50.67 11.4301 50.67 10.6801 51.42L4.58012 57.53C3.80012 58.31 3.80012 59.58 4.58012 60.36C5.36012 61.14 6.63012 61.14 7.41012 60.36L10.2101 57.55C11.5401 73.9 25.2601 86.8 41.9501 86.8C43.0501 86.8 43.9501 85.9 43.9501 84.8C43.9501 83.7001 43.0601 82.79 41.9601 82.79Z" fill="#0033A1"></path>
    <path d="M90.9603 37.17C90.1803 36.39 88.9103 36.39 88.1303 37.17L85.3803 39.93C84.3803 23.26 70.5103 10 53.5903 10C52.4903 10 51.5903 10.9 51.5903 12C51.5903 13.1 52.4903 14 53.5903 14C68.2503 14 80.2903 25.39 81.3603 39.78L78.7603 37.17C77.9803 36.39 76.7103 36.39 75.9303 37.17C75.1503 37.95 75.1503 39.22 75.9303 40L82.0303 46.11C82.4103 46.49 82.9103 46.7 83.4503 46.7C83.9803 46.7 84.4903 46.49 84.8703 46.11L90.9703 40C91.7403 39.22 91.7403 37.95 90.9603 37.17Z" fill="#0033A1"></path>
  </symbol>
  <symbol fill="none" xmlns="http://www.w3.org/2000/svg" viewBox="0 0 96 96" id="service-icon-20">
    <path d="M81.8 22.45H80.8H63.63V17.87C64.4 17.59 64.94 16.86 64.94 16C64.94 14.9 64.04 14 62.94 14H61.63H35.17H33.86C32.76 14 31.86 14.9 31.86 16C31.86 16.86 32.41 17.59 33.17 17.87V22.45H16H15C12.24 22.45 10 24.69 10 27.45V28.41C10 28.42 10 28.44 10 28.45V75.7C10 79.01 12.69 81.7 16 81.7H80.8C84.11 81.7 86.8 79.01 86.8 75.7V44.87V28.45V27.45C86.8 24.69 84.56 22.45 81.8 22.45ZM37.17 18H59.63V22.45H37.17V18ZM80.8 26.45C81.9 26.45 82.8 27.35 82.8 28.45V44.87C82.8 45.58 82.14 46.41 81.44 46.56C81.34 46.58 71.81 48.63 56.47 49.33V48.99C56.47 45.83 54.21 43.25 51.43 43.25H45.36C42.58 43.25 40.32 45.82 40.32 48.99V49.34C24.97 48.64 15.45 46.59 15.35 46.57C14.66 46.4 14 45.58 14 44.87V28.43C14.01 27.34 14.9 26.45 16 26.45H80.8ZM44.33 52.83V48.97C44.33 47.91 44.94 47.23 45.37 47.23H51.44C51.86 47.23 52.48 47.91 52.48 48.97V52.83H52.18H44.63H44.33ZM45.63 56.83H51.18V60.11C50.79 60.25 49.86 60.5 48.4 60.5C46.93 60.5 46 60.24 45.63 60.11V56.83ZM80.8 77.7H16C14.9 77.7 14 76.8 14 75.7V50.3C14.17 50.36 14.33 50.42 14.5 50.46C14.92 50.55 24.51 52.62 40.32 53.33V54.83C40.32 55.69 40.86 56.41 41.62 56.7V60.34C41.62 61.63 42.42 62.97 43.56 63.58C43.85 63.74 45.45 64.51 48.39 64.51C51.33 64.51 52.93 63.74 53.23 63.58C54.37 62.97 55.17 61.64 55.17 60.35V56.7C55.93 56.41 56.47 55.69 56.47 54.83V53.32C72.27 52.62 81.88 50.55 82.29 50.45C82.46 50.41 82.63 50.34 82.79 50.29V75.69C82.8 76.81 81.9 77.7 80.8 77.7Z" fill="#0033A1"></path>
  </symbol>
  <symbol fill="none" xmlns="http://www.w3.org/2000/svg" viewBox="0 0 96 96" id="service-icon-21">
    <path d="M59.9998 34.08C59.1398 35.42 58.8498 37.06 59.3598 38.62C60.2998 41.51 63.5998 43.04 66.7298 42.02C69.8598 41.01 71.6398 37.83 70.7098 34.94C70.0898 33.02 68.4198 31.72 66.4498 31.33C65.1298 31.08 59.9998 34.08 59.9998 34.08Z" fill="#0033A1"></path>
    <path d="M87.74 14.87C87.67 13.77 86.73 12.93 85.61 13.01C84.51 13.08 83.67 14.04 83.75 15.14C83.91 17.49 84.03 19.55 69.53 25.34C48.58 13.45 30.88 22.95 27.12 25.28C12.74 19.53 12.87 17.47 13.03 15.13C13.1 14.03 12.27 13.08 11.16 13C10.06 12.93 9.09997 13.76 9.02997 14.86C8.71997 19.47 10.09 22.44 22.89 27.86C20.18 29.44 18.12 31.9 17.16 34.87C15.57 39.79 17.26 45.04 21.03 48.51C20.57 48.66 20.15 48.96 19.89 49.42C17.93 52.84 11.83 65.27 15.53 81.63C15.74 82.56 16.57 83.19 17.48 83.19C17.63 83.19 17.77 83.17 17.92 83.14C19 82.9 19.67 81.82 19.43 80.75C16.75 68.87 19.71 57.8 23.37 51.4C23.55 51.09 23.62 50.75 23.63 50.41C24.52 50.92 25.47 51.36 26.49 51.69C27.99 52.18 29.55 52.42 31.09 52.42C33.34 52.42 35.57 51.91 37.55 50.89C40.62 49.32 42.88 46.7 43.91 43.53C44.21 42.61 44.39 41.67 44.47 40.72C45.74 42.79 46.23 44.67 46.39 46.02C46.25 47.56 46.4 48.57 46.42 48.72C46.42 48.74 46.43 48.76 46.44 48.78C46.45 48.85 46.47 48.92 46.49 48.99C46.51 49.04 46.52 49.1 46.55 49.15C46.57 49.21 46.6 49.27 46.63 49.33C46.66 49.38 46.69 49.43 46.72 49.48C46.76 49.53 46.79 49.59 46.83 49.64C46.86 49.68 46.9 49.72 46.93 49.76C46.98 49.81 47.03 49.87 47.09 49.92C47.12 49.94 47.14 49.96 47.17 49.98C47.43 50.18 47.73 50.33 48.07 50.39C48.18 50.41 48.29 50.42 48.4 50.42C49.18 50.42 49.87 49.96 50.2 49.27C50.2 49.26 50.21 49.26 50.21 49.25C50.26 49.15 50.29 49.05 50.32 48.94C50.33 48.91 50.34 48.88 50.34 48.85C50.35 48.81 50.36 48.77 50.37 48.73C50.39 48.58 50.54 47.57 50.41 46.04C50.58 44.7 51.06 42.81 52.33 40.75C52.41 41.7 52.59 42.64 52.89 43.55C53.98 46.92 56.41 49.62 59.74 51.15C61.61 52.01 63.64 52.45 65.69 52.45C67.23 52.45 68.79 52.2 70.31 51.71C71.33 51.38 72.28 50.94 73.17 50.43C73.17 50.77 73.25 51.11 73.43 51.42C77.09 57.82 80.05 68.88 77.36 80.76C77.12 81.84 77.79 82.91 78.87 83.15C79.02 83.18 79.17 83.2 79.31 83.2C80.22 83.2 81.05 82.57 81.26 81.64C84.96 65.28 78.86 52.85 76.9 49.42C76.64 48.97 76.23 48.66 75.77 48.51C79.54 45.04 81.23 39.79 79.64 34.87C78.68 31.9 76.61 29.44 73.91 27.87C86.68 22.45 88.04 19.48 87.74 14.87ZM40.09 42.3C39.39 44.46 37.84 46.25 35.72 47.33C33.32 48.55 30.4 48.76 27.71 47.88C22.44 46.17 19.41 40.88 20.96 36.09C21.96 33.01 24.6 30.79 28.03 30.14C28.14 30.12 28.25 30.08 28.36 30.04C29.05 30.31 29.76 30.58 30.5 30.85C34.25 32.18 37.12 33.72 39.32 35.32C40.54 37.53 40.83 40.03 40.09 42.3ZM42.32 32.58C42.06 32.22 41.71 31.97 41.31 31.84C38.88 30.13 35.81 28.53 31.93 27.14C37.53 24.37 49.81 20.25 64.54 27.24C60.81 28.6 57.83 30.17 55.45 31.83C55.04 31.96 54.68 32.21 54.42 32.59C51.47 34.86 49.58 37.26 48.37 39.49C47.18 37.25 45.28 34.85 42.32 32.58ZM68.74 30.16C72.16 30.8 74.81 33.03 75.81 36.1C77.36 40.89 74.33 46.18 69.06 47.89C66.48 48.73 63.75 48.59 61.4 47.5C59.1 46.44 57.42 44.59 56.68 42.29C55.94 40.03 56.23 37.53 57.45 35.35C59.66 33.74 62.54 32.19 66.31 30.86C67.04 30.59 67.74 30.32 68.42 30.06C68.52 30.1 68.63 30.14 68.74 30.16Z" fill="#0033A1"></path>
    <path d="M30.3302 31.3399C28.3702 31.7299 26.7002 33.0299 26.0702 34.9499C25.1302 37.8399 26.9202 41.0099 30.0502 42.0299C33.1802 43.0499 36.4902 41.5199 37.4202 38.6299C37.9202 37.0699 37.6402 35.4299 36.7802 34.0899C36.7702 34.0799 31.6502 31.0799 30.3302 31.3399Z" fill="#0033A1"></path>
  </symbol>
  <symbol fill="none" xmlns="http://www.w3.org/2000/svg" viewBox="0 0 96 96" id="service-icon-22">
    <path d="M62.3402 87.93C52.8202 87.93 40.1602 87.05 40.1602 79.47C40.1602 78.87 40.7502 72.02 41.0002 70.71C41.3102 69.11 42.5102 67.65 44.4702 66.49C45.1802 66.07 47.9102 64.81 52.5702 62.75C53.5802 62.31 54.7602 62.76 55.2102 63.77C55.6602 64.78 55.2002 65.96 54.1902 66.41C49.1802 68.62 46.9402 69.68 46.5102 69.93C45.5102 70.52 45.0002 71.12 44.9302 71.45C44.7402 72.44 44.1802 78.84 44.1602 79.49C44.1602 81.62 48.9402 83.93 62.3402 83.93C74.1102 83.93 78.1702 82.31 79.5002 80.96C79.9002 80.56 80.0802 80.14 80.0802 79.62C80.0202 78.95 79.5902 73.84 79.2902 71.28C79.2002 71.12 78.8702 70.62 77.8502 70.09C76.3302 69.31 72.2402 67.41 69.9402 66.34C68.9402 65.88 68.5002 64.69 68.9602 63.68C69.4202 62.68 70.6102 62.24 71.6202 62.7C74.4602 64.02 78.1702 65.75 79.6702 66.52C82.6902 68.07 83.1602 70.12 83.2302 70.51C83.5802 73.32 84.0602 79.1 84.0802 79.35C84.0802 79.39 84.0902 79.44 84.0902 79.48C84.1202 81.1 83.5202 82.58 82.3702 83.76C79.5202 86.64 73.3402 87.93 62.3402 87.93Z" fill="#0033A1"></path>
    <path d="M61.71 64.75C60.19 64.75 59.25 64.28 58.76 63.94C56.86 62.93 55.09 61.28 53.64 59.17C52.62 57.67 52.21 54.08 52.08 52.6C51.05 44.97 51.69 43.3 53.79 40.5L53.89 40.36C56.03 37.51 60.91 37.37 61.86 37.37C62.29 37.37 66.1 37.44 69.16 39.99C72.1 42.44 71.78 46.64 71.49 50.35C71.43 51.11 71.37 51.88 71.34 52.62C71.18 56.42 70.64 57.7 70 58.87L69.87 59.12C69.22 60.39 66.68 63.13 65.42 63.92C64.12 64.73 62.58 64.76 62.06 64.75C61.95 64.75 61.83 64.75 61.71 64.75ZM61.08 60.67C61.15 60.7 61.35 60.75 61.72 60.75C61.8 60.75 61.87 60.75 61.96 60.74C62.05 60.73 62.15 60.74 62.24 60.74C62.7 60.74 63.11 60.65 63.33 60.51C64.03 60.07 66 57.92 66.33 57.29C66.39 57.17 66.45 57.06 66.52 56.94C66.86 56.32 67.24 55.62 67.37 52.44C67.4 51.65 67.46 50.84 67.53 50.03C67.75 47.15 67.98 44.18 66.63 43.05C64.62 41.38 61.93 41.36 61.9 41.36C60.38 41.37 57.82 41.81 57.12 42.75L57 42.9C55.65 44.7 55.15 45.37 56.06 52.17C56.24 54.25 56.65 56.43 56.95 56.93C57.72 58.05 59.01 59.59 60.75 60.47C60.87 60.52 60.97 60.59 61.08 60.67Z" fill="#0033A1"></path>
    <path d="M86.11 65.95H82.89C81.79 65.95 80.89 65.05 80.89 63.95C80.89 62.85 81.79 61.95 82.89 61.95H84.11V12H12V61.95H39.72C40.82 61.95 41.72 62.85 41.72 63.95C41.72 65.05 40.82 65.95 39.72 65.95H10C8.9 65.95 8 65.05 8 63.95V10C8 8.9 8.9 8 10 8H86.11C87.21 8 88.11 8.9 88.11 10V63.95C88.11 65.05 87.22 65.95 86.11 65.95Z" fill="#0033A1"></path>
  </symbol>
  <symbol fill="none" xmlns="http://www.w3.org/2000/svg" viewBox="0 0 96 96" id="service-icon-23">
    <path d="M32.6798 35.61C31.9298 35.3 31.0698 35.47 30.4998 36.04L16.5998 49.94C16.2198 50.32 16.0098 50.82 16.0098 51.35C16.0098 51.88 16.2198 52.39 16.5998 52.76L30.4998 66.66C31.0698 67.23 31.9298 67.4 32.6798 67.09C33.4298 66.78 33.9098 66.05 33.9098 65.24V57.35H64.8098V65.24C64.8098 66.05 65.2998 66.78 66.0398 67.09C66.2898 67.19 66.5498 67.24 66.8098 67.24C67.3298 67.24 67.8398 67.04 68.2198 66.65L82.1198 52.75C82.4998 52.37 82.7098 51.87 82.7098 51.34C82.7098 50.81 82.4998 50.3 82.1198 49.93L68.2198 36.03C67.6498 35.46 66.7898 35.29 66.0398 35.6C65.2898 35.91 64.8098 36.64 64.8098 37.45V45.28H33.9098V37.45C33.9098 36.65 33.4298 35.92 32.6798 35.61ZM66.8098 49.28C67.3398 49.28 67.8498 49.07 68.2198 48.69C68.5998 48.31 68.8098 47.81 68.8098 47.28V42.28L77.8798 51.35L68.8098 60.42V55.35C68.8098 54.25 67.9098 53.35 66.8098 53.35H31.9098C30.8098 53.35 29.9098 54.25 29.9098 55.35V60.42L20.8398 51.35L29.9098 42.28V47.28C29.9098 48.38 30.8098 49.28 31.9098 49.28H66.8098Z" fill="#0033A1"></path>
    <path d="M85.0001 80.0299H55.0601V63.5699C55.0601 62.4699 54.1601 61.5699 53.0601 61.5699C51.9601 61.5699 51.0601 62.4699 51.0601 63.5699V82.0299C51.0601 83.1299 51.9601 84.0299 53.0601 84.0299H85.0001C86.1001 84.0299 87.0001 83.1299 87.0001 82.0299C87.0001 80.9299 86.1001 80.0299 85.0001 80.0299Z" fill="#0033A1"></path>
    <path d="M53.0601 41.28C54.1601 41.28 55.0601 40.38 55.0601 39.28V16H85.0001C86.1001 16 87.0001 15.1 87.0001 14C87.0001 12.9 86.1001 12 85.0001 12H53.0601C52.5301 12 52.0201 12.21 51.6501 12.59C51.2801 12.97 51.0601 13.47 51.0601 14V39.28C51.0601 40.38 51.9501 41.28 53.0601 41.28Z" fill="#0033A1"></path>
    <path d="M11 16H30.26V26.52C30.26 27.62 31.16 28.52 32.26 28.52H42.78V39.27C42.78 40.37 43.68 41.27 44.78 41.27C45.88 41.27 46.78 40.37 46.78 39.27V26.53C46.78 26.4 46.77 26.27 46.74 26.14C46.73 26.08 46.71 26.03 46.69 25.97C46.67 25.9 46.65 25.83 46.63 25.77C46.6 25.7 46.56 25.64 46.53 25.58C46.5 25.53 46.48 25.48 46.45 25.43C46.38 25.32 46.29 25.22 46.2 25.12L33.67 12.59C33.58 12.5 33.47 12.41 33.36 12.34C33.31 12.31 33.26 12.28 33.2 12.25C33.14 12.22 33.08 12.18 33.01 12.15C32.94 12.12 32.87 12.11 32.8 12.09C32.74 12.07 32.69 12.05 32.63 12.04C32.52 12.01 32.39 12 32.26 12H11C9.9 12 9 12.9 9 14C9 15.1 9.9 16 11 16ZM34.26 18.83L39.96 24.53H34.26V18.83Z" fill="#0033A1"></path>
    <path d="M44.78 61.5699C43.68 61.5699 42.78 62.4699 42.78 63.5699V80.0299H11C9.9 80.0299 9 80.9299 9 82.0299C9 83.1299 9.9 84.0299 11 84.0299H44.78C45.31 84.0299 45.82 83.8199 46.19 83.4399C46.57 83.0599 46.78 82.5599 46.78 82.0299V63.5699C46.78 62.4599 45.89 61.5699 44.78 61.5699Z" fill="#0033A1"></path>
  </symbol>
  <symbol fill="none" xmlns="http://www.w3.org/2000/svg" viewBox="0 0 96 96" id="service-icon-24">
    <path d="M67.0899 59.07C66.6699 49.09 58.4499 41.09 48.3699 41.09C38.0199 41.09 29.6099 49.51 29.6099 59.85C29.6099 70.2 38.0299 78.61 48.3699 78.61C51.6799 78.61 54.9399 77.73 57.7899 76.08C58.7399 75.52 59.0699 74.3 58.5099 73.35C57.9499 72.39 56.7299 72.07 55.7799 72.63C53.5399 73.93 50.9799 74.62 48.3699 74.62C40.2299 74.62 33.6099 68 33.6099 59.86C33.6099 51.72 40.2299 45.1 48.3699 45.1C56.4699 45.1 63.0599 51.65 63.1299 59.73C63.0599 64.86 61.0599 66.6 60.1299 66.6C59.4499 66.6 58.7299 65.56 58.7299 63.63V51.83C58.7299 50.73 57.8299 49.83 56.7299 49.83C55.6299 49.83 54.7299 50.73 54.7299 51.83V52.08C52.9599 50.67 50.7299 49.83 48.2999 49.83C42.5899 49.83 37.9399 54.48 37.9399 60.19C37.9399 65.9 42.5899 70.55 48.2999 70.55C51.1299 70.55 53.6999 69.41 55.5699 67.56C55.7399 67.9 55.9299 68.23 56.1499 68.52C57.1299 69.84 58.5799 70.59 60.1299 70.59C63.4199 70.59 66.9399 67.27 67.1199 60.01C67.1199 59.96 67.1399 59.9 67.1399 59.85C67.1399 59.8 67.1299 59.75 67.1299 59.7C67.1299 59.62 67.1399 59.54 67.1399 59.45C67.1299 59.33 67.1099 59.2 67.0899 59.07ZM48.2899 66.55C44.7799 66.55 41.9299 63.7 41.9299 60.19C41.9299 56.68 44.7799 53.83 48.2899 53.83C51.7999 53.83 54.6499 56.68 54.6499 60.19C54.6599 63.7 51.7999 66.55 48.2899 66.55Z" fill="#0033A1"></path>
    <path d="M69.7498 29.48C65.2798 27.77 54.8798 26.58 48.3198 26.58C48.3098 26.58 48.2898 26.58 48.2798 26.58C41.7198 26.58 31.2898 27.79 26.8098 29.51C23.9398 30.61 23.3998 34.63 23.3398 36.99C23.2898 37.44 23.3098 37.88 23.3898 38.3L23.7698 40.21C24.1398 42.09 25.7898 43.4 27.6398 43.4C27.8898 43.4 28.1398 43.38 28.3898 43.33L37.2398 41.61C38.2698 41.41 39.1698 40.82 39.7498 39.95C40.3398 39.08 40.5498 38.03 40.3498 36.99C40.1398 35.91 39.1098 35.16 38.0298 35.37C36.9498 35.58 36.2598 36.6 36.4698 37.68L27.6898 39.43L27.3098 37.53C27.3098 37.53 27.2998 37.47 27.3198 37.35C27.3298 37.28 27.3298 37.22 27.3298 37.15C27.3698 35.08 27.8998 33.47 28.2298 33.23C31.8498 31.84 41.3998 30.57 48.2698 30.57C48.2798 30.57 48.2998 30.57 48.3098 30.57C55.1798 30.57 64.6998 31.82 68.2798 33.19C68.6298 33.43 69.1698 34.97 69.2198 37.13C69.2198 37.2 69.2298 37.26 69.2298 37.33C69.2398 37.43 69.2398 37.48 69.2398 37.48L68.9198 39.37L60.1198 37.69C60.2998 36.62 59.5998 35.6 58.5298 35.39C57.4498 35.18 56.3998 35.89 56.1898 36.97C55.9898 38.01 56.2098 39.06 56.7998 39.93C57.3898 40.8 58.2898 41.39 59.3198 41.59L68.1698 43.3C70.3098 43.71 72.3698 42.32 72.7898 40.19L73.1698 38.26C73.2498 37.85 73.2698 37.41 73.2198 36.95C73.1598 34.58 72.6098 30.57 69.7498 29.48Z" fill="#0033A1"></path>
    <path d="M86.91 36.6999C81.81 30.7399 75.97 25.3399 69.54 20.6599C63.24 16.0999 56.33 12.2299 49 9.14993C48.51 8.93993 47.95 8.93993 47.46 9.14993C40.06 12.2299 33.12 16.1199 26.83 20.6899C20.46 25.3199 14.63 30.6899 9.48 36.6699C9.17 37.0399 9 37.5399 9 38.0199C9 38.0699 9 38.1299 9.01 38.1799C9.61 45.7799 11.19 53.5799 13.71 61.3599C16.13 68.8199 19.44 76.0299 23.54 82.7999C23.83 83.2799 24.32 83.6099 24.87 83.7199C32.35 85.5099 40.24 86.4199 48.3 86.4199C56.17 86.4199 64.05 85.4999 71.72 83.6899C72.24 83.5699 72.69 83.2399 72.97 82.7799C77.05 76.0299 80.37 68.7899 82.85 61.2499C85.2 54.0199 86.68 46.4699 87.38 38.1899C87.38 38.1299 87.39 38.0599 87.39 38.0099C87.39 37.5199 87.22 37.0599 86.91 36.6999ZM79.05 59.9999C76.76 66.9699 73.7 73.6899 69.98 79.9799C55.55 83.2599 40.25 83.1599 26.52 79.9899C22.78 73.6899 19.75 67.0099 17.51 60.1099C15.18 52.8999 13.69 45.6899 13.06 38.6499C17.87 33.1599 23.29 28.2099 29.18 23.9199C35 19.6999 41.4 16.0799 48.22 13.1699C54.98 16.0699 61.36 19.6799 67.18 23.8999C73.13 28.2299 78.55 33.1899 83.32 38.6699C82.63 46.3199 81.23 53.3099 79.05 59.9999Z" fill="#0033A1"></path>
  </symbol>
  <symbol fill="none" xmlns="http://www.w3.org/2000/svg" viewBox="0 0 96 96" id="service-icon-25">
    <path d="M73.8 11H22C20.9 11 20 11.9 20 13V77.9C20 79 20.9 79.9 22 79.9H42.27C43.37 79.9 44.27 79 44.27 77.9C44.27 76.8 43.37 75.9 42.27 75.9H24V15H71.8V75.9H70.52C69.42 75.9 68.52 76.8 68.52 77.9C68.52 79 69.42 79.9 70.52 79.9H73.8C74.9 79.9 75.8 79 75.8 77.9V13C75.8 11.9 74.9 11 73.8 11Z" fill="#0033A1"></path>
    <path d="M66.6901 69.59C66.6901 63.97 62.1201 59.41 56.5101 59.41C50.9001 59.41 46.3301 63.98 46.3301 69.59C46.3301 73.16 48.1801 76.31 50.9801 78.12L48.9801 83.1C48.5701 84.13 49.0701 85.29 50.0901 85.7C50.3301 85.8 50.5901 85.84 50.8301 85.84C51.6201 85.84 52.3701 85.36 52.6901 84.58L54.6901 79.59C55.2801 79.7 55.8901 79.76 56.5101 79.76C57.1001 79.76 57.6801 79.7 58.2401 79.6L60.2301 84.58C60.5401 85.36 61.2901 85.84 62.0901 85.84C62.3401 85.84 62.5901 85.79 62.8301 85.7C63.8601 85.29 64.3501 84.13 63.9401 83.1L61.9701 78.17C64.8001 76.35 66.6901 73.19 66.6901 69.59ZM56.5101 75.77C53.1001 75.77 50.3301 73 50.3301 69.59C50.3301 66.18 53.1001 63.41 56.5101 63.41C59.9201 63.41 62.6901 66.18 62.6901 69.59C62.6901 72.99 59.9201 75.77 56.5101 75.77Z" fill="#0033A1"></path>
    <path d="M65.6499 21.4399H30.1499C29.0499 21.4399 28.1499 22.3399 28.1499 23.4399C28.1499 24.5399 29.0499 25.4399 30.1499 25.4399H65.6499C66.7499 25.4399 67.6499 24.5399 67.6499 23.4399C67.6499 22.3399 66.7499 21.4399 65.6499 21.4399Z" fill="#0033A1"></path>
    <path d="M30.1499 35.42H62.0299C63.1299 35.42 64.0299 34.52 64.0299 33.42C64.0299 32.32 63.1299 31.42 62.0299 31.42H30.1499C29.0499 31.42 28.1499 32.32 28.1499 33.42C28.1499 34.52 29.0399 35.42 30.1499 35.42Z" fill="#0033A1"></path>
    <path d="M65.6499 41.4H30.1499C29.0499 41.4 28.1499 42.3 28.1499 43.4C28.1499 44.5 29.0499 45.4 30.1499 45.4H65.6499C66.7499 45.4 67.6499 44.5 67.6499 43.4C67.6499 42.3 66.7499 41.4 65.6499 41.4Z" fill="#0033A1"></path>
    <path d="M44.2299 51.38H30.1499C29.0499 51.38 28.1499 52.28 28.1499 53.38C28.1499 54.48 29.0499 55.38 30.1499 55.38H44.2299C45.3299 55.38 46.2299 54.48 46.2299 53.38C46.2299 52.28 45.3399 51.38 44.2299 51.38Z" fill="#0033A1"></path>
  </symbol>
  <symbol fill="none" xmlns="http://www.w3.org/2000/svg" viewBox="0 0 96 96" id="service-icon-26">
    <path d="M29.2601 66.67C28.0501 66.67 27.1501 65.91 26.5901 65.35L10.3101 49.07C8.61005 47.37 8.56005 44.66 10.1901 43.02L14.7101 38.5C16.9201 36.29 19.2501 36.26 21.3601 38.38C23.6201 40.64 27.2401 44.34 29.2301 46.37C32.7001 42.91 41.5001 34.13 45.0801 30.55C45.7501 29.88 46.7901 29 48.1601 29C49.6201 29 50.6201 30 51.1601 30.53L55.7501 35.12C58.5801 37.96 57.1001 40.28 55.9601 41.42C53.4001 43.98 48.0801 49.27 42.9801 54.33C38.2901 58.99 33.7901 63.46 31.7901 65.46C31.4901 65.76 30.5801 66.67 29.2601 66.67ZM13.0201 45.85C13.0201 45.85 12.9001 46.01 13.1401 46.25L29.2501 62.36C31.3701 60.24 35.6801 55.96 40.1601 51.51C45.2601 46.45 50.5701 41.16 53.1301 38.61C53.2101 38.53 53.2601 38.47 53.3001 38.42C53.2301 38.32 53.1201 38.17 52.9101 37.97L48.3201 33.38C48.2401 33.3 48.1801 33.24 48.1201 33.19C48.0601 33.24 47.9901 33.31 47.9001 33.4C43.4001 37.9 30.6201 50.65 30.6201 50.65C30.2401 51.02 29.7401 51.23 29.2101 51.23H29.2001C28.6701 51.23 28.1501 51.01 27.7801 50.63C27.7201 50.57 21.7401 44.44 18.5401 41.23C18.3401 41.03 18.2001 40.93 18.1201 40.88C18.0301 40.93 17.8401 41.06 17.5401 41.35L13.0201 45.85Z" fill="#0033A1"></path>
    <path d="M59.1298 66.67C57.9198 66.67 57.0198 65.92 56.4598 65.35L47.5098 56.4L50.3398 53.57L59.1198 62.35C61.2398 60.23 65.5498 55.95 70.0298 51.5C75.1198 46.44 80.4398 41.15 82.9998 38.6C83.0798 38.52 83.1298 38.46 83.1698 38.41C83.0998 38.31 82.9898 38.16 82.7798 37.96L78.1898 33.37C78.1098 33.29 78.0498 33.23 77.9898 33.18C77.9298 33.24 77.8598 33.3 77.7698 33.39C73.2698 37.89 60.4898 50.64 60.4898 50.64C60.1098 51.02 59.6298 51.23 59.0398 51.22C58.4998 51.21 57.9898 50.98 57.6198 50.59L55.5198 48.35C54.7598 47.54 54.7998 46.28 55.6098 45.52C56.4098 44.77 57.6798 44.8 58.4398 45.61L59.1298 46.35C62.6098 42.88 71.3798 34.13 74.9498 30.56C77.9898 27.51 80.2698 29.79 81.0198 30.54L85.6098 35.13C88.4398 37.96 86.9598 40.29 85.8198 41.43C83.2598 43.99 77.9398 49.28 72.8398 54.34C68.1498 59 63.6498 63.47 61.6498 65.46C61.3598 65.76 60.4498 66.67 59.1298 66.67Z" fill="#0033A1"></path>
  </symbol>
  <symbol fill="none" xmlns="http://www.w3.org/2000/svg" viewBox="0 0 96 96" id="service-icon-27">
    <path d="M66.3998 85.3H66.3198C66.2098 85.3 58.4398 85.03 54.0998 80.69C51.9098 78.5 50.2298 75.07 49.1798 72.49C48.7898 73.29 48.3198 74.34 47.7998 75.66C47.3898 76.7 46.5098 77.07 45.8198 77.07C44.1798 77.07 43.5898 76.27 43.0598 71.72C41.7098 72.96 40.2198 74.15 39.1798 74.53C38.9698 74.67 38.2598 75.57 37.7898 76.16C36.2898 78.05 34.4298 80.39 31.8298 80.39C31.5298 80.39 31.2298 80.36 30.9298 80.29C27.3798 79.5 15.9098 72.67 15.3498 65.12C14.7998 57.71 14.8898 56.33 15.9198 55.28C16.0398 55.16 16.2198 55 16.4298 54.81C16.5998 54.66 16.9098 54.37 17.1498 54.14V52.53C17.1498 51.2 18.1798 50.55 19.7298 49.57C19.7598 49.55 19.7898 49.53 19.8298 49.51C18.0898 47.49 17.0698 45.3 16.7998 43C16.7198 42.35 16.6398 41.6 16.5498 40.77C16.1898 37.45 15.5098 31.27 14.6198 29.6C13.1998 26.96 12.6698 25.24 12.6698 23.24C12.6698 23.12 12.5698 22.8 12.4698 22.52C11.9998 21.11 11.2998 18.96 12.7398 14.65L13.3698 12.14C13.5798 11.31 14.3098 10.7 15.1598 10.63C15.1598 10.63 15.3398 10.61 15.6798 10.61C17.6498 10.61 24.6198 11.14 31.4298 17.96C32.3098 18.84 33.1798 19.7 34.0398 20.55C40.2798 26.72 45.6898 32.07 47.3698 37.41C48.8698 36.03 49.7098 36.03 50.0998 36.03C50.1798 36.03 50.3198 36.04 50.3998 36.05C50.9998 36.12 52.0998 36.26 53.1398 38.92C53.6298 38.52 54.1098 38.13 54.5898 37.74C61.9998 31.66 67.8498 26.86 86.1298 26.86C88.8698 26.86 90.6298 29 90.6298 30.47C90.6298 30.56 90.2598 39.44 86.4798 43.22C83.7398 45.96 81.0498 52 81.5198 54.36C81.8898 56.22 81.2298 58.25 79.6098 60.22C79.0198 60.94 78.1098 61.84 77.1098 62.55C78.3698 64.62 79.5298 68.36 77.0598 74.55C73.3298 83.9 68.7798 85.3 66.3998 85.3ZM49.8398 66.42C50.0598 66.42 50.2798 66.46 50.4898 66.53C51.0998 66.74 51.5798 67.23 51.7598 67.85C51.7798 67.92 53.8398 74.77 56.9298 77.86C59.6898 80.62 65.3098 81.28 66.2998 81.3H66.3998C68.1798 81.3 70.9398 79.14 73.3598 73.08C75.8398 66.88 73.6898 64.47 72.8798 63.57C72.5198 63.17 71.6798 62.23 72.2398 60.98C72.3598 60.7 72.8498 59.83 74.0698 59.75C75.1798 59.35 77.9198 56.72 77.6098 55.15C76.8098 51.13 80.2598 43.79 83.6598 40.39C85.5598 38.49 86.4198 33.29 86.5998 30.96C86.4998 30.9 86.3498 30.85 86.1398 30.85C69.2898 30.85 64.1898 35.03 57.1298 40.81C55.9198 41.81 54.6598 42.84 53.2798 43.9C52.7398 44.32 52.0198 44.43 51.3798 44.19C50.7398 43.96 50.2598 43.41 50.1098 42.74C49.9698 42.11 49.7798 41.43 49.5898 40.85C49.1898 41.28 48.7498 41.8 48.3798 42.3C47.9798 42.83 47.3598 43.13 46.6898 43.09C46.0298 43.06 45.4298 42.71 45.0798 42.15C44.9798 41.99 44.0698 40.5 43.6798 39C42.5198 34.53 37.2898 29.35 31.2298 23.37C30.3698 22.52 29.4898 21.65 28.6098 20.77C23.8798 16.04 19.1298 14.92 16.8598 14.67L16.6098 15.7C16.5998 15.75 16.5798 15.81 16.5598 15.86C15.5098 18.97 15.9098 20.21 16.2698 21.3C16.4598 21.87 16.6598 22.51 16.6598 23.26C16.6598 24.35 16.8998 25.44 18.1298 27.72C19.2998 29.89 19.8998 34.73 20.5198 40.35C20.6098 41.16 20.6898 41.9 20.7598 42.54C21.0998 45.37 23.1998 47.34 23.8998 47.99C23.9998 48.08 24.0698 48.15 24.1298 48.21C24.5898 48.68 24.8098 49.31 24.7398 49.96C24.5898 51.24 23.5098 51.92 21.8598 52.96C21.6498 53.09 21.3798 53.26 21.1498 53.42V54.8C21.1498 55.93 20.3398 56.66 19.1298 57.77C19.0998 57.79 19.0798 57.81 19.0598 57.84C18.9698 58.71 19.0698 61.05 19.3498 64.83C19.7198 69.86 29.4198 75.86 31.8098 76.39C32.5098 76.39 33.9598 74.55 34.6598 73.67C35.7098 72.35 36.6098 71.21 37.7998 70.78C38.5198 70.5 41.0398 68.25 43.1898 65.96C43.7298 65.39 44.5598 65.18 45.2998 65.44C46.0498 65.7 46.5698 66.37 46.6298 67.16C46.6698 67.61 46.7098 68.08 46.7598 68.55C46.9398 68.26 47.0598 68.1 47.0898 68.05C47.2098 67.88 47.3698 67.73 47.5398 67.6L48.6698 66.79C49.0198 66.55 49.4198 66.42 49.8398 66.42Z" fill="#0033A1"></path>
  </symbol>
  <symbol fill="none" xmlns="http://www.w3.org/2000/svg" viewBox="0 0 96 96" id="service-icon-28">
    <path d="M39.2899 34.97C39.3499 34.98 39.4099 34.98 39.4799 34.98C40.2699 34.98 40.9999 34.51 41.3199 33.77L43.8399 27.92L50.1799 28.51C51.0499 28.59 51.8599 28.11 52.1999 27.31C52.5399 26.51 52.3299 25.59 51.6799 25.02L46.8899 20.82L49.4099 14.97C49.7499 14.17 49.5399 13.25 48.8899 12.68C48.2399 12.11 47.2899 12.02 46.5499 12.46L41.0699 15.7L36.2799 11.5C35.6299 10.93 34.6799 10.84 33.9399 11.28C33.1899 11.72 32.8199 12.59 33.0099 13.44L34.4099 19.65L28.9299 22.9C28.1799 23.34 27.8099 24.21 27.9999 25.06C28.1899 25.91 28.8999 26.53 29.7699 26.61L33.2299 26.93L8.58988 51.59C7.80988 52.37 7.80988 53.64 8.58988 54.42C8.97988 54.81 9.48988 55.01 9.99988 55.01C10.5099 55.01 11.0199 54.81 11.4099 54.42L36.5799 29.25L37.5199 33.42C37.7199 34.26 38.4299 34.89 39.2899 34.97ZM37.7099 22.35C38.4599 21.91 38.8299 21.04 38.6399 20.19L38.2699 18.56L39.5199 19.66C40.1699 20.23 41.1199 20.32 41.8599 19.88L43.2899 19.03L42.6299 20.56C42.2899 21.36 42.4999 22.28 43.1499 22.85L44.3999 23.95L42.7399 23.8C41.8799 23.73 41.0599 24.2 40.7199 25L40.0599 26.53L39.6899 24.9C39.4999 24.05 38.7899 23.43 37.9199 23.35L36.2599 23.2L37.7099 22.35Z" fill="#0033A1"></path>
    <path d="M77.2 30.96C82.7063 30.96 87.17 26.4963 87.17 20.99C87.17 15.4837 82.7063 11.02 77.2 11.02C71.6937 11.02 67.23 15.4837 67.23 20.99C67.23 26.4963 71.6937 30.96 77.2 30.96Z" fill="#0033A1"></path>
    <path d="M29.92 52.3099C29.92 55.8599 27.04 58.7299 23.5 58.7299C27.05 58.7299 29.92 61.6099 29.92 65.1499C29.92 61.5999 32.8 58.7299 36.34 58.7299C32.8 58.7399 29.92 55.8599 29.92 52.3099Z" fill="#0033A1"></path>
    <path d="M58.8399 34.9399C58.8399 32.7599 60.5999 30.9999 62.7799 30.9999C60.5999 30.9999 58.8399 29.2399 58.8399 27.0599C58.8399 29.2399 57.0799 30.9999 54.8999 30.9999C57.0699 30.9999 58.8399 32.7699 58.8399 34.9399Z" fill="#0033A1"></path>
    <path d="M79.1198 48.21H78.3498C78.6898 47.47 78.8698 46.65 78.8698 45.77C78.8698 43.86 77.9998 42.08 76.4798 40.87C74.7998 39.53 72.5598 39.06 70.3398 39.58C66.8498 40.39 62.3698 44.43 59.8698 46.93C57.3598 44.43 52.8898 40.39 49.3998 39.58C47.1798 39.06 44.9398 39.53 43.2598 40.87C41.7398 42.08 40.8698 43.86 40.8698 45.77C40.8698 46.65 41.0598 47.47 41.3898 48.21H39.8398C38.7398 48.21 37.8398 49.11 37.8398 50.21V82.58C37.8398 83.68 38.7398 84.58 39.8398 84.58H79.1198C80.2198 84.58 81.1198 83.68 81.1198 82.58V50.21C81.1198 49.11 80.2198 48.21 79.1198 48.21ZM57.4898 59.74H41.8398V52.22H48.9498H57.4998V59.74H57.4898ZM61.4898 52.21H70.7898H77.1098V59.73H61.4898V52.21ZM71.2398 43.48C72.2698 43.24 73.2698 43.43 73.9898 44.01C74.5598 44.46 74.8698 45.09 74.8698 45.78C74.8698 48.16 71.2098 48.22 70.7898 48.22H64.3098C66.7098 46.01 69.4598 43.89 71.2398 43.48ZM44.8598 45.77C44.8598 45.08 45.1698 44.45 45.7398 44C46.2598 43.59 46.9198 43.37 47.6298 43.37C47.9098 43.37 48.1998 43.4 48.4898 43.47C50.2698 43.88 53.0198 46.01 55.4198 48.21H48.9398C48.5298 48.21 44.8598 48.15 44.8598 45.77ZM41.8398 63.74H57.4998V80.59H41.8398V63.74ZM61.4898 80.58V63.74H77.1098V80.59H61.4898V80.58Z" fill="#0033A1"></path>
  </symbol>
  <symbol fill="none" xmlns="http://www.w3.org/2000/svg" viewBox="0 0 96 96" id="service-icon-1">
    <g clip-path="url(#clip0_247_13680)">
      <path d="M66.08 60.19C64.98 60.19 64.08 61.09 64.08 62.19V85H17.42V38.6C18.04 38.5 18.68 38.44 19.33 38.44H23.11L20.03 41.5201C19.25 42.3001 19.25 43.57 20.03 44.35C20.42 44.74 20.93 44.94 21.44 44.94C21.95 44.94 22.46 44.74 22.85 44.35L29.34 37.8601C30.12 37.0801 30.12 35.81 29.34 35.03L22.85 28.54C22.07 27.76 20.8 27.76 20.02 28.54C19.24 29.32 19.24 30.59 20.02 31.37L23.1 34.45H19.32C18.67 34.45 18.04 34.5 17.41 34.57V25.55H64.07V45.4501C64.07 46.5501 64.97 47.4501 66.07 47.4501C67.17 47.4501 68.07 46.5501 68.07 45.4501V23.55C68.07 22.45 67.17 21.55 66.07 21.55H15.42C14.32 21.55 13.42 22.45 13.42 23.55V35.57C7.33 37.94 3 43.85 3 50.7701C3 54.9701 4.59 58.96 7.48 62.01C7.87 62.42 8.4 62.6301 8.93 62.6301C9.42 62.6301 9.92 62.4501 10.31 62.0801C11.11 61.3201 11.14 60.05 10.38 59.25C8.2 56.96 7 53.9501 7 50.7701C7 46.1101 9.6 42.0501 13.42 39.9501V87.01C13.42 88.11 14.32 89.01 15.42 89.01H66.08C67.18 89.01 68.08 88.11 68.08 87.01V62.19C68.08 61.09 67.19 60.19 66.08 60.19Z" fill="#0033A1"></path>
      <path d="M57.81 31.92H41.48C40.38 31.92 39.48 32.82 39.48 33.92C39.48 35.02 40.38 35.92 41.48 35.92H57.81C58.91 35.92 59.81 35.02 59.81 33.92C59.81 32.81 58.92 31.92 57.81 31.92Z" fill="#0033A1"></path>
      <path d="M57.81 40.09H41.48C40.38 40.09 39.48 40.99 39.48 42.09C39.48 43.19 40.38 44.09 41.48 44.09H57.81C58.91 44.09 59.81 43.19 59.81 42.09C59.81 40.99 58.92 40.09 57.81 40.09Z" fill="#0033A1"></path>
      <path d="M57.8099 48.27H23.1799C22.0799 48.27 21.1799 49.17 21.1799 50.27C21.1799 51.37 22.0799 52.27 23.1799 52.27H57.8099C58.9099 52.27 59.8099 51.37 59.8099 50.27C59.8099 49.17 58.9199 48.27 57.8099 48.27Z" fill="#0033A1"></path>
      <path d="M57.8099 56.4399H23.1799C22.0799 56.4399 21.1799 57.3399 21.1799 58.4399C21.1799 59.5399 22.0799 60.4399 23.1799 60.4399H57.8099C58.9099 60.4399 59.8099 59.5399 59.8099 58.4399C59.8099 57.3399 58.9199 56.4399 57.8099 56.4399Z" fill="#0033A1"></path>
      <path d="M57.8099 64.62H23.1299C22.0299 64.62 21.1299 65.52 21.1299 66.62C21.1299 67.72 22.0299 68.62 23.1299 68.62H57.8099C58.9099 68.62 59.8099 67.72 59.8099 66.62C59.8099 65.52 58.9199 64.62 57.8099 64.62Z" fill="#0033A1"></path>
      <path d="M57.8099 72.79H23.1299C22.0299 72.79 21.1299 73.69 21.1299 74.79C21.1299 75.89 22.0299 76.79 23.1299 76.79H57.8099C58.9099 76.79 59.8099 75.89 59.8099 74.79C59.8099 73.69 58.9199 72.79 57.8099 72.79Z" fill="#0033A1"></path>
      <path d="M92.57 39.81C92.57 35.61 90.98 31.62 88.09 28.57C87.33 27.77 86.06 27.74 85.26 28.5C84.46 29.26 84.43 30.53 85.19 31.33C87.37 33.63 88.57 36.64 88.57 39.82C88.57 44.28 86.18 48.18 82.63 50.35V9C82.63 7.9 81.73 7 80.63 7H29.96C28.86 7 27.96 7.9 27.96 9V16.44C27.96 17.54 28.86 18.44 29.96 18.44C31.06 18.44 31.96 17.54 31.96 16.44V11H78.62V51.91C77.85 52.06 77.05 52.15 76.23 52.15H72.45L75.53 49.07C76.31 48.29 76.31 47.02 75.53 46.24C74.75 45.46 73.48 45.46 72.7 46.24L66.21 52.73C65.43 53.51 65.43 54.78 66.21 55.56L72.7 62.05C73.09 62.44 73.6 62.64 74.11 62.64C74.62 62.64 75.13 62.44 75.52 62.05C76.3 61.27 76.3 60 75.52 59.22L72.44 56.14H76.22C77.03 56.14 77.83 56.06 78.61 55.94V70.46H73.14C72.04 70.46 71.14 71.36 71.14 72.46C71.14 73.56 72.04 74.46 73.14 74.46H80.61C81.71 74.46 82.61 73.56 82.61 72.46V54.84C88.46 52.35 92.57 46.55 92.57 39.81Z" fill="#0033A1"></path>
    </g>
    <defs>
      <clipPath id="clip0_247_13680">
        <rect width="89.57" height="82.01" fill="white" transform="translate(3 7)"></rect>
      </clipPath>
    </defs>
  </symbol>
  <symbol fill="none" xmlns="http://www.w3.org/2000/svg" viewBox="0 0 96 96" id="service-icon-2">
    <path d="M65.12 18.51C64.61 18.51 64.09 18.31 63.7 17.92C55.04 9.18003 43.38 12.65 42.88 12.8C41.83 13.13 40.71 12.54 40.38 11.48C40.05 10.43 40.64 9.31003 41.69 8.98003C42.28 8.80003 56.14 4.60003 66.54 15.1C67.32 15.88 67.31 17.15 66.53 17.93C66.13 18.31 65.62 18.51 65.12 18.51Z" fill="#0033A1"></path>
    <path d="M72.11 33.2C71.56 33.2 71 32.97 70.61 32.52C52.79 12.31 29.36 24.39 28.37 24.91C27.4 25.43 26.19 25.06 25.67 24.08C25.15 23.11 25.52 21.9 26.49 21.38C26.76 21.24 53.68 7.26003 73.61 29.87C74.34 30.7 74.26 31.96 73.43 32.69C73.05 33.03 72.58 33.2 72.11 33.2Z" fill="#0033A1"></path>
    <path d="M76.2599 58.02C75.9099 58.02 75.5499 57.93 75.2199 57.73C71.5099 55.47 70.8999 52.36 70.3599 49.62C69.7299 46.37 68.8199 42.88 65.3599 38.94C60.4699 33.38 53.4899 30.09 46.7199 30.11C35.6299 30.17 21.4199 41.82 21.2799 41.94C20.4299 42.64 19.1699 42.52 18.4599 41.67C17.7599 40.82 17.8699 39.56 18.7299 38.85C19.3599 38.33 34.1799 26.17 46.6999 26.1C46.7399 26.1 46.7899 26.1 46.8399 26.1C54.7199 26.1 62.7599 29.9 68.3699 36.29C72.4899 40.98 73.5899 45.23 74.2899 48.85C74.7999 51.48 75.1999 53.03 77.2999 54.3C78.2399 54.87 78.5499 56.1 77.9699 57.05C77.5899 57.68 76.9299 58.02 76.2599 58.02Z" fill="#0033A1"></path>
    <path d="M73.4198 68.37C73.1898 68.37 72.9498 68.33 72.7198 68.24C62.7198 64.53 62.1598 57.7 61.7098 52.21C61.3498 47.89 57.2298 41.2 50.4198 39.74C43.3098 38.23 35.4698 43.31 31.9498 46.55C27.6598 50.5 21.4598 55.16 21.1998 55.35C20.3198 56.01 19.0598 55.83 18.3998 54.95C17.7398 54.07 17.9198 52.81 18.7998 52.15C18.8598 52.1 25.0998 47.42 29.2398 43.61C34.3098 38.93 43.1098 34.09 51.2498 35.82C59.5998 37.6 65.1498 45.35 65.6898 51.81C66.1298 57.11 66.4998 61.65 74.1198 64.48C75.1598 64.86 75.6798 66.02 75.2998 67.05C74.9998 67.87 74.2298 68.37 73.4198 68.37Z" fill="#0033A1"></path>
    <path d="M24.0399 71.5301C23.0199 71.5301 22.1499 70.7601 22.0499 69.7201C21.9399 68.6201 22.7499 67.6401 23.8499 67.5401C28.6999 67.0701 34.4599 63.1901 40.9699 55.9901C41.2599 55.6701 41.4699 55.4301 41.6099 55.2901C42.4199 54.4601 44.5699 52.2501 46.9899 52.8201C47.9599 53.0401 49.2699 53.7901 50.0199 56.0601C50.3099 56.9201 50.6899 57.4401 51.1699 57.6001C52.0499 57.8901 53.3899 57.2201 53.6899 57.0101C53.9799 56.7801 54.3499 56.1801 54.4399 55.2501C54.5299 54.3301 54.4099 52.4501 52.5399 50.2201C51.2999 48.7301 49.0099 47.8301 46.6399 47.8601C43.0499 47.9001 39.4899 49.9101 36.6299 53.5001C29.5199 62.4401 23.4599 64.0401 23.2099 64.1001C22.1399 64.3601 21.0499 63.7201 20.7799 62.6501C20.5099 61.5801 21.1599 60.5001 22.2199 60.2301C22.3499 60.1801 27.3899 58.7001 33.5099 51.0001C37.1299 46.4501 41.7799 43.9001 46.5999 43.8501C50.1899 43.8101 53.5899 45.2201 55.6099 47.6501C57.6899 50.1401 58.6899 52.9801 58.4199 55.6501C58.2299 57.5201 57.4099 59.1601 56.1599 60.1601C55.4299 60.7501 52.7399 62.2401 50.0699 61.4501C48.8199 61.0801 47.1299 60.0601 46.2299 57.3301C46.1499 57.0901 46.0799 56.9301 46.0199 56.8201C45.7699 56.9501 45.2799 57.2701 44.4799 58.1001C44.3599 58.2201 44.1799 58.4201 43.9399 58.6901C41.2599 61.6601 33.0899 70.6901 24.2299 71.5401C24.1699 71.5301 24.0999 71.5301 24.0399 71.5301Z" fill="#0033A1"></path>
    <path d="M27.4198 78.24C26.4098 78.24 25.5398 77.48 25.4298 76.45C25.3098 75.35 26.0998 74.37 27.1998 74.25C27.2598 74.24 33.0998 73.53 40.3998 68.64C48.8898 62.95 59.4098 65.11 64.2798 70.38C67.0698 73.39 69.7398 72.96 69.8498 72.94C70.9198 72.75 71.9698 73.45 72.1798 74.52C72.3898 75.59 71.7298 76.63 70.6598 76.86C70.4598 76.9 65.7398 77.86 61.3398 73.1C58.1898 69.69 50.0598 66.98 42.6198 71.97C34.4398 77.46 27.8998 78.21 27.6298 78.24C27.5698 78.24 27.4998 78.24 27.4198 78.24Z" fill="#0033A1"></path>
    <path d="M35.8699 84.48C34.9499 84.48 34.1199 83.84 33.9199 82.9C33.6899 81.82 34.3699 80.76 35.4499 80.52C35.5099 80.51 41.3499 79.22 45.5999 76.39C51.8599 72.22 55.5599 74.81 59.1399 77.32C60.3799 78.19 61.6599 79.08 63.1399 79.79C64.1399 80.27 64.5599 81.46 64.0799 82.46C63.5999 83.46 62.4099 83.88 61.4099 83.4C59.6299 82.55 58.1499 81.51 56.8399 80.59C53.4899 78.24 51.7999 77.06 47.8099 79.71C42.9199 82.97 36.5499 84.36 36.2799 84.42C36.1499 84.47 36.0099 84.48 35.8699 84.48Z" fill="#0033A1"></path>
    <path d="M46.13 88.76C45.44 88.76 44.77 88.4 44.4 87.76C43.85 86.81 44.17 85.59 45.12 85.03C45.84 84.61 52.24 81.04 56.17 84.37C57.01 85.08 57.12 86.35 56.4 87.19C55.69 88.03 54.42 88.14 53.58 87.42C52.18 86.24 48.56 87.66 47.13 88.49C46.82 88.67 46.47 88.76 46.13 88.76Z" fill="#0033A1"></path>
  </symbol>
  <symbol fill="none" xmlns="http://www.w3.org/2000/svg" viewBox="0 0 96 96" id="service-icon-3">
    <path d="M71.9906 85.6H26.6406C22.2306 85.6 18.6406 82.01 18.6406 77.6V33C18.6406 31.9 19.5406 31 20.6406 31C21.7406 31 22.6406 31.9 22.6406 33V77.6C22.6406 79.8 24.4306 81.6 26.6406 81.6H71.9906C73.1006 81.6 73.9906 80.7 73.9906 79.6V74.92C73.9906 73.82 74.8906 72.92 75.9906 72.92C77.0906 72.92 77.9906 73.82 77.9906 74.92V79.6C77.9906 82.91 75.3006 85.6 71.9906 85.6Z" fill="#0033A1"></path>
    <path d="M75.9906 65.6C74.8906 65.6 73.9906 64.7 73.9906 63.6V19C73.9906 16.79 72.2006 15 69.9906 15H24.6406C23.5406 15 22.6406 15.9 22.6406 17V22C22.6406 23.1 21.7406 24 20.6406 24C19.5406 24 18.6406 23.1 18.6406 22V17C18.6406 13.69 21.3306 11 24.6406 11H69.9906C74.4006 11 77.9906 14.59 77.9906 19V63.6C77.9906 64.7 77.1006 65.6 75.9906 65.6Z" fill="#0033A1"></path>
    <path d="M67.02 25.54H30C28.9 25.54 28 24.64 28 23.54C28 22.44 28.9 21.54 30 21.54H67.02C68.12 21.54 69.02 22.44 69.02 23.54C69.02 24.64 68.13 25.54 67.02 25.54Z" fill="#0033A1"></path>
    <path d="M67.02 34.64H30C28.9 34.64 28 33.74 28 32.64C28 31.54 28.9 30.64 30 30.64H67.02C68.12 30.64 69.02 31.54 69.02 32.64C69.02 33.74 68.13 34.64 67.02 34.64Z" fill="#0033A1"></path>
    <path d="M67.02 43.73H35C33.9 43.73 33 42.83 33 41.73C33 40.63 33.9 39.73 35 39.73H67.02C68.12 39.73 69.02 40.63 69.02 41.73C69.02 42.83 68.13 43.73 67.02 43.73Z" fill="#0033A1"></path>
    <path d="M63.02 52.8201H30C28.9 52.8201 28 51.9201 28 50.8201C28 49.7201 28.9 48.8201 30 48.8201H63.02C64.12 48.8201 65.02 49.7201 65.02 50.8201C65.02 51.9201 64.13 52.8201 63.02 52.8201Z" fill="#0033A1"></path>
    <path d="M63.02 61.92H30C28.9 61.92 28 61.02 28 59.92C28 58.82 28.9 57.92 30 57.92H63.02C64.12 57.92 65.02 58.82 65.02 59.92C65.02 61.02 64.13 61.92 63.02 61.92Z" fill="#0033A1"></path>
    <path d="M67.02 71.01H30C28.9 71.01 28 70.11 28 69.01C28 67.91 28.9 67.01 30 67.01H67.02C68.12 67.01 69.02 67.91 69.02 69.01C69.02 70.11 68.13 71.01 67.02 71.01Z" fill="#0033A1"></path>
    <path d="M75.9884 65.6C75.4784 65.6 74.9684 65.4 74.5784 65.01L67.1084 57.54C66.3284 56.76 66.3284 55.49 67.1084 54.71C67.8884 53.93 69.1584 53.93 69.9384 54.71L75.9984 60.77L82.0584 54.71C82.8384 53.93 84.1084 53.93 84.8884 54.71C85.6684 55.49 85.6684 56.76 84.8884 57.54L77.4184 65.01C77.0184 65.4 76.4984 65.6 75.9884 65.6Z" fill="#0033A1"></path>
    <path d="M28.2811 42.64C27.7711 42.64 27.2611 42.44 26.8711 42.05L20.6411 35.82L14.4111 42.05C13.6311 42.83 12.3611 42.83 11.5811 42.05C10.8011 41.27 10.8011 40 11.5811 39.22L19.2211 31.58C20.0011 30.8 21.2711 30.8 22.0511 31.58L29.6911 39.22C30.4711 40 30.4711 41.27 29.6911 42.05C29.3111 42.45 28.7911 42.64 28.2811 42.64Z" fill="#0033A1"></path>
  </symbol>
  <symbol fill="none" xmlns="http://www.w3.org/2000/svg" viewBox="0 0 96 96" id="service-icon-4">
    <path d="M72 52.38C70.49 52.38 69.26 53.61 69.26 55.12C69.26 56.63 70.49 57.86 72 57.86C73.51 57.86 74.74 56.63 74.74 55.12C74.74 53.61 73.51 52.38 72 52.38Z" fill="#0033A1"></path>
    <path d="M72.0001 45.1899C69.1701 45.1899 66.51 46.2899 64.51 48.2899C63.73 49.0699 63.73 50.3399 64.51 51.1199C64.9 51.5099 65.41 51.7099 65.92 51.7099C66.43 51.7099 66.9401 51.5099 67.3301 51.1199C68.5801 49.8699 70.2301 49.1899 71.9901 49.1899C73.7501 49.1899 75.4101 49.8799 76.6501 51.1199C77.4301 51.8999 78.7001 51.8999 79.4801 51.1199C80.2601 50.3399 80.2601 49.0699 79.4801 48.2899C77.4901 46.2899 74.8301 45.1899 72.0001 45.1899Z" fill="#0033A1"></path>
    <path d="M83.9099 42.95C80.7299 39.77 76.4999 38.02 72.0099 38.02H71.9999C67.4999 38.02 63.2699 39.78 60.0899 42.96C59.3099 43.74 59.3099 45.01 60.0899 45.79C60.4799 46.18 60.9899 46.38 61.4999 46.38C62.0099 46.38 62.5199 46.18 62.9099 45.79C65.3299 43.36 68.5599 42.03 71.9899 42.03C71.9899 42.03 71.9899 42.03 71.9999 42.03C75.4299 42.03 78.6499 43.36 81.0699 45.79C81.8499 46.57 83.1199 46.57 83.8999 45.79C84.6899 45 84.6899 43.73 83.9099 42.95Z" fill="#0033A1"></path>
    <path d="M33.3801 46.29H32.5701C31.4701 46.29 30.5701 47.19 30.5701 48.29C30.5701 49.39 31.4701 50.29 32.5701 50.29H33.3801C34.4801 50.29 35.3801 49.39 35.3801 48.29C35.3801 47.19 34.4901 46.29 33.3801 46.29Z" fill="#0033A1"></path>
    <path d="M41.82 46.29H41.01C39.91 46.29 39.01 47.19 39.01 48.29C39.01 49.39 39.91 50.29 41.01 50.29H41.82C42.92 50.29 43.82 49.39 43.82 48.29C43.82 47.19 42.92 46.29 41.82 46.29Z" fill="#0033A1"></path>
    <path d="M33.3801 52.35H32.5701C31.4701 52.35 30.5701 53.25 30.5701 54.35C30.5701 55.45 31.4701 56.35 32.5701 56.35H33.3801C34.4801 56.35 35.3801 55.45 35.3801 54.35C35.3801 53.25 34.4901 52.35 33.3801 52.35Z" fill="#0033A1"></path>
    <path d="M41.82 52.35H41.01C39.91 52.35 39.01 53.25 39.01 54.35C39.01 55.45 39.91 56.35 41.01 56.35H41.82C42.92 56.35 43.82 55.45 43.82 54.35C43.82 53.25 42.92 52.35 41.82 52.35Z" fill="#0033A1"></path>
    <path d="M33.3801 58.42H32.5701C31.4701 58.42 30.5701 59.32 30.5701 60.42C30.5701 61.52 31.4701 62.42 32.5701 62.42H33.3801C34.4801 62.42 35.3801 61.52 35.3801 60.42C35.3801 59.32 34.4901 58.42 33.3801 58.42Z" fill="#0033A1"></path>
    <path d="M41.82 58.42H41.01C39.91 58.42 39.01 59.32 39.01 60.42C39.01 61.52 39.91 62.42 41.01 62.42H41.82C42.92 62.42 43.82 61.52 43.82 60.42C43.82 59.32 42.92 58.42 41.82 58.42Z" fill="#0033A1"></path>
    <path d="M45.59 41.8101C45.59 40.7101 44.6901 39.8101 43.59 39.8101H30.8C29.7 39.8101 28.8 40.7101 28.8 41.8101C28.8 42.9101 29.7 43.8101 30.8 43.8101H43.59C44.7 43.8101 45.59 42.9101 45.59 41.8101Z" fill="#0033A1"></path>
    <path d="M72 61.59C70.9 61.59 70 62.49 70 63.59V69H22V33.47H51.82C52.92 33.47 53.82 32.57 53.82 31.47V16C53.82 14.9 52.92 14 51.82 14H14C12.9 14 12 14.9 12 16V31.47C12 32.57 12.9 33.47 14 33.47H18V71C18 72.1 18.9 73 20 73H72C73.1 73 74 72.1 74 71V63.59C74 62.48 73.1 61.59 72 61.59ZM16 18H49.82V29.47H16V18Z" fill="#0033A1"></path>
    <path d="M59.8301 27.73H70.0001V32.65C70.0001 33.75 70.9001 34.65 72.0001 34.65C73.1001 34.65 74.0001 33.75 74.0001 32.65V25.73C74.0001 24.63 73.1001 23.73 72.0001 23.73H59.8301C58.7301 23.73 57.8301 24.63 57.8301 25.73C57.8301 26.83 58.7301 27.73 59.8301 27.73Z" fill="#0033A1"></path>
    <path d="M71.9999 78.01H20.1899C19.0899 78.01 18.1899 78.91 18.1899 80.01C18.1899 81.11 19.0899 82.01 20.1899 82.01H71.9999C73.0999 82.01 73.9999 81.11 73.9999 80.01C73.9999 78.91 73.0999 78.01 71.9999 78.01Z" fill="#0033A1"></path>
  </symbol>
  <symbol fill="none" xmlns="http://www.w3.org/2000/svg" viewBox="0 0 96 96" id="service-icon-5">
    <path d="M87.67 39.6501H63.67L54.51 18.2201C54.08 17.2001 52.9 16.7301 51.89 17.1701C50.87 17.6001 50.4 18.7801 50.84 19.7901L59.32 39.6501H38.27L46.75 19.7901C47.18 18.7701 46.71 17.6001 45.7 17.1701C44.68 16.7401 43.51 17.2101 43.08 18.2201L33.92 39.6601H9C7.9 39.6601 7 40.5601 7 41.6601C7 42.7601 7.9 43.6601 9 43.6601H10.2L18.86 76.8901C19.09 77.7701 19.89 78.3901 20.8 78.3901H76.38C77.3 78.3901 78.09 77.7701 78.32 76.8801L86.75 43.6701H87.67C88.77 43.6701 89.67 42.7701 89.67 41.6701C89.67 40.5501 88.77 39.6501 87.67 39.6501ZM74.82 74.3701H22.35L20.37 66.7801H71.2C72.3 66.7801 73.2 65.8801 73.2 64.7801C73.2 63.6801 72.3 62.7801 71.2 62.7801H19.32L17.35 55.2201H73.89C74.99 55.2201 75.89 54.3201 75.89 53.2201C75.89 52.1201 74.99 51.2201 73.89 51.2201H16.31L14.34 43.6601H35.24H62.34H82.6L74.82 74.3701Z" fill="#0033A1"></path>
  </symbol>
  <symbol fill="none" xmlns="http://www.w3.org/2000/svg" viewBox="0 0 96 96" id="service-icon-6">
    <path d="M58.4101 76C56.8101 77.77 54.3701 80.11 53.5801 80.63C51.7001 81.88 49.1101 81.7 49.0901 81.7C48.9901 81.69 48.8901 81.69 48.7901 81.7C45.9501 81.89 44.8301 81 44.8101 81C44.6401 80.78 44.5501 80.74 44.3001 80.61C39.3801 77.93 35.7801 73.37 33.6301 70.01C32.3001 67.94 31.2501 60.25 30.8901 55.81C29.8601 47.61 29.5401 42.23 29.8501 38.42C30.9301 34.42 32.9701 29.75 36.8101 26.63C40.9601 23.27 46.6001 22.26 53.5601 23.63C54.2801 23.82 61.8001 26.03 65.7401 36.5C65.7401 36.57 65.7401 36.64 65.7401 36.7C66.2001 40.65 65.8601 45.36 65.5301 49.92C65.3801 52.01 65.2301 54.17 65.1501 56.26C65.0601 58.59 64.9101 60.65 64.7101 62.36C64.5801 63.46 65.3601 64.45 66.4601 64.58C66.5401 64.59 66.6201 64.59 66.7001 64.59C67.7001 64.59 68.5601 63.84 68.6801 62.83C68.7701 62.03 68.8601 61.16 68.9301 60.24C69.3001 60.71 69.8701 61.01 70.5101 61.01C70.5801 61.01 70.6501 61.01 70.7201 61C71.8201 60.89 72.6201 59.91 72.5001 58.81C71.8901 52.85 72.0201 47.98 72.0201 47.93C72.0201 47.78 72.0101 47.64 71.9801 47.49C70.4901 23.77 55.1101 19.89 54.4501 19.73C54.4401 19.73 54.4301 19.73 54.4101 19.73C54.4001 19.73 54.3901 19.72 54.3801 19.72C46.1701 18.1 39.4001 19.38 34.2801 23.55C24.9001 31.17 24.6401 45.58 24.6401 46.19V46.2V46.21C24.6401 77.33 14.8201 80.36 14.5301 80.44C13.4701 80.65 12.7701 81.67 12.9601 82.74C13.1301 83.71 13.9701 84.4 14.9301 84.4C15.0401 84.4 15.1601 84.39 15.2801 84.37C16.4001 84.17 24.6501 82.05 27.6101 62.16C28.1401 65.84 29.0001 70.16 30.2901 72.19C32.6601 75.89 36.6501 80.93 42.2001 84.03C42.8901 84.6199 44.6701 85.75 48.0401 85.75C48.3301 85.75 48.6301 85.74 48.9401 85.72C49.7701 85.77 53.0601 85.82 55.8201 83.98C57.1201 83.11 59.8901 80.36 61.3901 78.7C62.1301 77.88 62.0701 76.62 61.2501 75.87C60.4201 75.12 59.1501 75.19 58.4101 76Z" fill="#0033A1"></path>
    <path d="M83.11 80.3701C80.03 79.9901 77.51 77.46 75.62 72.85C75.2 71.83 74.04 71.34 73.01 71.76C71.99 72.18 71.5 73.35 71.92 74.37C74.4 80.42 78 83.78 82.62 84.34C82.7 84.35 82.78 84.35 82.87 84.35C83.87 84.35 84.73 83.61 84.85 82.59C84.99 81.51 84.21 80.5101 83.11 80.3701Z" fill="#0033A1"></path>
    <path d="M79.42 37.1C76.7 22.27 63.68 11 48.08 11C32.45 11 19.41 22.31 16.72 37.17C8.65 37.43 8 40.85 8 41.92V58.39C8 58.95 8.24 59.49 8.65 59.86C8.8 60 12.34 63.18 18.22 63.18C19.32 63.18 20.22 62.28 20.22 61.18V42.86C20.21 27.5 32.71 15 48.08 15C63.44 15 75.94 27.5 75.94 42.86V47.32V53.7C75.94 62.13 68.12 68.99 58.52 68.99H55.05C54.21 66.51 51.87 64.72 49.11 64.72C45.65 64.72 42.84 67.53 42.84 70.99C42.84 74.45 45.65 77.26 49.11 77.26C51.87 77.26 54.21 75.47 55.05 72.99H58.52C66.57 72.99 73.58 68.97 77.24 63.05C77.39 63.11 77.55 63.15 77.71 63.17C78.08 63.21 78.97 63.3 80.08 63.3C82.19 63.3 85.09 62.99 86.77 61.5C87.69 60.68 88.17 59.61 88.17 58.39V41.92C88.17 41.14 87.74 37.31 79.42 37.1ZM16.21 42.86V59.02C14.21 58.68 12.77 57.91 12 57.4V42.27C12.26 42.04 13.25 41.36 16.26 41.19C16.23 41.75 16.21 42.3 16.21 42.86ZM49.11 73.26C47.86 73.26 46.84 72.24 46.84 70.99C46.84 69.74 47.86 68.72 49.11 68.72C50.33 68.72 51.32 69.69 51.37 70.9C51.37 70.93 51.36 70.96 51.36 70.99C51.36 71.02 51.37 71.05 51.37 71.08C51.32 72.29 50.33 73.26 49.11 73.26ZM84.16 58.45C83.92 58.91 82.1 59.32 79.93 59.29V53.69V47.31V42.85C79.93 42.27 79.91 41.69 79.88 41.11C82.98 41.26 83.93 41.99 84.16 42.22V58.45Z" fill="#0033A1"></path>
  </symbol>
  <symbol fill="none" xmlns="http://www.w3.org/2000/svg" viewBox="0 0 96 96" id="service-icon-7">
    <path d="M76.66 39.85H69.29C68.37 39.85 67.58 40.47 67.35 41.36L65.33 49.34H19.96C18.86 49.34 17.96 50.24 17.96 51.34C17.96 52.44 18.86 53.34 19.96 53.34H64.32L63.28 57.45H23.1C22 57.45 21.1 58.35 21.1 59.45C21.1 60.55 22 61.45 23.1 61.45H62.25L61.2 65.58H26.38C25.28 65.58 24.38 66.48 24.38 67.58C24.38 68.68 25.28 69.58 26.38 69.58H30.96C29.24 70.42 28.04 72.18 28.04 74.22C28.04 77.07 30.36 79.4 33.22 79.4C36.08 79.4 38.4 77.08 38.4 74.22C38.4 72.18 37.2 70.42 35.48 69.58H53.59C51.87 70.42 50.67 72.18 50.67 74.22C50.67 77.07 52.99 79.4 55.85 79.4C58.71 79.4 61 77.07 61 74.21C61 72.17 59.8 70.41 58.08 69.57H62.77C63.68 69.57 64.48 68.95 64.71 68.06L66.66 60.39C66.81 60.11 66.91 59.79 66.91 59.44C66.91 59.43 66.91 59.42 66.91 59.41L70.86 43.84H76.68C77.78 43.84 78.68 42.94 78.68 41.84C78.68 40.74 77.77 39.85 76.66 39.85ZM33.21 75.39C32.56 75.39 32.03 74.86 32.03 74.21C32.03 73.56 32.56 73.03 33.21 73.03C33.86 73.03 34.39 73.56 34.39 74.21C34.39 74.86 33.86 75.39 33.21 75.39ZM55.82 75.39C55.17 75.39 54.64 74.86 54.64 74.21C54.64 73.56 55.17 73.03 55.82 73.03C56.47 73.03 57 73.56 57 74.21C57 74.86 56.47 75.39 55.82 75.39Z" fill="#0033A1"></path>
    <path d="M22.26 46.06C21.63 44.39 21.22 42.61 21.07 40.76H28.2C28.31 42.54 28.63 44.31 29.14 46.06H32.29C31.7 44.31 31.34 42.54 31.2 40.76H38.75V46.06V46.11C39.72 46.05 40.72 46.06 41.75 46.14V46.06V40.76H49.28C49.15 42.54 48.78 44.31 48.19 46.06H51.34C51.86 44.31 52.17 42.54 52.28 40.76H59.42C59.28 42.61 58.87 44.39 58.23 46.06H62.48C63.14 43.91 63.5 41.62 63.5 39.26C63.52 26.43 53.08 16 40.26 16C27.43 16 17 26.43 17 39.26C17 41.63 17.36 43.91 18.02 46.06H22.26ZM59.44 37.76H52.3C52.12 34.87 51.44 32.21 50.5 29.81C51.99 29.06 53.51 28.12 55.06 26.96C57.54 29.94 59.12 33.67 59.44 37.76ZM52.94 24.8C51.69 25.71 50.46 26.46 49.26 27.08C47.91 24.46 46.31 22.27 44.9 20.59C47.92 21.34 50.66 22.8 52.94 24.8ZM41.76 21.59C43.18 23.17 44.97 25.46 46.46 28.29C44.82 28.88 43.25 29.22 41.76 29.37V21.59ZM41.76 32.36C43.65 32.21 45.65 31.79 47.73 31.02C48.54 33.07 49.11 35.33 49.28 37.75H41.76V32.36ZM38.76 37.76H31.22C31.39 35.38 31.95 33.16 32.73 31.14C34.53 31.78 36.55 32.25 38.75 32.38V37.76H38.76ZM38.76 29.43C37 29.32 35.39 28.95 33.95 28.47C35.47 25.55 37.31 23.19 38.76 21.58V29.43ZM35.61 20.59C34.16 22.31 32.52 24.57 31.15 27.28C29.59 26.48 28.35 25.61 27.47 24.9C29.75 22.86 32.53 21.36 35.61 20.59ZM25.38 27.04C26.44 27.88 27.98 28.96 29.95 29.95C29.03 32.31 28.37 34.93 28.2 37.76H21.08C21.39 33.71 22.94 30.01 25.38 27.04Z" fill="#0033A1"></path>
  </symbol>
  <symbol fill="none" xmlns="http://www.w3.org/2000/svg" viewBox="0 0 96 96" id="service-icon-8">
    <path d="M70.89 78.79H13C11.9 78.79 11 77.89 11 76.79V20C11 18.9 11.9 18 13 18H70.89C71.99 18 72.89 18.9 72.89 20V27.91C72.89 29.01 71.99 29.91 70.89 29.91C69.79 29.91 68.89 29.01 68.89 27.91V22H15V74.79H68.89V49.4C68.89 48.3 69.79 47.4 70.89 47.4C71.99 47.4 72.89 48.3 72.89 49.4V76.79C72.89 77.9 71.99 78.79 70.89 78.79Z" fill="#0033A1"></path>
    <path d="M43.0801 65.96C43.0501 65.96 43.0301 65.96 43.0001 65.96C42.4701 65.94 41.9701 65.71 41.6101 65.32L27.4301 49.9L25.0901 52.61C24.3701 53.45 23.1101 53.54 22.2701 52.82C21.4301 52.1 21.3401 50.84 22.0601 50L25.8601 45.59C26.2301 45.16 26.7701 44.91 27.3401 44.9C27.9201 44.88 28.4601 45.13 28.8401 45.55L43.1801 61.13L81.5501 25.69C82.3601 24.94 83.6301 24.99 84.3801 25.8C85.1301 26.61 85.0801 27.88 84.2701 28.63L44.4401 65.43C44.0701 65.77 43.5801 65.96 43.0801 65.96Z" fill="#0033A1"></path>
  </symbol>
  <symbol fill="none" xmlns="http://www.w3.org/2000/svg" viewBox="0 0 96 96" id="service-icon-9">
    <path d="M62.5599 48.18C62.5599 49.87 61.1899 51.25 59.4899 51.25C57.7899 51.25 56.4199 49.88 56.4199 48.18C56.4199 46.49 57.7899 45.11 59.4899 45.11C61.1799 45.11 62.5599 46.48 62.5599 48.18Z" fill="#0033A1"></path>
    <path d="M51.4 16.07C51.4 17.76 50.03 19.14 48.33 19.14C46.63 19.14 45.26 17.76 45.26 16.07C45.26 14.38 46.63 13 48.33 13C50.03 13 51.4 14.37 51.4 16.07Z" fill="#0033A1"></path>
    <path d="M51.4 28.92C51.4 30.61 50.03 31.99 48.33 31.99C46.63 31.99 45.26 30.62 45.26 28.92C45.26 27.23 46.63 25.85 48.33 25.85C50.03 25.85 51.4 27.23 51.4 28.92Z" fill="#0033A1"></path>
    <path d="M51.4 41.77C51.4 43.46 50.03 44.84 48.33 44.84C46.63 44.84 45.26 43.46 45.26 41.77C45.26 40.08 46.63 38.7 48.33 38.7C50.03 38.7 51.4 40.08 51.4 41.77Z" fill="#0033A1"></path>
    <path d="M40.2601 48.18C40.2601 49.87 38.8901 51.25 37.1901 51.25C35.4901 51.25 34.1201 49.88 34.1201 48.18C34.1201 46.49 35.4901 45.11 37.1901 45.11C38.8901 45.11 40.2601 46.48 40.2601 48.18Z" fill="#0033A1"></path>
    <path d="M73.64 28.92C73.64 30.61 72.27 31.99 70.57 31.99C68.87 31.99 67.5 30.61 67.5 28.92C67.5 27.23 68.87 25.85 70.57 25.85C72.27 25.85 73.64 27.22 73.64 28.92Z" fill="#0033A1"></path>
    <path d="M62.5599 35.34C62.5599 37.04 61.1899 38.41 59.4899 38.41C57.7899 38.41 56.4199 37.04 56.4199 35.34C56.4199 33.65 57.7899 32.27 59.4899 32.27C61.1799 32.27 62.5599 33.64 62.5599 35.34Z" fill="#0033A1"></path>
    <path d="M40.2601 35.34C40.2601 37.03 38.8901 38.41 37.1901 38.41C35.4901 38.41 34.1201 37.04 34.1201 35.34C34.1201 33.65 35.4901 32.27 37.1901 32.27C38.8901 32.27 40.2601 33.64 40.2601 35.34Z" fill="#0033A1"></path>
    <path d="M73.64 54.62C73.64 56.32 72.27 57.69 70.57 57.69C68.87 57.69 67.5 56.32 67.5 54.62C67.5 52.93 68.87 51.55 70.57 51.55C72.27 51.55 73.64 52.93 73.64 54.62Z" fill="#0033A1"></path>
    <path d="M29.13 28.92C29.13 30.61 27.76 31.99 26.07 31.99C24.37 31.99 23 30.61 23 28.92C23 27.23 24.37 25.85 26.07 25.85C27.76 25.85 29.13 27.22 29.13 28.92Z" fill="#0033A1"></path>
    <path d="M29.13 54.62C29.13 56.32 27.76 57.69 26.07 57.69C24.37 57.69 23 56.32 23 54.62C23 52.93 24.37 51.55 26.07 51.55C27.76 51.55 29.13 52.93 29.13 54.62Z" fill="#0033A1"></path>
    <path d="M51.4 54.62C51.4 56.32 50.03 57.69 48.33 57.69C46.63 57.69 45.26 56.32 45.26 54.62C45.26 52.93 46.63 51.55 48.33 51.55C50.03 51.55 51.4 52.93 51.4 54.62Z" fill="#0033A1"></path>
    <path d="M51.4 67.47C51.4 69.16 50.03 70.54 48.33 70.54C46.63 70.54 45.26 69.17 45.26 67.47C45.26 65.78 46.63 64.4 48.33 64.4C50.03 64.41 51.4 65.78 51.4 67.47Z" fill="#0033A1"></path>
    <path d="M51.4 80.32C51.4 82.02 50.03 83.39 48.33 83.39C46.63 83.39 45.26 82.02 45.26 80.32C45.26 78.63 46.63 77.25 48.33 77.25C50.03 77.26 51.4 78.63 51.4 80.32Z" fill="#0033A1"></path>
  </symbol>
  <symbol fill="none" xmlns="http://www.w3.org/2000/svg" viewBox="0 0 96 96" id="service-icon-10">
    <path d="M75.7002 57.48C75.2802 42.87 63.2802 31.12 48.5702 31.12C33.6002 31.12 21.4202 43.3 21.4202 58.26C21.4202 73.23 33.6002 85.41 48.5702 85.41C53.3602 85.41 58.0802 84.14 62.2002 81.75C63.1602 81.2 63.4802 79.97 62.9202 79.02C62.3702 78.06 61.1402 77.74 60.1902 78.3C56.6802 80.34 52.6602 81.42 48.5702 81.42C35.8102 81.42 25.4202 71.04 25.4202 58.27C25.4202 45.51 35.8002 35.12 48.5702 35.12C61.2402 35.12 71.5502 45.35 71.7102 57.97C71.6302 65.83 68.4702 69.38 66.2102 69.38C64.3802 69.38 63.1102 67.14 63.1102 63.93V46.22C63.1102 45.12 62.2102 44.22 61.1102 44.22C60.0102 44.22 59.1102 45.12 59.1102 46.22V48.89C56.4502 46.03 52.6702 44.22 48.4602 44.22C40.4402 44.22 33.9202 50.74 33.9202 58.76C33.9202 66.78 40.4402 73.3 48.4602 73.3C52.9802 73.3 57.0202 71.23 59.6902 67.98C60.8602 71.65 63.6102 73.37 66.2102 73.37C70.6702 73.37 75.4402 68.69 75.6902 58.49C75.7002 58.41 75.7102 58.34 75.7102 58.25C75.7102 58.15 75.7002 58.04 75.7002 57.94C75.7002 57.85 75.7102 57.76 75.7102 57.67C75.7202 57.61 75.7102 57.55 75.7002 57.48ZM48.4702 69.31C42.6602 69.31 37.9302 64.58 37.9302 58.77C37.9302 52.96 42.6602 48.23 48.4702 48.23C54.2802 48.23 59.0102 52.96 59.0102 58.77C59.0102 64.58 54.2802 69.31 48.4702 69.31Z" fill="#0033A1"></path>
    <path d="M84.8801 24.62C84.8001 21.93 84.2001 15.77 80.3001 14.28C73.7001 11.76 58.2501 10 48.4501 10C38.6901 10.01 23.2101 11.78 16.6001 14.32C12.7001 15.82 12.1101 21.99 12.0401 24.67C11.9801 25.27 12.0001 25.84 12.1001 26.38L12.6701 29.25C13.1201 31.55 15.1401 33.23 17.4901 33.23C17.8101 33.23 18.1201 33.2 18.4301 33.14L31.7001 30.56C32.9901 30.31 34.1001 29.57 34.8401 28.49C35.5701 27.4 35.8401 26.09 35.5901 24.81L35.2401 23.03C37.9501 22.41 43.4001 21.42 48.6101 21.42C53.8901 21.42 59.0901 22.41 61.6601 23.01L61.3201 24.79C61.0701 26.08 61.3401 27.39 62.0701 28.47C62.8001 29.56 63.9201 30.29 65.2101 30.54L78.4901 33.1C78.8001 33.16 79.1101 33.19 79.4201 33.19C81.7701 33.19 83.7901 31.52 84.2401 29.22L84.8201 26.32C84.9201 25.79 84.9401 25.22 84.8801 24.62ZM80.9001 25.55L80.3201 28.44C80.2301 28.93 79.7301 29.26 79.2501 29.17L65.9701 26.61C65.6501 26.55 65.4701 26.34 65.3901 26.23C65.3101 26.11 65.1901 25.87 65.2501 25.54L65.8201 22.58C65.9901 22.29 66.0801 21.96 66.0801 21.6C66.0801 19.83 65.0201 19.48 59.5801 18.49C56.8901 18 52.7901 17.41 48.5801 17.41C44.3201 17.41 40.1501 18 37.4101 18.5C31.8901 19.5 30.8101 19.85 30.8101 21.62C30.8101 21.99 30.9101 22.34 31.0901 22.64L31.6601 25.56C31.7201 25.88 31.6001 26.13 31.5201 26.24C31.4401 26.36 31.2601 26.56 30.9401 26.62L17.6701 29.22C17.1801 29.32 16.7001 28.99 16.6001 28.49L16.0201 25.61C16.0001 25.53 15.9801 25.34 16.0201 25.05C16.0301 24.98 16.0301 24.92 16.0301 24.85C16.1001 21.44 16.9801 18.45 18.0301 18.05C23.5501 15.94 38.0401 14.01 48.5001 14C58.9001 14 73.3701 15.91 78.8701 18.01C79.9201 18.41 80.8001 21.39 80.8801 24.8C80.8801 24.87 80.8901 24.93 80.8901 25C80.9301 25.3 80.9101 25.49 80.9001 25.55Z" fill="#0033A1"></path>
  </symbol>
  <symbol fill="none" xmlns="http://www.w3.org/2000/svg" viewBox="0 0 96 96" id="service-icon-11">
    <path d="M76.29 79.01H49.88C50.03 78.9 50.17 78.78 50.3 78.64L77.12 49.34C77.85 48.55 78.05 47.55 77.66 46.66C77.27 45.78 76.4 45.25 75.32 45.25H60.97V10C60.97 8.35 59.62 7 57.97 7H38.32C36.67 7 35.32 8.35 35.32 10V45.26H20.97C19.89 45.26 19.02 45.79 18.63 46.67C18.24 47.55 18.44 48.55 19.17 49.35L46 78.64C46.13 78.78 46.27 78.9 46.42 79.01H20C18.9 79.01 18 79.91 18 81.01V87.12C18 88.22 18.9 89.12 20 89.12H76.29C77.39 89.12 78.29 88.22 78.29 87.12V81.01C78.29 79.91 77.4 79.01 76.29 79.01ZM24.52 49.26H36.32C37.97 49.26 39.32 47.91 39.32 46.26V11H56.97V46.26C56.97 47.91 58.32 49.26 59.97 49.26H71.78L48.14 75.07L24.52 49.26ZM74.29 85.12H22V83.01H74.29V85.12Z" fill="#0033A1"></path>
  </symbol>
  <symbol fill="none" xmlns="http://www.w3.org/2000/svg" viewBox="0 0 96 96" id="service-icon-12">
    <path d="M88.32 21.33C87.93 21.15 78.55 17 67.81 17C58.74 17 50.77 19.95 48.25 20.98C45.73 19.95 37.76 17 28.69 17C17.95 17 8.57 21.15 8.18 21.33C7.46 21.65 7 22.37 7 23.15V77.15C7 77.82 7.34 78.45 7.9 78.82C8.23 79.04 8.62 79.15 9 79.15C9.26 79.15 9.53 79.1 9.78 78.99C9.87 78.95 19.33 74.99 28.75 74.99C38.13 74.99 47.36 78.94 47.45 78.98C47.48 78.99 47.5 78.99 47.53 79C47.61 79.03 47.68 79.05 47.76 79.07C47.84 79.09 47.92 79.11 48 79.12C48.08 79.13 48.16 79.13 48.24 79.13C48.32 79.13 48.4 79.13 48.48 79.12C48.56 79.11 48.64 79.09 48.72 79.07C48.8 79.05 48.88 79.03 48.95 79C48.98 78.99 49 78.99 49.03 78.98C49.12 78.94 58.35 74.99 67.73 74.99C77.12 74.99 86.61 78.95 86.7 78.99C86.95 79.1 87.21 79.15 87.48 79.15C87.87 79.15 88.25 79.04 88.59 78.82C89.15 78.45 89.48 77.82 89.48 77.15V23.15C89.5 22.37 89.04 21.65 88.32 21.33ZM11 74.27V24.5C13.74 23.44 20.9 21 28.69 21C36.44 21 43.53 23.43 46.25 24.49V74.25C42.59 72.97 35.81 71 28.75 71C21.65 71 14.72 73 11 74.27ZM85.5 74.27C81.78 73 74.85 71 67.75 71C60.69 71 53.92 72.97 50.25 74.25V24.49C52.96 23.43 60.03 21 67.81 21C75.57 21 82.75 23.44 85.5 24.5V74.27Z" fill="#0033A1"></path>
    <path d="M17.0801 36.1C17.3501 36.1 17.6301 36.04 17.9001 35.92C17.9501 35.9 23.0101 33.65 28.6601 33.65C34.2201 33.65 39.2001 35.85 39.3301 35.91C40.3401 36.37 41.5201 35.92 41.9801 34.92C42.4401 33.91 41.9901 32.73 40.9901 32.27C40.7501 32.16 35.1601 29.65 28.6601 29.65C22.1701 29.65 16.5001 32.16 16.2601 32.27C15.2501 32.72 14.8001 33.91 15.2601 34.91C15.5901 35.66 16.3201 36.1 17.0801 36.1Z" fill="#0033A1"></path>
    <path d="M40.96 43.6799C40.71 43.5699 34.88 41.0699 28.7 41.0699C22.52 41.0699 16.56 43.5599 16.3 43.6699C15.28 44.0999 14.81 45.2699 15.24 46.2899C15.67 47.3099 16.84 47.7799 17.86 47.3599C17.91 47.3399 23.35 45.0699 28.7 45.0699C34.04 45.0699 39.32 47.3299 39.37 47.3499C39.63 47.4599 39.9 47.5199 40.17 47.5199C40.94 47.5199 41.68 47.0699 42.01 46.3199C42.44 45.2999 41.98 44.1199 40.96 43.6799Z" fill="#0033A1"></path>
    <path d="M40.96 55.1C40.72 55 34.89 52.5 28.7 52.5C22.52 52.5 16.56 54.99 16.3 55.1C15.28 55.53 14.81 56.7 15.24 57.72C15.67 58.74 16.84 59.21 17.86 58.79C17.91 58.77 23.35 56.5 28.7 56.5C34.04 56.5 39.32 58.75 39.37 58.78C39.63 58.89 39.9 58.95 40.17 58.95C40.94 58.95 41.68 58.5 42.01 57.75C42.44 56.72 41.98 55.54 40.96 55.1Z" fill="#0033A1"></path>
    <path d="M54.5099 34.91C54.9599 35.92 56.1399 36.37 57.1499 35.92C57.1999 35.9 62.2999 33.65 67.9099 33.65C73.5099 33.65 78.5399 35.89 78.5899 35.91C78.8599 36.03 79.1399 36.09 79.4199 36.09C80.1799 36.09 80.9099 35.65 81.2399 34.92C81.6999 33.91 81.2499 32.73 80.2499 32.27C80.0099 32.16 74.4199 29.65 67.9199 29.65C61.4299 29.65 55.7599 32.16 55.5199 32.27C54.5099 32.72 54.0599 33.9 54.5099 34.91Z" fill="#0033A1"></path>
    <path d="M80.21 43.6799C79.96 43.5699 74.13 41.0699 67.94 41.0699C61.76 41.0699 55.8 43.5599 55.54 43.6699C54.52 44.0999 54.05 45.2699 54.48 46.2899C54.91 47.3099 56.08 47.7799 57.1 47.3599C57.15 47.3399 62.59 45.0699 67.94 45.0699C73.28 45.0699 78.56 47.3299 78.61 47.3499C78.87 47.4599 79.14 47.5199 79.41 47.5199C80.18 47.5199 80.92 47.0699 81.25 46.3199C81.69 45.2999 81.23 44.1199 80.21 43.6799Z" fill="#0033A1"></path>
    <path d="M80.21 55.1C79.97 55 74.14 52.5 67.95 52.5C61.77 52.5 55.81 54.99 55.55 55.1C54.53 55.53 54.06 56.7 54.49 57.72C54.92 58.74 56.09 59.21 57.11 58.79C57.16 58.77 62.6 56.5 67.95 56.5C73.29 56.5 78.57 58.75 78.62 58.78C78.88 58.89 79.15 58.95 79.42 58.95C80.19 58.95 80.93 58.5 81.26 57.75C81.69 56.72 81.23 55.54 80.21 55.1Z" fill="#0033A1"></path>
  </symbol>
</svg>