<svg width="96" height="96" viewBox="0 0 96 96" fill="none" xmlns="http://www.w3.org/2000/svg">
<path d="M80.83 87.98H22.86C21.76 87.98 20.86 87.08 20.86 85.98C20.86 84.88 21.76 83.98 22.86 83.98H78.83V43.91C78.83 26.87 64.96 13 47.91 13C30.87 13 17 26.87 17 43.91V85.97C17 87.07 16.1 87.97 15 87.97C13.9 87.97 13 87.07 13 85.97V43.91C13 24.66 28.66 9 47.91 9C67.16 9 82.83 24.66 82.83 43.91V85.97C82.83 87.08 81.93 87.98 80.83 87.98Z" fill="#0033A1"/>
<path d="M59.4901 72.5601H36.3301C35.2301 72.5601 34.3301 71.6601 34.3301 70.5601V55.7601C34.3301 48.2701 40.4201 42.1801 47.9101 42.1801C55.4001 42.1801 61.4901 48.2701 61.4901 55.7601V70.5601C61.4901 71.6701 60.6001 72.5601 59.4901 72.5601ZM38.3301 68.5601H57.4901V55.7601C57.4901 50.4801 53.1901 46.1801 47.9101 46.1801C42.6301 46.1801 38.3301 50.4801 38.3301 55.7601V68.5601Z" fill="#0033A1"/>
</svg>
