<svg width="96" height="96" viewBox="0 0 96 96" fill="none" xmlns="http://www.w3.org/2000/svg">
<path d="M66.08 60.19C64.98 60.19 64.08 61.09 64.08 62.19V85H17.42V38.6C18.04 38.5 18.68 38.44 19.33 38.44H23.11L20.03 41.5201C19.25 42.3001 19.25 43.57 20.03 44.35C20.42 44.74 20.93 44.94 21.44 44.94C21.95 44.94 22.46 44.74 22.85 44.35L29.34 37.8601C30.12 37.0801 30.12 35.81 29.34 35.03L22.85 28.54C22.07 27.76 20.8 27.76 20.02 28.54C19.24 29.32 19.24 30.59 20.02 31.37L23.1 34.45H19.32C18.67 34.45 18.04 34.5 17.41 34.57V25.55H64.07V45.4501C64.07 46.5501 64.97 47.4501 66.07 47.4501C67.17 47.4501 68.07 46.5501 68.07 45.4501V23.55C68.07 22.45 67.17 21.55 66.07 21.55H15.42C14.32 21.55 13.42 22.45 13.42 23.55V35.57C7.33 37.94 3 43.85 3 50.7701C3 54.9701 4.59 58.96 7.48 62.01C7.87 62.42 8.4 62.6301 8.93 62.6301C9.42 62.6301 9.92 62.4501 10.31 62.0801C11.11 61.3201 11.14 60.05 10.38 59.25C8.2 56.96 7 53.9501 7 50.7701C7 46.1101 9.6 42.0501 13.42 39.9501V87.01C13.42 88.11 14.32 89.01 15.42 89.01H66.08C67.18 89.01 68.08 88.11 68.08 87.01V62.19C68.08 61.09 67.19 60.19 66.08 60.19Z" fill="#0033A1"/>
<path d="M57.81 31.92H41.48C40.38 31.92 39.48 32.82 39.48 33.92C39.48 35.02 40.38 35.92 41.48 35.92H57.81C58.91 35.92 59.81 35.02 59.81 33.92C59.81 32.81 58.92 31.92 57.81 31.92Z" fill="#0033A1"/>
<path d="M57.81 40.09H41.48C40.38 40.09 39.48 40.99 39.48 42.09C39.48 43.19 40.38 44.09 41.48 44.09H57.81C58.91 44.09 59.81 43.19 59.81 42.09C59.81 40.99 58.92 40.09 57.81 40.09Z" fill="#0033A1"/>
<path d="M57.8099 48.27H23.1799C22.0799 48.27 21.1799 49.17 21.1799 50.27C21.1799 51.37 22.0799 52.27 23.1799 52.27H57.8099C58.9099 52.27 59.8099 51.37 59.8099 50.27C59.8099 49.17 58.9199 48.27 57.8099 48.27Z" fill="#0033A1"/>
<path d="M57.8099 56.4399H23.1799C22.0799 56.4399 21.1799 57.3399 21.1799 58.4399C21.1799 59.5399 22.0799 60.4399 23.1799 60.4399H57.8099C58.9099 60.4399 59.8099 59.5399 59.8099 58.4399C59.8099 57.3399 58.9199 56.4399 57.8099 56.4399Z" fill="#0033A1"/>
<path d="M57.8099 64.62H23.1299C22.0299 64.62 21.1299 65.52 21.1299 66.62C21.1299 67.72 22.0299 68.62 23.1299 68.62H57.8099C58.9099 68.62 59.8099 67.72 59.8099 66.62C59.8099 65.52 58.9199 64.62 57.8099 64.62Z" fill="#0033A1"/>
<path d="M57.8099 72.79H23.1299C22.0299 72.79 21.1299 73.69 21.1299 74.79C21.1299 75.89 22.0299 76.79 23.1299 76.79H57.8099C58.9099 76.79 59.8099 75.89 59.8099 74.79C59.8099 73.69 58.9199 72.79 57.8099 72.79Z" fill="#0033A1"/>
<path d="M92.57 39.81C92.57 35.61 90.98 31.62 88.09 28.57C87.33 27.77 86.06 27.74 85.26 28.5C84.46 29.26 84.43 30.53 85.19 31.33C87.37 33.63 88.57 36.64 88.57 39.82C88.57 44.28 86.18 48.18 82.63 50.35V9C82.63 7.9 81.73 7 80.63 7H29.96C28.86 7 27.96 7.9 27.96 9V16.44C27.96 17.54 28.86 18.44 29.96 18.44C31.06 18.44 31.96 17.54 31.96 16.44V11H78.62V51.91C77.85 52.06 77.05 52.15 76.23 52.15H72.45L75.53 49.07C76.31 48.29 76.31 47.02 75.53 46.24C74.75 45.46 73.48 45.46 72.7 46.24L66.21 52.73C65.43 53.51 65.43 54.78 66.21 55.56L72.7 62.05C73.09 62.44 73.6 62.64 74.11 62.64C74.62 62.64 75.13 62.44 75.52 62.05C76.3 61.27 76.3 60 75.52 59.22L72.44 56.14H76.22C77.03 56.14 77.83 56.06 78.61 55.94V70.46H73.14C72.04 70.46 71.14 71.36 71.14 72.46C71.14 73.56 72.04 74.46 73.14 74.46H80.61C81.71 74.46 82.61 73.56 82.61 72.46V54.84C88.46 52.35 92.57 46.55 92.57 39.81Z" fill="#0033A1"/>
</svg>
