<svg width="96" height="96" viewBox="0 0 96 96" fill="none" xmlns="http://www.w3.org/2000/svg">
<path d="M65.12 18.51C64.61 18.51 64.09 18.31 63.7 17.92C55.04 9.18003 43.38 12.65 42.88 12.8C41.83 13.13 40.71 12.54 40.38 11.48C40.05 10.43 40.64 9.31003 41.69 8.98003C42.28 8.80003 56.14 4.60003 66.54 15.1C67.32 15.88 67.31 17.15 66.53 17.93C66.13 18.31 65.62 18.51 65.12 18.51Z" fill="#0033A1"/>
<path d="M72.11 33.2C71.56 33.2 71 32.97 70.61 32.52C52.79 12.31 29.36 24.39 28.37 24.91C27.4 25.43 26.19 25.06 25.67 24.08C25.15 23.11 25.52 21.9 26.49 21.38C26.76 21.24 53.68 7.26003 73.61 29.87C74.34 30.7 74.26 31.96 73.43 32.69C73.05 33.03 72.58 33.2 72.11 33.2Z" fill="#0033A1"/>
<path d="M76.2599 58.02C75.9099 58.02 75.5499 57.93 75.2199 57.73C71.5099 55.47 70.8999 52.36 70.3599 49.62C69.7299 46.37 68.8199 42.88 65.3599 38.94C60.4699 33.38 53.4899 30.09 46.7199 30.11C35.6299 30.17 21.4199 41.82 21.2799 41.94C20.4299 42.64 19.1699 42.52 18.4599 41.67C17.7599 40.82 17.8699 39.56 18.7299 38.85C19.3599 38.33 34.1799 26.17 46.6999 26.1C46.7399 26.1 46.7899 26.1 46.8399 26.1C54.7199 26.1 62.7599 29.9 68.3699 36.29C72.4899 40.98 73.5899 45.23 74.2899 48.85C74.7999 51.48 75.1999 53.03 77.2999 54.3C78.2399 54.87 78.5499 56.1 77.9699 57.05C77.5899 57.68 76.9299 58.02 76.2599 58.02Z" fill="#0033A1"/>
<path d="M73.4198 68.37C73.1898 68.37 72.9498 68.33 72.7198 68.24C62.7198 64.53 62.1598 57.7 61.7098 52.21C61.3498 47.89 57.2298 41.2 50.4198 39.74C43.3098 38.23 35.4698 43.31 31.9498 46.55C27.6598 50.5 21.4598 55.16 21.1998 55.35C20.3198 56.01 19.0598 55.83 18.3998 54.95C17.7398 54.07 17.9198 52.81 18.7998 52.15C18.8598 52.1 25.0998 47.42 29.2398 43.61C34.3098 38.93 43.1098 34.09 51.2498 35.82C59.5998 37.6 65.1498 45.35 65.6898 51.81C66.1298 57.11 66.4998 61.65 74.1198 64.48C75.1598 64.86 75.6798 66.02 75.2998 67.05C74.9998 67.87 74.2298 68.37 73.4198 68.37Z" fill="#0033A1"/>
<path d="M24.0399 71.5301C23.0199 71.5301 22.1499 70.7601 22.0499 69.7201C21.9399 68.6201 22.7499 67.6401 23.8499 67.5401C28.6999 67.0701 34.4599 63.1901 40.9699 55.9901C41.2599 55.6701 41.4699 55.4301 41.6099 55.2901C42.4199 54.4601 44.5699 52.2501 46.9899 52.8201C47.9599 53.0401 49.2699 53.7901 50.0199 56.0601C50.3099 56.9201 50.6899 57.4401 51.1699 57.6001C52.0499 57.8901 53.3899 57.2201 53.6899 57.0101C53.9799 56.7801 54.3499 56.1801 54.4399 55.2501C54.5299 54.3301 54.4099 52.4501 52.5399 50.2201C51.2999 48.7301 49.0099 47.8301 46.6399 47.8601C43.0499 47.9001 39.4899 49.9101 36.6299 53.5001C29.5199 62.4401 23.4599 64.0401 23.2099 64.1001C22.1399 64.3601 21.0499 63.7201 20.7799 62.6501C20.5099 61.5801 21.1599 60.5001 22.2199 60.2301C22.3499 60.1801 27.3899 58.7001 33.5099 51.0001C37.1299 46.4501 41.7799 43.9001 46.5999 43.8501C50.1899 43.8101 53.5899 45.2201 55.6099 47.6501C57.6899 50.1401 58.6899 52.9801 58.4199 55.6501C58.2299 57.5201 57.4099 59.1601 56.1599 60.1601C55.4299 60.7501 52.7399 62.2401 50.0699 61.4501C48.8199 61.0801 47.1299 60.0601 46.2299 57.3301C46.1499 57.0901 46.0799 56.9301 46.0199 56.8201C45.7699 56.9501 45.2799 57.2701 44.4799 58.1001C44.3599 58.2201 44.1799 58.4201 43.9399 58.6901C41.2599 61.6601 33.0899 70.6901 24.2299 71.5401C24.1699 71.5301 24.0999 71.5301 24.0399 71.5301Z" fill="#0033A1"/>
<path d="M27.4198 78.24C26.4098 78.24 25.5398 77.48 25.4298 76.45C25.3098 75.35 26.0998 74.37 27.1998 74.25C27.2598 74.24 33.0998 73.53 40.3998 68.64C48.8898 62.95 59.4098 65.11 64.2798 70.38C67.0698 73.39 69.7398 72.96 69.8498 72.94C70.9198 72.75 71.9698 73.45 72.1798 74.52C72.3898 75.59 71.7298 76.63 70.6598 76.86C70.4598 76.9 65.7398 77.86 61.3398 73.1C58.1898 69.69 50.0598 66.98 42.6198 71.97C34.4398 77.46 27.8998 78.21 27.6298 78.24C27.5698 78.24 27.4998 78.24 27.4198 78.24Z" fill="#0033A1"/>
<path d="M35.8699 84.48C34.9499 84.48 34.1199 83.84 33.9199 82.9C33.6899 81.82 34.3699 80.76 35.4499 80.52C35.5099 80.51 41.3499 79.22 45.5999 76.39C51.8599 72.22 55.5599 74.81 59.1399 77.32C60.3799 78.19 61.6599 79.08 63.1399 79.79C64.1399 80.27 64.5599 81.46 64.0799 82.46C63.5999 83.46 62.4099 83.88 61.4099 83.4C59.6299 82.55 58.1499 81.51 56.8399 80.59C53.4899 78.24 51.7999 77.06 47.8099 79.71C42.9199 82.97 36.5499 84.36 36.2799 84.42C36.1499 84.47 36.0099 84.48 35.8699 84.48Z" fill="#0033A1"/>
<path d="M46.13 88.76C45.44 88.76 44.77 88.4 44.4 87.76C43.85 86.81 44.17 85.59 45.12 85.03C45.84 84.61 52.24 81.04 56.17 84.37C57.01 85.08 57.12 86.35 56.4 87.19C55.69 88.03 54.42 88.14 53.58 87.42C52.18 86.24 48.56 87.66 47.13 88.49C46.82 88.67 46.47 88.76 46.13 88.76Z" fill="#0033A1"/>
</svg>
