<svg width="96" height="96" viewBox="0 0 96 96" fill="none" xmlns="http://www.w3.org/2000/svg">
<path d="M71.9906 85.6H26.6406C22.2306 85.6 18.6406 82.01 18.6406 77.6V33C18.6406 31.9 19.5406 31 20.6406 31C21.7406 31 22.6406 31.9 22.6406 33V77.6C22.6406 79.8 24.4306 81.6 26.6406 81.6H71.9906C73.1006 81.6 73.9906 80.7 73.9906 79.6V74.92C73.9906 73.82 74.8906 72.92 75.9906 72.92C77.0906 72.92 77.9906 73.82 77.9906 74.92V79.6C77.9906 82.91 75.3006 85.6 71.9906 85.6Z" fill="#0033A1"/>
<path d="M75.9906 65.6C74.8906 65.6 73.9906 64.7 73.9906 63.6V19C73.9906 16.79 72.2006 15 69.9906 15H24.6406C23.5406 15 22.6406 15.9 22.6406 17V22C22.6406 23.1 21.7406 24 20.6406 24C19.5406 24 18.6406 23.1 18.6406 22V17C18.6406 13.69 21.3306 11 24.6406 11H69.9906C74.4006 11 77.9906 14.59 77.9906 19V63.6C77.9906 64.7 77.1006 65.6 75.9906 65.6Z" fill="#0033A1"/>
<path d="M67.02 25.54H30C28.9 25.54 28 24.64 28 23.54C28 22.44 28.9 21.54 30 21.54H67.02C68.12 21.54 69.02 22.44 69.02 23.54C69.02 24.64 68.13 25.54 67.02 25.54Z" fill="#0033A1"/>
<path d="M67.02 34.64H30C28.9 34.64 28 33.74 28 32.64C28 31.54 28.9 30.64 30 30.64H67.02C68.12 30.64 69.02 31.54 69.02 32.64C69.02 33.74 68.13 34.64 67.02 34.64Z" fill="#0033A1"/>
<path d="M67.02 43.73H35C33.9 43.73 33 42.83 33 41.73C33 40.63 33.9 39.73 35 39.73H67.02C68.12 39.73 69.02 40.63 69.02 41.73C69.02 42.83 68.13 43.73 67.02 43.73Z" fill="#0033A1"/>
<path d="M63.02 52.8201H30C28.9 52.8201 28 51.9201 28 50.8201C28 49.7201 28.9 48.8201 30 48.8201H63.02C64.12 48.8201 65.02 49.7201 65.02 50.8201C65.02 51.9201 64.13 52.8201 63.02 52.8201Z" fill="#0033A1"/>
<path d="M63.02 61.92H30C28.9 61.92 28 61.02 28 59.92C28 58.82 28.9 57.92 30 57.92H63.02C64.12 57.92 65.02 58.82 65.02 59.92C65.02 61.02 64.13 61.92 63.02 61.92Z" fill="#0033A1"/>
<path d="M67.02 71.01H30C28.9 71.01 28 70.11 28 69.01C28 67.91 28.9 67.01 30 67.01H67.02C68.12 67.01 69.02 67.91 69.02 69.01C69.02 70.11 68.13 71.01 67.02 71.01Z" fill="#0033A1"/>
<path d="M75.9884 65.6C75.4784 65.6 74.9684 65.4 74.5784 65.01L67.1084 57.54C66.3284 56.76 66.3284 55.49 67.1084 54.71C67.8884 53.93 69.1584 53.93 69.9384 54.71L75.9984 60.77L82.0584 54.71C82.8384 53.93 84.1084 53.93 84.8884 54.71C85.6684 55.49 85.6684 56.76 84.8884 57.54L77.4184 65.01C77.0184 65.4 76.4984 65.6 75.9884 65.6Z" fill="#0033A1"/>
<path d="M28.2811 42.64C27.7711 42.64 27.2611 42.44 26.8711 42.05L20.6411 35.82L14.4111 42.05C13.6311 42.83 12.3611 42.83 11.5811 42.05C10.8011 41.27 10.8011 40 11.5811 39.22L19.2211 31.58C20.0011 30.8 21.2711 30.8 22.0511 31.58L29.6911 39.22C30.4711 40 30.4711 41.27 29.6911 42.05C29.3111 42.45 28.7911 42.64 28.2811 42.64Z" fill="#0033A1"/>
</svg>
