<svg width="96" height="96" viewBox="0 0 96 96" fill="none" xmlns="http://www.w3.org/2000/svg">
<path d="M76.29 79.01H49.88C50.03 78.9 50.17 78.78 50.3 78.64L77.12 49.34C77.85 48.55 78.05 47.55 77.66 46.66C77.27 45.78 76.4 45.25 75.32 45.25H60.97V10C60.97 8.35 59.62 7 57.97 7H38.32C36.67 7 35.32 8.35 35.32 10V45.26H20.97C19.89 45.26 19.02 45.79 18.63 46.67C18.24 47.55 18.44 48.55 19.17 49.35L46 78.64C46.13 78.78 46.27 78.9 46.42 79.01H20C18.9 79.01 18 79.91 18 81.01V87.12C18 88.22 18.9 89.12 20 89.12H76.29C77.39 89.12 78.29 88.22 78.29 87.12V81.01C78.29 79.91 77.4 79.01 76.29 79.01ZM24.52 49.26H36.32C37.97 49.26 39.32 47.91 39.32 46.26V11H56.97V46.26C56.97 47.91 58.32 49.26 59.97 49.26H71.78L48.14 75.07L24.52 49.26ZM74.29 85.12H22V83.01H74.29V85.12Z" fill="#0033A1"/>
</svg>
