<svg width="96" height="96" viewBox="0 0 96 96" fill="none" xmlns="http://www.w3.org/2000/svg">
<path d="M80.3201 47.61C79.2201 47.61 78.3201 46.71 78.3201 45.61V45.45C78.3201 44.47 79.0301 43.63 80.0001 43.48C84.5901 42.73 87.9301 38.82 87.9301 34.16C87.9301 28.95 83.6901 24.71 78.4801 24.71C77.7701 24.71 77.0201 24.8 76.2801 24.98C75.2901 25.22 74.2801 24.67 73.9301 23.71C72.2701 19.09 67.8801 16 63.0001 16C56.8001 16 51.7001 20.86 51.4001 27.05C51.3701 27.61 51.1101 28.14 50.6801 28.49C50.2501 28.85 49.6801 29.01 49.1301 28.93C48.7401 28.87 48.4201 28.85 48.1201 28.85C46.7501 28.85 45.4001 29.23 44.2401 29.95C43.3001 30.53 42.0701 30.24 41.4901 29.3C40.9101 28.36 41.2001 27.13 42.1401 26.55C43.8001 25.52 45.6901 24.94 47.6401 24.86C48.9401 17.51 55.3401 12 63.0001 12C69.0001 12 74.4401 15.47 77.0301 20.78C85.0701 19.88 91.9301 26.26 91.9301 34.15C91.9301 40.5 87.5601 45.9 81.4401 47.26C81.1101 47.48 80.7301 47.61 80.3201 47.61Z" fill="#0033A1"/>
<path d="M76.32 83.8H19.92C19.75 83.8 19.59 83.78 19.43 83.74C10.75 83.12 4 75.92 4 67.17C4 61.22 7.24 55.7 12.37 52.76C12.37 52.57 12.36 52.38 12.36 52.2C12.36 39.64 22.58 29.41 35.15 29.41C43.39 29.41 50.99 33.91 55 41.01C56.78 40.41 58.62 40.1 60.5 40.1C67.48 40.1 73.71 44.27 76.42 50.61C84.89 51.36 91.56 58.51 91.56 67.16C91.56 75.61 85.35 82.61 77.03 83.65C76.81 83.75 76.57 83.8 76.32 83.8ZM20.3 79.8H75.8C75.91 79.77 76.02 79.75 76.14 79.74C82.65 79.12 87.56 73.73 87.56 67.18C87.56 60.26 81.93 54.6 75.01 54.56C74.15 54.56 73.4 54.01 73.12 53.2C71.3 47.77 66.23 44.12 60.5 44.12C58.56 44.12 56.68 44.54 54.89 45.37C54.41 45.59 53.85 45.62 53.36 45.43C52.86 45.25 52.45 44.87 52.23 44.39C49.18 37.73 42.47 33.42 35.15 33.42C24.79 33.42 16.36 41.85 16.36 52.21C16.36 52.71 16.38 53.22 16.43 53.78C16.5 54.61 16.04 55.4 15.29 55.76C10.86 57.82 8 62.31 8 67.17C8 73.91 13.28 79.44 20.02 79.76C20.12 79.77 20.21 79.78 20.3 79.8Z" fill="#0033A1"/>
</svg>
