<svg width="96" height="96" viewBox="0 0 96 96" fill="none" xmlns="http://www.w3.org/2000/svg">
<path d="M28.5201 42.64H67.0201C67.8701 42.64 68.6301 42.1 68.9101 41.3C69.1901 40.5 68.93 39.61 68.2701 39.08L48.9401 23.68C48.2101 23.1 47.17 23.1 46.4401 23.69L27.2701 39.09C26.6101 39.62 26.3501 40.51 26.6401 41.31C26.9201 42.11 27.6701 42.64 28.5201 42.64ZM47.7001 27.8L61.3001 38.64H34.2001L47.7001 27.8Z" fill="#0033A1"/>
<path d="M69.29 62.89H26.25C25.15 62.89 24.25 63.79 24.25 64.89C24.25 65.99 25.15 66.89 26.25 66.89H69.29C70.39 66.89 71.29 65.99 71.29 64.89C71.29 63.79 70.4 62.89 69.29 62.89Z" fill="#0033A1"/>
<path d="M31.1499 46.53V58.88C31.1499 59.98 32.0499 60.88 33.1499 60.88C34.2499 60.88 35.1499 59.98 35.1499 58.88V46.53C35.1499 45.43 34.2499 44.53 33.1499 44.53C32.0499 44.53 31.1499 45.42 31.1499 46.53Z" fill="#0033A1"/>
<path d="M60.3999 46.53V58.88C60.3999 59.98 61.2999 60.88 62.3999 60.88C63.4999 60.88 64.3999 59.98 64.3999 58.88V46.53C64.3999 45.43 63.4999 44.53 62.3999 44.53C61.2899 44.53 60.3999 45.42 60.3999 46.53Z" fill="#0033A1"/>
<path d="M50.6499 46.53V58.88C50.6499 59.98 51.5499 60.88 52.6499 60.88C53.7499 60.88 54.6499 59.98 54.6499 58.88V46.53C54.6499 45.43 53.7499 44.53 52.6499 44.53C51.5499 44.53 50.6499 45.42 50.6499 46.53Z" fill="#0033A1"/>
<path d="M40.8999 46.53V58.88C40.8999 59.98 41.7999 60.88 42.8999 60.88C43.9999 60.88 44.8999 59.98 44.8999 58.88V46.53C44.8999 45.43 43.9999 44.53 42.8999 44.53C41.7999 44.53 40.8999 45.42 40.8999 46.53Z" fill="#0033A1"/>
<path d="M41.9601 82.79C27.5701 82.79 15.6901 71.82 14.2501 57.8L16.7901 60.35C17.1801 60.74 17.6901 60.94 18.2001 60.94C18.7101 60.94 19.2201 60.74 19.6101 60.36C20.3901 59.58 20.3901 58.31 19.6101 57.53L13.5101 51.42C12.7601 50.67 11.4301 50.67 10.6801 51.42L4.58012 57.53C3.80012 58.31 3.80012 59.58 4.58012 60.36C5.36012 61.14 6.63012 61.14 7.41012 60.36L10.2101 57.55C11.5401 73.9 25.2601 86.8 41.9501 86.8C43.0501 86.8 43.9501 85.9 43.9501 84.8C43.9501 83.7001 43.0601 82.79 41.9601 82.79Z" fill="#0033A1"/>
<path d="M90.9603 37.17C90.1803 36.39 88.9103 36.39 88.1303 37.17L85.3803 39.93C84.3803 23.26 70.5103 10 53.5903 10C52.4903 10 51.5903 10.9 51.5903 12C51.5903 13.1 52.4903 14 53.5903 14C68.2503 14 80.2903 25.39 81.3603 39.78L78.7603 37.17C77.9803 36.39 76.7103 36.39 75.9303 37.17C75.1503 37.95 75.1503 39.22 75.9303 40L82.0303 46.11C82.4103 46.49 82.9103 46.7 83.4503 46.7C83.9803 46.7 84.4903 46.49 84.8703 46.11L90.9703 40C91.7403 39.22 91.7403 37.95 90.9603 37.17Z" fill="#0033A1"/>
</svg>
