<svg width="96" height="96" viewBox="0 0 96 96" fill="none" xmlns="http://www.w3.org/2000/svg">
<path d="M72 52.38C70.49 52.38 69.26 53.61 69.26 55.12C69.26 56.63 70.49 57.86 72 57.86C73.51 57.86 74.74 56.63 74.74 55.12C74.74 53.61 73.51 52.38 72 52.38Z" fill="#0033A1"/>
<path d="M72.0001 45.1899C69.1701 45.1899 66.51 46.2899 64.51 48.2899C63.73 49.0699 63.73 50.3399 64.51 51.1199C64.9 51.5099 65.41 51.7099 65.92 51.7099C66.43 51.7099 66.9401 51.5099 67.3301 51.1199C68.5801 49.8699 70.2301 49.1899 71.9901 49.1899C73.7501 49.1899 75.4101 49.8799 76.6501 51.1199C77.4301 51.8999 78.7001 51.8999 79.4801 51.1199C80.2601 50.3399 80.2601 49.0699 79.4801 48.2899C77.4901 46.2899 74.8301 45.1899 72.0001 45.1899Z" fill="#0033A1"/>
<path d="M83.9099 42.95C80.7299 39.77 76.4999 38.02 72.0099 38.02H71.9999C67.4999 38.02 63.2699 39.78 60.0899 42.96C59.3099 43.74 59.3099 45.01 60.0899 45.79C60.4799 46.18 60.9899 46.38 61.4999 46.38C62.0099 46.38 62.5199 46.18 62.9099 45.79C65.3299 43.36 68.5599 42.03 71.9899 42.03C71.9899 42.03 71.9899 42.03 71.9999 42.03C75.4299 42.03 78.6499 43.36 81.0699 45.79C81.8499 46.57 83.1199 46.57 83.8999 45.79C84.6899 45 84.6899 43.73 83.9099 42.95Z" fill="#0033A1"/>
<path d="M33.3801 46.29H32.5701C31.4701 46.29 30.5701 47.19 30.5701 48.29C30.5701 49.39 31.4701 50.29 32.5701 50.29H33.3801C34.4801 50.29 35.3801 49.39 35.3801 48.29C35.3801 47.19 34.4901 46.29 33.3801 46.29Z" fill="#0033A1"/>
<path d="M41.82 46.29H41.01C39.91 46.29 39.01 47.19 39.01 48.29C39.01 49.39 39.91 50.29 41.01 50.29H41.82C42.92 50.29 43.82 49.39 43.82 48.29C43.82 47.19 42.92 46.29 41.82 46.29Z" fill="#0033A1"/>
<path d="M33.3801 52.35H32.5701C31.4701 52.35 30.5701 53.25 30.5701 54.35C30.5701 55.45 31.4701 56.35 32.5701 56.35H33.3801C34.4801 56.35 35.3801 55.45 35.3801 54.35C35.3801 53.25 34.4901 52.35 33.3801 52.35Z" fill="#0033A1"/>
<path d="M41.82 52.35H41.01C39.91 52.35 39.01 53.25 39.01 54.35C39.01 55.45 39.91 56.35 41.01 56.35H41.82C42.92 56.35 43.82 55.45 43.82 54.35C43.82 53.25 42.92 52.35 41.82 52.35Z" fill="#0033A1"/>
<path d="M33.3801 58.42H32.5701C31.4701 58.42 30.5701 59.32 30.5701 60.42C30.5701 61.52 31.4701 62.42 32.5701 62.42H33.3801C34.4801 62.42 35.3801 61.52 35.3801 60.42C35.3801 59.32 34.4901 58.42 33.3801 58.42Z" fill="#0033A1"/>
<path d="M41.82 58.42H41.01C39.91 58.42 39.01 59.32 39.01 60.42C39.01 61.52 39.91 62.42 41.01 62.42H41.82C42.92 62.42 43.82 61.52 43.82 60.42C43.82 59.32 42.92 58.42 41.82 58.42Z" fill="#0033A1"/>
<path d="M45.59 41.8101C45.59 40.7101 44.6901 39.8101 43.59 39.8101H30.8C29.7 39.8101 28.8 40.7101 28.8 41.8101C28.8 42.9101 29.7 43.8101 30.8 43.8101H43.59C44.7 43.8101 45.59 42.9101 45.59 41.8101Z" fill="#0033A1"/>
<path d="M72 61.59C70.9 61.59 70 62.49 70 63.59V69H22V33.47H51.82C52.92 33.47 53.82 32.57 53.82 31.47V16C53.82 14.9 52.92 14 51.82 14H14C12.9 14 12 14.9 12 16V31.47C12 32.57 12.9 33.47 14 33.47H18V71C18 72.1 18.9 73 20 73H72C73.1 73 74 72.1 74 71V63.59C74 62.48 73.1 61.59 72 61.59ZM16 18H49.82V29.47H16V18Z" fill="#0033A1"/>
<path d="M59.8301 27.73H70.0001V32.65C70.0001 33.75 70.9001 34.65 72.0001 34.65C73.1001 34.65 74.0001 33.75 74.0001 32.65V25.73C74.0001 24.63 73.1001 23.73 72.0001 23.73H59.8301C58.7301 23.73 57.8301 24.63 57.8301 25.73C57.8301 26.83 58.7301 27.73 59.8301 27.73Z" fill="#0033A1"/>
<path d="M71.9999 78.01H20.1899C19.0899 78.01 18.1899 78.91 18.1899 80.01C18.1899 81.11 19.0899 82.01 20.1899 82.01H71.9999C73.0999 82.01 73.9999 81.11 73.9999 80.01C73.9999 78.91 73.0999 78.01 71.9999 78.01Z" fill="#0033A1"/>
</svg>
