<svg xmlns="http://www.w3.org/2000/svg" fill="none" viewBox="1 3 19 18.5">
<path d="M7 19C6.75277 19 6.5111 19.0733 6.30554 19.2107C6.09998 19.348 5.93976 19.5432 5.84515 19.7716C5.75054 20.0001 5.72579 20.2514 5.77402 20.4939C5.82225 20.7363 5.9413 20.9591 6.11612 21.1339C6.29093 21.3087 6.51366 21.4277 6.75614 21.476C6.99861 21.5242 7.24995 21.4995 7.47835 21.4049C7.70676 21.3102 7.90199 21.15 8.03934 20.9445C8.17669 20.7389 8.25 20.4972 8.25 20.25C8.25 19.9185 8.1183 19.6005 7.88388 19.3661C7.64946 19.1317 7.33152 19 7 19ZM18 19C17.7528 19 17.5111 19.0733 17.3055 19.2107C17.1 19.348 16.9398 19.5432 16.8451 19.7716C16.7505 20.0001 16.7258 20.2514 16.774 20.4939C16.8223 20.7363 16.9413 20.9591 17.1161 21.1339C17.2909 21.3087 17.5137 21.4277 17.7561 21.476C17.9986 21.5242 18.2499 21.4995 18.4784 21.4049C18.7068 21.3102 18.902 21.15 19.0393 20.9445C19.1767 20.7389 19.25 20.4972 19.25 20.25C19.25 19.9185 19.1183 19.6005 18.8839 19.3661C18.6495 19.1317 18.3315 19 18 19ZM18 17.9982V16.4982L7.8711 16.4888L7.4427 14.7668L20.0007 12.3632L20 5H5.0135L4.5161 3H1V4.5H3.3434L6.6982 17.9878L18 17.9982ZM5.3866 6.5H18.5V11.123L7.08 13.309L5.4692 6.832L5.3866 6.5Z" fill="currentColor"/>
</svg>
