<svg xmlns="http://www.w3.org/2000/svg" fill="none" viewBox="2 2 20.03 20.03">
<path d="M22.029 20.97L16.1605 15.1016C17.4724 13.5171 18.1237 11.4881 17.9791 9.43608C17.8345 7.38402 16.9051 5.4665 15.3838 4.08168C13.8626 2.69686 11.8664 1.95115 9.80985 1.9994C7.75327 2.04764 5.79428 2.88613 4.33965 4.34075C2.88503 5.79538 2.04654 7.75437 1.9983 9.81095C1.95005 11.8675 2.69576 13.8637 4.08058 15.3849C5.4654 16.9062 7.38292 17.8356 9.43498 17.9802C11.487 18.1248 13.516 17.4735 15.1005 16.1616L20.969 22.03L22.029 20.97ZM3.49896 9.99996C3.49896 8.71438 3.88018 7.45767 4.59441 6.38875C5.30864 5.31983 6.3238 4.48671 7.51152 3.99474C8.69924 3.50277 10.0062 3.37405 11.267 3.62486C12.5279 3.87566 13.6861 4.49472 14.5952 5.40377C15.5042 6.31281 16.1233 7.471 16.3741 8.73187C16.6249 9.99275 16.4961 11.2997 16.0042 12.4874C15.5122 13.6751 14.6791 14.6903 13.6102 15.4045C12.5412 16.1187 11.2845 16.5 9.999 16.5C8.27565 16.498 6.62349 15.8126 5.40493 14.594C4.18637 13.3754 3.50092 11.7233 3.49896 9.99996Z" fill="currentColor"/>
</svg>
