<svg xmlns="http://www.w3.org/2000/svg" fill="none" viewBox="0.94 2.75 22.71 18.45">
<path d="M23.6435 4.93695C22.8085 5.30695 21.9115 5.55695 20.9685 5.66995C21.9305 5.09395 22.6685 4.17995 23.0165 3.09195C22.1165 3.62595 21.1195 4.01395 20.0585 4.22195C19.2085 3.31795 17.9985 2.75195 16.6585 2.75195C14.0865 2.75195 12.0005 4.83795 12.0005 7.41195C12.0005 7.77595 12.0425 8.12995 12.1205 8.47195C8.2475 8.27695 4.8165 6.42195 2.5185 3.60395C2.1185 4.29395 1.8885 5.09395 1.8885 5.94595C1.8885 7.56195 2.7115 8.98895 3.9605 9.82395C3.1965 9.79895 2.4785 9.58995 1.8505 9.24095V9.30095C1.8505 11.558 3.4555 13.441 5.5875 13.869C5.1955 13.975 4.7845 14.031 4.3605 14.031C4.0605 14.031 3.7675 14.003 3.4835 13.949C4.0765 15.799 5.7965 17.147 7.8355 17.183C6.2405 18.433 4.2315 19.178 2.0495 19.178C1.6735 19.178 1.3025 19.156 0.9375 19.113C2.9995 20.436 5.4475 21.206 8.0775 21.206C16.6475 21.206 21.3325 14.108 21.3325 7.95195C21.3325 7.75195 21.3275 7.54995 21.3185 7.34995C22.2285 6.69195 23.0185 5.87295 23.6415 4.93995L23.6435 4.93695Z" fill="currentColor"/>
</svg>