<svg width="120" height="120" viewBox="0 0 120 120" fill="none" xmlns="http://www.w3.org/2000/svg">
<path d="M3.83064 103.502L3.49623 103.836L2.93886 104.394L2.54871 104.784L2.3815 105.286L2.04709 105.62L1.82414 106.177L1.48972 106.679L1.32251 107.404L1.09957 107.961L0.932362 108.463V109.02C0.709417 109.745 0.542209 110.636 0.375 111.361V112.42V113.256L0.709417 114.148L1.26678 114.872L1.7684 115.207L2.66018 115.708L3.71917 115.931H5.0011H6.39451L7.45349 115.708L8.56822 115.207L9.40426 114.649L10.1288 114.148L10.6862 113.256L11.1878 112.197L11.4108 111.138V110.079V109.187L11.0763 108.463L10.519 107.961L10.0174 107.404L9.12558 107.069L8.2338 106.902H7.0076H6.45024H6.11583L5.6142 107.069H5.27978L4.94537 107.292L4.61095 107.459L4.27653 107.682L2.21429 108.797L3.6077 106.902L3.94212 106.345L4.27653 106.177L4.49948 105.954L4.83389 105.787L5.0011 105.564L5.89288 105.063L6.95187 104.84L7.78791 104.505L8.90263 104.338L10.0174 104.227L10.8534 103.892L11.578 103.725L11.9124 103.391L10.6862 101.44L10.4632 101.607L9.73868 101.83L8.90263 101.997L7.06334 102.332L6.2273 102.555L5.16831 102.889L4.27653 103.223L3.83064 103.502ZM4.66669 110.803L4.88963 110.469V110.135L5.05684 109.8L5.27978 109.466L5.6142 109.243L5.94862 109.076L6.28303 108.853L6.61745 109.076L6.95187 109.243L7.28629 109.466V109.8L7.45349 110.135V110.469V110.803L7.28629 111.361L7.06334 112.42L6.89613 112.754L6.67319 113.089L6.50598 113.423L6.28303 113.758L5.94862 113.925L5.44699 114.148L5.11257 113.925L4.77816 113.758L4.55521 113.423L4.388 113.089V112.531V112.197V111.695L4.55521 111.138L4.66669 110.803ZM20.1056 112.364L20.2728 113.423L20.4958 114.148L20.8302 114.649L21.3318 115.207L22.0564 115.541L22.7809 115.708L23.6727 115.931H24.5088H25.735L26.7939 115.708L27.6857 115.207L28.5218 114.649L29.4135 114.148L29.9152 113.256L30.3053 112.197L30.6397 111.138V110.079V109.187L30.3053 108.463L29.748 107.961L29.0234 107.404L28.1316 107.069L27.2956 106.902H26.0136H25.1776L24.1186 107.069L23.394 107.404L22.6137 107.738L21.8892 108.072L21.3875 108.797L20.8302 109.354L20.3285 110.413H19.0466L19.604 107.013H16.0926L14.6435 115.653H18.0434L18.6007 112.308L20.1056 112.364ZM24.1743 110.803V110.469L24.3416 110.135L24.5645 109.8L24.7317 109.466L24.9547 109.243L25.2891 109.076L25.6235 108.853L25.9579 109.076L26.2923 109.243L26.6267 109.466V109.8L26.7939 110.135V110.469V110.803L26.6267 111.862L26.4038 112.197L26.2366 112.754L26.0136 113.089L25.8464 113.423L25.6235 113.758L25.2891 113.925L24.7874 114.148L24.453 113.925L24.1186 113.758L23.8957 113.423V113.089L23.7285 112.531L23.8957 112.197V111.695V111.138L24.1743 110.803ZM33.7052 119.666H37.4396L38.1641 114.538H38.8887L39.2231 115.039L39.4461 115.374L39.7805 115.597L39.9477 115.764L40.2821 115.987H40.505H40.8395H41.1739H42.2329L42.9574 115.653L43.682 115.318L44.4066 114.761L44.9082 114.036L45.2984 113.312L45.6328 112.476L45.8 111.584V110.748V109.856L45.6328 108.964L45.4098 108.24L45.0754 107.738L44.3508 107.404L43.6263 107.069H42.7345H42.2329H41.6755L41.3411 107.236L41.0067 107.459L40.6723 107.627L40.3378 107.961L40.0034 108.295L39.669 109.02H38.9444L39.2789 107.236H35.656L33.7052 119.666ZM38.6658 111.138L38.833 110.803L39.0559 110.246V109.912L39.3903 109.577L39.5575 109.41L39.8919 109.187L40.4493 109.02L40.9509 109.187L41.2854 109.41L41.5083 109.745L41.6755 110.079L41.8984 110.413V110.748V111.082L41.6755 111.64V111.974L41.5083 112.308L41.2854 112.643L41.1181 112.977L40.8952 113.312L40.5608 113.479L40.2264 113.702L39.8919 113.869L39.5575 113.702L39.0559 113.479L38.833 113.312L38.6658 112.977V112.643V112.308V111.751V111.138ZM49.2556 112.364V113.2L49.59 114.092L50.1474 114.816L50.872 115.151L51.708 115.653L52.8227 115.875H54.0489H55.4423L56.5013 115.653L57.5603 115.151L58.4521 114.594L59.1767 114.092L59.734 113.2L60.2356 112.141L60.4586 111.082L60.6258 110.023L60.4586 109.131L60.1242 108.407L59.7898 107.905L59.0095 107.348L58.1734 107.013L57.1144 106.846H55.721H54.4391L53.2129 107.013L52.0982 107.348L51.2621 107.905L50.5376 108.407L49.9802 109.299L49.6458 110.135L49.3114 111.249L49.2556 112.364ZM53.5473 110.803L53.7145 110.469L53.9375 110.135V109.8L54.2719 109.466L54.4391 109.131H54.9964L55.3309 108.908L55.6653 109.131L55.9997 109.299L56.1669 109.522L56.3899 109.856V110.19V110.525L56.1669 111.417V111.918L55.9997 112.253V112.81L55.7768 113.144L55.6096 113.479L55.2751 113.813L54.9407 113.98L54.3834 114.203L54.0489 113.98L53.7145 113.813L53.5473 113.479L53.3244 113.144V112.587V112.253L53.5473 111.194V110.803ZM69.2649 107.069H65.1962L63.97 115.708H67.7043L68.4289 112.03L68.5961 110.413L69.2649 107.069ZM68.3731 112.03L68.5403 110.413L68.8748 111.305L68.3731 112.03ZM68.8748 111.305L70.8255 115.708H75.3959L73.055 110.971L76.4549 107.013H72.4419L68.8748 111.305ZM78.963 119.666H82.6973L83.7563 113.813L84.4809 115.039L84.7038 115.374L85.0383 115.597L85.2055 115.764L85.5399 115.987H85.8743H86.2087H86.5431H87.4349L88.2709 115.653L88.9955 115.318L89.5529 114.761L90.1102 114.036L90.4447 113.312L90.7791 112.476L90.9463 111.584L91.1692 110.748V109.856L90.9463 108.964L90.6119 108.24L90.2775 107.738L89.7758 107.404L88.884 107.069H87.9923H87.4906H87.1562L86.8218 107.236L86.4874 107.459L85.93 107.627L85.7628 107.961L85.4284 108.295L84.1465 109.912L84.4809 107.236H80.9695L78.963 119.666ZM83.9793 111.138L84.1465 110.636L84.3694 110.246L84.5366 109.912L84.7596 109.577L85.094 109.41L85.4284 109.187L85.7628 109.02L86.2644 109.187L86.5989 109.41L86.8218 109.745L86.989 110.079L87.212 110.413V110.748V111.082L86.989 111.64V111.974L86.8218 112.308L86.5989 112.643L86.4317 112.977L86.2087 113.312L85.8743 113.479L85.5399 113.702L85.2055 113.869L84.871 113.702L84.3694 113.479L84.1465 113.312L83.9793 112.977V112.643V112.308V111.751V111.472V111.138ZM96.6871 108.797H97.0215L97.5231 108.63H98.0805L98.4149 108.407H98.9166H99.4739L99.8083 108.63H100.143L100.644 108.797L100.979 109.02L101.202 109.354L101.369 109.856V110.748L100.867 110.581H100.644H100.31C99.9755 110.581 99.5854 110.581 99.251 110.581H98.4149H97.6904L96.7986 110.748L96.074 111.082L95.3494 111.417L94.7921 111.974L94.4577 112.81L94.1232 113.702V114.203V114.761L94.4577 115.095L94.6806 115.262L95.1822 115.597L95.5166 115.82H96.2412H96.7986H97.3559H97.8576L98.192 115.597H98.5264L98.8608 115.43L99.1952 115.095L99.5297 114.872L99.8641 114.148H100.756L100.421 115.541H103.821L104.88 110.023V108.964L104.657 108.24L104.156 107.738L103.598 107.181L102.707 106.846L101.871 106.679H100.979H99.9198H99.4182H98.8608H98.3592H97.8018L96.9658 106.846L96.1855 107.069L96.0183 108.853L96.6871 108.797ZM101.09 112.364V112.699L100.923 113.033L100.7 113.367L100.533 113.702L100.198 113.869L99.8641 114.092L99.5297 114.259L99.1952 114.482L98.8608 114.259H98.6379L98.3035 114.092H98.1363L97.9133 113.869V113.535L97.7461 113.367V113.033L97.9133 112.699L98.1363 112.364L98.4707 112.03L98.8051 111.807H99.1395L99.6411 111.64C99.9755 111.64 100.533 111.64 101.035 111.64L101.09 112.364ZM119.316 107.069H108.893L108.559 109.02H111.959L110.844 115.708H114.578L115.637 109.02H118.87L119.316 107.069Z" fill="#35868E"/>
<path d="M59.3473 0.891724L71.7207 22.5174L70.1601 23.2419L68.3765 24.3009L66.5372 25.3599L64.6422 26.4189L63.0258 27.6451L61.2423 28.7041L59.8489 29.8188L58.2325 31.045L57.0063 32.104L55.7244 33.163L54.6654 34.222L53.8294 35.2809L53.1048 36.3399L52.5474 37.4547L52.213 38.2907L51.9901 39.1825V40.2415L52.213 41.3005L52.5474 42.1365L52.8819 42.8611L53.4392 43.7528L53.9408 44.4774L54.4982 45.202L55.2228 45.7593L55.9474 46.4839L56.6719 46.9855L57.3965 47.32L58.1211 47.8773L58.8456 48.2117L59.5702 48.7134L60.8521 49.2707L62.4128 49.9953L63.8062 50.7199L65.1996 51.4444L66.4815 52.169L67.7634 52.8936L68.9896 53.7854L70.0486 54.6214L71.1076 55.5132L71.9994 56.5722L72.8354 57.7984L73.3928 59.0803L74.1173 60.4737L74.4518 62.09L74.7862 63.8736L75.1206 65.6572V67.7751V69.0571L74.9534 70.2833V71.5652L74.619 72.7914L74.396 73.8504L74.0616 75.1323L73.7272 76.1913L73.3928 77.4732L72.8354 78.5322L72.501 79.5912L71.7764 80.6502L71.2748 81.542L70.7174 82.601L69.9929 83.437L69.2683 84.3288L68.5437 85.1648L67.8192 86.0566L67.0946 86.7812L66.2028 87.6172L65.3668 88.3418L64.6422 88.8991L63.7504 89.6237L62.9144 90.1811L62.0226 90.6827L60.9636 91.2401L60.1276 91.5745L59.2358 91.9089L58.344 92.0761L57.285 92.4105L56.449 92.6335H55.39H54.4982H53.6622L52.6032 92.4105L51.7114 92.2433L50.8196 91.9089L49.9836 91.3515L49.259 90.8499L48.3672 90.2925L47.6427 89.568L47.141 88.8434L46.4165 87.9516L45.8591 87.1156L45.5247 86.0566L45.1903 84.9976L44.8559 83.7157V82.4895L44.6329 81.0961L44.8559 79.7027L45.0231 78.0863L45.4132 76.6929L45.7476 75.1323L46.4722 73.6832L47.1968 72.2898L47.9213 70.8964L48.9803 69.6702L49.8164 68.2768L51.0983 66.9948L52.3245 65.9358L53.7736 64.6539L55.167 63.5949L56.7277 62.7589L58.344 61.8671L60.1276 61.0311L61.1866 60.4737L61.9111 59.7491L62.4685 59.0246L62.6357 58.3L62.3013 57.4082L61.7997 56.9066L61.0751 56.5722L60.0161 56.3492L59.1243 56.5722H58.0653L57.0063 56.7394L55.7244 57.0738L54.4982 57.4082L53.2163 57.9656L51.9343 58.4672L50.5409 59.0246L49.1475 59.7491L47.9213 60.4737L46.5279 61.1983L45.0788 62.09L43.6854 63.149L42.292 63.9851L40.8986 65.0441L39.5052 66.326L38.279 67.6079L36.9971 68.8341L35.7151 70.1161L34.4889 71.5095L33.207 72.9029L32.148 74.2963L31.089 75.9126L30.1972 77.4732L29.3612 79.0896L28.6366 80.6502L27.9121 82.4895L27.3547 84.273L26.8531 86.0566L26.6301 87.9516L26.2957 89.9024V91.686V92.4105V92.9679V93.6925L26.5186 94.1941C26.5186 94.9187 26.6859 95.5875 26.8531 96.1449H4.55859L59.3473 0.891724ZM114.192 95.9219H76.3468L76.6812 95.3645L77.1828 94.1383L77.7402 92.8564L78.4648 91.6302L78.9664 90.2368L79.3008 88.9549L79.8582 87.5615L80.1926 86.1681L80.527 84.7747L80.8614 83.3813L81.1958 81.9879L81.3631 80.5387L81.586 79.1453L81.8089 77.5847V76.1913V74.575V73.516V72.457V71.3423L81.586 70.0603V69.0013L81.3631 68.1653L81.1958 67.1063L80.9729 65.9916L80.8057 65.1555L80.5827 64.0965L80.4155 63.2048L80.0811 62.1458L79.8582 61.3097L79.5238 60.418L79.1893 59.359L78.8549 58.4672L78.3533 57.6312L78.0189 56.7394L77.4615 55.9033L77.1271 55.0116L76.6255 54.1755L75.9009 53.1165L75.3435 52.2247L74.8419 51.333L74.0616 50.4969L73.337 49.6051L72.6125 48.5462L71.8879 47.7101L71.0519 46.8183L70.3273 45.7593L69.4355 44.9233L68.7109 44.143C69.4355 43.6414 70.1043 42.9168 70.8289 42.3594L71.5535 41.8578L72.2781 41.3005L73.0026 40.7988L74.619 39.907L76.0124 39.071L76.7369 38.5136L77.4615 38.1792L78.7435 37.4547L79.8024 36.8973L114.192 95.9219Z" fill="#35868E"/>
<path d="M86.2109 30.9893H86.7683L87.2699 30.8221H87.9945L88.5518 30.5991L89.0535 30.2647L89.4436 30.0975L89.9453 29.7631L90.2797 29.3729L90.837 28.8713L91.1715 28.3139L91.3387 27.9795L91.6731 27.4779L91.896 26.9205L92.0632 26.4189V25.6943V25.137V24.4124V23.9108L91.896 23.3534L91.6731 22.8518L91.3387 22.2944L91.1715 21.7371L90.837 21.4026L90.2797 20.901L89.9453 20.5666L89.4436 20.2322L88.8863 19.8978L88.3289 19.6748L87.8273 19.5076L87.2699 19.2847H86.7683H86.2109H85.4864H84.9847L84.4274 19.5076L83.9257 19.6748L83.3684 19.8978L82.8667 20.2322L82.3094 20.5666L81.975 20.901L81.4176 21.4026L81.0832 21.7371L80.916 22.2944L80.5816 22.8518L80.3586 23.3534V23.9108L80.1914 24.4124V25.137V25.6943L80.3586 26.4189V26.9205L80.5816 27.4779L80.916 27.9795L81.2504 28.3139L81.5848 28.8713L81.9192 29.3729L82.2537 29.7631L82.811 30.0975L83.3126 30.2647L83.87 30.5991L84.3716 30.8221H84.929L85.4306 30.9893H86.2109ZM80.7488 25.137V24.4124V23.9108L80.9717 23.3534L81.1389 22.8518L81.3619 22.5174L81.6963 21.96L82.0307 21.6256L82.3651 21.0682L82.6995 20.7338L83.034 20.3994L83.5913 20.2322L84.0929 20.0092L84.6503 19.842L84.9847 19.6191L85.7093 19.4519H86.2109H86.7683L87.2699 19.6191L87.8273 19.842L88.3289 20.0092L88.6633 20.2322L89.2207 20.3994L89.5551 20.7338L89.8895 21.0682L90.4469 21.6256L90.6141 21.96L90.9485 22.5174L91.1715 22.8518L91.3387 23.3534L91.5616 23.9108V24.4124V25.137V25.6943V26.196L91.3387 26.7533L91.1715 27.2549L90.9485 27.8123L90.6141 28.1467L90.4469 28.6483L90.1125 28.9828L89.5551 29.3172L89.2207 29.7073L88.6633 30.0418L88.3289 30.209L87.8273 30.4319L87.2699 30.5991H86.7683H86.2109H85.7093H84.9847L84.4274 30.4319L84.0929 30.209L83.5913 30.0975L83.034 29.7631L82.6995 29.3729L82.3651 29.0385L82.0307 28.7041L81.6963 28.2025L81.3619 27.868L81.1389 27.3107L80.9717 26.8091L80.7488 26.2517V25.7501V25.137ZM84.4831 25.137H86.2667L88.2174 28.3139H88.5518L86.6011 25.3599L87.3257 25.137L87.6601 24.9698H87.9945L88.2174 24.7468L88.3846 24.5796L88.6076 24.3567L88.7748 24.0222V23.855V23.6321V23.4649V23.2419V23.0747L88.6076 22.8518V22.6288L88.3846 22.4616V22.2944H88.2174L87.9945 22.0715H87.8273L87.6043 21.9043H87.4929H87.2699H87.1027L86.7683 21.6813H84.0929V28.2025H84.4274L84.4831 25.137ZM84.4831 24.9698V22.0715H86.6011C86.824 22.0715 86.9355 22.0715 87.1584 22.0715H87.3257L87.6601 22.2944H87.883V22.5174L88.0502 22.6846L88.2732 22.9075V23.0747V23.2977L88.4404 23.4649V23.6878V23.855L88.2732 24.078V24.2452V24.4681L88.0502 24.6353L87.883 24.8583L87.6601 25.0255H87.4929V25.2484H87.1584H86.824C86.6011 25.2484 86.4896 25.2484 86.2667 25.2484L84.4831 24.9698Z" fill="#35868E"/>
<path d="M86.2094 31.3237C87.9929 31.3237 89.4421 30.8221 90.6683 29.5401C91.9502 28.2582 92.4518 26.8648 92.4518 25.0812C92.4518 23.2977 91.9502 21.6813 90.6683 20.6223C89.4421 19.3961 87.8257 18.7273 86.2094 18.7273C84.4258 18.7273 82.8652 19.4519 81.639 20.6223C80.3571 21.6813 79.8555 23.2977 79.8555 25.0812C79.8555 26.8648 80.3571 28.2582 81.639 29.5401C82.921 30.8221 84.4816 31.3237 86.2094 31.3237ZM81.0817 25.137C81.0817 23.5763 81.639 22.2944 82.5308 21.4026C83.5898 20.3436 84.816 19.842 86.2094 19.842C87.6028 19.842 88.8847 20.3436 89.7765 21.4026C90.8355 22.2944 91.1699 23.5763 91.1699 25.137C91.1699 26.5304 90.6125 27.8123 89.7765 28.8713C88.6618 29.7631 87.6028 30.2647 86.2094 30.2647C84.816 30.2647 83.5898 29.7631 82.5308 28.8713C81.639 27.8123 81.0817 26.5304 81.0817 25.137ZM84.816 25.6943H86.0979L87.9929 28.6483H89.2749L87.1569 25.4714C87.8815 25.4714 88.2159 25.3042 88.5503 24.9697C88.8847 24.6353 89.0519 24.078 89.0519 23.5763C89.0519 22.8518 88.8847 22.2944 88.3274 21.96C87.9929 21.6256 87.2684 21.4026 86.5438 21.4026H83.7013V28.6483H84.7602L84.816 25.6943ZM84.816 24.6353V22.5174H86.4323C86.7667 22.5174 87.1569 22.5174 87.4913 22.6846C87.8257 22.9075 87.9929 23.019 87.9929 23.5763C87.8257 23.9108 87.6585 24.3009 87.2684 24.4124C87.1012 24.6353 86.7667 24.6353 86.2094 24.6353H84.816Z" fill="#35868E"/>
<path d="M59.3456 0L72.2764 22.5174C62.1881 27.8124 52.49 34.7236 52.49 39.1268C52.49 44.4217 57.7849 47.2643 60.9619 48.8249C69.0994 52.5592 75.4533 55.5132 75.4533 67.5522C75.4533 80.8175 64.8077 92.6893 54.385 92.6893C49.0901 92.6893 44.1296 88.0632 44.1296 80.9847C44.1296 72.68 50.1491 64.4868 59.7357 60.4738C62.9127 59.1918 62.3553 56.5165 59.7357 56.5165C50.1491 56.5165 26.4612 70.8964 26.4612 91.3516C26.4612 92.9679 26.6842 94.5286 27.0186 96.1449H3.60938L59.3456 0ZM80.0237 36.117L114.859 96.2564H75.6205C79.1319 90.0697 81.4171 82.4338 81.4171 74.5193C81.4171 62.313 78.0729 54.3428 68.3748 43.7529C72.6108 40.1858 76.5123 37.7334 80.0237 36.117Z" fill="#35868E"/>
<path d="M4.16685 102.833C1.1571 104.617 0.599734 108.351 0.0981088 111.138C-0.459253 114.538 1.38004 116.266 5.05863 116.266C9.0159 116.266 11.2453 114.482 11.8027 111.138C12.3043 107.961 10.4093 106.345 7.0094 106.345C5.61599 106.345 4.33406 106.902 3.60949 107.404C3.94391 106.902 4.50127 106.177 5.22584 105.843C7.12087 104.561 11.0781 104.951 12.4715 103.391L10.688 100.882C9.7962 101.774 6.61924 101.384 4.16685 102.833ZM5.00289 111.138C5.22584 110.079 5.33731 109.187 6.28482 109.187C7.12087 109.187 7.12087 110.079 7.0094 111.138C6.67498 112.531 6.45203 113.59 5.61599 113.59C4.66848 113.59 4.66848 112.531 5.00289 111.138ZM19.7172 112.754C19.8845 115.039 21.6123 116.266 24.5106 116.266C27.8547 116.266 30.5301 114.482 31.0317 111.138C31.5333 107.961 29.4153 106.345 26.0712 106.345C23.2286 106.345 21.1106 107.738 20.2189 109.856H19.4943L20.0517 106.512H15.8157L14.1994 116.043H18.4353L18.9927 112.699L19.7172 112.754ZM24.2876 111.138C24.5106 110.079 24.845 109.187 25.5695 109.187C26.4056 109.187 26.4056 110.079 26.2941 111.138C26.0712 112.531 25.7368 113.59 24.9007 113.59C24.1761 113.59 24.1761 112.531 24.2876 111.138ZM33.2054 120H37.7758L38.5003 114.872H38.7233C39.2249 115.931 40.1167 116.266 41.1757 116.266C44.1297 116.266 45.6346 114.148 46.1362 111.472C46.4706 108.797 45.8018 106.345 42.7363 106.345C41.1757 106.345 40.1167 106.902 39.3921 108.295H39.1692L39.5036 106.512H35.2676L33.2054 120ZM39.002 111.472C39.1692 110.413 39.3364 109.354 40.3954 109.354C41.4544 109.354 41.4544 110.413 41.2314 111.472C41.0642 112.531 40.7298 113.423 39.838 113.423C38.8348 113.423 38.8348 112.531 39.002 111.472ZM48.923 111.138C48.4214 114.538 50.2049 116.266 54.0507 116.266C57.9523 116.266 60.2374 114.482 60.7948 111.138C61.2964 107.961 59.5129 106.345 55.6671 106.345C51.7098 106.345 49.4804 107.961 48.923 111.138ZM53.8835 111.138C54.0507 110.079 54.2179 109.187 55.2769 109.187C56.113 109.187 56.0015 110.079 55.7785 111.138C55.6113 112.531 55.4441 113.59 54.3851 113.59C53.5491 113.59 53.6606 112.531 53.8835 111.138ZM69.6011 106.568H64.8078L63.4144 116.098H68.0405L68.7651 111.695L70.6601 116.098H76.0108L73.5027 111.026L77.4599 106.568H72.3322L68.9323 110.636L69.6011 106.568ZM78.4632 120H83.0335L83.9253 114.872C84.427 115.931 85.3187 116.266 86.5449 116.266C89.3875 116.266 91.0038 114.148 91.3382 111.472C91.8956 108.797 91.0038 106.345 87.9383 106.345C86.5449 106.345 85.4859 106.902 84.5942 108.295L84.7614 106.512H80.5254L78.4632 120ZM84.3155 111.472C84.4827 110.413 84.8171 109.354 85.7089 109.354C86.7679 109.354 86.7679 110.413 86.5449 111.472C86.3777 112.531 86.0433 113.423 85.1515 113.423C84.0925 113.423 84.0925 112.531 84.3155 111.472ZM95.5742 109.522C96.466 109.187 97.7479 108.797 98.9741 108.797C100.033 108.797 101.315 109.02 101.092 110.19C100.758 110.023 100.033 110.023 99.3085 110.023C97.0233 110.023 94.348 110.581 93.7906 113.535C93.4562 115.485 95.0726 116.21 96.8004 116.21C98.1938 116.21 99.4757 115.875 100.2 114.594H100.368L100.033 115.987H104.325L105.384 110.135C105.885 106.79 102.708 106.233 100.033 106.233C98.2495 106.233 97.4135 106.456 95.9643 106.79L95.5742 109.522ZM100.758 112.197C100.59 113.089 100.033 113.98 99.197 113.98C98.4725 113.98 98.1381 113.646 98.1381 113.144C98.3053 112.085 99.3642 112.085 100.423 112.085H100.758V112.197ZM119.652 106.568H108.505L107.948 109.41H111.348L110.289 116.098H114.859L115.918 109.41H119.151L119.652 106.568Z" fill="#35868E"/>
</svg>
