<svg width="199" height="41" viewBox="0 0 199 41" fill="none" xmlns="http://www.w3.org/2000/svg">
<path d="M20.206 0C31.346 0 40.353 9.007 40.412 20.206C40.412 31.406 31.346 40.412 20.206 40.412C9.066 40.412 0 31.346 0 20.206C0 9.066 9.066 0 20.206 0ZM20.206 39.109C30.636 39.109 39.168 30.635 39.168 20.147C39.168 9.659 30.694 1.185 20.206 1.185C9.718 1.185 1.244 9.66 1.244 20.147C1.244 30.634 9.718 39.109 20.206 39.109Z" fill="#78BE20"/>
<path d="M2.78516 20.028C9.65916 22.221 16.1772 28.917 18.1322 37.5079C8.47416 36.2649 2.84416 28.324 2.78516 20.028Z" fill="#78BE20"/>
<path d="M37.5071 20.028C30.6332 22.221 24.0562 28.917 22.1602 37.5079C31.8182 36.2649 37.5071 28.324 37.5071 20.028Z" fill="#78BE20"/>
<path d="M20.2065 37.509C12.8585 26.191 14.4585 10.607 20.2065 2.25195C25.6585 10.607 27.3765 26.191 20.2065 37.509Z" fill="#78BE20"/>
<path d="M45.8633 2.37H50.3073V8.41399H58.4843V2.37H62.9293V18.192H58.4843V11.318H50.3073V18.192H45.8633V2.37Z" fill="#231F20"/>
<path d="M66.4844 2.37H81.5944V5.274H70.9294V8.64999H80.7064V11.376H70.9294V15.228H81.7734V18.191H66.4844V2.37Z" fill="#231F20"/>
<path d="M88.8825 5.037H93.7415C95.7555 5.037 96.8215 5.689 96.8215 7.22899C96.8215 8.82899 95.7555 9.48099 93.7415 9.48099H88.8815L88.8825 5.037ZM84.4375 18.192H88.8825V12.029H93.3265C95.5785 12.029 96.4075 12.74 96.7035 14.399C96.9405 15.644 96.8815 17.184 97.4145 18.192H101.859C101.029 17.362 101.089 15.466 101.029 14.458C100.851 12.858 100.259 11.258 98.0665 10.785V10.725C100.318 10.015 101.266 8.59199 101.266 6.75499C101.266 4.325 98.9565 2.37 95.3405 2.37H84.4385L84.4375 18.192Z" fill="#231F20"/>
<path d="M108.912 15.466V11.14H113.771C115.726 11.14 116.971 11.792 116.971 13.392C116.971 15.051 115.431 15.466 113.711 15.466H108.912ZM113.475 8.71097H108.971V5.03697H113.119C114.719 5.03697 116.201 5.39197 116.201 6.87397C116.201 8.23697 115.075 8.76997 113.475 8.76997V8.71097ZM104.586 2.37097V18.191H114.364C117.978 18.191 121.474 16.829 121.474 13.629C121.474 11.614 120.23 10.133 117.741 9.59897C119.519 8.88897 120.467 7.88097 120.467 6.28097C120.467 3.31797 117.86 2.37097 114.008 2.37097H104.586Z" fill="#231F20"/>
<path d="M128.643 12.029L131.25 6.222H131.31L133.858 12.029H128.643ZM121.355 18.192H125.858L127.458 14.695H134.984L136.524 18.192H141.146L133.621 2.37H129.058L121.355 18.192Z" fill="#231F20"/>
<path d="M142.57 2.37H147.014V15.23H156.85V18.193H142.57V2.37Z" fill="#231F20"/>
<path d="M158.449 18.192V2.37H162.893V18.192H158.449Z" fill="#231F20"/>
<path d="M166.45 2.37H180.67V5.274H170.894V8.94799H179.367V11.614H170.894V18.192H166.449L166.45 2.37Z" fill="#231F20"/>
<path d="M182.863 2.37H197.973V5.274H187.307V8.64999H197.085V11.376H187.307V15.228H198.21V18.191H182.863V2.37Z" fill="#231F20"/>
<path d="M45.8633 21.806H50.2483L58.6623 32.413H58.7223V21.806H62.9293V37.627H58.4843L50.0703 27.021H50.0103V37.627H45.8633V21.806Z" fill="#78BE20"/>
<path d="M83.6698 31.643C83.6698 35.909 80.4698 37.983 75.0178 37.983C69.5658 37.983 66.4258 35.968 66.4258 31.643V21.806H70.8698V31.643C70.8698 33.361 71.4618 35.079 75.0178 35.079C78.1578 35.079 79.2248 34.013 79.2248 31.643V21.806H83.6688L83.6698 31.643Z" fill="#78BE20"/>
<path d="M91.9073 24.71H85.8633V21.806H102.395V24.71H96.3513V37.627H91.9073V24.71Z" fill="#78BE20"/>
<path d="M109.03 24.532H113.89C115.904 24.532 116.97 25.184 116.97 26.724C116.97 28.324 115.904 28.976 113.89 28.976H109.03V24.532ZM104.586 37.627H109.031V31.465H113.475C115.726 31.465 116.556 32.175 116.852 33.835C117.089 35.079 117.03 36.62 117.563 37.627H122.008C121.178 36.797 121.238 34.902 121.178 33.894C121 32.294 120.408 30.694 118.215 30.22V30.161C120.467 29.451 121.415 28.028 121.415 26.191C121.415 23.761 119.105 21.806 115.489 21.806H104.586V37.627Z" fill="#78BE20"/>
<path d="M125.621 37.627V21.807H130.065V37.627H125.621Z" fill="#78BE20"/>
<path d="M138.717 24.71H132.613V21.806H149.205V24.71H143.161V37.627H138.717V24.71Z" fill="#78BE20"/>
<path d="M151.812 37.627V21.807H156.257V37.627H151.812Z" fill="#78BE20"/>
<path d="M168.643 35.08C164.613 35.08 163.133 32.413 163.133 29.806C163.133 27.021 164.673 24.354 168.643 24.354C172.673 24.354 174.152 27.021 174.152 29.806C174.152 32.413 172.613 35.079 168.643 35.079V35.08ZM168.643 21.451C162.421 21.451 158.688 25.065 158.688 29.806C158.688 34.368 162.421 38.042 168.643 38.042C174.865 38.042 178.598 34.368 178.598 29.806C178.598 25.124 174.865 21.451 168.643 21.451Z" fill="#78BE20"/>
<path d="M181.145 21.806H185.589L194.003 32.413H194.063V21.806H198.211V37.627H193.766L185.352 27.021H185.292V37.627H181.145V21.806Z" fill="#78BE20"/>
</svg>
