<svg width="120" height="120" viewBox="0 0 120 120" fill="none" xmlns="http://www.w3.org/2000/svg">
<path d="M0.000702196 60.1103C-0.157698 27.0767 26.5027 0.159468 59.5363 0.00106841C92.5699 -0.157332 119.487 26.5031 119.645 59.5367C119.804 92.5691 93.1435 119.487 60.1099 119.646C27.0763 119.804 0.159102 93.1439 0.000702196 60.1103Z" fill="#007AC5"/>
<path d="M0.988974 60.1044C0.832974 27.618 27.053 1.14475 59.5406 0.98995C92.027 0.83395 118.5 27.0539 118.655 59.5415C118.811 92.0292 92.591 118.5 60.1046 118.656C27.6182 118.812 1.14497 92.592 0.990174 60.1056L0.988974 60.1044Z" fill="white"/>
<path d="M77.5044 11.9579C77.304 12.6539 76.5768 13.0535 75.8832 12.8507C75.1884 12.6503 74.7888 11.9231 74.9892 11.2295C75.1896 10.5347 75.9168 10.1351 76.6116 10.3355C77.3064 10.5359 77.706 11.2631 77.5044 11.9567V11.9579Z" fill="#007AC5"/>
<path d="M60.9542 111.671C60.7538 112.364 60.0266 112.765 59.3318 112.564C58.637 112.363 58.2374 111.636 58.439 110.942C58.6406 110.246 59.3678 109.847 60.0614 110.048C60.7562 110.25 61.1558 110.976 60.9542 111.671Z" fill="#007AC5"/>
<path d="M65.8332 7.91271L66.3384 10.0391L64.9476 9.89151L65.8332 7.91271ZM68.7564 13.8815C68.94 13.8899 69.5208 13.8647 69.264 13.6691H69.3516C69.3192 13.4483 69.06 13.3595 68.9424 13.3715C68.4492 13.2155 68.3184 12.7475 68.1696 12.2867C67.8984 11.4407 67.6824 10.5419 67.47 9.74271L66.6744 6.75471C66.5472 6.26871 66.3312 5.29431 65.8116 6.15471C65.6868 6.35991 65.4624 6.86991 65.316 7.16871C64.548 8.73951 63.8184 10.3367 63.0096 11.8871C62.904 12.0899 62.8164 12.3407 62.6388 12.4895C62.3328 12.7475 62.3088 12.5435 61.9944 12.6395C61.8012 12.6983 61.6008 12.7847 61.7232 13.0235C61.8384 13.2467 62.394 13.1987 62.5908 13.2143C62.9292 13.2407 64.1376 13.5971 64.2204 13.1519C64.3512 12.4535 63.4128 13.2959 63.8952 12.1463C64.0596 11.9003 64.2984 10.7891 64.6164 10.6007C64.7676 10.5107 66.3972 10.6799 66.528 10.8023C66.6468 10.9139 66.678 11.3735 66.72 11.5319C66.8328 11.9603 66.9564 12.3875 67.0572 12.8195L67.1436 13.1483L67.0236 13.3307C67.0476 13.5587 67.0764 13.7063 67.4256 13.7147C67.8648 13.7723 68.3136 13.8599 68.7552 13.8815H68.7564ZM82.5684 19.2527C83.4336 19.7171 84.7368 19.9847 85.6704 19.5935C86.7084 19.2587 87.5268 18.5315 88.056 17.5847L87.9792 17.5415L88.056 17.5835C89.3484 15.2483 88.014 12.9047 85.68 11.9795C85.2564 11.8115 84.462 11.4911 84.0192 11.7599C83.8164 11.8835 83.5272 12.5663 83.4528 12.8099C83.3832 13.0355 83.28 13.3235 83.5896 13.3667C83.8308 13.4003 83.9496 12.9971 84.0816 12.8759C84.3288 12.6515 84.5796 12.5639 84.9252 12.5711C86.8692 12.6095 87.7008 14.8451 87.114 16.4411C86.538 16.1219 85.9572 15.8063 85.3836 15.4811C85.1856 15.3683 84.558 14.7503 84.3816 14.7863C84.0336 14.9471 83.6472 15.4847 83.4612 15.7415C83.0052 16.4855 84.3 15.8567 84.3336 15.8519C84.9696 15.8783 85.9632 16.5791 86.4876 16.9379C86.8344 17.1743 86.856 17.0807 86.574 17.5163C86.3136 17.9183 85.998 18.2999 85.596 18.5687C84.8196 19.0883 83.8908 19.0439 83.0412 18.5927C82.3356 18.2183 81.702 17.7311 81.9384 16.8599C82.032 16.5143 82.0896 16.0151 81.5568 16.3907C81.3024 16.5707 80.6556 17.5295 80.8656 17.9147C81.1116 18.4955 82.0488 18.9731 82.5684 19.2527ZM93.3924 26.8415C93.5688 26.4167 92.6964 26.2487 93.24 25.8539C93.7536 25.2095 94.386 24.6479 94.9692 24.0659C94.8804 25.3931 94.5984 27.3095 94.9572 28.4867C95.01 28.8827 95.3028 29.2595 95.5944 29.5655L96.0096 29.9807C96.36 30.3023 96.7872 30.3635 96.5652 29.7911L96.2076 29.1599C96.03 28.6331 96.0588 28.0295 96.0504 27.4715C96.0396 26.7275 96.054 25.9823 96.0672 25.2395L96.0828 24.5003C96.0948 23.9711 96.1272 24.0383 96.654 24.0371C97.5048 24.0359 98.3568 24.0455 99.2076 24.0611C99.5988 24.0683 99.9528 24.1103 100.312 24.2759C100.427 24.3287 100.643 24.5627 100.771 24.5351C101.401 24.3971 100.536 23.7131 100.38 23.5619C100.178 23.3651 99.972 23.0267 99.738 22.8899C99.3888 22.6859 99.4536 22.8299 99.2436 23.0063C99.054 23.1659 99.4104 23.1239 99 23.2271C98.7336 23.2943 98.3592 23.2487 98.0904 23.2511L95.7468 23.2883C96.2208 22.8155 96.7296 22.0451 97.3032 21.7343C97.7592 21.4871 97.6308 21.8591 98.0364 21.8591C98.4192 21.8591 98.3112 21.5435 98.1948 21.3443C97.9668 20.9543 97.3392 20.4779 96.9984 20.1479C96.7344 19.8935 96.108 19.5779 96.3552 20.2463C96.57 20.8259 96.7512 20.6363 96.2052 21.1883L94.9632 22.4279L93.4752 23.9123C93.1512 24.2339 92.6592 24.9215 92.2176 25.0727C91.926 25.1723 91.62 24.8015 91.41 24.9995C91.0824 25.3091 92.0904 26.0003 92.2812 26.2175C92.448 26.4011 93.1716 27.3683 93.3912 26.8391L93.3924 26.8415ZM105.816 33.1859C106.708 33.4883 107.472 34.3667 107.592 35.3735C107.756 36.7511 106.771 37.8575 105.631 38.4623C104.756 38.9255 103.655 39.2291 102.724 38.7323C101.576 38.1203 101.164 36.6731 101.62 35.4947C102.215 33.9791 104.196 32.7719 105.817 33.1871L105.816 33.1859ZM105.482 39.8927C107.856 39.2615 109.531 36.4079 107.987 34.2527C107.654 33.1223 106.279 32.3243 105.184 32.1407C103.345 31.8335 101.417 32.8691 100.705 34.6067C99.5076 37.5095 102.454 40.6991 105.482 39.8927ZM105.77 48.0239C105.62 47.9111 105.706 47.5187 105.397 47.5559C105.152 47.5859 105.181 47.8727 105.179 47.9435C105.167 48.4043 105.403 49.0139 105.484 49.4879C105.518 49.6907 105.532 50.3579 105.887 50.3339C106.038 50.3231 106.158 50.1539 106.058 50.0615C106.372 49.8839 105.833 49.5287 106.51 49.3031C107.112 49.1015 107.778 49.0223 108.4 48.9023C108.559 48.8711 109.045 48.7007 109.152 48.7799C109.399 48.9599 109.469 50.4131 109.524 50.6987L109.868 52.4795C109.002 52.6475 107.873 53.0687 107.03 52.9715C106.655 52.9283 106.888 52.9631 106.65 52.7279C106.511 52.5899 106.531 52.4399 106.321 52.4639C105.977 52.5935 106.378 55.0739 106.697 55.2047C106.937 55.3031 107.035 55.0895 107.066 54.9311C107.149 54.5075 106.884 54.3431 107.352 54.2303C108.698 53.8523 110.112 53.6519 111.486 53.3879C111.935 53.3015 112.406 53.1647 112.861 53.1227C113.3 53.0819 113.243 53.1335 113.478 53.3855C113.574 53.4887 113.713 53.6663 113.785 53.6459C114.248 53.5511 113.837 52.5743 113.784 52.3007C113.724 51.9923 113.744 51.5819 113.617 51.2951C113.504 51.0395 112.994 50.7743 113.078 51.2879C113.245 51.8507 112.877 51.8975 112.35 51.9995C112.076 52.0523 110.825 52.4771 110.609 52.3127C110.522 52.2479 110.502 51.7619 110.482 51.6599L110.236 50.3939L109.89 48.6119L111.209 48.3575C111.473 48.3071 111.779 48.1931 112.045 48.1955C112.294 48.1979 112.319 48.2255 112.512 48.4271C112.662 48.5831 112.816 49.0115 113.047 48.5543C113.126 48.3983 112.975 48.0227 112.943 47.8811C112.829 47.3747 112.748 46.8647 112.661 46.3523C112.63 45.9791 112.05 45.9851 112.134 46.3979C112.706 47.0339 110.916 47.1911 110.686 47.2367C109.628 47.4407 108.574 47.6495 107.515 47.8475C107.208 47.9063 106.123 48.2879 105.772 48.0239H105.77ZM107 66.8543C105.655 62.6963 113.783 61.9043 113.326 66.2567C113.004 69.3059 107.878 69.4019 107 66.8543ZM106.274 64.8743C105.818 66.7739 106.632 68.7659 108.458 69.5867C109.716 70.1519 111.785 70.1819 112.675 69.1439C113.965 68.2187 114.344 66.0959 113.875 64.6595C112.703 61.0679 107.159 61.1963 106.274 64.8743ZM105.155 76.6019C104.983 76.5059 104.67 76.4111 104.578 76.2491C104.442 76.0127 104.69 75.8279 104.587 75.6131C104.256 74.9231 103.736 76.5119 103.621 76.7639C103.522 76.9799 103.099 77.8295 103.692 77.6771C103.862 77.6327 103.986 77.2943 104.064 77.1539C105.25 77.8967 106.672 78.5075 107.936 79.1783C106.998 79.2059 106.061 79.2251 105.172 79.2839C104.549 79.3247 103.924 79.3571 103.301 79.4075C102.862 79.4423 102.256 79.3991 102.497 79.9991C102.71 80.5283 103.484 81.1271 103.847 81.5387L105.968 83.9435C104.561 83.4935 103.067 83.1419 101.701 82.5803C101.45 82.4771 101.563 82.1507 101.18 82.5215L101.087 82.6763C100.897 82.9679 100.784 83.3867 100.646 83.7083C100.56 83.9111 100.186 84.5411 100.579 84.6443C100.926 84.7355 100.981 84.1499 101.183 83.9915C101.576 83.6819 102.181 83.9927 102.611 84.1235L105.568 85.0163C106.283 85.2323 107.032 85.5503 107.768 85.6811C108.569 85.8227 108.262 85.2491 107.918 84.8663L104.023 80.5211L108.055 80.3171C108.734 80.2823 109.421 80.2763 110.098 80.2139C110.4 80.1863 111.1 79.9871 110.484 79.5995C108.714 78.5879 106.93 77.5991 105.152 76.6007L105.155 76.6019ZM101.815 94.0715C101.43 94.2287 101.59 94.4639 101.16 94.2323C100.776 94.0247 100.388 93.5363 100.056 93.2375L97.6728 91.0895C97.2516 90.7091 96.846 90.2699 96.39 89.9303C95.8176 89.5043 95.6916 89.8667 95.7936 90.4295C96.1992 92.6363 96.5616 94.8467 96.8532 97.0715L95.0604 95.4539C94.6656 95.0975 93.3408 94.2275 93.3336 93.6971C93.3312 93.5267 93.6312 93.4067 93.5328 93.1931C93.3204 92.7323 92.8848 93.3503 92.7324 93.5303C92.5104 93.7919 91.02 95.1599 91.7496 95.2415C91.986 95.2679 92.0736 94.9319 92.2608 94.8755C92.4972 94.8035 92.628 94.9451 92.8236 95.0903C93.6924 95.7359 94.4724 96.5399 95.2764 97.2659C95.64 97.5935 97.5816 99.7571 97.9884 99.3167C98.136 99.1559 98.0184 98.8331 97.9872 98.6639C97.8792 98.0879 97.7844 97.5107 97.6884 96.9335L97.5132 95.8679C97.3116 94.6019 97.134 93.3359 96.9624 92.0651L98.7792 93.7043L99.954 94.7627C100.082 94.8779 100.472 95.1419 100.504 95.3339C100.546 95.5847 100.182 95.7515 100.343 96.0083C100.498 96.2531 100.723 96.0119 100.864 95.9099C101.136 95.7131 102.392 94.4207 102.251 94.1219C102.175 93.8915 101.948 94.0175 101.814 94.0727L101.815 94.0715ZM88.9512 105.395C88.7172 105.324 88.5792 104.896 88.476 104.724L87.6828 103.405C87.078 102.402 86.3424 101.388 85.8732 100.318C85.8144 100.183 85.6812 100.009 85.7124 99.8615C85.746 99.7031 86.0172 99.6695 86.0424 99.4895C86.0796 99.2267 85.8912 99.1667 85.6512 99.2075C85.3968 99.2519 85.1268 99.5447 84.9072 99.6791L83.8488 100.285C83.412 100.453 83.7312 100.814 84.0456 100.783C84.5508 100.733 84.372 100.434 84.7536 100.856C85.2684 101.428 85.6656 102.294 86.07 102.968C85.5072 102.788 84.9396 102.608 84.366 102.463C83.3616 102.143 81.8532 101.604 80.8752 102.084C80.5848 102.227 80.2008 102.413 79.9536 102.622C79.5924 102.929 79.6368 103.198 80.1192 103.138C80.436 103.098 80.634 102.934 80.9736 102.932C81.4692 102.931 81.9744 103.072 82.4508 103.182C83.0484 103.32 83.6412 103.481 84.234 103.636L85.266 103.913C85.3488 103.936 85.7784 103.993 85.8204 104.066C85.8804 104.17 85.6836 104.64 85.6512 104.77C85.428 105.662 85.2384 107.153 84.7128 107.924C84.66 108 84.2244 108.353 84.2196 108.474C84.2088 108.75 84.4596 108.857 84.6732 108.712C85.0368 108.478 85.752 108.202 86.0424 107.887C86.4396 107.459 85.9812 107.524 85.89 107.252C85.7904 106.957 86.1084 106.184 86.1768 105.893L86.6364 103.909L87.528 105.397C87.6108 105.536 87.8916 105.876 87.8532 106.062C87.798 106.328 87.4092 106.33 87.4656 106.64C87.564 107.178 88.56 106.345 88.7208 106.25C88.7976 106.205 90.4572 105.254 89.6172 105.193C89.5788 105.14 89.0892 105.437 88.9512 105.395ZM75.846 111.634C75.6948 111.547 75.6888 111.346 75.6408 111.196C75.4572 110.614 75.3468 109.996 75.1968 109.403C74.9604 108.47 74.6748 107.312 74.4264 106.309C74.2872 105.75 73.9776 103.837 73.3644 105.218C72.4548 107.269 71.5308 109.308 70.5288 111.316C70.2852 110.334 70.0368 109.355 69.7992 108.372C69.6924 107.929 69.2604 106.903 69.5832 106.508C69.7008 106.364 69.9984 106.382 69.9516 106.129C69.8772 105.733 67.7556 106.316 67.4868 106.46C66.9792 106.733 67.2492 106.944 67.6032 106.981C67.9872 107.022 68.1432 106.775 68.2368 107.239C68.6436 108.491 68.9148 109.795 69.2316 111.073C69.3264 111.454 69.6156 113.861 70.194 113.816C70.6764 113.672 71.0832 112.133 71.2968 111.665L71.742 110.693C72.2808 109.528 72.846 108.376 73.4184 107.226L74.0472 109.757C74.1852 110.312 74.76 111.581 74.3916 112.057C74.2752 112.207 73.9464 112.171 74.0256 112.445C74.1132 112.75 74.412 112.606 74.5968 112.567C74.982 112.486 76.7208 112.244 76.6476 111.782C76.5504 111.374 76.0764 111.764 75.8448 111.632L75.846 111.634ZM49.5588 108.557C49.5012 108.804 49.4232 109.661 49.2288 109.776C48.9648 109.933 48.2424 109.435 48.0672 109.247C47.8164 108.979 47.6604 108.619 47.604 108.259C47.508 107.646 47.6316 106.78 48.27 106.502C48.594 106.372 49.8876 106.417 49.8876 106.964C49.8876 107.474 49.674 108.062 49.56 108.558L49.5588 108.557ZM47.4852 112.156C47.2824 111.565 47.3952 110.729 47.928 110.335L48.1848 110.189C48.2808 110.23 49.0488 110.303 49.1244 110.441C49.1724 110.527 49.0092 110.935 48.9876 111.029L48.5784 112.793C48.096 112.793 47.6352 112.517 47.4852 112.156ZM50.4912 106.121C49.7496 105.93 49.0512 105.648 48.2688 105.766C46.1496 106.084 45.7332 108.637 47.3628 109.858C46.182 110.675 45.6768 112.362 47.2956 113.142C48.0972 113.528 49.1556 113.617 50.0196 113.842C50.1252 113.882 50.3928 113.852 50.4288 113.65C50.4672 113.43 50.2644 113.417 50.13 113.322C49.8396 113.12 49.818 113.118 49.6956 112.909C49.9272 112.688 49.9896 111.848 50.0748 111.482L50.6016 109.204C50.6904 108.824 50.8836 107.114 51.2964 106.876C51.36 106.838 52.3308 106.874 51.8004 106.444C51.5016 106.195 50.8656 106.216 50.4924 106.12L50.4912 106.121ZM35.3436 100.543C35.6148 100.396 35.4324 100.174 35.2812 100.032C34.9548 99.7283 34.3632 99.5219 33.9744 99.2843C33.7872 99.1691 33.2868 98.7551 33.0636 98.9927C32.7684 99.3071 33.3576 99.4523 33.4668 99.6371C33.6564 99.9539 33.2556 100.465 33.0924 100.759C32.616 101.616 32.1144 102.462 31.6236 103.312C31.3848 103.724 30.5988 105.653 30.018 105.217C29.9628 105.176 29.718 105.187 29.6556 105.337C29.5032 105.707 30.3612 105.997 30.5664 106.112C30.8592 106.278 31.1748 106.585 31.4928 106.678C31.7808 106.76 32.2296 106.519 31.824 106.26C31.6908 106.184 31.5888 106.096 31.5276 105.952C31.728 105.27 32.3112 104.52 32.6724 103.895C33.2844 102.836 33.8376 101.663 34.5768 100.692C34.9596 100.201 34.9272 100.772 35.3448 100.546L35.3436 100.543ZM37.3044 104.834C37.248 104.932 37.0896 105.33 36.9792 105.367C36.6048 105.494 35.9724 104.552 35.9088 104.414C35.6604 103.608 35.8968 102.134 36.9216 102.028C37.4196 101.965 38.2248 102.368 38.3796 102.893C38.286 103.535 37.6176 104.294 37.3056 104.833L37.3044 104.834ZM38.3016 101.747C36.9708 100.981 35.1684 101.207 34.6344 102.836C34.3872 103.594 34.632 104.389 35.1432 104.978C35.4696 105.353 36.1608 105.547 36.4416 105.924L36.5472 106.145C36.5448 106.28 36.3156 106.543 36.2496 106.66C36.0168 107.062 35.8188 107.536 35.532 107.9C35.1612 108.372 35.3064 108.014 34.8864 108.053C34.5024 108.089 34.524 108.328 34.77 108.572C34.9128 108.714 35.2044 108.803 35.3868 108.905C35.6988 109.079 36.0672 109.43 36.3972 109.513C36.5556 109.553 36.6876 109.688 36.8388 109.489C37.062 109.194 36.6336 109.13 36.534 108.952C36.306 108.541 36.7872 108.047 36.9996 107.68C37.5036 106.808 38.004 105.936 38.5116 105.066C38.8008 104.569 39.0684 103.943 39.462 103.514C39.894 103.044 39.63 103.46 40.1376 103.391C40.4076 103.337 40.488 103.042 40.1832 102.866C39.5388 102.514 38.9364 102.112 38.3004 101.746L38.3016 101.747ZM23.7228 90.5147C23.628 90.4919 23.4456 90.5447 23.3076 90.6167C23.1216 90.7223 22.2636 91.2263 22.3404 91.3883L22.2708 91.3319C21.9312 91.6451 22.2828 91.8131 22.5468 91.7939C22.6692 91.7843 22.9788 91.5599 22.962 91.5695C23.6592 91.3115 24.2388 91.7951 24.7092 92.2727C25.644 93.2447 25.9092 94.6739 25.344 95.9087C24.8424 97.0019 23.5152 98.1431 22.2432 97.9991C21.1092 97.8719 19.7112 96.6191 19.5804 95.4623C19.5156 94.8839 19.9644 94.7567 20.0556 94.3283C20.1168 94.0451 19.866 93.8351 19.6152 94.0415C19.152 94.3775 18.1848 94.9715 18.3672 95.5295C18.4608 95.8163 18.8376 96.1811 19.0212 96.4331C19.5012 97.0931 20.0436 97.7219 20.7216 98.1887C21.9444 99.0299 23.496 99.1463 24.7788 98.3687C25.3692 98.0111 25.8828 97.4963 26.256 96.9167C26.454 96.6083 27.144 95.2439 26.7984 94.9487C27.0012 94.4351 26.5764 93.4799 26.2932 92.9807C25.8072 92.1143 24.7596 90.7655 23.7228 90.5135V90.5147ZM18.7536 85.1483C19.092 85.0139 18.9936 85.2791 19.32 85.4195C19.4688 85.4843 19.8276 85.5611 19.6752 85.2395C19.7844 84.9251 19.2372 84.1619 19.0512 83.7647C18.6048 82.8047 18.1524 81.8483 17.7108 80.8871C17.1744 79.7171 16.6248 78.5603 16.08 77.3867C15.8568 76.9067 15.6876 76.1255 15.348 75.7451C15.2088 75.5903 15.0624 75.3863 14.862 75.6131C14.6568 75.8447 15.0576 76.1675 14.9808 76.4051C14.8404 76.8383 13.0128 77.4623 12.7464 77.5859L10.2336 78.7559C9.97683 78.8759 9.42843 79.2407 9.14883 79.1471C8.96163 79.0835 8.61483 78.2915 8.46243 78.9803C8.39643 79.2779 8.81763 79.7747 8.93763 80.0279C9.10443 80.3819 9.20403 80.9003 9.48843 81.1835C10.1352 81.6191 9.71163 80.4959 9.77043 80.3639C9.95403 79.9535 11.412 79.5311 11.7768 79.3607L13.6056 78.5099C14.0868 78.2867 14.6844 77.8343 15.192 77.8139C15.54 77.8007 15.3108 77.7359 15.5076 77.9507C15.7812 78.2471 15.9348 78.8687 16.1052 79.2335C16.1832 79.4015 16.614 80.0411 16.5708 80.2331C16.4796 80.6351 15.0252 81.0575 14.6112 81.2519L12.7176 82.1315C12.2748 82.3379 11.2308 83.0591 10.8048 82.7999C10.6356 82.6967 10.692 82.4183 10.398 82.4627C10.134 82.5023 10.2144 82.7447 10.2456 82.9091C10.2984 83.1923 10.5576 83.5151 10.68 83.7779C10.7928 84.0179 10.9152 84.6767 11.1744 84.8075C11.5608 85.0019 11.6748 84.5507 11.5176 84.3875C11.3496 83.8055 12.6936 83.4683 13.0824 83.2871C14.1192 82.8023 15.3324 82.3031 16.254 81.8123C16.278 81.8027 17.1168 81.4007 17.1588 81.4979C17.478 82.1711 17.8032 82.8731 18.1284 83.5751C18.24 83.8175 18.2952 83.8295 18.1968 83.9879C18.0276 84.2603 17.3028 84.4523 16.9872 84.6011C15.7032 85.2047 14.424 85.8743 13.1088 86.4083C12.8124 86.5283 12.7272 86.5499 12.4788 86.4107C12.3072 86.3147 12.0264 85.8071 11.9016 86.3699C11.8248 86.7167 12.5196 87.7823 12.6828 88.1219C12.7752 88.3139 12.8532 88.6823 13.146 88.6199C13.59 88.5239 13.152 88.1111 13.1916 87.8987C13.2768 87.4451 14.0316 87.3011 14.4228 87.1187C15.8244 86.4683 17.2116 85.7339 18.66 85.1903L18.756 85.1471L18.7536 85.1483ZM9.94083 68.3099L7.80483 67.9295L9.74763 66.9263L9.94083 68.3087V68.3099ZM13.266 70.1975C13.332 70.3187 13.2672 70.4939 13.3584 70.6043C13.572 70.8647 13.9392 70.7339 13.8228 70.3295C13.7844 70.0367 13.764 68.4107 13.4136 68.2535C13.008 68.0711 13.0776 68.6483 12.9996 68.8283C12.5016 68.8799 11.916 68.6915 11.4048 68.5943C10.716 68.4635 10.7136 68.5115 10.6176 67.8215C10.5516 67.3487 10.3224 66.7823 10.6128 66.4643C10.9212 66.1271 11.8764 65.6735 12.3228 65.5271L12.6072 65.3783L12.762 65.4779C13.1496 65.3243 13.0584 65.0483 13.014 64.6751C12.9864 64.4399 13.0008 63.1031 12.5832 63.1235C12.2124 63.1415 12.366 63.5999 12.33 63.8195C12.1668 64.2635 11.6364 64.5167 11.25 64.7423C10.3224 65.2799 9.38163 65.7947 8.44323 66.3131L7.08603 67.0619C6.84603 67.1939 5.68443 67.6499 5.65083 68.0147C5.59563 68.6003 9.03723 69.0059 9.39723 69.0839L12.4284 69.7319C12.762 69.7883 13.098 69.8939 13.266 70.1999V70.1975ZM6.53763 52.4459C6.63963 52.3775 7.15203 52.5215 7.26963 52.5371C7.80603 52.6031 8.85723 52.5215 9.32403 52.7915C10.0632 53.2187 8.86203 54.4391 8.37123 54.6155C7.41243 54.9587 6.13443 54.5363 6.28323 53.3435C6.31323 53.1611 6.38403 52.5503 6.53763 52.4471V52.4459ZM9.65043 54.8927C10.4484 55.4831 11.472 56.1491 11.994 57.0143C12.2172 57.3839 12.126 57.6635 12.2244 58.0223C12.2652 58.1687 12.288 58.3499 12.4716 58.3487C12.8244 58.3475 12.8112 57.6287 12.8388 57.3575C12.9732 56.0699 12.1968 55.4003 11.2296 54.6095C10.938 54.3707 10.2744 54.0251 10.1796 53.6783C9.89043 52.6223 10.878 52.9787 11.4972 53.0651C11.928 53.1251 12.594 53.0951 12.75 53.5307C12.792 53.6483 12.6852 54.3239 12.99 54.1283C13.3344 54.3215 13.3836 52.7291 13.4148 52.5179C13.4292 52.4171 13.662 50.9339 13.086 51.5051C12.8088 51.9299 12.996 51.9947 12.33 51.9659C11.3724 51.9239 10.41 51.7535 9.45723 51.6359L7.57923 51.4043C7.06443 51.3407 6.35523 51.3899 6.48483 50.7071C6.49683 50.5547 6.44163 50.4539 6.28323 50.4035L6.25803 50.4875C6.15003 50.2919 6.03243 50.5199 5.95203 50.7155C5.81523 51.0503 5.88123 51.5495 5.82243 51.9131C5.69163 52.7207 5.42403 53.5967 5.70723 54.3551C6.21363 56.2223 8.62083 56.4263 9.65163 54.8915L9.65043 54.8927ZM29.3496 23.9531C29.0148 23.7431 28.8804 24.1979 28.5888 24.1703C28.446 24.1559 28.212 23.8619 28.1196 23.7611C27.618 23.2163 27.1848 22.6007 26.7312 22.0163C28.1304 22.2863 29.6676 22.6403 31.0848 22.5755C31.638 22.5299 32.4984 22.0691 32.868 21.5963C33.1608 21.2207 33.0612 21.0131 32.6076 21.1283L32.1276 21.3623C31.2936 21.6251 30.2004 21.3539 29.3592 21.2447C28.8492 21.1787 28.338 21.1115 27.828 21.0383C27.6012 21.0059 27.282 21.0299 27.0876 20.9303C26.82 20.7935 26.9484 21.0359 26.8632 20.7011C26.8224 20.5391 26.9184 20.2391 26.9388 20.0771C27.0348 19.3115 27.1332 18.5423 27.2448 17.7791C27.288 17.4803 27.336 17.1899 27.4812 16.9187C27.582 16.7315 28.0368 16.3775 27.8448 16.1387C27.576 15.8027 26.9028 16.5815 26.706 16.7327C26.5356 16.8635 26.2248 16.9871 26.1096 17.1635C25.8636 17.5439 26.0796 17.4227 26.238 17.6435L26.3916 17.8151C26.4948 18.0827 26.3028 18.8087 26.2728 19.0871L26.0544 21.1475L25.2108 20.0651C25.0632 19.8743 24.7956 19.6439 24.7032 19.4147C24.5652 19.0715 24.6696 19.2011 24.774 18.8843C24.8628 18.6131 25.0416 18.2651 24.48 18.4403C24.1176 18.5531 23.6736 19.0943 23.3592 19.3235C23.2068 19.4339 22.4712 19.8467 22.74 20.1419C23.022 20.4503 23.3484 19.8383 23.718 20.0483C24.198 20.3219 24.7716 21.3887 25.1064 21.8183C25.8588 22.7819 26.9568 23.9111 27.4344 24.9383C27.4812 25.1219 26.7828 26.0435 27.6552 25.6607C27.9984 25.5107 28.3512 25.0883 28.6644 24.8567C28.9428 24.6515 29.616 24.3383 29.3496 23.9495V23.9531ZM38.8188 16.5983C37.2552 16.0835 35.952 13.9487 36.4128 12.3191C36.8244 10.8623 38.5392 10.1507 39.9 10.7231C41.2392 11.2847 42.1428 12.9755 42.1428 14.3939C42.1428 16.0823 40.3416 17.0999 38.8188 16.5995V16.5983ZM37.8456 9.95871C35.9556 10.7207 34.8612 12.6599 35.406 14.6687C36.0108 16.8983 38.2824 18.2459 40.4928 17.4323C42.6012 16.6559 43.7364 14.4311 42.9684 12.2807C42.192 10.0943 40.0056 9.08751 37.8456 9.95871ZM56.6244 12.6143C55.758 12.3275 55.2276 10.7951 54.8184 10.0607C54.1368 8.83551 53.5212 7.51791 52.764 6.33831C52.2288 5.50311 52.0332 6.27591 51.9216 6.79791L51.0132 11.0459C50.8428 11.8451 50.796 13.5155 49.8756 13.5995C49.7568 13.6115 49.6116 13.7243 49.6296 13.8887C49.7304 14.3015 51.876 13.9787 52.122 13.7111C52.3848 13.2839 51.7128 13.4267 51.5988 13.3247C51.4236 13.1675 51.6168 12.6179 51.6624 12.3779C51.9396 10.9295 52.1988 9.53991 52.4568 8.08311C53.1864 9.49191 53.8704 10.7855 54.618 12.1547C54.7356 12.3707 54.9492 12.6347 55.0104 12.8747C55.026 12.9323 54.8592 13.0439 54.906 13.1399C55.0356 13.4063 55.2564 13.3307 55.5012 13.3187C55.836 13.3031 57.2376 13.3235 57.2652 12.8339C57.1404 12.4487 56.8824 12.7007 56.6256 12.6167L56.6244 12.6143ZM11.6592 35.3351C11.8092 35.3027 12.06 35.5031 12.2004 35.5883C12.9228 36.0215 13.6308 36.4823 14.3448 36.9299C15.1344 37.4255 15.9984 37.8767 16.7232 38.4587L16.8444 38.5499C17.25 39.0119 16.8708 38.6603 16.968 39.0899C17.0868 39.6131 17.3508 39.4631 17.5968 39.0611C17.8764 38.6027 18.1488 38.1419 18.4344 37.6871C19.158 36.5303 20.0088 35.3087 20.6592 34.1795C21.3612 32.9603 22.1592 31.7783 22.9152 30.5807C23.0628 30.3875 22.9596 30.0659 22.6476 30.1295C22.4592 30.1679 22.2552 30.5663 22.1964 30.6323C21.8256 30.6647 21.3924 30.2999 21.0828 30.1139C20.4168 29.7119 19.7604 29.2931 19.1004 28.8791C18.4164 28.4507 17.4516 28.0667 16.8912 27.4955C16.5444 27.1415 16.7724 27.3299 16.7736 26.9819C16.7736 26.7971 16.9404 26.5223 16.5576 26.5379C16.2348 26.5511 15.9564 27.3335 15.828 27.5387C15.6672 27.7955 15.012 28.4507 15.1848 28.7903C15.402 29.2187 15.7812 28.5131 16.0212 28.4003C16.7208 28.6871 17.448 29.2595 18.1092 29.6735C19.0992 30.2927 20.2128 31.0367 21.1104 31.5923C21.3924 31.8623 21.0024 32.1551 20.814 32.4551C20.6364 32.7395 20.118 33.9659 19.8024 34.0679C19.5492 34.1507 18.6528 33.4427 18.414 33.2951L16.6452 32.1899C16.0428 31.8119 15.2976 31.4723 14.7588 31.0103C14.6292 30.8999 14.5152 30.8147 14.5008 30.6779C14.4756 30.4523 14.8536 30.2759 14.5416 30.0563C14.2356 29.8427 12.7956 31.9103 13.1376 32.2571C13.4628 32.4443 13.4616 32.0795 13.6644 31.9847C14.0172 31.8179 14.454 32.2331 14.7768 32.4359L17.2644 33.9923C17.6976 34.2647 18.5544 34.6655 18.8808 35.0459C19.1196 35.3243 19.0476 35.1275 18.9216 35.4791C18.8112 35.7887 18.5316 36.1019 18.3576 36.3803C18.1872 36.6527 17.9928 37.1555 17.7432 37.3619L17.5428 37.4627C17.2632 37.4711 16.6452 36.9539 16.3968 36.8003L14.4768 35.6003C14.2644 35.4683 12.7416 34.3331 12.5208 34.4807C12.5952 34.3007 12.3768 34.3487 12.3528 34.1411L12.4728 33.8375C12.4236 33.4427 12.324 33.3371 11.9652 33.6551C11.7012 33.8891 11.5332 34.3967 11.3328 34.7051C11.25 34.8311 10.4352 35.8343 11.082 35.8343C11.3652 35.8343 11.3952 35.3939 11.658 35.3375L11.6592 35.3351Z" fill="#007AC5"/>
<path d="M12.5603 44.2415C12.3587 44.9363 11.6327 45.3359 10.9379 45.1343C10.2431 44.9339 9.84351 44.2067 10.0439 43.5131C10.2455 42.8183 10.9715 42.4187 11.6663 42.6191C12.3611 42.8207 12.7607 43.5467 12.5603 44.2415Z" fill="#007AC5"/>
<path d="M42.6919 87.9947L44.4667 84.5423V36.3059H52.2943V84.4895H57.8275V65.6699H65.0515V84.4703H71.3131V75.9035C71.3131 70.7123 71.0443 63.4907 65.2015 59.7611L68.6047 58.5107C75.6475 61.1303 79.1731 67.9667 79.1731 76.9751V84.5447L80.9467 87.9947H42.6907H42.6919ZM56.6275 30.5843L56.9203 30.5891H59.8687C65.6899 30.5891 68.1271 31.6139 70.8847 33.7391C74.8951 36.8843 75.5287 41.4479 75.5287 43.7327C75.5287 46.5659 74.6611 49.5575 72.5371 51.9959C70.9627 53.8835 68.2255 56.6255 62.8579 57.2663C59.1883 57.7115 56.4775 57.5471 55.1251 57.4007V54.5195C55.7275 54.6011 56.6143 54.6815 57.8227 54.6815C61.4743 54.6815 64.0615 52.8539 65.6347 50.8847C67.4227 48.7139 67.7971 46.6691 67.8751 44.8415H57.8287V42.0107H67.7863C67.5319 40.0979 66.8011 38.6363 65.6143 37.1999C63.3319 34.3667 60.1051 33.8951 57.9787 33.8951L43.6327 33.8891L41.9395 30.5831H56.6287L56.6275 30.5843ZM16.9531 59.8235C16.9531 83.4971 36.1507 102.695 59.8231 102.695C83.4955 102.695 102.696 83.4959 102.696 59.8235C102.696 36.1499 83.4955 16.9535 59.8231 16.9535C36.1507 16.9535 16.9531 36.1511 16.9531 59.8235Z" fill="#007AC5"/>
</svg>
